<svg xmlns="http://www.w3.org/2000/svg" viewBox="0 0 675.31 516.5"><defs><style>.cls-1{fill:#f0f0f0;}.cls-2,.cls-3,.cls-5,.cls-8{fill:none;}.cls-2,.cls-5,.cls-8{stroke:#323433;}.cls-2,.cls-3,.cls-5{stroke-linecap:round;stroke-linejoin:round;}.cls-2,.cls-3{stroke-width:1.74px;}.cls-3{stroke:#1d1d1b;}.cls-4{fill:#fff;}.cls-5{stroke-width:2.61px;}.cls-6{fill:#323433;}.cls-7{fill:#52cca7;}.cls-8{stroke-miterlimit:10;stroke-width:11.3px;}</style></defs><title>Asset 32</title><g id="Layer_2" data-name="Layer 2"><g id="graphic"><ellipse class="cls-1" cx="337.65" cy="473.78" rx="337.65" ry="42.72"/><line class="cls-2" x1="467.46" y1="37.23" x2="480.79" y2="50.57"/><line class="cls-2" x1="467.46" y1="50.57" x2="480.79" y2="37.23"/><polyline class="cls-2" points="513.21 19.35 524.52 10.58 535.83 19.35 547.15 10.58 558.46 19.35 569.78 10.58"/><circle class="cls-3" cx="540.63" cy="84.55" r="28.47"/><circle class="cls-3" cx="540.63" cy="84.55" r="17.06"/><line class="cls-3" x1="557.69" y1="84.55" x2="569.11" y2="84.55"/><line class="cls-3" x1="540.63" y1="56.08" x2="540.63" y2="67.49"/><path class="cls-4" d="M322.66,211.21l-14.34,4.51a4.07,4.07,0,0,0,2.2,7.84l14.6-3.63q1.94,7.73,3.12,15.73a48.13,48.13,0,0,0-19.15,28c-10.85,44.1-17.46,74.72-28.83,113.9h0A164.09,164.09,0,0,1,21.69,338.14c-55.23-91.55,6-239.32,140.37-242.4l-8.2,12.53a2.68,2.68,0,0,0,2.43,4.15l3-.2,12.87-.88c14.21-1,5.89-1.27,18.67-13.84l.09.1a161.8,161.8,0,0,1,24.58,5.73A164.41,164.41,0,0,1,322.66,211.21Z"/><line class="cls-2" x1="60.41" y1="458.43" x2="60.41" y2="465.85"/><line class="cls-2" x1="71.49" y1="443.98" x2="71.49" y2="465.85"/><line class="cls-2" x1="82.56" y1="432.95" x2="82.56" y2="465.85"/><line class="cls-2" x1="93.63" y1="424.25" x2="93.63" y2="465.85"/><line class="cls-2" x1="104.71" y1="417.32" x2="104.71" y2="465.85"/><line class="cls-2" x1="115.78" y1="411.86" x2="115.78" y2="465.85"/><line class="cls-2" x1="126.86" y1="407.67" x2="126.86" y2="465.85"/><line class="cls-2" x1="137.93" y1="404.63" x2="137.93" y2="465.85"/><line class="cls-2" x1="149" y1="402.64" x2="149" y2="465.85"/><line class="cls-2" x1="160.08" y1="401.65" x2="160.08" y2="465.85"/><line class="cls-2" x1="271.35" y1="458.43" x2="271.35" y2="465.85"/><line class="cls-2" x1="260.28" y1="443.98" x2="260.28" y2="465.85"/><line class="cls-2" x1="249.2" y1="432.95" x2="249.2" y2="465.85"/><line class="cls-2" x1="238.13" y1="424.25" x2="238.13" y2="465.85"/><line class="cls-2" x1="227.05" y1="417.32" x2="227.05" y2="465.85"/><line class="cls-2" x1="215.98" y1="411.86" x2="215.98" y2="465.85"/><line class="cls-2" x1="204.91" y1="407.67" x2="204.91" y2="465.85"/><line class="cls-2" x1="193.83" y1="404.63" x2="193.83" y2="465.85"/><line class="cls-2" x1="182.76" y1="402.64" x2="182.76" y2="465.85"/><line class="cls-2" x1="171.68" y1="401.65" x2="171.68" y2="465.85"/><line class="cls-2" x1="155.19" y1="160.05" x2="169.85" y2="174.71"/><line class="cls-2" x1="155.19" y1="174.71" x2="169.85" y2="160.05"/><line class="cls-5" x1="155.19" y1="160.05" x2="169.85" y2="174.71"/><line class="cls-5" x1="155.19" y1="174.71" x2="169.85" y2="160.05"/><circle class="cls-6" cx="113.25" cy="186.94" r="6.08"/><path class="cls-4" d="M610.68,391.29l50.39,80L657.26,473a21.56,21.56,0,0,1-5.39,1.56l-52-81.63-.05-.4Z"/><path class="cls-6" d="M599.86,392.94l52,81.63a21.52,21.52,0,0,1-16.27-4.15l-18.85-14.33c-4.47-3.39-12.23-11-18.55-12.73.08-.53.2-1.09.35-1.77a20.79,20.79,0,0,0-2.88-15.69l-19.51-30.62,23.65-2.74Z"/><path class="cls-4" d="M595.67,425.9a20.79,20.79,0,0,1,2.88,15.69c-.15.68-.27,1.24-.35,1.77a7.56,7.56,0,0,0-4.23-.1l-12.27,1.55-7.33-49.33,1.79-.2Z"/><path class="cls-7" d="M582.72,451.66l-122.59,13-14,1.49a36.59,36.59,0,0,1-40-41.93l1.71-11.08L426.17,301,428.31,288l37.9,2.44a35.37,35.37,0,0,0,32-16.54h0l-4.45,21.86L471.23,406.41l103.14-10.93,7.33,49.33Z"/><path class="cls-6" d="M498.21,273.88l-4.45,21.86a35.12,35.12,0,0,1-20.9,6.41l-38-.9-8.72-.21L428.31,288l37.9,2.44a35.37,35.37,0,0,0,32-16.54Z"/><path class="cls-4" d="M308.53,156.55l-12,3.85a164.72,164.72,0,0,0-27.25-28.08h0l30.3-9.62Z"/><path class="cls-6" d="M462.45,161.06l14,39.16-94.35,3.53h-3.71a28.28,28.28,0,0,0-11.24-17.28,22.35,22.35,0,0,1-6.62-28.26,13.35,13.35,0,0,0,.9-10.07l-.22-.73a7.25,7.25,0,0,0-9.13-4.76l-43.54,13.91-9-33.85L371.6,99.83s-9.92,22.51,12.87,14.84,31.65-29,31.65-29l20.13-6.39A38.05,38.05,0,0,1,483.66,103L499,148.19Z"/><path class="cls-6" d="M439.54,8.06c2,25-4.74,57-32.3,70.73h0c-4.31-11.17-7.87-22.24-11.57-34.7a8.39,8.39,0,0,0-1.72-16.32h-.08A5.9,5.9,0,0,0,389.69,29C376.35,39.44,355.2,40.37,345,26.79a8.51,8.51,0,0,0-2.45,9.12c2.53,7.63,2.85,13.73.91,20.39-8-11.64-13.57-27-1.69-40.51,22.79-25.88,47.9-10,55.62-5.8S425.25,22.74,439.54,8.06Z"/><path class="cls-4" d="M410.71,87.42l5.41-1.71s-8.87,21.3-31.66,29S371.6,99.84,371.6,99.84l5.08-1.62-1.87-22.11c-13.16,5.68-25.41,6.77-25.31-11a2.55,2.55,0,0,0-2-2.5l-3-.66a2.44,2.44,0,0,1-1.76-3.23c.3-.82.56-1.63.79-2.42,1.94-6.66,1.62-12.76-.91-20.39A8.51,8.51,0,0,1,345,26.79C355.2,40.37,376.35,39.44,389.69,29a5.9,5.9,0,0,1,4.17-1.28h.08a8.39,8.39,0,0,1,1.72,16.32c3.7,12.46,7.26,23.53,11.57,34.7h0Q408.89,83.08,410.71,87.42Z"/><path class="cls-4" d="M321.91,421.94l-4.48,21.8H287.51a20.85,20.85,0,0,1-14.79-6,23.79,23.79,0,0,0-9.13-5.54q.24-.7.45-1.44l2.4-8.81Z"/><path class="cls-6" d="M317.43,443.74,313.05,465H216.26a21.57,21.57,0,0,1,12.24-11.5l22.22-8.19a21.54,21.54,0,0,0,12.87-13.1,23.79,23.79,0,0,1,9.13,5.54,20.85,20.85,0,0,0,14.79,6Z"/><path class="cls-4" d="M313.05,465l-2,9.49H214l.64-4.11a21.69,21.69,0,0,1,1.58-5.38h96.79Z"/><path class="cls-5" d="M271.25,209.71a23.44,23.44,0,0,1-44.31,15,27.53,27.53,0,0,1-.95-2.78,23.42,23.42,0,0,1,16.34-28.84,23.92,23.92,0,0,1,3.16-.64,23.37,23.37,0,0,1,10.61,1"/><path class="cls-7" d="M259.47,182.71c-10.94,34.83-9.83,31.3-10.1,32.14l32.81-7.71A33.69,33.69,0,0,0,259.47,182.71Z"/><path class="cls-4" d="M190.63,97.55l-12.41,11.21a10.14,10.14,0,0,1-6.08,2.58l-12.87.88-3,.2a2.68,2.68,0,0,1-2.43-4.15l8.19-12.53.58-.89c.18-.26.36-.52.55-.77A13.83,13.83,0,0,1,173,88.65l17.73-1.57A16.91,16.91,0,0,1,204.19,92l11.28,11.34A162.25,162.25,0,0,0,190.63,97.55Z"/><path class="cls-5" d="M407.23,78.79c-4.31-11.17-7.87-22.24-11.57-34.7a8.39,8.39,0,0,0-1.72-16.32h-.08A5.9,5.9,0,0,0,389.69,29C376.35,39.44,355.2,40.37,345,26.79a8.51,8.51,0,0,0-2.45,9.12c2.53,7.63,2.85,13.73.91,20.39-.23.79-.49,1.6-.79,2.42A2.44,2.44,0,0,0,344.47,62l3,.66a2.55,2.55,0,0,1,2,2.5c-.1,17.77,12.15,16.68,25.31,11l1.87,22.11-5.08,1.62L269.23,132.31"/><path class="cls-8" d="M93,204.89A91.53,91.53,0,0,0,106,334.27c46,37.24,117.08,22.65,142.46-36.51"/><path class="cls-5" d="M495.17,288.81l-23.94,117.6,103.14-10.93,7.33,49.33,1,6.85-122.59,13-14,1.49a36.59,36.59,0,0,1-40-41.92l1.7-11.09L428.31,288"/><path class="cls-5" d="M216.26,465a21.69,21.69,0,0,0-1.58,5.38l-.64,4.11h97l2-9.49,4.38-21.24,4.48-21.8"/><path class="cls-5" d="M266.44,421.94l-2.4,8.81q-.21.74-.45,1.44a21.54,21.54,0,0,1-12.87,13.1l-22.22,8.19A21.57,21.57,0,0,0,216.26,465"/><polyline class="cls-5" points="216.26 464.98 216.26 464.98 313.05 464.98"/><path class="cls-5" d="M263.59,432.19a23.79,23.79,0,0,1,9.13,5.54,20.85,20.85,0,0,0,14.79,6h29.92"/><path class="cls-5" d="M581.7,444.81,594,443.26a7.56,7.56,0,0,1,4.23.1c6.32,1.73,14.08,9.34,18.55,12.73l18.85,14.33A21.52,21.52,0,0,0,657.26,473l3.81-1.67-50.39-80-10.87,1.25-23.65,2.74-1.79.2"/><line class="cls-5" x1="651.87" y1="474.57" x2="599.86" y2="392.94"/><path class="cls-5" d="M598.2,443.36c.08-.53.2-1.09.35-1.77a20.79,20.79,0,0,0-2.88-15.69l-19.51-30.62"/><path class="cls-5" d="M378.38,203.73a28.29,28.29,0,0,0-11.24-17.27,22.35,22.35,0,0,1-6.62-28.26,13.35,13.35,0,0,0,.9-10.07l-.22-.73a7.24,7.24,0,0,0-9.13-4.76L296.48,160.4"/><line class="cls-5" x1="462.45" y1="161.06" x2="499.03" y2="148.19"/><path class="cls-5" d="M343.5,56.3c-8-11.64-13.57-27-1.69-40.51,22.79-25.88,47.9-10,55.62-5.8s27.82,12.75,42.11-1.93c2,25-4.74,57-32.3,70.73h0"/><path class="cls-5" d="M371.6,99.84s-9.92,22.5,12.86,14.84,31.66-29,31.66-29"/><path class="cls-7" d="M139.48,217.52l26.18,46.66H112.17a53.39,53.39,0,0,1,27.31-46.66Z"/><path class="cls-6" d="M219.1,261.8c0,.79.05,1.58.05,2.38a53.49,53.49,0,0,1-107,0h53.49l-26.18-46.66a53.27,53.27,0,0,1,26.18-6.83c.8,0,1.59,0,2.38.05A53.49,53.49,0,0,1,219.1,261.8Z"/><line class="cls-5" x1="299.53" y1="122.7" x2="308.53" y2="156.55"/><line class="cls-5" x1="170.21" y1="95.01" x2="158.22" y2="112.29"/><line class="cls-5" x1="177.11" y1="95.39" x2="165.74" y2="111.77"/><line class="cls-5" x1="184.02" y1="95.77" x2="173.32" y2="111.19"/><path class="cls-7" d="M516.53,233.78a70.28,70.28,0,0,1,3.29,21.3,35.36,35.36,0,0,1-37.39,35.33L428.31,288l-63.08-4.07a5.42,5.42,0,0,0-5.63,4.44C350.55,339,347,366.11,331.29,421.94H266.44c5.42-16.42,9.9-30.92,13.82-44.41,11.37-39.18,18-69.8,28.83-113.9a48.21,48.21,0,0,1,32.11-34.4c1.86,5.44,5.45,9.93,12.86,7.71l4.24-1.23a10.66,10.66,0,0,0,1.9-.38l15.86-4.77,123.46.7h.16c.57,0,1.13,0,1.68-.07l3.68,0,2.4-1.52a19.76,19.76,0,0,0,5.31-3.36l1.06-.67Z"/><path class="cls-7" d="M507.44,229.69l5.31-3.36A19.76,19.76,0,0,1,507.44,229.69Z"/><path class="cls-7" d="M376.06,230.56l125.3.63c-.55,0-1.11.07-1.68.07h-.16Z"/><path class="cls-7" d="M358.3,235.71l-4.24,1.23c-7.41,2.22-11-2.27-12.86-7.71a46.33,46.33,0,0,1,6.09-1.52A10.22,10.22,0,0,0,358.3,235.71Z"/><path class="cls-5" d="M215.48,103.33,204.19,92a16.91,16.91,0,0,0-13.49-4.91L173,88.65a13.83,13.83,0,0,0-9.79,5.43c-.19.25-.37.51-.54.77l-.58.89-8.2,12.53a2.68,2.68,0,0,0,2.43,4.15l3-.2,12.87-.88c14.21-1,5.89-1.27,18.67-13.84.83-.82,1.75-1.69,2.77-2.61"/><path class="cls-5" d="M328.24,235.66q-1.19-8-3.12-15.73"/><path class="cls-5" d="M322.66,211.21A164.41,164.41,0,0,0,215.48,103.33,161.8,161.8,0,0,0,190.9,97.6"/><path class="cls-5" d="M162.06,95.74C27.71,98.82-33.54,246.59,21.69,338.14a164.09,164.09,0,0,0,258.56,39.39"/><path class="cls-5" d="M347.29,227.71a46.33,46.33,0,0,0-6.09,1.52,48.21,48.21,0,0,0-32.11,34.4c-10.85,44.1-17.46,74.72-28.83,113.9-3.92,13.49-8.4,28-13.82,44.41h64.85C347,366.11,350.55,339,359.6,288.34a5.42,5.42,0,0,1,5.63-4.44L428.31,288l54.12,2.44a35.36,35.36,0,0,0,37.39-35.33,70.28,70.28,0,0,0-3.29-21.3l-2.68-8.5"/><path class="cls-6" d="M356,53.37a2.21,2.21,0,0,1-1.24-.39,4.26,4.26,0,0,1-1-5.33,2.17,2.17,0,0,1,1.37-.94c1.39-.27,2.73.95,3.1,2.83s-.41,3.53-1.81,3.8A2.43,2.43,0,0,1,356,53.37Zm-.45-4.27Zm-.23-1.19Z"/><path class="cls-4" d="M518.35,204.93a19.79,19.79,0,0,1-18.67,26.33h-.16l-123.46-.7-21.88,6.49c-14.19,4.27-14.49-16.16-15.25-20.32l-13.81,3.2-14.6,3.63a4.07,4.07,0,0,1-2.2-7.84l14.37-4.51L343,204.82a25.64,25.64,0,0,1,7.83-1.19l27.52.1,3.71,0,94.35-3.54-14-39.15L499,148.19Z"/><path class="cls-5" d="M454.24,138.11l8.21,22.95,14,39.16-94.35,3.53h-3.71l-27.52-.11a25.69,25.69,0,0,0-7.83,1.19l-20.35,6.39h0l-14.34,4.51a4.07,4.07,0,0,0,2.2,7.84l14.6-3.63,13.69-3.31c.43,2.34.75,7.83,2.39,12.61,1.86,5.44,5.45,9.93,12.86,7.71l4.24-1.23,17.76-5.15,123.46.7h.16c.57,0,1.13,0,1.68-.07a19.55,19.55,0,0,0,11.39-4.86c.38-.33.74-.68,1.1-1.05a19.72,19.72,0,0,0,4.5-20.35L499,148.19,483.66,103a38.05,38.05,0,0,0-47.41-23.68l-20.13,6.39-5.41,1.71q-1.83-4.35-3.47-8.63"/><line class="cls-5" x1="338.81" y1="216.62" x2="346.42" y2="214.9"/><line class="cls-5" x1="339.93" y1="224.3" x2="346.86" y2="222.78"/><line class="cls-5" x1="342.1" y1="231.46" x2="347.6" y2="230.26"/></g></g></svg>