<svg xmlns="http://www.w3.org/2000/svg" viewBox="0 0 663.44 504.82"><defs><style>.cls-1{isolation:isolate;}.cls-2{fill:#fff;}.cls-3{fill:#f0f0f0;}.cls-10,.cls-4,.cls-9{fill:#323433;}.cls-5,.cls-6,.cls-7{fill:none;}.cls-10,.cls-6,.cls-7{stroke:#323433;stroke-linecap:round;stroke-linejoin:round;}.cls-10,.cls-6{stroke-width:2.61px;}.cls-7{stroke-width:1.74px;}.cls-8{fill:#52cca7;}.cls-9{mix-blend-mode:multiply;}</style></defs><title>Asset 31</title><g class="cls-1"><g id="Layer_2" data-name="Layer 2"><g id="graphic"><path class="cls-2" d="M459.53,99c-6.21,1.59-11.86,3-17,4.33a2,2,0,0,1-2.39-1.43l-8.54-33.95-2.3-9.15c2.39-20.07-13.48-21.2-15.37-6.2,0,0-2.83-22.14-13.9-21.86s-16.18,14.76-40.88,13.62c-.33,0-.67,0-1-.06l-.26,0-.55,0-.48,0c-.56-.06-1.11-.12-1.64-.21L355,44h0c1.58,19.25,8.6,18.79,11.75,30,2.36,8.29-1.26,26.84,20.35,26.84a54.32,54.32,0,0,0,14.47-2.22l2,12.56a2,2,0,0,1-1.47,2.22c-2.79.7-5.47,1.38-8.08,2.06a30.76,30.76,0,0,0-1.35,3.6l-.53.14.53-.14c-3.25,10.61-.27,21.72,12.83,21.72,14,0,42.41-21.49,54.17-41.74Z"/><ellipse class="cls-3" cx="331.72" cy="462.85" rx="331.72" ry="41.97"/><polygon class="cls-2" points="174.48 331.74 174.48 440.38 65.84 440.38 65.84 331.74 71.86 331.74 88.48 331.74 134.71 331.74 174.48 331.74"/><polygon class="cls-2" points="173.42 216.06 152.3 216.06 76.46 216.06 124.94 167.58 173.42 216.06"/><path class="cls-2" d="M152.3,216.06V298.4H70V216.06H152.3ZM132,257.23a20.93,20.93,0,1,0-20.92,20.92A20.91,20.91,0,0,0,132,257.23Z"/><path class="cls-4" d="M111.12,236.32A20.92,20.92,0,1,1,101.81,276a20.93,20.93,0,0,0,0-37.48A20.94,20.94,0,0,1,111.12,236.32Z"/><polygon class="cls-2" points="88.48 298.4 88.48 331.74 71.86 331.74 71.86 298.4 74.77 298.4 88.48 298.4"/><path class="cls-5" d="M101.81,238.49A20.92,20.92,0,1,0,132,257.23v0L104,237.57A22.78,22.78,0,0,0,101.81,238.49Z"/><path class="cls-5" d="M111.12,236.32a21,21,0,0,0-7.16,1.25L132,257.19A20.91,20.91,0,0,0,111.12,236.32Z"/><path class="cls-6" d="M152.3,216.06v16.38"/><path class="cls-7" d="M152.3,269.35v29h-111"/><line class="cls-7" x1="69.95" y1="216.06" x2="69.95" y2="298.4"/><polyline class="cls-7" points="33.3 331.74 65.84 331.74 71.86 331.74 88.48 331.74 134.71 331.74 174.48 331.74 174.48 440.38 65.84 440.38 33.3 440.38"/><line class="cls-7" x1="65.84" y1="331.74" x2="65.84" y2="440.38"/><path class="cls-6" d="M101.81,276a20.93,20.93,0,0,0,0-37.48"/><path class="cls-7" d="M101.81,276a20.94,20.94,0,1,0-11.6-18.74A20.81,20.81,0,0,0,101.81,276Z"/><polygon class="cls-7" points="152.3 216.06 173.42 216.06 124.94 167.58 76.46 216.06 152.3 216.06"/><polyline class="cls-7" points="41.27 216.06 51.33 216.06 69.95 216.06 76.46 216.06"/><line class="cls-7" x1="124.94" y1="167.58" x2="91.8" y2="167.58"/><line class="cls-7" x1="134.71" y1="298.4" x2="134.71" y2="331.74"/><line class="cls-7" x1="88.48" y1="298.4" x2="88.48" y2="331.74"/><polygon class="cls-2" points="187.79 385.58 226.58 424.37 210.57 424.37 206.02 424.37 167.23 385.58 187.79 385.58"/><polygon class="cls-4" points="210.57 424.37 210.57 474.12 198.98 474.12 198.98 424.37 206.02 424.37 210.57 424.37"/><polygon class="cls-2" points="206.02 424.37 198.98 424.37 142.4 424.37 128.44 424.37 167.23 385.58 206.02 424.37"/><path class="cls-2" d="M199,424.37v49.75H178.8v-17.6a8.12,8.12,0,0,0-16.23,0v17.6H142.39V424.37Z"/><path class="cls-4" d="M178.8,456.52v17.6H162.57v-17.6a8.12,8.12,0,0,1,16.23,0Z"/><polygon class="cls-6" points="142.4 424.37 128.44 424.37 167.23 385.58 206.02 424.37 198.98 424.37 142.4 424.37"/><polyline class="cls-6" points="167.23 385.58 187.79 385.58 226.58 424.37 210.57 424.37 206.02 424.37"/><polyline class="cls-6" points="210.57 424.37 210.57 474.12 198.98 474.12 178.8 474.12 162.57 474.12 142.4 474.12 142.4 424.37"/><line class="cls-6" x1="198.98" y1="424.37" x2="198.98" y2="474.12"/><path class="cls-6" d="M178.8,474.12v-17.6a8.12,8.12,0,0,0-16.23,0v17.6"/><line class="cls-6" x1="89.96" y1="349.14" x2="89.96" y2="451.8"/><line class="cls-6" x1="117.05" y1="349.14" x2="117.05" y2="451.8"/><line class="cls-6" x1="89.96" y1="364" x2="117.05" y2="364"/><line class="cls-6" x1="89.96" y1="380.36" x2="117.05" y2="380.36"/><line class="cls-6" x1="89.96" y1="396.73" x2="117.05" y2="396.73"/><line class="cls-6" x1="89.96" y1="413.09" x2="117.05" y2="413.09"/><line class="cls-6" x1="89.96" y1="429.46" x2="117.05" y2="429.46"/><path class="cls-2" d="M657.15,393.16a55.3,55.3,0,0,1-109.17,0Z"/><path class="cls-7" d="M641.23,393.17a39.17,39.17,0,0,1-77.33,0"/><path class="cls-7" d="M628.34,393.17a26.12,26.12,0,0,1-51.55,0"/><path class="cls-7" d="M615.13,393.17a12.73,12.73,0,0,1-25.13,0"/><path class="cls-4" d="M602.56,439.59H350.37a55.3,55.3,0,0,1-54.58-46.41H548A55.3,55.3,0,0,0,602.56,439.59Z"/><path class="cls-6" d="M657.15,393.17a55.3,55.3,0,0,1-109.17,0"/><path class="cls-6" d="M602.56,439.59H350.37a55.3,55.3,0,0,1-54.58-46.41H548"/><path class="cls-2" d="M534.82,164.93,515.22,274c-1.3-1.68-2.63-3.41-4-5.17-.45-.59-.92-1.18-1.38-1.77l-.05-.06c-1.85-2.36-3.78-4.76-5.76-7.21h0l1-3,1-2.93,1-3.15.21-.64.64-2,.53-1.64c.11-.32.21-.63.31-.95l.21-.65.36-1.11.28-.87.56-1.71,1.08-3.33.17-.53.36-1.09.17-.51.35-1.08.11-.35.34-1.05.08-.25.95-2.92.94-2.9.9-2.74L516,223l.17-.52.44-1.36.14-.44.5-1.54.4-1.23.2-.61.32-1,.63-1.92.17-.54.59-1.79.3-.94v0l0,0,0-.06,0-.1,0-.09,0-.12,0-.13.07-.21,0-.09v0h0v-.06h0l0-.07s0,0,0,0h0v0l0-.09h0v0l0,0h0l0-.06h0v0l0-.12v-.05a1.07,1.07,0,0,0,.06-.17l0-.05,0-.1.12-.36,0-.11.08-.24,0-.13,0,0v0l0,0v0h0s0-.06,0-.1v0l0,0h0V208l0-.06,0-.05v0l0-.13h0v0l0-.11,0-.07,0-.16,0,0v0h0l.1-.32,0-.09h0l0-.06,0-.12,0-.05,0-.06v0h0v0h0l0-.07v0h0v0h0l0-.05h0v0h0v0h0v-.05h0l0,0v0h0v0l0-.06h0v-.06h0l0-.06h0v0h0v0h0v0h0v0h0v0h0v0h0l0-.13,0-.08,0-.11,0-.13,0-.06v0h0l0-.1.09-.26,0-.08h0l.05-.15.08-.25v0l.15-.46.09-.26v0h0a.31.31,0,0,1,0-.08l.06-.19,0-.1.17-.53.1-.31.23-.71.31-.93v0h0l0-.06.1-.31,0-.13c.05-.16.11-.33.16-.5a0,0,0,0,1,0,0l0-.07,0-.08,0-.07,0-.05s0,0,0-.06l.15-.45,0-.12,0-.1.16-.5,0-.14.14-.43h0l.19-.61.33-1h0l.08-.25.39-1.2.19-.57,0-.06.23-.74.27-.82.13-.39,0-.06,0-.17.05-.15v0l.45-1.38.11-.33.14-.43h0l0-.07h0v0l0,0,0-.07.22-.69,0-.08h0v0l0-.06.11-.34.12-.36v0l.6-1.84.38-1.18.6-1.83,1-3.21,3.27-10.08Z"/><path class="cls-2" d="M545.83,177.67c.31,1.14.61,2.29.92,3.43-.41-1.54-.82-3.07-1.24-4.62C545.62,176.88,545.73,177.28,545.83,177.67Z"/><path class="cls-2" d="M568.7,275.49q.9,4.42,1.77,8.89Q569.59,279.91,568.7,275.49Z"/><path class="cls-2" d="M574.24,304h0c-.16-.83-.31-1.65-.47-2.48C573.93,302.32,574.09,303.15,574.24,304Z"/><path class="cls-8" d="M581.27,351.9c0,.22,0,.43-.06.64,0,.38-.08.75-.12,1.12-.1.74-.21,1.48-.34,2.21a45,45,0,0,1-1.62,6.37l-.36,1c-.26.71-.53,1.41-.82,2.1l-.44,1c-.13.3-.28.6-.42.9-.28.61-.59,1.21-.91,1.8l-.24.46c-.3.56-.62,1.12-1,1.66-.16.26-.32.53-.49.78s-.18.3-.27.44-.28.42-.41.63-.33.49-.5.72l-.6.85-.41.55c-.33.44-.68.88-1,1.31-.14.18-.29.35-.44.53l-.11.13c-.16.19-.31.37-.48.55-.85,1-1.76,1.93-2.7,2.84-.13.13-.26.26-.4.38s-.53.5-.8.73c-.41.38-.83.74-1.25,1.09l-.76.62c-.25.2-.49.39-.74.57l-.43.33c-.7.52-1.42,1-2.15,1.51l-.61.39-.19.12-.5.31q-.78.48-1.59.93l-.57.31-.13.07-.68.35c-.49.26-1,.5-1.48.73l-.76.34-.77.33c-.51.22-1,.42-1.54.62l-.79.29-.79.27c-.77.26-1.54.5-2.32.71l-.28.08-.64.17c-.55.14-1.11.27-1.66.38l-.84.17-.84.16c-.52.09-1,.17-1.57.24l-.18,0-.82.1-.87.09c-.58.06-1.17.1-1.75.13l-.72,0h-.36l-.69,0H489.86c-4.23-19.78-8.77-38-13.92-55.49-2-6.79-4.09-13.47-6.28-20.1h0l4.73-1.77a28.94,28.94,0,0,0,11.78-8.26h0c.25-.3.5-.59.74-.9s.37-.48.54-.72.27-.36.4-.55.37-.52.54-.79c.5-.76,1-1.55,1.39-2.36.25-.49.49-1,.72-1.46s.43-1,.63-1.51c.1-.25.2-.51.29-.76s.18-.52.26-.78l4.85-14.91,2.94-9,4.53-14h0c2,2.45,3.91,4.86,5.76,7.21l.05.06c.46.59.93,1.18,1.38,1.77,1.39,1.76,2.72,3.49,4,5.17l1.39,1.82,1.35,1.78.17.23c.33.43.65.86,1,1.28s.63.84.95,1.25l.92,1.23,2,2.74,1,1.38,2,2.76.76,1.05c.63.86,1.23,1.7,1.81,2.5l1,1.41,1.58,2.22c.28.4.55.79.82,1.16l.17.24.36.52a16.16,16.16,0,0,0,1.77,2.09l.33.31a15.15,15.15,0,0,0,10.28,4h29.32q.82,4.39,1.65,8.85,1.23,6.69,2.44,13.52c.27,1.52.55,3,.82,4.57l.81,4.61h0l.81,4.64c.17,1,.31,2,.41,3h0c.07.66.13,1.31.17,2A44.14,44.14,0,0,1,581.27,351.9Z"/><path class="cls-4" d="M521.75,205.16c0,.13-.08.24-.12.36a.25.25,0,0,0,0-.07c-.68,2.11-.68,2.12,0,0Z"/><path class="cls-4" d="M521.86,204.83l-.16.49c.06-.2.15-.46.25-.78Z"/><path class="cls-4" d="M520.3,209.62a2.47,2.47,0,0,1-.1.29C520,210.57,520,210.42,520.3,209.62Z"/><path class="cls-4" d="M521.55,205.77l0-.07h0v.06Z"/><path class="cls-4" d="M527.06,188.83l0,.06h0s0,0,0-.06Z"/><path class="cls-4" d="M521.57,205.7h0l.13-.38-.13.38Z"/><path class="cls-4" d="M521.53,205.85l0,.05.12-.38-.06.18Z"/><path class="cls-2" d="M525.57,193.42l0,.06-.19.57-.39,1.2-.08.25h0v0l-.32,1-.19.61h0l-.14.43,0,.14-.16.5,0,.1,0,.12-.14.46,0,0,0,.05,0,.07,0,.08,0,.07-.17.52,0,.13-.1.31,0,.06h0v0l-.31.93-.23.71-.1.31-.17.53,0,.1-.06.19,0,.1v0l-.09.26-.15.46v0l-.08.25-.05.15A288,288,0,0,0,482.64,191l-3.73-.92q-4.67-1.14-9.52-2.14-2.91-.6-5.93-1.17l-2-.38,2.75-10.66A281.66,281.66,0,0,1,525.57,193.42Z"/><path class="cls-2" d="M522,204.31h0l0,.08-.09.26,0,.1h0v0l0,.06,0,.13,0,.11,0,.08,0,.13h0v0h0v0h0v0h0v0h0v0h0v0h0v0h0v0h0l0,.06h0V206h0l0,.06v0h0v0l0,0h0v.05h0v0h0v0h0l0,.05h0v0h0v0l0,.07h0v0h0v0l0,.06,0,.05,0,.12,0,.06h0l0,.09-.1.32h0v0l0,0,0,.16,0,.07,0,.11v0h0l0,.13v0l0,.05,0,.06v.08h0l0,0,0,.13v0l0,0v0l0,0,0,.13-.08.24,0,.11-.12.36,0,.1,0,.05-.06.17v.05l0,.12v0h0l0,.06h0l0,0v0h0l0,.09v0h0v0h0l0,.07h0v.06h0v0l0,.09-.07.21,0,.13,0,.12,0,.09,0,.1,0,.06,0,0v0l-.3.94-.59,1.79-.17.54-.63,1.92-.32,1-.2.61-.4,1.23-.5,1.54-.14.44-.18.56-.26.8L516,223l-.44,1.37-.9,2.74-.94,2.9-.95,2.92-.08.25-.34,1.05-.11.35-.35,1.08-.17.51-.36,1.09-.17.53-1.08,3.33-.56,1.71-.28.87-.36,1.11-.21.65-.58,1.8-.26.79-.64,2-.21.64-1,3.15-1,2.93-1,3h0l-4.54,14-2.94,9-4.85,14.91c-.08.26-.17.52-.26.78s-.19.51-.29.76c-.2.51-.41,1-.63,1.51s-.47,1-.72,1.46l-.38.7v0l-.27.45-.13.23a1,1,0,0,1-.08.14l-.3.47-.1.17-.26.39-.12.19h0l-.28.39c-.13.19-.26.37-.4.55s-.18.24-.27.36h0l-.18.24-.09.11-.23.28c-.16.21-.33.41-.51.62h0l-.53.6c-.11.13-.23.26-.35.38s-.2.22-.31.32l-.07.08-.57.57-.08.07c-.17.17-.34.34-.52.49a1.07,1.07,0,0,1-.16.14l-.56.5-.07.06-.51.43c-.52.42-1.06.82-1.61,1.21s-1,.67-1.49,1l-.63.38-.35.2c-.2.12-.41.23-.62.34l-.72.37-.2.09-.56.27-.21.1-.73.31-.93.37-4.73,1.78-10.71,4-5.63,2.11-2.53.95-54.57,20.49-69,25.89-7.85,3c-.79.3-1.58.6-2.36.92l-1.24.51-.69.3-1.05.46c-.45.19-.9.4-1.35.61l-1.43.67c-1,.47-1.94,1-2.9,1.46l-1.31.69-1.38.77c-.73.41-1.46.83-2.18,1.26s-1.43.87-2.14,1.33l-28.89,18.29A26.2,26.2,0,0,1,258,405.33l-23.57-.4a4.71,4.71,0,0,1-4.3-3.48,5,5,0,0,1,1.35-4.57l.17-.17a3.68,3.68,0,0,1,.38-.31,1.33,1.33,0,0,1,.19-.14l.21-.14.32-.18.33-.16.47-.17.35-.1h0a4.52,4.52,0,0,1,.75-.1,2.5,2.5,0,0,1,.4,0h16.78l47.89-34.13.62-.44a3.9,3.9,0,0,0,.48-.42,2.62,2.62,0,0,0,.22-.25,2.85,2.85,0,0,0,.33-.52.2.2,0,0,0,0-.08,1.23,1.23,0,0,0,.12-.26,1.43,1.43,0,0,0,.09-.27l0,0a4.48,4.48,0,0,0,.11-.62h0c0-.11,0-.21,0-.32a1.93,1.93,0,0,0,0-.24s0-.1,0-.15a1.2,1.2,0,0,0,0-.2,1.06,1.06,0,0,0,0-.19,1,1,0,0,0,0-.17,1.87,1.87,0,0,0-.07-.22l-.07-.18h0a3.24,3.24,0,0,0-.69-1l-.15-.15h0a2.88,2.88,0,0,0-.34-.27l-7.6-5.29-10.55-17h0a5.36,5.36,0,0,1,3.5-4.91,3.62,3.62,0,0,1,2.43,0,2.83,2.83,0,0,1,.54.23,2.67,2.67,0,0,1,.51.31l11.2,8.4a8.92,8.92,0,0,0,1.34.85c.35.18.71.34,1.08.49a9.86,9.86,0,0,0,3.93.62l13.09-.58h0a29.22,29.22,0,0,0,10.28-2.37l.66-.3c.39-.17.76-.36,1.14-.55l.7-.37.19-.11c.23-.12.45-.25.67-.38l.2-.12c.26-.15.51-.31.76-.48l.42-.27,34.93-23.46,15-10.1L435.13,266l.41-.29a22.36,22.36,0,0,0,2.33-1.89c.24-.23.48-.46.71-.7a21.88,21.88,0,0,0,4.67-7.13,22.76,22.76,0,0,0,.89-2.72l.09-.33h0l11.39-44.05,5.82-22.49,2,.38q3,.57,5.93,1.17,4.86,1,9.52,2.14l3.73.92A288,288,0,0,1,522,204.31Z"/><path class="cls-2" d="M496.64,473.52,499.49,486H375.67l-1.52-6.49a13.6,13.6,0,0,1-.5-6Z"/><path class="cls-2" d="M487.81,428.65l-.42-2.16a70.46,70.46,0,0,1-48.95-10.25h-17l1.07,7.66a9.89,9.89,0,0,1-6.92,10.81l-1.11.35c-18.19,5.8-29.39,15.06-37.51,28.51a24.17,24.17,0,0,0-3.33,9.95h123ZM468.9,457.37a8.66,8.66,0,1,1,8.67-8.66A8.66,8.66,0,0,1,468.9,457.37Z"/><path class="cls-8" d="M494.53,416.24H410.27c-3.77-25-8.54-48-14-71.1l73.44-27.57a706.68,706.68,0,0,1,20.2,75.6Q492.26,404.35,494.53,416.24Z"/><path class="cls-2" d="M485.37,416.24l2,10.25a70.46,70.46,0,0,1-48.95-10.25Z"/><path class="cls-4" d="M468.9,440.05a8.66,8.66,0,1,1-8.66,8.66A8.66,8.66,0,0,1,468.9,440.05Z"/><path class="cls-8" d="M455.62,208.85,444.23,252.9h0l-.09.33a19.65,19.65,0,0,1-.89,2.72,21.88,21.88,0,0,1-4.67,7.13c-.23.24-.47.47-.71.7a22.36,22.36,0,0,1-2.33,1.89l-.41.28-50.36,33.82c-2.47-9.46-5-19.16-7.65-29.24-3.44-13.24-7-27.13-10.64-42a26.23,26.23,0,0,1-.78-7c0-.12,0-.23,0-.35s0-.28,0-.42,0-.44,0-.66,0-.41.06-.61c0-.45.1-.9.17-1.35,0-.21.07-.41.11-.61.09-.53.21-1.06.35-1.58,0-.14.06-.27.1-.4s.11-.42.18-.63.11-.38.18-.57.13-.4.2-.61.15-.4.22-.61h0l.24-.6c.08-.19.17-.39.25-.59l.27-.59c.09-.2.19-.4.28-.59h0l.3-.58.26-.49c.22-.41.46-.81.7-1.21L370,208c.12-.19.24-.37.37-.55l.27-.4c.18-.26.36-.51.55-.76l.28-.36c.18-.25.38-.5.57-.74l.33-.39v0l.43-.5c.3-.34.6-.68.91-1,10.26-10.92,28.77-16.92,45.67-14.31C430.34,190.62,442.89,198.25,455.62,208.85Z"/><path class="cls-2" d="M389.55,61.81a2.13,2.13,0,1,0-.88,3.22A2.39,2.39,0,0,0,389.55,61.81Zm-20.22,6.35a2.13,2.13,0,1,0-.88,3.22A2.4,2.4,0,0,0,369.33,68.16Z"/><path class="cls-4" d="M431.56,67.94l-2.3-9.15c2.39-20.07-13.48-21.2-15.37-6.2,0,0-2.83-22.14-13.9-21.86s-16.18,14.76-40.88,13.62c-.33,0-.67,0-1-.06l-.26,0-.55,0-.48,0c-.56-.06-1.11-.12-1.64-.21l-.49-.08-.13,0c-9.39-1.61-14.91-6.68-17.43-12.52-.06-.13-.11-.27-.17-.4l-.12-.3c0-.12-.09-.24-.13-.35-2.26-6.18-1.31-13,1.83-17.48l.41-.55C346.05,3.2,357.41,7.16,360.24,8s12.21,4.82,18.74,3.69,24.7-15,36.9-8.8C427.57,8.89,443.83,29.81,431.56,67.94Z"/><path class="cls-4" d="M422.52,423.9a9.9,9.9,0,0,1-6.92,10.81l-1.11.35h0l-1.69-8.57-2-10.25h10.67Z"/><path class="cls-2" d="M414.49,435.06h0c-18.19,5.8-29.39,15.06-37.51,28.51a24.17,24.17,0,0,0-3.33,9.95H299.06a24.33,24.33,0,0,1,3.34-9.95c8.27-13.72,19.76-23.08,38.61-28.86a9.89,9.89,0,0,0,6.92-10.81l-1.06-7.66h17a70.46,70.46,0,0,0,48.95,10.25l.15.77Z"/><path class="cls-2" d="M410.78,416.24l2,10.25a70.46,70.46,0,0,1-48.95-10.25h46.93Z"/><path class="cls-8" d="M396.22,345.14l-6.84,2.56L380.73,351,327.25,371h0c3.09,14.63,5.85,29.51,8.22,45.21h74.8C406.5,391.22,401.73,368.27,396.22,345.14Z"/><path class="cls-8" d="M384.77,299.77l-15,10.1-34.93,23.46-.42.27-.76.48-.2.12c-.22.13-.44.26-.67.38l-.19.11-.7.37c-.38.19-.75.38-1.14.55l-.66.3a29.22,29.22,0,0,1-10.28,2.37h0c-2.88-11.84-5.95-23.78-9.17-36.12-5.28-20.27-11-41.64-16.9-65.44q-1-4-2-8.16c-4.64-19,11.81-34.05,31.88-38.73a55.94,55.94,0,0,1,21-.9c.54.08,1.08.18,1.63.29h.05l.85.19c.8.18,1.61.4,2.43.64l.6.19c.66.2,1.33.43,2,.67l.63.23c.51.19,1,.4,1.53.61l.7.29,1.07.47.74.34q.31.13.63.3l.59.28.1.05,1,.51.83.43.21.11.86.47c.31.16.62.34.93.51l1,.56.7.41.55.33.91.55.11.07.86.54q3.78,2.39,7.63,5.26c-.31.33-.61.67-.91,1-.15.16-.29.33-.43.5v0l-.33.39c-.19.24-.39.49-.57.74l-.28.36c-.19.25-.37.5-.55.76l-.27.4c-.13.18-.25.36-.37.55l-.35.56c-.24.4-.48.8-.7,1.21l-.26.49-.3.58h0c-.09.19-.19.39-.28.59l-.27.59c-.09.2-.17.4-.25.59l-.24.6h0c-.07.21-.15.41-.22.61s-.14.41-.2.61-.13.38-.18.57-.12.42-.18.63-.07.26-.1.4c-.14.52-.26,1.05-.35,1.58,0,.2-.07.4-.11.61-.07.45-.13.9-.17,1.35a6,6,0,0,0-.06.61c0,.22,0,.44,0,.66s0,.28,0,.42,0,.23,0,.35a26.23,26.23,0,0,0,.78,7c3.64,14.84,7.2,28.73,10.64,42C379.75,280.61,382.3,290.31,384.77,299.77Z"/><path class="cls-2" d="M374.15,479.51l1.52,6.49H301.09l-1.52-6.49a13.6,13.6,0,0,1-.5-6h74.58A13.6,13.6,0,0,0,374.15,479.51Z"/><path class="cls-2" d="M240.94,238.58c-1.17,2-2.35,4-3.37,5.62l-3.87-21-24.61,14.87a10.64,10.64,0,0,1-10,.37,11.17,11.17,0,0,1-1-.56l-5.43-3.42-6.32-4-1.27-.8a4.61,4.61,0,0,1-1.81-2.09,4.7,4.7,0,0,1,1-5.24c6.86-6.64,16-14.64,22.28-20.09a19.79,19.79,0,0,1,20.57-3.33l27.62,11.44a41.79,41.79,0,0,1,8.2,4.53l30.74,21.82c5.93,23.79,11.61,45.16,16.9,65.43h0Z"/><path class="cls-2" d="M300.29,355.23a3.41,3.41,0,0,1,0,5.57l-.62.44-7-11.3Z"/><polygon class="cls-2" points="292.7 349.94 299.7 361.24 251.81 395.38 243.63 395.38 211.1 342.93 266.88 308.32 282.13 332.91 292.7 349.94"/><polygon class="cls-6" points="292.7 349.94 299.7 361.24 251.81 395.38 243.63 395.38 211.1 342.93 266.88 308.32 282.13 332.91 292.7 349.94"/><polygon class="cls-4" points="244.52 281.87 245.86 299.88 145.3 260.16 141.35 241.45 244.52 281.87"/><polygon class="cls-6" points="244.52 281.87 245.86 299.88 145.3 260.16 141.35 241.45 244.52 281.87"/><path class="cls-2" d="M237.57,244.2l7,37.67L141.35,241.45l41.89-13.85a4.61,4.61,0,0,0,1.81,2.09l1.27.8,6.32,4,5.43,3.42a11.17,11.17,0,0,0,1,.56,10.64,10.64,0,0,0,10-.37l24.61-14.87Z"/><path class="cls-6" d="M237.57,244.2l7,37.67L141.35,241.45l41.89-13.85a4.61,4.61,0,0,0,1.81,2.09l1.27.8,6.32,4,5.43,3.42a11.17,11.17,0,0,0,1,.56,10.64,10.64,0,0,0,10-.37l24.61-14.87Z"/><path class="cls-4" d="M475.94,337.67q-3-10.19-6.28-20.1l-73.44,27.57q1.89,7.94,3.66,15.87Z"/><path class="cls-4" d="M396.22,345.14l-69,25.89h0q1.22,5.75,2.36,11.55L399.88,361Q398.11,353.06,396.22,345.14Z"/><path class="cls-9" d="M400.19,362.41v53.83h10.08C407.44,397.45,404,379.82,400.19,362.41Z"/><path class="cls-6" d="M364.48,242.16c4.53,9.68,8.74,19.08,12.65,28.37"/><path class="cls-6" d="M410.27,416.24h-74.8c-2.37-15.7-5.13-30.58-8.22-45.21"/><path class="cls-6" d="M323.55,189.83c-20.07,4.68-36.52,19.77-31.88,38.73q1,4.13,2,8.16c5.93,23.8,11.62,45.17,16.9,65.44,3.22,12.34,6.29,24.28,9.17,36.12"/><path class="cls-6" d="M439.29,242.16q2.54,5.42,4.94,10.74"/><path class="cls-6" d="M469.66,317.57a706.68,706.68,0,0,1,20.2,75.6q2.4,11.18,4.67,23.07H410.27c-3.77-25-8.54-48-14-71.1"/><path class="cls-6" d="M373.71,203.24c-.31.33-.61.67-.91,1l-.43.5v0l-.33.39c-.19.24-.39.49-.57.74l-.28.36c-.19.25-.37.5-.55.76l-.27.4c-.13.18-.25.36-.37.55l-.35.56c-.24.4-.48.8-.7,1.21l-.26.49-.3.58h0c-.09.19-.19.39-.28.59l-.27.59c-.08.2-.17.39-.25.59l-.24.6h0c-.07.21-.15.41-.22.61s-.14.41-.2.61-.13.38-.18.57-.12.42-.18.63-.07.26-.1.4c-.14.52-.26,1.05-.35,1.58,0,.2-.07.4-.11.61-.07.45-.13.9-.17,1.35,0,.2-.05.41-.06.61s0,.44,0,.66,0,.28,0,.42,0,.23,0,.35a26.23,26.23,0,0,0,.78,7c3.64,14.84,7.2,28.73,10.64,42,2.63,10.08,5.18,19.78,7.65,29.24"/><path class="cls-6" d="M421.45,416.24l1.07,7.66a9.9,9.9,0,0,1-6.92,10.81l-1.11.35c-18.19,5.8-29.39,15.06-37.51,28.51a24.12,24.12,0,0,0-3.33,9.95,13.6,13.6,0,0,0,.5,6l1.52,6.49H499.49l-2.85-12.48-9.25-47-2-10.25"/><path class="cls-6" d="M487.39,426.49a70.46,70.46,0,0,1-48.95-10.25"/><polyline class="cls-6" points="299.06 473.52 299.06 473.52 373.65 473.52 496.64 473.52"/><path class="cls-6" d="M477.57,448.71a8.67,8.67,0,1,0-8.67,8.66A8.66,8.66,0,0,0,477.57,448.71Z"/><polyline class="cls-6" points="414.49 435.06 412.8 426.49 410.79 416.25"/><path class="cls-6" d="M412.8,426.49a70.46,70.46,0,0,1-48.95-10.25"/><path class="cls-6" d="M375.67,486H301.09l-1.52-6.49a13.6,13.6,0,0,1-.5-6,24.1,24.1,0,0,1,3.32-9.95c8.28-13.72,19.77-23.08,38.62-28.86a9.89,9.89,0,0,0,6.92-10.81l-1.07-7.66"/><path class="cls-6" d="M574.24,304h0q.82,4.39,1.65,8.85,1.23,6.69,2.44,13.52c.27,1.52.55,3,.82,4.57l.81,4.61h0c.26,1.54.54,3.09.81,4.65.17,1,.3,2,.41,2.95h0c.07.66.13,1.31.17,2a44.14,44.14,0,0,1-.08,6.81c0,.22,0,.43-.06.64,0,.38-.08.75-.12,1.12-.1.74-.21,1.48-.34,2.21a45,45,0,0,1-1.62,6.37l-.36,1c-.26.71-.53,1.41-.82,2.1l-.44,1c-.13.3-.28.6-.42.9-.28.61-.59,1.21-.91,1.8l-.24.46c-.3.56-.62,1.12-1,1.66-.16.26-.32.53-.49.78s-.18.3-.27.44-.28.42-.41.63-.33.49-.5.72l-.6.85-.41.55c-.33.44-.68.88-1,1.31l-.44.53-.11.13c-.16.19-.31.37-.48.55-.85,1-1.76,1.93-2.7,2.84-.13.13-.26.26-.4.38s-.53.5-.8.73c-.41.38-.83.74-1.25,1.09l-.76.62c-.25.2-.49.39-.74.57s-.28.22-.43.33c-.7.52-1.42,1-2.15,1.51l-.61.39-.19.12-.5.31q-.78.48-1.59.93l-.57.31-.13.07-.68.35c-.49.26-1,.5-1.48.73l-.76.34c-.26.12-.51.23-.77.33-.51.22-1,.43-1.54.62l-.79.29c-.26.1-.53.19-.79.27-.77.26-1.54.5-2.32.71l-.28.08-.64.17c-.55.14-1.11.27-1.66.38-.28.07-.56.12-.84.17l-.84.16c-.52.09-1,.17-1.57.24l-.18,0-.82.1-.87.09c-.58.06-1.17.11-1.75.13l-.72,0h-.36c-.23,0-.46,0-.69,0l-.89,0H489.87"/><path class="cls-6" d="M389.55,61.81a2.13,2.13,0,1,0-.88,3.22A2.39,2.39,0,0,0,389.55,61.81Zm-20.22,6.35a2.13,2.13,0,1,0-.88,3.22A2.4,2.4,0,0,0,369.33,68.16Z"/><path class="cls-6" d="M459.53,99c-6.21,1.59-11.86,3-17,4.33a2,2,0,0,1-2.39-1.43l-8.54-33.95-2.3-9.15c2.39-20.07-13.48-21.2-15.37-6.2,0,0-2.83-22.14-13.9-21.86s-16.18,14.76-40.88,13.62c-.33,0-.67,0-1-.06l-.26,0-.55,0-.48,0c-.56-.06-1.11-.12-1.64-.21L355,44h0c1.58,19.25,8.6,18.79,11.75,30,2.36,8.29-1.26,26.84,20.35,26.84a54.32,54.32,0,0,0,14.47-2.22l2,12.56a2,2,0,0,1-1.47,2.22c-2.79.7-5.47,1.38-8.08,2.06a30.76,30.76,0,0,0-1.35,3.6l-.53.14.53-.14c-3.25,10.61-.27,21.72,12.83,21.72,14,0,42.41-21.49,54.17-41.74ZM368.45,71.38a2.7,2.7,0,1,1,.88-3.22A2.4,2.4,0,0,1,368.45,71.38ZM388.67,65a2.7,2.7,0,1,1,.88-3.22A2.4,2.4,0,0,1,388.67,65Z"/><path class="cls-6" d="M292.69,349.94c7.93,5.53,7.66,5.31,7.94,5.56h0a3.33,3.33,0,0,1,.84,1.16h0a3.43,3.43,0,0,1-.67,3.71c-.36.38-49,35-49,35-17.86,0-16.92,0-17.18,0a5,5,0,0,0-4.55,6.05,4.71,4.71,0,0,0,4.3,3.48l23.57.4a26.2,26.2,0,0,0,14.53-4.08c22.76-13.77,29.95-20.39,44.56-26.35,1.85-.76,139.88-52.55,141.91-53.31,12.31-5.27,19.9-5.55,27.22-14.06h0a27.76,27.76,0,0,0,1.95-2.56h0c.77-1.17,1.26-2.05,1.27-2.06,2.76-5,2.51-7,7.13-20.12,9.41-29,7.11-21.89,7.48-23h0c9.33-28.73,7.87-24.24,11.5-35.39,0,.14,1.33-4.12,4.59-14.13h0v-.06h0l0-.07v0h0l.08-.25h0c0-.08.7-2.14.67-2h0c0-.05.41-1.27.39-1.21h0s.07-.2.05-.16h0l0-.05h0v0h0v0h0v-.05h0s.06-.19.05-.15h0s.06-.18,0-.14h.07v0h0v0h0v0h0v0h0v0h0l.33-1h0l1.33-4.09h0l1.53-4.7h0s.72-2.22.68-2.08"/><path class="cls-6" d="M431.56,67.94c12.27-38.13-4-59-15.68-65-12.2-6.25-30.37,7.66-36.9,8.8S363.08,8.87,360.24,8,346.05,3.2,339,12.28C332.27,20.83,334.15,40.72,355,44"/><line class="cls-6" x1="473.95" y1="137.99" x2="464.19" y2="175.7"/><path class="cls-6" d="M455.62,208.85,444.23,252.9h0l-.09.33a19.65,19.65,0,0,1-.89,2.72,21.88,21.88,0,0,1-4.67,7.13c-.23.24-.47.47-.71.7a22.36,22.36,0,0,1-2.33,1.89l-.41.28-50.36,33.82-15,10.1-34.93,23.46-.42.27-.76.48-.2.12c-.22.13-.44.26-.67.38l-.19.11-.7.37c-.38.19-.75.38-1.14.55l-.66.3a29.22,29.22,0,0,1-10.28,2.37h0l-13.09.58a9.86,9.86,0,0,1-3.93-.62,10.5,10.5,0,0,1-1.08-.49,8.92,8.92,0,0,1-1.34-.85l-11.2-8.4a3.3,3.3,0,0,0-.51-.31,2.83,2.83,0,0,0-.54-.23,3.62,3.62,0,0,0-2.43,0,5.36,5.36,0,0,0-3.5,4.91h0"/><path class="cls-6" d="M237.48,243.71l-3.78-20.49-24.61,14.87a10.64,10.64,0,0,1-10,.37,11.17,11.17,0,0,1-1-.56l-5.43-3.42-6.32-4-1.27-.8a4.61,4.61,0,0,1-1.81-2.09,4.7,4.7,0,0,1,1-5.24c6.86-6.64,16-14.64,22.28-20.09a19.79,19.79,0,0,1,20.57-3.33l27.62,11.44a41.79,41.79,0,0,1,8.2,4.53l30.74,21.82h0"/><path class="cls-6" d="M461.44,186.36A281.57,281.57,0,0,1,522,204.31"/><path class="cls-6" d="M374.26,63.18a18.92,18.92,0,0,1,1.91,8.53,7,7,0,0,1-2,4.87,2.33,2.33,0,0,0-.91,2.53,2,2,0,0,0,2,1.28l5.32-.42"/><path class="cls-10" d="M388.67,65a2.7,2.7,0,1,1,.88-3.22A2.4,2.4,0,0,1,388.67,65Z"/><path class="cls-10" d="M368.45,71.38a2.7,2.7,0,1,1,.88-3.22A2.4,2.4,0,0,1,368.45,71.38Z"/><line class="cls-6" x1="310.59" y1="302.16" x2="240.94" y2="238.58"/><line class="cls-6" x1="211.63" y1="207.94" x2="186.32" y2="230.49"/><line class="cls-6" x1="217.63" y1="212.21" x2="192.64" y2="234.48"/><line class="cls-6" x1="223.71" y1="216.53" x2="199.08" y2="238.46"/><path class="cls-6" d="M237.57,244.2c1-1.64,2.2-3.58,3.37-5.62,2.95-5.16,5.88-11.05,6.39-14.76"/><polyline class="cls-7" points="234.43 118.29 245.38 109.81 256.33 118.29 267.29 109.81 278.24 118.29 289.19 109.81"/><circle class="cls-8" cx="197.81" cy="114.05" r="9.29" transform="translate(-20.91 48.5) rotate(-13.28)"/><line class="cls-6" x1="358.12" y1="193.49" x2="364.48" y2="163.36"/><path class="cls-4" d="M574.24,304H544.92a15.17,15.17,0,0,1-12.38-6.43c-5.62-8-22.26-30-28.41-38l30.69-94.59,4-12.42h0C552.16,199.07,563.79,247.63,574.24,304Z"/><path class="cls-6" d="M574.24,304H544.92a15.17,15.17,0,0,1-12.38-6.43c-5.62-8-22.26-30-28.41-38l30.69-94.59,4-12.42h0C552.16,199.07,563.79,247.63,574.24,304Z"/><path class="cls-4" d="M538.86,152.51c-.35,1.08-10.63,32.7-11.5,35.39h0s-.28.88-.29.9h0s-1.48,4.59-1.48,4.59a281.66,281.66,0,0,0-61.38-17.72c-7.17,27.74-8.38,32.43-8.54,33.07h0v0h0s0,0,0,0v0h0c-12.73-10.6-25.28-18.23-36.24-19.92-16.9-2.61-35.41,3.39-45.67,14.31-8.14-6.06-19-12.81-29.13-14.31a55.94,55.94,0,0,0-21,.9l7.07-29.09a51.84,51.84,0,0,1,35.12-37.32c10.73-3.32,19.18-5.68,28.3-8a30.76,30.76,0,0,0-1.35,3.6l-.53.14.53-.14c-3.25,10.61-.27,21.72,12.83,21.72,14,0,42.41-21.49,54.17-41.74C491.55,91.43,491,91.62,494,91.3a43.19,43.19,0,0,1,27.18,6.24h0a44.68,44.68,0,0,1,18.07,21.52h0C546.15,136.09,539.13,150.86,538.86,152.51Z"/><path class="cls-6" d="M538.86,152.51c-.35,1.08-10.63,32.7-11.5,35.39h0s-.28.88-.29.9h0s-1.48,4.59-1.48,4.59a281.66,281.66,0,0,0-61.38-17.72c-7.17,27.74-8.38,32.43-8.54,33.07h0v0h0s0,0,0,0v0h0c-12.73-10.6-25.28-18.23-36.24-19.92-16.9-2.61-35.41,3.39-45.67,14.31-8.14-6.06-19-12.81-29.13-14.31a55.94,55.94,0,0,0-21,.9l7.07-29.09a51.84,51.84,0,0,1,35.12-37.32c10.73-3.32,19.18-5.68,28.3-8a30.76,30.76,0,0,0-1.35,3.6l-.53.14.53-.14c-3.25,10.61-.27,21.72,12.83,21.72,14,0,42.41-21.49,54.17-41.74C491.55,91.43,491,91.62,494,91.3a43.19,43.19,0,0,1,27.18,6.24h0a44.68,44.68,0,0,1,18.07,21.52h0C546.15,136.09,539.13,150.86,538.86,152.51Z"/></g></g></g></svg>