<svg xmlns="http://www.w3.org/2000/svg" viewBox="0 0 723.98 571.3"><defs><style>.cls-1{fill:#f0f0f0;}.cls-2{fill:#52cca7;}.cls-3,.cls-4{fill:#323433;}.cls-3,.cls-5,.cls-6{stroke:#323433;stroke-linecap:round;stroke-linejoin:round;}.cls-3,.cls-5{stroke-width:2.61px;}.cls-5,.cls-6{fill:none;}.cls-6{stroke-width:1.74px;}.cls-7{fill:#fff;}.cls-8{fill:#737799;}</style></defs><title>Asset 30</title><g id="Layer_2" data-name="Layer 2"><g id="graphic"><ellipse class="cls-1" cx="388.72" cy="537.99" rx="335.27" ry="33.31"/><circle class="cls-2" cx="108.64" cy="292.11" r="30.32"/><path class="cls-3" d="M572.09,87.49a44.11,44.11,0,1,0-10.92-5.14A44.1,44.1,0,0,0,572.09,87.49Z"/><path class="cls-2" d="M372.28,521.15H311.74a43,43,0,0,0-85.94,0H165.26a103.51,103.51,0,0,1,207,0Z"/><path class="cls-4" d="M311.74,521.15h-43a43,43,0,0,0-21.48-36.33,43,43,0,0,1,64.45,36.33Z"/><path class="cls-5" d="M311.74,521.15h-43a43,43,0,0,0-21.48-36.33"/><line class="cls-5" x1="192.53" y1="418.53" x2="268.77" y2="418.53"/><line class="cls-5" x1="165.26" y1="521.15" x2="126.45" y2="521.15"/><path class="cls-5" d="M268.77,418.53A103.51,103.51,0,0,1,372.28,521.15H311.74a43,43,0,0,0-85.94,0H165.26A103.39,103.39,0,0,1,268.77,418.53Z"/><rect class="cls-2" x="424.21" y="1.2" width="37.61" height="7.81"/><rect class="cls-2" x="441.75" y="17.33" width="45.59" height="7.81"/><rect class="cls-2" x="494.74" y="17.33" width="15.88" height="7.81"/><rect class="cls-2" x="451.39" y="33.47" width="72.74" height="7.81"/><rect class="cls-2" x="474.31" y="49.61" width="43.98" height="7.81"/><rect class="cls-2" x="446.24" y="65.74" width="44.62" height="7.81"/><rect class="cls-2" x="424.21" y="81.88" width="22.89" height="7.81"/><rect class="cls-2" x="456" y="81.88" width="49.3" height="7.81"/><polyline class="cls-6" points="145.21 248.11 149.04 234.34 163.34 234.62 167.18 220.84 181.47 221.12 185.31 207.35"/><circle class="cls-6" cx="201.45" cy="161.55" r="15.6"/><line class="cls-6" x1="475.55" y1="143.51" x2="488.51" y2="156.47"/><line class="cls-6" x1="475.55" y1="156.47" x2="488.51" y2="143.51"/><path class="cls-7" d="M693.88,532v2.35a12.24,12.24,0,0,1-12.24,12.24h-102a7.3,7.3,0,0,1,0-14.59l.49-.15,0,.15H681.64V517.81a12.24,12.24,0,0,1,12.24,12.24Z"/><path class="cls-4" d="M681.64,517.81V532H602.42a31.42,31.42,0,0,0-27.64-18.17l-9-30.71h3.07a8.28,8.28,0,0,1,6.51,3.78l3.22,4.87a11.65,11.65,0,0,0,9.16,5.32h31.87l2.49,5.29a11.19,11.19,0,0,0,8.17,6.26Z"/><path class="cls-7" d="M629.17,96.48l-17.88,10.8a3.81,3.81,0,0,1-1.06.43l-29.27,7a4.77,4.77,0,0,0-3.68,4.56l-1.93,104.21-.13,7.17a29.71,29.71,0,0,1-35.16,28.66l-9.37-1.75L506.51,253a3.71,3.71,0,0,1-2.94-4.48l8.76-38.27a3.72,3.72,0,0,1,4.81-2.7l5.18,1.75a3.72,3.72,0,0,0,4.86-2.91c3-18,15.2-87.75,28.42-117.3a3.72,3.72,0,0,1,5.18-1.75,52.28,52.28,0,0,0,5.82,2.72,3.7,3.7,0,0,1,2.09,4.77,2.17,2.17,0,0,0-.16.82A2.32,2.32,0,0,0,570.94,98c22.24-.9,42.22-2.82,55.84-6.88a3,3,0,0,1,2.39,5.41Z"/><path class="cls-7" d="M626.12,479.23H548.88l-25-72-5.7-16.41-10.73-30.9c-9.51,6.05-18.59,11.57-27.34,16.6s-16.93,9.46-25,13.51c-7.63,3.83-15.07,7.27-22.4,10.37,3-11,6.15-22.15,9.42-33.56,2.73-9.51,5.58-19.23,8.58-29.29q1.13-3.8,2.29-7.66c.39-1.28.77-2.57,1.16-3.86a24.6,24.6,0,0,0,.95-4.68,23.78,23.78,0,0,0,0-5h0a25.78,25.78,0,0,0-.49-2.92l4.89-1.45,55.81-16.67a29.71,29.71,0,0,1,35.59,16.31Z"/><path class="cls-4" d="M455.11,321.36V390c-7.63,3.83-15.07,7.27-22.4,10.37,3-11,6.15-22.15,9.42-33.56,2.73-9.51,5.58-19.23,8.58-29.29q1.13-3.8,2.29-7.66c.39-1.28.77-2.57,1.16-3.86A24.6,24.6,0,0,0,455.11,321.36Z"/><path class="cls-7" d="M611.18,479.23l8.4,17.88H587.71a11.65,11.65,0,0,1-9.16-5.32l-3.22-4.87a8.28,8.28,0,0,0-6.51-3.78h-3.07l-1.15-3.91Z"/><path class="cls-7" d="M602.42,532H580.13l0-.15-5.3-18A31.42,31.42,0,0,1,602.42,532Z"/><path class="cls-7" d="M454.16,326c-8,26.61-14.94,50.66-21.45,74.36C425.64,426.13,419,451.46,412,479.23H335.85C344,457.54,351.44,438.79,359,421c4-9.41,8-18.57,12.18-27.75h0q-4.23,2.89-8.35,5.67c-14.33,9.59-27.94,18.09-41.54,25.75h0q-7,3.92-13.94,7.55c-29.39,15.31-61.27,3.55-77.08-19.84a58.41,58.41,0,0,1-7.46-50.26c.57-1.88,1.13-3.76,1.7-5.62h27.87c53.3-28.78,98.09-45,152.93-57.22,6.73-1.5,13.61-2.94,20.69-4.34A24.43,24.43,0,0,1,454.16,326Z"/><path class="cls-7" d="M439.4,532v2.35a12.24,12.24,0,0,1-12.24,12.24H325.11a7.29,7.29,0,0,1-7.29-7.35A7.41,7.41,0,0,1,325.3,532H427.16V517.81a12.24,12.24,0,0,1,12.24,12.24Z"/><path class="cls-4" d="M427.16,517.81V532H345.52A24.25,24.25,0,0,0,333.6,512.2l11.66-29.06H347a5.68,5.68,0,0,1,5.36,3.78l1.73,4.87a8,8,0,0,0,7.54,5.32h25.69l-2.61,7.73a3.4,3.4,0,0,0,2.51,4.42Z"/><path class="cls-7" d="M406.16,175.54,418,208.29l-18.58-6.66c-1.31-10.57-2.26-19.66-3-28.3Q401.26,174.41,406.16,175.54Z"/><path class="cls-7" d="M402.75,124c3.38,4.9-4.28,11.38-8.73,14.56.69,12.42,1.34,23.19,2.35,34.76.75,8.64,1.7,17.73,3,28.3l-9.56,10.82a47.53,47.53,0,0,1-28.63-3.35l-4.57-14.83,2.49-22.75c-5.66.75-10,.13-13.23-1.45a14.62,14.62,0,0,1-7-7.38c-5.35-11.62-.18-30.77-.18-35.58,0-5.64-2.13-11.66-3.6-18.61,10.74,6.08,28.27,7.28,44.21,3.78a71.83,71.83,0,0,1,7,19.06s6.39-7.09,11.53-8.64C399.82,122.11,401.58,122.32,402.75,124Z"/><path class="cls-3" d="M344,89.56c-3.5-7.32,4.41-10.84,11.74-2.19-2.31-7.82,5.86-10.56,14.8-3.13,17.42-7.54,28,16.25,27.36,38.46-5.14,1.55-11.53,8.64-11.53,8.64a71.83,71.83,0,0,0-7-19.06c-15.94,3.5-33.47,2.3-44.21-3.78-7.25-4.11-11.41-10.45-9.87-19.08C328.41,77.82,343.66,89.32,344,89.56Z"/><path class="cls-7" d="M393.4,479.23l-6,17.88H361.66a8,8,0,0,1-7.54-5.32l-1.73-4.87a5.68,5.68,0,0,0-5.36-3.78h-1.77l1.57-3.91Z"/><path class="cls-7" d="M389.82,212.45l-20.45,23.16-8.18-26.51a47.53,47.53,0,0,0,28.63,3.35Z"/><path class="cls-8" d="M371.18,393.23h0C367,402.42,363,411.57,359,421c-12,1.76-24.42,2.94-37.71,3.67C337.5,415.52,353.74,405.2,371.18,393.23Z"/><path class="cls-4" d="M371.18,393.23h0C367,402.42,363,411.57,359,421c-12,1.76-24.42,2.94-37.71,3.67C337.5,415.52,353.74,405.2,371.18,393.23Z"/><path class="cls-7" d="M359.11,171.52l-2.49,22.75-23.26,7.21,12.52-31.41C349.14,171.65,353.45,172.27,359.11,171.52Z"/><path class="cls-7" d="M345.52,532H325.65l8-19.82A24.25,24.25,0,0,1,345.52,532Z"/><path class="cls-7" d="M253.13,277.34q-3.9,9.2-7.57,18.54-2.31,5.88-4.55,11.85l-40.73,22.39a3.83,3.83,0,0,0-2.39-1.1l-55.24-5.61c23.4-20.7,41.18-32.76,65-50.24a40.07,40.07,0,0,0,10.23-11l.85-1.36Z"/><path class="cls-4" d="M197.89,329a3.8,3.8,0,0,1,2.39,1.1,3.7,3.7,0,0,1,1.07,2.62,7.3,7.3,0,0,1-3.88,6.45l-54.2,28.72a9.77,9.77,0,0,1-5.54,1.08l-21-2.15L96,364.72,88.73,353.5l51.38,5.24,55.79-29.29A3.69,3.69,0,0,1,197.89,329Z"/><path class="cls-7" d="M142.66,323.41,197.89,329a3.69,3.69,0,0,0-2,.43l-55.79,29.29-11.67-25.66,11.85,1.22,11.16-3.8-25.4-2.67-2.91-6.4Z"/><polygon class="cls-4" points="151.45 330.5 140.29 334.3 128.44 333.08 128.44 333.08 126.05 327.83 151.45 330.5"/><path class="cls-7" d="M96,364.72l20.77,2.12c-14.26,4.94-36.4,9.53-51.85,1.29A17.1,17.1,0,0,1,57.81,361l-.1-.17-5.89-11.1-3.69-6.94a2,2,0,0,1,1.66-2.89c1.3-.05,2.57-.07,3.81-.07,3.45,6.87,10.67,20.66,15.67,25.6L53.6,339.82c3.07,0,6,.13,8.91.39,3.4,6.79,10.73,20.84,15.79,25.84L62.51,340.21c3.14.28,6.3.71,9.67,1.29,3.33,6.7,10.79,21,15.9,26.08L72.18,341.5c1.77.31,3.61.65,5.53,1a10.86,10.86,0,0,1,7,4.79l4,6.17Z"/><path class="cls-7" d="M72.18,341.5l15.9,26.08C83,362.52,75.51,348.2,72.18,341.5Z"/><path class="cls-7" d="M62.51,340.21,78.3,366.05C73.24,361.05,65.91,347,62.51,340.21Z"/><path class="cls-7" d="M59.73,333.1l15.36,25.1C70.19,353.35,63.1,339.84,59.73,333.1Z"/><path class="cls-4" d="M51.37,349.82l5.77,10.87h0L38,358.74a4.77,4.77,0,0,1-4.28-4.5L33.42,348Z"/><path class="cls-5" d="M321.29,424.65c16.21-9.13,32.45-19.45,49.89-31.42"/><path class="cls-5" d="M224.52,356.48l-1.71,5.62c-15.12,50.43,37.85,94.42,84.54,70.1q7-3.65,13.94-7.55"/><path class="cls-5" d="M253.13,277.34q3.08-7.24,6.31-14.45c7.89-17.56,16.53-35,26.18-53"/><path class="cls-5" d="M405.31,299.26q10.1-2.25,20.69-4.34A24.45,24.45,0,0,1,454.17,326c-8.05,26.61-14.95,50.66-21.46,74.37-7.07,25.72-13.67,51-20.75,78.82H335.85C344,457.54,351.44,438.79,359,421c4-9.42,8-18.57,12.18-27.75,7.39-16.29,15.23-32.7,24.2-50.87"/><path class="cls-5" d="M142.66,323.41c23.39-20.7,41.17-32.76,65-50.24a39.92,39.92,0,0,0,10.23-11l.85-1.35"/><line class="cls-5" x1="200.28" y1="330.12" x2="241.01" y2="307.73"/><path class="cls-4" d="M513.25,206.24c-8.49,37.09-10.82,47.27-11.37,49.65a.14.14,0,0,0,0,.06.08.08,0,0,1,0,0h0a.15.15,0,0,0,0,.07,0,0,0,0,0,0,0h0a.06.06,0,0,0,0,0h0s0,0,0,0v0h0a.06.06,0,0,1,0,0h0s0,0,0,.06,0,0,0,.06,0,.06,0,.08h0v0l-.42,1.86c-5.68-1.67-10.87-3.13-15.78-4.44-18-4.83-32.36-7.71-53.38-11.88-10,19.69-18.21,36.53-26.84,57.2-54.83,12.24-99.63,28.44-152.93,57.22H224.52c5.21-17,10.66-33.14,16.49-48.75,3.86-10.31,7.88-20.4,12.12-30.39l-34.37-16.53-8.45-4.06,6.85-11.57,36.14-61a53.43,53.43,0,0,1,52.06-25.87c11.36,1.29,22.5,2.76,33.51,4.42a14.62,14.62,0,0,0,7,7.38l-12.52,31.41,23.26-7.21,4.58,14.83,8.17,26.51,20.45-23.16,9.56-10.82L418,208.29l-11.8-32.75c29.78,6.88,60,15.43,92.71,26Q506,203.82,513.25,206.24Z"/><path class="cls-5" d="M513.25,206.24c-8.49,37.09-10.82,47.27-11.37,49.65a.14.14,0,0,0,0,.06.08.08,0,0,1,0,0h0a.15.15,0,0,0,0,.07,0,0,0,0,0,0,0h0a.06.06,0,0,0,0,0h0s0,0,0,0v0h0a.06.06,0,0,1,0,0h0s0,0,0,.06,0,0,0,.06,0,.06,0,.08h0v0l-.42,1.86c-5.68-1.67-10.87-3.13-15.78-4.44-18-4.83-32.36-7.71-53.38-11.88-10,19.69-18.21,36.53-26.84,57.2-54.83,12.24-99.63,28.44-152.93,57.22H224.52c5.21-17,10.66-33.14,16.49-48.75,3.86-10.31,7.88-20.4,12.12-30.39l-34.37-16.53-8.45-4.06,6.85-11.57,36.14-61a53.43,53.43,0,0,1,52.06-25.87c11.36,1.29,22.5,2.76,33.51,4.42a14.62,14.62,0,0,0,7,7.38l-12.52,31.41,23.26-7.21,4.58,14.83,8.17,26.51,20.45-23.16,9.56-10.82L418,208.29l-11.8-32.75c29.78,6.88,60,15.43,92.71,26Q506,203.82,513.25,206.24Z"/><path class="cls-5" d="M513.25,206.24q6.54,2.17,13.22,4.46S542.93,106.89,559.7,81.35"/><path class="cls-5" d="M418,208.29l-18.57-6.66c-1.31-10.57-2.26-19.66-3-28.3,3.25.72,6.52,1.45,9.78,2.21Z"/><line class="cls-5" x1="217.16" y1="245.18" x2="259.44" y2="262.89"/><path class="cls-5" d="M501.77,256.33s0,0,0,.06"/><path class="cls-5" d="M501.84,256.07a.15.15,0,0,1,0-.07h0"/><path class="cls-5" d="M501.74,256.5v0"/><line class="cls-5" x1="498.86" y1="201.52" x2="485.53" y2="253.94"/><path class="cls-5" d="M502.7,252.28l37.36,7a29.71,29.71,0,0,0,35.16-28.66l2.06-111.37a4.78,4.78,0,0,1,3.68-4.57l27.15-6.45a17.67,17.67,0,0,0,5-2.06l16-9.67a3,3,0,0,0-2.39-5.41c-13.63,4.06-33.6,6-55.85,6.88a2.31,2.31,0,0,1-2.25-3.13l2.85-7.51"/><path class="cls-5" d="M572.09,87.49a44.11,44.11,0,1,0-10.92-5.14A44.1,44.1,0,0,0,572.09,87.49Z"/><path class="cls-5" d="M335.09,108.5c1.47,7,3.61,13,3.61,18.61,0,4.81-5.18,24,.17,35.58"/><path class="cls-5" d="M356.62,194.27l2.49-22.75c-5.66.75-10,.13-13.23-1.45"/><path class="cls-5" d="M344,89.56h0c-.32-.24-15.57-11.74-18.76-.14-1.53,8.63,2.62,15,9.87,19.08,10.74,6.08,28.27,7.28,44.21,3.78a71.83,71.83,0,0,1,7,19.06s6.39-7.09,11.53-8.64c1.95-.59,3.71-.39,4.89,1.31,3.38,4.9-4.29,11.37-8.74,14.56.69,12.42,1.34,23.18,2.35,34.76"/><path class="cls-5" d="M397.87,122.7c.6-22.21-9.94-46-27.36-38.46-8.94-7.43-17.11-4.69-14.8,3.13-7.33-8.65-15.24-5.13-11.74,2.19"/><polyline class="cls-5" points="345.88 170.07 333.36 201.48 356.62 194.27"/><line class="cls-5" x1="406.15" y1="175.54" x2="406.15" y2="175.53"/><path class="cls-5" d="M389.82,212.45a47.53,47.53,0,0,1-28.63-3.35"/><path class="cls-5" d="M454.62,313.45l60.7-18.13a29.71,29.71,0,0,1,35.59,16.31l75.21,167.6H548.88l-41.42-119.3c-27.76,17.64-51.75,30.78-74.75,40.48h0"/><path class="cls-5" d="M359,421c-12,1.76-24.42,2.94-37.71,3.67h0"/><path class="cls-5" d="M346.83,479.23l-1.57,3.91L333.6,512.2l-8,19.82H427.16V517.81l-39.91-8.55a3.4,3.4,0,0,1-2.51-4.42l2.61-7.73,6-17.88"/><path class="cls-5" d="M345.26,483.14H347a5.68,5.68,0,0,1,5.36,3.78l1.73,4.87a8,8,0,0,0,7.54,5.32h25.69"/><path class="cls-5" d="M565.75,483.14h3.07a8.28,8.28,0,0,1,6.51,3.78l3.22,4.87a11.65,11.65,0,0,0,9.16,5.32h31.87"/><path class="cls-5" d="M325.11,532a7.3,7.3,0,0,0,0,14.59H427.16a12.24,12.24,0,0,0,12.24-12.24v-4.32a12.24,12.24,0,0,0-12.24-12.24"/><path class="cls-5" d="M345.52,532A24.25,24.25,0,0,0,333.6,512.2"/><path class="cls-5" d="M564.6,479.23l1.15,3.91,9,30.71,5.3,18,0,.15H681.64V517.81l-51.4-9.15a11.19,11.19,0,0,1-8.17-6.26l-2.49-5.29-8.4-17.88"/><path class="cls-5" d="M579.59,532a7.3,7.3,0,0,0,0,14.59h102a12.24,12.24,0,0,0,12.24-12.24v-4.32a12.24,12.24,0,0,0-12.24-12.24"/><path class="cls-5" d="M602.42,532a31.42,31.42,0,0,0-27.64-18.17"/><path class="cls-5" d="M128.44,333.08l-2.39-5.25-2.91-6.4L108,288.22a5.87,5.87,0,0,0-4.75-3.41L3.52,274.62a2,2,0,0,0-2,2.82l32,70.42"/><polyline class="cls-5" points="88.73 353.5 140.11 358.74 128.44 333.08"/><path class="cls-5" d="M57.14,360.69,38,358.74a4.77,4.77,0,0,1-4.28-4.5L33.42,348l17.95,1.83"/><polyline class="cls-5" points="123.14 321.43 142.66 323.41 197.89 329.02 198 329.03"/><path class="cls-5" d="M116.74,366.84c-14.26,4.94-36.4,9.53-51.85,1.29A17.1,17.1,0,0,1,57.81,361l-.1-.17-5.89-11.1-3.69-6.94a2,2,0,0,1,1.66-2.89c1.3-.05,2.57-.07,3.81-.07,3.07,0,6,.13,8.91.39,3.14.28,6.3.71,9.67,1.29,1.77.31,3.61.65,5.53,1a10.86,10.86,0,0,1,7,4.79l4,6.17L96,364.72l20.77,2.12,21,2.15a9.77,9.77,0,0,0,5.54-1.08l54.2-28.72a7.3,7.3,0,0,0,3.88-6.45,3.7,3.7,0,0,0-1.07-2.62,3.8,3.8,0,0,0-2.39-1.1,3.69,3.69,0,0,0-2,.43l-55.79,29.29"/><path class="cls-5" d="M54.28,340.5c3.37,6.74,10.46,20.25,15.36,25.1"/><path class="cls-5" d="M62.51,340.21c3.4,6.79,10.73,20.84,15.79,25.84"/><path class="cls-5" d="M72.18,341.5c3.33,6.7,10.79,21,15.9,26.08"/><path class="cls-5" d="M368.36,135.22a5.93,5.93,0,0,1-8.64-1.16"/><path class="cls-5" d="M343.59,132.17a5.94,5.94,0,0,1-5.65,1.07"/><path class="cls-5" d="M349.73,131.92a20.49,20.49,0,0,1,.52,9.41,7.58,7.58,0,0,1-3,4.83l-.58.42a2.13,2.13,0,0,0-.84,2.11,2.12,2.12,0,0,0,1.9,1.72l5.74.49"/><polyline class="cls-5" points="126.05 327.83 151.45 330.5 140.29 334.3 128.44 333.08 128.44 333.08"/><path class="cls-7" d="M571.35,57.81a2.27,2.27,0,0,1-1.78-.85l-7.74-9.67a2.27,2.27,0,0,1,0-2.85l7.74-9.66a2.28,2.28,0,0,1,3.56,2.85l-6.61,8.24,6.61,8.24a2.28,2.28,0,0,1-.36,3.2A2.24,2.24,0,0,1,571.35,57.81Z"/><path class="cls-7" d="M598.26,57.81a2.24,2.24,0,0,1-1.42-.5,2.28,2.28,0,0,1-.36-3.2l6.6-8.24-6.6-8.24A2.28,2.28,0,0,1,600,34.78l7.74,9.66a2.3,2.3,0,0,1,0,2.85L600,57A2.27,2.27,0,0,1,598.26,57.81Z"/><path class="cls-7" d="M581.06,64.16a2.92,2.92,0,0,1-.5,0,2.28,2.28,0,0,1-1.72-2.73l7.49-33a2.28,2.28,0,1,1,4.44,1l-7.49,33A2.27,2.27,0,0,1,581.06,64.16Z"/></g></g></svg>