<svg xmlns="http://www.w3.org/2000/svg" viewBox="0 0 650.6 607.51"><defs><style>.cls-1{fill:#323433;}.cls-2{fill:#f0f0f0;}.cls-3{fill:#52cca7;}.cls-4{fill:#fff;}.cls-5,.cls-6,.cls-7,.cls-8,.cls-9{fill:none;}.cls-5,.cls-6,.cls-7,.cls-8{stroke:#323433;}.cls-5,.cls-6,.cls-8,.cls-9{stroke-linecap:round;stroke-linejoin:round;}.cls-5,.cls-6,.cls-7,.cls-9{stroke-width:1.74px;}.cls-5{stroke-dasharray:2.67 5.33;}.cls-7{stroke-miterlimit:10;}.cls-8{stroke-width:2.61px;}.cls-9{stroke:#52cca7;}</style></defs><title>Asset 29</title><g id="Layer_2" data-name="Layer 2"><g id="graphic"><path class="cls-1" d="M189.17,482.71a22.08,22.08,0,1,1-22.08-22.08A22.09,22.09,0,0,1,189.17,482.71Z"/><ellipse class="cls-2" cx="325.3" cy="585.96" rx="325.3" ry="21.55"/><rect class="cls-3" x="76.74" y="85.87" width="22.97" height="18.53"/><polygon class="cls-4" points="76.74 85.87 76.74 104.4 53.77 104.4 53.77 73.72 53.77 61.64 65.25 61.64 76.74 61.64 76.74 85.87"/><path class="cls-4" d="M65.25,6.53a14,14,0,1,1-14,14A14,14,0,0,1,65.25,6.53Z"/><rect class="cls-4" x="30.79" y="73.72" width="22.98" height="30.68"/><path class="cls-5" d="M79.26,20.54a14,14,0,1,0-14,14A14,14,0,0,0,79.26,20.54Z"/><polyline class="cls-6" points="53.77 73.72 53.77 61.64 65.25 61.64 76.74 61.64 76.74 85.87"/><line class="cls-6" x1="76.74" y1="104.4" x2="53.77" y2="104.4"/><rect class="cls-6" x="30.79" y="73.72" width="22.98" height="30.68"/><rect class="cls-6" x="76.74" y="85.87" width="22.97" height="18.53"/><line class="cls-6" x1="65.25" y1="34.55" x2="65.25" y2="61.64"/><path class="cls-7" d="M169.73,580.17h0a97.1,97.1,0,1,0-85-147.59"/><path class="cls-8" d="M113.85,449.13A63.61,63.61,0,1,1,169,546.69"/><path class="cls-4" d="M602.16,508.38a5.42,5.42,0,0,1,.33,8.23L530.94,583a6.08,6.08,0,0,1-8.38-.12l-3.41-3.36,80.73-72.41a8.34,8.34,0,0,1,2.21,1.25Z"/><path class="cls-1" d="M599.88,507.08l-42.4,38L519.15,579.5,502.7,563.33a60.17,60.17,0,0,0,16-40.92,60.84,60.84,0,0,0-.56-8.26l6.06,6.76c5.25,3.82,13.89,2.3,23.93-.91,15.59-5,34.55-14,49.36-13.41A8.2,8.2,0,0,1,599.88,507.08Z"/><path class="cls-4" d="M518.68,522.41a60.17,60.17,0,0,1-16,40.92L391.07,453.63a24.61,24.61,0,0,0-23.74-6.19c-8,2.19-19.16,5.11-32,8.12l-18.08-57.23H394.6q1.56,0,3.09.12A44.11,44.11,0,0,1,427.47,413L438,424.79l80.1,89.36A60.84,60.84,0,0,1,518.68,522.41Z"/><path class="cls-4" d="M497.7,214.71a2.74,2.74,0,0,1,1.4,4.9c-8.81,6.69-27.3,18.53-44.2,15.26a7.64,7.64,0,0,0-7.72,3c-2.61,3.72-5.31,7.73-7.93,11.74l-28.37-16.16,22.79-33.81a5.36,5.36,0,0,1,3.66-2.43l1.46-.24a5.34,5.34,0,0,1,6.18,5.68l-.73,7.1Z"/><path class="cls-1" d="M450.75,256.21c-19,23.81-32.48,42-47.53,62-2.66,3.54-5.37,7.14-8.17,10.83a28.79,28.79,0,0,0-25.5.86c-6.86,3.56-13.57,7.08-20.21,10.57q-5.8-4.63-11.25-9.15c-21.33-17.72-39.12-34.67-59.66-55,3.6,31.15,9.15,54.17,28.33,71.79a85.7,85.7,0,0,0,10.26,8q-1,1.41-2.07,2.7l-8.69,4.74c-4,2.17-7.93,4.36-11.92,6.57l-4.4,2.45c-10.31-.38-20.5-7.69-29-21.35a115.4,115.4,0,0,1-11.89-27.45C244,307,244.29,275,245,247.7c.17-6.8.36-13.29.51-19.19h27a47.14,47.14,0,0,1,34,14.46c20.28,21.11,38.9,38.68,56,52.09a4.37,4.37,0,0,0,6.35-1l40.45-61.48,1.66.94,28.37,16.16Z"/><path class="cls-4" d="M412.63,357.57a30.31,30.31,0,0,1-2.17,9.45c-4.24,10.54-8.48,21-12.77,31.42h0q-1.53-.12-3.09-.12H317.25l-11-34.78,8.69-4.74c11.35-6.16,22.74-12.23,34.39-18.37q5.93-3.12,12-6.26l6.75-3.52,1.51-.79a28.79,28.79,0,0,1,25.5-.86,30.27,30.27,0,0,1,15.81,16.8A28.15,28.15,0,0,1,412.63,357.57Z"/><path class="cls-4" d="M396.65,576.6a5.43,5.43,0,0,1-5.36,6.26H293.71a6.08,6.08,0,0,1-6.07-5.8s0-1.67.12-4.76h0l108.1,1.8a8.06,8.06,0,0,1,.77,2.42S396.64,576.57,396.65,576.6Z"/><path class="cls-1" d="M395.86,574.1l-51.53-.86-56.57-.94h0c.11-4.9.31-13.36.56-24.3,1.79,0,3.55,0,5.25-.14,30.79-1.59,47.26-16.75,47.26-16.75-2.65,10.07,3.1,15.45,12.1,19.81,12.19,5.91,30.32,9.94,41.5,21.18A7.86,7.86,0,0,1,395.86,574.1Z"/><path class="cls-4" d="M377.52,446.85q-4.41,10.39-9,21.1c-8.53,19.85-17.64,40.65-27.68,63.16,0,0-16.47,15.16-47.26,16.75l22.36-67.67,7.22-21.87c4.19-.92,8.27-1.84,12.18-2.76,12.84-3,24-5.93,32-8.12A24.63,24.63,0,0,1,377.52,446.85Z"/><path class="cls-1" d="M377.52,446.85a24.63,24.63,0,0,0-10.19.59c-8,2.19-19.16,5.11-32,8.12-3.91.92-8,1.84-12.18,2.76L319.3,470c11.47-2.74,21.4-5.35,28.75-7.36a24.57,24.57,0,0,1,21.06,3.92Q373.42,456.54,377.52,446.85Z"/><path class="cls-3" d="M335.33,455.56c-3.91.92-8,1.84-12.18,2.76-14.68,3.22-30.83,6.32-46.8,8.57a332.48,332.48,0,0,1-37.66,3.36c-17.67.43-33.08-1.3-43.26-6.54-23.36-12-27.65-39.82-26.54-63.26a177.33,177.33,0,0,1,3.91-28.81c.07-.36.15-.71.22-1.05a35,35,0,0,0,3.58-3.45,43.33,43.33,0,0,0,6-8.77,63.66,63.66,0,0,0,2.87-6.31l.33-.84H261c8.46,13.66,18.65,21,29,21.35q8.19-4.57,16.32-9l11,34.78Z"/><path class="cls-1" d="M203.06,156.65c-8.21-44.2,74.24-48.67,68.25,10.13-1.4,13.74-7.76,23.92-17.94,30.54,11.08,9.55,16.53,18.63,17.73,31.19H237.17a2.06,2.06,0,0,1-2-2.38c1.49-9.27,4.68-22.87,11.5-45.83,7-3.56,9.74-8.83,9.4-12.35-.29-3-4-3.14-8-2.07-1.4-15.56-13-24.14-21.56-28.41a11.13,11.13,0,0,0-14.34,3.94c-2.67,4.17-6,9.63-9.09,15.24Z"/><path class="cls-4" d="M261,351.22H185.81c5.18-13.58,8-32.12,9.1-51.86.07-1.31.14-2.63.19-4a409.25,409.25,0,0,0-1.43-54.51h0l27.75,20.58a8.75,8.75,0,0,0,11.58-1l12-12.73c-.68,27.29-.93,59.32,4.12,76.07A115.4,115.4,0,0,0,261,351.22Z"/><path class="cls-4" d="M256,168c.34,3.52-2.45,8.79-9.4,12.35-6.82,23-10,36.56-11.5,45.83a2.06,2.06,0,0,0,2,2.38h8.31c-.14,5.9-.34,12.4-.51,19.19l-12,12.73a8.75,8.75,0,0,1-11.58,1l-27.75-20.58h0c-.42-4.48-.9-8.81-1.44-12.94a45.58,45.58,0,0,0,7.12.56h.25a4.11,4.11,0,0,0,4-3l7.66-27.73S193.56,193,194.6,178c.37-5.23,4.12-13.44,8.46-21.38,3.06-5.61,6.42-11.07,9.09-15.24a11.13,11.13,0,0,1,14.34-3.94c8.58,4.27,20.16,12.85,21.56,28.41C252,164.81,255.74,164.91,256,168Zm-30.41-4.62c.87-1.29,1-2.7.37-3.15s-1.91.23-2.78,1.52-1,2.7-.37,3.15S224.75,164.62,225.62,163.33Z"/><path class="cls-1" d="M226,160.18c.66.45.5,1.86-.37,3.15s-2.11,2-2.78,1.52-.5-1.85.37-3.15S225.32,159.73,226,160.18Z"/><path class="cls-1" d="M185.81,351.22a65.91,65.91,0,0,1-3.2,7.15A39.56,39.56,0,0,1,173,370.59c-21.5,18-53.51-2-53.51-2,22.35-31.41,36-58.81,40.12-84.71-35.15-33.85-52-52.63-78.82-83l-11-12.42A33.8,33.8,0,0,1,66.6,148c2.33-3.69,4.55-7.26,6.67-10.75,15.08-24.8,25.19-45.11,35.39-66.7L118,77.36l23.48,17.17,5.83,4.27-34.93,57a6.42,6.42,0,0,0,.77,7.72c23.13,24.91,33.73,33.6,56.07,53.53a45.24,45.24,0,0,0,23,10.93h0c.54,4.13,1,8.46,1.44,12.94C197.09,277.57,196.12,324.21,185.81,351.22Z"/><path class="cls-4" d="M158.18,11.48a50.62,50.62,0,0,1,.8,54.78L141.44,94.53,118,77.36l13.14-21.25L116.29,37.34a1.93,1.93,0,0,1-.38-.79,1.84,1.84,0,0,1,1-2c.39-.2.77-.37,1.14-.53,3.5-1.42,6.46-.89,9.72.82,2.89,1.52,6,4,10,6.8a3.15,3.15,0,0,0,4.57-1l5.9-10.33a8.85,8.85,0,0,0-.32-9.31l-6.43-9.66-7.81-1.14-6.41-.93a5.93,5.93,0,0,1-4.14-2.72,5.91,5.91,0,0,1-.51-1,3.1,3.1,0,0,1,3-4.18l15.19.32a21.15,21.15,0,0,1,17,9.2C157.89,11,158,11.26,158.18,11.48Z"/><path class="cls-1" d="M133.64,10.18a14.41,14.41,0,0,1-5.9,24.64c-3.26-1.71-6.22-2.24-9.72-.82a14.41,14.41,0,0,1,5.07-27.47,5.93,5.93,0,0,0,4.14,2.72Z"/><path class="cls-8" d="M410.88,233.49l22.79-33.81a5.36,5.36,0,0,1,3.66-2.43l1.46-.24a5.34,5.34,0,0,1,6.18,5.68l-.73,7.1,53.46,4.92a2.74,2.74,0,0,1,1.4,4.9c-8.81,6.69-27.3,18.53-44.2,15.26a7.64,7.64,0,0,0-7.72,3c-2.61,3.72-5.31,7.73-7.93,11.74"/><path class="cls-8" d="M118,77.36l13.14-21.25L116.29,37.34a1.93,1.93,0,0,1-.38-.79,1.84,1.84,0,0,1,1-2c.39-.2.77-.37,1.14-.53,3.5-1.42,6.46-.89,9.72.82,2.89,1.52,6,4,10,6.8a3.15,3.15,0,0,0,4.57-1l5.9-10.33a8.85,8.85,0,0,0-.32-9.31l-6.43-9.66-7.81-1.14-6.41-.93a5.93,5.93,0,0,1-4.14-2.72,5.91,5.91,0,0,1-.51-1,3.1,3.1,0,0,1,3-4.18l15.19.32a21.15,21.15,0,0,1,17,9.2c.15.21.3.43.44.65a50.62,50.62,0,0,1,.8,54.78L141.44,94.53"/><path class="cls-8" d="M192.23,228a45.58,45.58,0,0,0,7.12.56h.25a4.11,4.11,0,0,0,4-3l7.66-27.73S193.56,193,194.6,178c.37-5.23,4.12-13.44,8.46-21.38,3.06-5.61,6.42-11.07,9.09-15.24a11.13,11.13,0,0,1,14.34-3.94c8.58,4.27,20.16,12.85,21.56,28.41,3.93-1.07,7.69-1,8,2.07.34,3.52-2.45,8.79-9.4,12.35-6.82,23-10,36.56-11.5,45.83a2.06,2.06,0,0,0,2,2.38h35.26a47.14,47.14,0,0,1,34,14.46c20.28,21.11,38.9,38.68,56,52.09a4.37,4.37,0,0,0,6.35-1l40.45-61.48,1.66.94,28.37,16.16,11.5,6.56c-22.39,28-37.07,48.23-55.71,72.8"/><path class="cls-8" d="M192.23,227.94h0c.54,4.13,1,8.46,1.44,12.94,3.42,36.68,2.45,83.32-7.86,110.33a65.91,65.91,0,0,1-3.2,7.15A39.56,39.56,0,0,1,173,370.59c-21.5,18-53.5-2-53.5-2,22.34-31.4,36-58.79,40.11-84.7-39.7-38.23-56.08-57.24-89.79-95.39A33.8,33.8,0,0,1,66.6,148C85.5,118.15,97,95.18,108.66,70.55L118,77.36l23.47,17.17,5.84,4.27-34.93,57a6.42,6.42,0,0,0,.77,7.72c23.13,24.91,33.73,33.6,56.07,53.53a45.24,45.24,0,0,0,23,10.93"/><path class="cls-8" d="M349.34,340.44c-26.58-21.18-46.88-40.35-70.91-64.14,4.17,36.11,11,61.28,38.59,79.81q-1,1.41-2.07,2.7h0"/><path class="cls-8" d="M289.94,372.57c-10.31-.38-20.5-7.69-29-21.35a115.58,115.58,0,0,1-11.89-27.45C244,307,244.29,275,245,247.7c.17-6.79.37-13.29.51-19.19"/><path class="cls-8" d="M203.06,156.65c-8.21-44.2,74.24-48.67,68.25,10.13-1.4,13.74-7.76,23.92-17.94,30.54,11.08,9.55,16.53,18.63,17.73,31.19"/><path class="cls-8" d="M212.5,154.59l-4.13,6.07a3.21,3.21,0,0,1-2.46,1.4,3.2,3.2,0,0,0-2.87,2.31,2.5,2.5,0,0,0-.11.76,2.71,2.71,0,0,0,1.43,2.39l4.56,2.44"/><path class="cls-8" d="M225.62,163.33c-.87,1.29-2.11,2-2.78,1.52s-.5-1.85.37-3.15,2.11-2,2.78-1.52S226.49,162,225.62,163.33Z"/><path class="cls-8" d="M193.67,240.89l27.75,20.58a8.75,8.75,0,0,0,11.58-1l12-12.73"/><path class="cls-8" d="M173,370.59c-4.64,20.71-12.91,75,22.41,93.12,25.41,13.07,83.33,4.33,127.72-5.39,4.19-.91,8.27-1.84,12.18-2.76,12.84-3,24-5.92,32-8.12a24.6,24.6,0,0,1,23.73,6.19L502.7,563.33l16.45,16.16,3.41,3.36a6.08,6.08,0,0,0,8.38.12l71.55-66.36a5.42,5.42,0,0,0-.33-8.23l-.07-.05a8.34,8.34,0,0,0-2.21-1.25,8.2,8.2,0,0,0-2.41-.49c-24.36-1-59.9,24.07-73.29,14.32l-6.06-6.76L427.46,413a44.07,44.07,0,0,0-29.77-14.56q-1.53-.12-3.09-.12H317.25"/><path class="cls-8" d="M518.12,514.15a60.84,60.84,0,0,1,.56,8.26,60.17,60.17,0,0,1-16,40.92"/><line class="cls-8" x1="519.15" y1="579.49" x2="599.88" y2="507.08"/><line class="cls-8" x1="287.76" y1="572.3" x2="395.86" y2="574.1"/><path class="cls-8" d="M264.53,386.94c8.61-4.94,17.05-9.71,25.41-14.37q8.21-4.57,16.32-9,4.35-2.39,8.69-4.74c11.36-6.16,22.74-12.23,34.39-18.37,6.64-3.49,13.35-7,20.21-10.57A28.74,28.74,0,0,1,395,329c13.37,6,21.94,21.82,15.42,38-4.24,10.54-8.48,21-12.77,31.42"/><path class="cls-8" d="M377.52,446.85c-11.09,26.18-23,53.65-36.69,84.26"/><path class="cls-8" d="M287.76,572.3c.11-4.9.31-13.36.56-24.3,1.79,0,3.54,0,5.25-.14,30.79-1.59,47.26-16.75,47.26-16.75-6.25,23.71,34.17,21.45,53.6,41a7.86,7.86,0,0,1,1.43,2,8.06,8.06,0,0,1,.77,2.42s0,.05,0,.08a5.43,5.43,0,0,1-5.36,6.26H293.71a6.08,6.08,0,0,1-6.07-5.8S287.68,575.39,287.76,572.3Z"/><line class="cls-8" x1="293.57" y1="547.86" x2="323.15" y2="458.32"/><line class="cls-8" x1="342.97" y1="398.33" x2="346.92" y2="386.41"/><polyline class="cls-8" points="306.26 363.55 317.25 398.33 335.33 455.56"/><polyline class="cls-8" points="185.81 351.22 185.81 351.22 260.98 351.22"/><polygon class="cls-9" points="551.97 186.42 459.65 197.5 420.58 113.13 488.76 49.9 569.96 95.2 551.97 186.42"/><polygon class="cls-9" points="531.71 165.71 470.73 178.46 449.77 120.48 491.38 72.76 553.09 103.7 531.71 165.71"/><polygon class="cls-9" points="513.54 147.14 480.35 161.93 473.77 125.65 494.59 100.6 528.09 116.29 513.54 147.14"/><polyline class="cls-9" points="569.96 95.2 498.13 131.39 459.65 197.5"/><line class="cls-9" x1="498.13" y1="131.39" x2="551.97" y2="186.42"/><line class="cls-9" x1="498.13" y1="131.39" x2="488.76" y2="49.9"/><line class="cls-9" x1="498.13" y1="131.39" x2="420.58" y2="113.13"/><path class="cls-1" d="M522.41,425.66a5.9,5.9,0,1,0-5.89,5.89A5.89,5.89,0,0,0,522.41,425.66Z"/><polyline class="cls-6" points="61.63 268.78 75.69 270.56 77.47 284.63 91.53 286.41 93.31 300.47 107.38 302.25"/><line class="cls-6" x1="25.85" y1="218.75" x2="38.7" y2="231.61"/><line class="cls-6" x1="25.85" y1="231.61" x2="38.7" y2="218.75"/><polygon class="cls-3" points="564.78 453.84 536.15 446.43 543.56 475.06 564.78 453.84"/><path class="cls-3" d="M167.09,482.71l-7.89,20.63a22.1,22.1,0,0,1-13.38-14.69Z"/></g></g></svg>