<svg xmlns="http://www.w3.org/2000/svg" viewBox="0 0 600.06 562.23"><defs><style>.cls-1{fill:#52cca7;}.cls-2{fill:#f0f0f0;}.cls-3{fill:#fff;}.cls-4,.cls-6,.cls-7{fill:none;stroke:#323433;}.cls-4,.cls-7{stroke-linecap:round;stroke-linejoin:round;}.cls-4,.cls-6{stroke-width:2.61px;}.cls-5{fill:#323433;}.cls-6{stroke-miterlimit:10;}.cls-7{stroke-width:1.74px;}</style></defs><title>Asset 28</title><g id="Layer_2" data-name="Layer 2"><g id="graphic"><path class="cls-1" d="M170.87,38.13,154.1,69.49l0,0-31.91,59.47h0l-2,3.66-.28-.15-12.69,24.33a8.56,8.56,0,0,0,3.49,11.58l61.5,33a8.56,8.56,0,0,0,11.59-3.49l8-15.35.17.09s26.35-49.09,33.17-61.81l.06,0c16.29-30.46,11.49-21.56,22.25-41.61Z"/><ellipse class="cls-2" cx="300.03" cy="542.36" rx="300.03" ry="19.87"/><path class="cls-3" d="M153.55,435.57h74.57a92.25,92.25,0,0,0-36.44-69.12l-41.44,62.37A18.21,18.21,0,0,1,153.55,435.57Z"/><path class="cls-2" d="M242.79,435.57H228.12a92.25,92.25,0,0,0-36.44-69.12l8.12-12.23A106.91,106.91,0,0,1,242.79,435.57Z"/><path class="cls-4" d="M242.79,435.57a106.91,106.91,0,0,0-43-81.35"/><path class="cls-4" d="M228.12,435.57a92.25,92.25,0,0,0-36.44-69.12"/><path class="cls-2" d="M228,446h14.68a107,107,0,1,1-50.35-96.88l-8.16,12.2A92.4,92.4,0,1,0,228,446Z"/><path class="cls-4" d="M192.37,349.13A107.07,107.07,0,1,0,242.72,446"/><path class="cls-4" d="M184.21,361.33A92.4,92.4,0,1,0,228,446"/><path class="cls-5" d="M351,297.74l-38.77,44.69q.63-5.16,1.27-10.39a53.35,53.35,0,0,0-7.32-34.28Z"/><line class="cls-4" x1="351.04" y1="297.74" x2="312.27" y2="342.43"/><path class="cls-3" d="M358.93,287.19l-54.1,0a7.41,7.41,0,0,0-4-8.34l-9.9-4.78h0c-8.37-12.39-16.89-24.24-26.17-37.16-2.84-3.94-5.74-8-8.74-12.17h43.57l29.21,20.15,22.59,15.58A21.76,21.76,0,0,1,358.93,287.19Z"/><path class="cls-4" d="M299.59,224.76l51.8,35.73a21.76,21.76,0,0,1,7.54,26.7"/><path class="cls-4" d="M290.93,274.09h0l9.9,4.78a7.41,7.41,0,0,1,4,8.34"/><path class="cls-5" d="M268.08,328.93a20.56,20.56,0,0,1,.77,8.27c-1.59,14.15-3.08,27.65-4.5,41.05-4.27-10.38-8.65-21.08-12.78-31.19Z"/><polyline class="cls-4" points="268.08 328.93 251.57 347.06 251.56 347.06"/><path class="cls-3" d="M252.41,376.9l9.65,23.54q-.46,4.55-.91,9.13h0L229.06,379a5,5,0,0,1-.24-6.93l7.88-8.65Z"/><polygon class="cls-5" points="243.71 355.68 252.41 376.9 236.69 363.38 243.71 355.68"/><path class="cls-4" d="M243.71,355.68h0l-7,7.7L228.82,372a5,5,0,0,0,.24,6.93l32.09,30.61"/><line class="cls-4" x1="236.7" y1="363.38" x2="252.41" y2="376.9"/><path class="cls-2" d="M461.44,333A107,107,0,1,1,420.88,341l4.88,13.85a92.05,92.05,0,1,0,10.51-3.67l-5-13.83A107.05,107.05,0,0,1,461.44,333Z"/><path class="cls-5" d="M479.72,440.06a18.29,18.29,0,0,1-18.28,18.29c-16.38,0-24.4-20-12.81-31.33a19.4,19.4,0,0,1,2-1.7,17.64,17.64,0,0,1,11.09-3.54A18.32,18.32,0,0,1,479.72,440.06Zm-11.3,0a7,7,0,1,0-7,7A7,7,0,0,0,468.42,440.06Z"/><path class="cls-2" d="M461.44,433.08a7,7,0,1,1-7,7A7,7,0,0,1,461.44,433.08Z"/><path class="cls-3" d="M436.27,351.13l25.43,70.65a17.64,17.64,0,0,0-11.09,3.54L425.76,354.8,420.88,341l-5.58-15.82,10.37-3.46,5.63,15.63Z"/><path class="cls-5" d="M430.39,119.35a3.91,3.91,0,0,1,1,5.43l-9.23,13.61-10.26,6.49a20.25,20.25,0,0,1-2.59,1.4l16.84-24.79a4.14,4.14,0,0,0-1-5.7Z"/><path class="cls-3" d="M431.42,234.26a4.43,4.43,0,0,1-3.82,6.66h-5.22a1,1,0,0,0,0-.17,8,8,0,0,0-14.71-4.31h-12.1a7.48,7.48,0,0,0-4.52,1.5c-6.16-4-12.21-8.08-18.27-12.35l13.77-16.93,7.59,8.07a8.18,8.18,0,0,0,6,2.57h16.18a11.14,11.14,0,0,1,9.61,5.51Z"/><path class="cls-1" d="M427.63,319.51a1.41,1.41,0,0,1-.9,1.8l-1.06.36-10.37,3.46-1.6.54a1.43,1.43,0,0,1-1.8-.9l-2.31-6.9-95.27,108a26.77,26.77,0,0,0-4.74-5.39,28.55,28.55,0,0,0-3.39-2.51L406.13,307.5l-3.27-9.78-51.82,0-44.82,0a3.37,3.37,0,0,0-.19-.32c-2.16-3.5-4.3-6.9-6.44-10.23h5.24l54.1,0h40.41a1.51,1.51,0,0,1-.07-.46,1.44,1.44,0,0,1,1-1.35l1.6-.53,10.3-3.44,1.13-.38a1.43,1.43,0,0,1,1.81.9Z"/><path class="cls-3" d="M425.67,136.18a1.28,1.28,0,0,1,1.7,1.87l-12.2,15.6a26.41,26.41,0,0,1-12.76,8.9c-8.46,2.71-16.54,5.19-24.36,7.49V149.8h12l7.06-11a2.94,2.94,0,0,1,2.64-1.35,2.87,2.87,0,0,1,1,.23,2.94,2.94,0,0,1,1.79,2.7,2.79,2.79,0,0,1-.13.85l-2.11,7h.17a21.44,21.44,0,0,0,8.87-1.92,20.25,20.25,0,0,0,2.59-1.4l10.26-6.49Z"/><path class="cls-3" d="M425.14,115.79a4.14,4.14,0,0,1,1,5.7l-16.84,24.79a21.44,21.44,0,0,1-8.87,1.92h-.17l2.11-7a2.79,2.79,0,0,0,.13-.85,2.94,2.94,0,0,0-1.79-2.7l15.66-23.08a3.91,3.91,0,0,1,5.43-1l3.24,2.19Z"/><path class="cls-5" d="M422.39,240.75a1,1,0,0,1,0,.17,8,8,0,0,1-8,7.81,8,8,0,0,1-6.72-12.29,8,8,0,0,1,14.71,4.31Z"/><path class="cls-3" d="M400.69,248.69l11.45,32.71-10.3,3.44L388.46,246.5a7.55,7.55,0,0,1,7.12-10.06h12.1a8,8,0,0,0,.26,9H403a2.45,2.45,0,0,0-2.3,1.58A2.36,2.36,0,0,0,400.69,248.69Z"/><path class="cls-3" d="M409.61,247.13l-.64,2.08a3.21,3.21,0,0,1-5.54,1.09l-2.7-3.29a2.45,2.45,0,0,1,2.3-1.58h4.91A7.91,7.91,0,0,0,409.61,247.13Z"/><path class="cls-5" d="M356.06,176.2l30.5,32.46-13.77,16.93c-17.47-12.32-35-26-55-41.73a22.62,22.62,0,0,0,8.5-.32C336.19,181.29,346,178.88,356.06,176.2Z"/><path class="cls-5" d="M285.6,114.29,241.26,90.76l2.38-4.43.28-.53.77-1.43.53-1,.26-.49c.66-1.22,1.34-2.44,2-3.63C253,70,260.17,61.85,274.78,64.52a52.32,52.32,0,0,1,28.93,15.72h0l.22.23c23.8,25.12,25.13,69.33,25.13,69.33h49V170c-7.53,2.21-14.82,4.25-22,6.16-10.06,2.68-19.87,5.09-29.74,7.34a22.62,22.62,0,0,1-8.5.32A22.92,22.92,0,0,1,299.67,169a2,2,0,0,1-.08-.22c-1.3-3.62-2.51-7.1-3.64-10.52-1.27-3.84-2.43-7.61-3.5-11.44-1.45-5.14-2.74-10.37-3.91-16C287.47,125.68,286.5,120.25,285.6,114.29Z"/><path class="cls-5" d="M328.8,244.91l-64-8c-2.84-3.94-5.74-8-8.74-12.17h43.57Z"/><path class="cls-3" d="M349.63,43.12a2.33,2.33,0,0,1-.74,3.14l-2,1.29a2.91,2.91,0,0,0-1.29,1.94c-1,6-2.26,10.22-5.44,14.59a7.74,7.74,0,0,1-6.43,3.2,110.82,110.82,0,0,1-14.45-1,5.79,5.79,0,0,0-5.33,2l-10,12.16-.22-.23h0a126.18,126.18,0,0,0-15.24-20.07l12.94-13.84a67,67,0,0,1,7.3-5.61,7.27,7.27,0,0,1-.22-1.77c0-3.36,2.23-6.08,5-6.08,2.1,0,4.35,2.5,4.62,3.84h3.51s2.29-7,6.16-10.45h20.61C346,33,346.41,37.54,349.63,43.12Z"/><path class="cls-3" d="M337.44,477.27l-.91,9.47a5,5,0,0,1-5,4.51H259.45a5,5,0,0,1-5-5.38c.24-3.11.49-6.16.73-9.17h82.19A3.66,3.66,0,0,1,337.44,477.27Z"/><path class="cls-5" d="M337.39,476.7H255.2c.63-7.88,1.25-15.46,1.88-22.81H301c3.19,1.85,6.76,3.67,10.4,5.47C323.58,465.38,336.45,471.12,337.39,476.7Z"/><path class="cls-5" d="M298,26.26h29.76c-3.87,3.41-6.16,10.45-6.16,10.45h-3.51c-.27-1.34-2.52-3.84-4.62-3.84-2.75,0-5,2.72-5,6.08a7.27,7.27,0,0,0,.22,1.77,67,67,0,0,0-7.3,5.61C299.62,38.5,298.19,33.34,298,26.26Z"/><path class="cls-3" d="M314.32,425.84a26.9,26.9,0,0,1-2.94,33.52c-3.64-1.8-7.21-3.62-10.4-5.47.81-11.21,1.87-23.66,3.16-37.11.7.36,1.38.75,2.05,1.16a28.55,28.55,0,0,1,3.39,2.51A26.77,26.77,0,0,1,314.32,425.84Z"/><path class="cls-3" d="M313.54,332q-.65,5.23-1.27,10.39c-3.25,26.78-6,51.95-8.13,74.35-1.29,13.45-2.35,25.9-3.16,37.11h-43.9c.23-2.66.46-5.28.69-7.88q.47-5.28.92-10.44c.82-8.9,1.63-17.52,2.46-26q.45-4.59.91-9.13c.74-7.43,1.51-14.8,2.29-22.19,1.42-13.4,2.91-26.9,4.5-41.05a20.53,20.53,0,0,0-5.5-16.39c-5.17-5.43-12.64-13.7-20.8-23.28-2.81-3.3-5.7-6.75-8.6-10.29h0c-6.87-8.39-13.83-17.3-20-25.91-.61-.85-1.21-1.69-1.8-2.53-2.73-3.9-5.28-7.71-7.57-11.36-4.35-7-7.73-13.35-9.56-18.61a31.67,31.67,0,0,1-1.16-4.07H256q4.73,6.62,9.19,12.81c9.11,12.67,17.49,24.34,25.72,36.52h0c2.9,4.29,5.78,8.64,8.66,13.12h0c2.14,3.33,4.28,6.73,6.44,10.23.07.1.13.21.2.32A53.4,53.4,0,0,1,313.54,332Z"/><path class="cls-5" d="M265.21,237.57,195,228.83a31.67,31.67,0,0,1-1.16-4.07H256Q260.75,231.38,265.21,237.57Z"/><rect class="cls-5" x="283.68" y="491.25" width="27.09" height="9.45" rx="2.32"/><path class="cls-5" d="M299.59,168.74v56H182.27c1.95-13.79,6.71-28.53,11.57-41h0L296,158.22C297.08,161.64,298.29,165.12,299.59,168.74Z"/><path class="cls-3" d="M296,158.22,193.84,183.79h0a.88.88,0,0,0,0-.15c1.89-4.82,3.79-9.29,5.54-13.23l.17-.38,92.85-23.25C293.52,150.61,294.68,154.38,296,158.22Z"/><path class="cls-5" d="M292.45,146.78,199.6,170c3.75-8.39,6.79-14.25,7.53-15.67l.18-.33,23.33-43.48L235,102.4l53.53,28.4C289.71,136.41,291,141.64,292.45,146.78Z"/><path class="cls-5" d="M288.47,60.17a126.18,126.18,0,0,1,15.24,20.07,52.32,52.32,0,0,0-28.93-15.72C260.17,61.85,253,70,247.52,79.26l-.07,0,4.65-8.67a8.51,8.51,0,0,0,0-8.18c4.76-5.9,13.71-15.44,20.86-14C276.83,49.2,282.64,53.92,288.47,60.17Z"/><path class="cls-3" d="M288.54,130.8,235,102.4l6.25-11.64,44.34,23.53C286.5,120.25,287.47,125.68,288.54,130.8Z"/><path class="cls-1" d="M251.57,347.06c4.13,10.11,8.51,20.81,12.78,31.19-.78,7.39-1.55,14.76-2.29,22.19l-9.65-23.54-8.7-21.22L226.59,313.9,199.8,354.22l-8.12,12.23-41.44,62.37a18.32,18.32,0,0,0-7.37-5.63h0l41.34-61.86,8.16-12.2,30.15-45.83-6-16.05L205.43,258.8h6.73c.59.84,1.19,1.68,1.8,2.53l10.09,25.91H234c2.9,3.54,5.79,7,8.6,10.29l-.29.25H231.71C233.93,303.71,242.07,323.82,251.57,347.06Z"/><path class="cls-1" d="M242.79,435.57h15.9c-.31,3.44-.61,6.92-.92,10.44H153.12a18.25,18.25,0,0,0,1-5.95,18.53,18.53,0,0,0-.56-4.49h89.24Z"/><path class="cls-3" d="M252.05,62.37a8.51,8.51,0,0,1,0,8.18l-4.65,8.67L170.87,38.13,159.46,32s6.84-17.2,27.64-6l61.51,33A8.47,8.47,0,0,1,252.05,62.37Z"/><path class="cls-3" d="M247.45,79.22l.07,0c-.7,1.19-1.38,2.41-2,3.63Z"/><path class="cls-3" d="M245.22,83.38l-.53,1C244.86,84,245,83.71,245.22,83.38Z"/><path class="cls-3" d="M244.69,84.37l-.77,1.43C244.17,85.32,244.43,84.85,244.69,84.37Z"/><path class="cls-5" d="M212.16,258.8h-8.31a15,15,0,0,0-13.15,7.79,12.91,12.91,0,0,1-24.21-6,13.12,13.12,0,0,1,13.16-13.16h24.94C206.88,251.09,209.43,254.9,212.16,258.8Z"/><path class="cls-3" d="M198.73,170l8.4-15.67c-.74,1.42-3.78,7.28-7.53,15.67l-.6.15Z"/><path class="cls-5" d="M209.5,75.34h0a3.4,3.4,0,0,1-4.63,1.42L194,71a3.41,3.41,0,0,1-1.41-4.6h0a3.42,3.42,0,0,1,4.64-1.41l10.83,5.81A3.4,3.4,0,0,1,209.5,75.34Z"/><path class="cls-3" d="M199,170.18l.6-.15-.17.38Z"/><path class="cls-3" d="M199,170.18l.43.23c-1.75,3.94-3.65,8.41-5.54,13.23l-1.92-1,6.62-12.32Z"/><polygon class="cls-3" points="199 170.18 198.59 170.28 198.73 170.03 199 170.18"/><path class="cls-5" d="M153.55,435.57a18.53,18.53,0,0,1,.56,4.49,18.24,18.24,0,1,1-.56-4.49Zm-10.75,4.49a7,7,0,1,0-7,7A7,7,0,0,0,142.8,440.06Z"/><path class="cls-2" d="M135.82,433.08a7,7,0,1,1-7,7A7,7,0,0,1,135.82,433.08Z"/><path class="cls-4" d="M420.88,341a106.53,106.53,0,1,0,10.42-3.65"/><path class="cls-4" d="M425.76,354.8a92.05,92.05,0,1,0,10.51-3.67"/><polyline class="cls-6" points="450.61 425.32 425.76 354.8 420.88 340.95 415.31 325.13"/><path class="cls-6" d="M401.84,284.84,388.46,246.5a7.55,7.55,0,0,1,7.12-10.06h12.1"/><path class="cls-6" d="M407.94,245.43H403a2.45,2.45,0,0,0-2.3,1.58,2.36,2.36,0,0,0,0,1.68l11.45,32.71"/><polyline class="cls-6" points="425.67 321.67 431.3 337.3 436.27 351.13 461.7 421.78"/><path class="cls-4" d="M212.16,258.8h-8.31a15,15,0,0,0-13.15,7.79,12.91,12.91,0,0,1-24.21-6,13.12,13.12,0,0,1,13.16-13.16h24.94"/><path class="cls-4" d="M311.38,459.36a26.92,26.92,0,0,0-1.8-38.91,28.55,28.55,0,0,0-3.39-2.51c-.67-.41-1.35-.8-2.05-1.16"/><path class="cls-4" d="M153.12,446a18.28,18.28,0,1,1,.43-10.44,18.53,18.53,0,0,1,.56,4.49A18.25,18.25,0,0,1,153.12,446Z"/><path class="cls-4" d="M128.84,440.06a7,7,0,1,1,7,7A7,7,0,0,1,128.84,440.06Z"/><path class="cls-4" d="M308.44,491.25a2.31,2.31,0,0,1,2.32,2.32v4.81a2.32,2.32,0,0,1-2.32,2.32H286a2.32,2.32,0,0,1-2.32-2.32v-4.81a2.32,2.32,0,0,1,2.32-2.32"/><path class="cls-4" d="M461.7,421.78a18.29,18.29,0,0,1-.26,36.57c-16.38,0-24.4-20-12.81-31.33a19.4,19.4,0,0,1,2-1.7A17.64,17.64,0,0,1,461.7,421.78Z"/><path class="cls-4" d="M454.46,440.06a7,7,0,1,1,7,7A7,7,0,0,1,454.46,440.06Z"/><polyline class="cls-4" points="193.89 183.64 191.97 182.62 162.06 166.57 145.22 157.53 115.39 141.53"/><path class="cls-4" d="M233,105.89,156.39,64.81"/><line class="cls-4" x1="255.2" y1="476.7" x2="337.39" y2="476.7"/><line class="cls-4" x1="300.98" y1="453.89" x2="257.08" y2="453.89"/><path class="cls-4" d="M207.13,154.36c-.74,1.42-3.78,7.28-7.53,15.67l-.17.38c-1.75,3.94-3.65,8.41-5.54,13.23a.88.88,0,0,1,0,.15c-4.86,12.44-9.62,27.18-11.57,41H299.59v-56"/><path class="cls-4" d="M290.93,274.09C280,257.92,268.81,242.66,256,224.76"/><path class="cls-4" d="M193.87,224.76c1.21,5.88,5.18,13.81,10.72,22.68,2.29,3.65,4.84,7.46,7.57,11.36.59.84,1.19,1.68,1.8,2.53,6.16,8.61,13.12,17.52,20,25.91h0c2.9,3.54,5.79,7,8.6,10.29,8.16,9.58,15.63,17.85,20.79,23.28a20.49,20.49,0,0,1,5.51,16.39c-1.59,14.15-3.08,27.65-4.5,41.05-.78,7.39-1.55,14.76-2.29,22.19q-.46,4.55-.91,9.13c-.83,8.48-1.64,17.1-2.46,26-.31,3.44-.61,6.92-.92,10.44-.23,2.6-.46,5.22-.69,7.88-.63,7.35-1.25,14.93-1.88,22.81-.24,3-.49,6.06-.73,9.17a5,5,0,0,0,5,5.38h72.11a5,5,0,0,0,5-4.51l.91-9.47a3.66,3.66,0,0,0-.05-.57c-.94-5.58-13.81-11.32-26-17.34-3.64-1.8-7.21-3.62-10.4-5.47.81-11.21,1.87-23.66,3.16-37.11,2.13-22.4,4.88-47.57,8.13-74.35q.63-5.16,1.27-10.39a53.35,53.35,0,0,0-7.32-34.28,3.37,3.37,0,0,0-.19-.32c-2.16-3.5-4.3-6.9-6.44-10.23h0c-2.88-4.48-5.76-8.83-8.66-13.12"/><path class="cls-4" d="M303.72,80.24l.22.23c23.8,25.12,25.13,69.33,25.13,69.33h61l7.06-11a2.94,2.94,0,0,1,2.64-1.35,2.87,2.87,0,0,1,1,.23,2.94,2.94,0,0,1,1.79,2.7,2.79,2.79,0,0,1-.13.85l-2.11,7h.17a21.44,21.44,0,0,0,8.87-1.92,20.25,20.25,0,0,0,2.59-1.4l10.26-6.49,3.48-2.21a1.28,1.28,0,0,1,1.7,1.87l-12.2,15.6a26.41,26.41,0,0,1-12.76,8.9c-8.46,2.71-16.54,5.19-24.36,7.49-7.53,2.21-14.82,4.25-22,6.16-10.06,2.68-19.87,5.09-29.74,7.34a22.62,22.62,0,0,1-8.5.32A22.92,22.92,0,0,1,299.67,169a2,2,0,0,1-.08-.22c-1.3-3.62-2.51-7.1-3.64-10.52-1.27-3.84-2.43-7.61-3.5-11.44-1.45-5.14-2.74-10.37-3.91-16-1.07-5.12-2-10.55-2.94-16.51-.57-3.73-1.1-7.67-1.61-11.87"/><path class="cls-4" d="M245.48,82.89c.66-1.22,1.34-2.44,2-3.63C253,70,260.17,61.85,274.78,64.52a52.32,52.32,0,0,1,28.93,15.72"/><path class="cls-4" d="M243.92,85.8c.25-.48.51-1,.77-1.43s.35-.66.53-1"/><line class="cls-4" x1="378.05" y1="149.8" x2="378.05" y2="170.04"/><path class="cls-4" d="M252.05,62.37c4.76-5.9,13.71-15.44,20.86-14,3.92.8,9.73,5.52,15.56,11.77a126.18,126.18,0,0,1,15.24,20.07h0"/><path class="cls-4" d="M247.52,79.26l-.07,0L170.87,38.13,159.46,32s6.84-17.2,27.64-6l61.51,33a8.55,8.55,0,0,1,3.49,11.58l-4.65,8.67-2,3.67-.26.49-.53,1-.77,1.43-.28.53-2.38,4.43L235,102.4l-4.37,8.15L207.31,154l-.18.33L198.73,170l-.14.26L192,182.61l-8.18,15.26a8.56,8.56,0,0,1-11.59,3.49l-61.5-33a8.56,8.56,0,0,1-3.49-11.58l8.18-15.25,6.75-12.59h0l31.91-59.47,16.81-31.34"/><line class="cls-4" x1="288.47" y1="60.17" x2="301.41" y2="46.33"/><path class="cls-4" d="M303.94,80.47l10-12.16a5.79,5.79,0,0,1,5.33-2,110.82,110.82,0,0,0,14.45,1,7.74,7.74,0,0,0,6.43-3.2c3.18-4.37,4.4-8.63,5.44-14.59a2.91,2.91,0,0,1,1.29-1.94l2-1.29a2.33,2.33,0,0,0,.74-3.14C346.41,37.54,346,33,348.37,26.26"/><path class="cls-4" d="M301.41,46.33a67,67,0,0,1,7.3-5.61,7.27,7.27,0,0,1-.22-1.77c0-3.36,2.23-6.08,5-6.08,2.1,0,4.35,2.5,4.62,3.84h3.51s2.29-7,6.16-10.45"/><path class="cls-4" d="M339,35.1a8.81,8.81,0,0,1-3.25.31,8.55,8.55,0,0,1-3.3-1"/><path class="cls-4" d="M425.14,115.79a4.14,4.14,0,0,1,1,5.7l-16.84,24.79"/><line class="cls-4" x1="422.02" y1="113.68" x2="425.08" y2="115.75"/><path class="cls-4" d="M422.19,138.39l9.23-13.61a3.91,3.91,0,0,0-1-5.43l-5.25-3.56-.06,0-3.24-2.19a3.91,3.91,0,0,0-5.43,1l-15.66,23.08"/><path class="cls-4" d="M422.38,240.92a1,1,0,0,0,0-.17,8,8,0,1,0-12.78,6.38,7.89,7.89,0,0,0,4.79,1.6A8,8,0,0,0,422.38,240.92Z"/><path class="cls-4" d="M356.06,176.2l30.5,32.46,7.59,8.07a8.18,8.18,0,0,0,6,2.57h16.18a11.14,11.14,0,0,1,9.61,5.51l5.52,9.45a4.43,4.43,0,0,1-3.82,6.66h-5.21"/><path class="cls-4" d="M317.82,183.86c20,15.73,37.5,29.41,55,41.73,6.06,4.27,12.11,8.38,18.27,12.35"/><path class="cls-4" d="M400.73,247l2.7,3.29a3.21,3.21,0,0,0,5.54-1.09l.64-2.08"/><line class="cls-4" x1="372.79" y1="225.59" x2="386.56" y2="208.66"/><line class="cls-4" x1="241.26" y1="90.76" x2="285.6" y2="114.29"/><line class="cls-4" x1="288.54" y1="130.8" x2="235.01" y2="102.4"/><polyline class="cls-4" points="198.59 170.28 199 170.18 199.6 170.03 292.45 146.78"/><line class="cls-4" x1="295.95" y1="158.22" x2="193.84" y2="183.79"/><polygon class="cls-1" points="52.57 306.98 36.27 265.83 19.97 306.98 52.57 306.98"/><polygon class="cls-1" points="74.4 306.98 64.82 282.79 55.24 306.98 74.4 306.98"/><polyline class="cls-7" points="67.44 304.6 77.92 296.48 88.4 304.6 98.88 296.48 109.36 304.6 119.85 296.48"/><line class="cls-7" x1="21.67" y1="210.21" x2="35.95" y2="224.49"/><line class="cls-7" x1="21.67" y1="224.49" x2="35.95" y2="210.21"/><circle class="cls-7" cx="83.53" cy="242.14" r="14.19"/><path class="cls-5" d="M376.84,23.17A2.93,2.93,0,0,1,375,26.05a3.09,3.09,0,0,1-1.12.21h-5.73a5.29,5.29,0,0,0,1.52-3.71c0-2.82,1.9-5.13,3.42-5.13C376,17.42,376.71,20.43,376.84,23.17Z"/><path class="cls-1" d="M350.45,17.42h22.64c-1.52,0-3.42,2.31-3.42,5.13a5.29,5.29,0,0,1-1.52,3.71H346.68v0C346.68,21.37,348.37,17.42,350.45,17.42Z"/><path class="cls-1" d="M350.28,17.42h.17c-2.08,0-3.77,3.95-3.77,8.81v0H298C298,16.71,301.41,0,327.89,0,347.3,0,350.28,17.42,350.28,17.42Z"/></g></g></svg>