<svg xmlns="http://www.w3.org/2000/svg" viewBox="0 0 762.1 578.87"><defs><style>.cls-1{fill:#f0f0f0;}.cls-2{fill:#fff;}.cls-10,.cls-3,.cls-4,.cls-7,.cls-8,.cls-9{fill:none;stroke:#323433;}.cls-3,.cls-4,.cls-9{stroke-miterlimit:10;}.cls-3{stroke-width:0.43px;}.cls-4,.cls-7{stroke-width:2.61px;}.cls-5{fill:#323433;}.cls-6{fill:#52cca7;}.cls-10,.cls-7,.cls-8{stroke-linecap:round;stroke-linejoin:round;}.cls-8,.cls-9{stroke-width:1.74px;}.cls-10{stroke-width:3.48px;}</style></defs><title>Asset 27</title><g id="Layer_2" data-name="Layer 2"><g id="graphic"><ellipse class="cls-1" cx="381.05" cy="541.01" rx="381.05" ry="37.86"/><path class="cls-2" d="M700.58,531.14l-7.24-16.83a.39.39,0,0,0-.36-.23H660a.39.39,0,0,0-.36.23l-7.24,16.83a.38.38,0,0,1-.35.23H632.67a.39.39,0,0,1-.35-.54l34.24-79.26a.39.39,0,0,1,.36-.23H686a.39.39,0,0,1,.36.23l34.24,79.26a.39.39,0,0,1-.35.54H700.93A.38.38,0,0,1,700.58,531.14Z"/><path class="cls-3" d="M700.58,531.14l-7.24-16.83a.39.39,0,0,0-.36-.23H660a.39.39,0,0,0-.36.23l-7.24,16.83a.38.38,0,0,1-.35.23H632.67a.39.39,0,0,1-.35-.54l34.24-79.26a.39.39,0,0,1,.36-.23H686a.39.39,0,0,1,.36.23l34.24,79.26a.39.39,0,0,1-.35.54H700.93A.38.38,0,0,1,700.58,531.14Z"/><path class="cls-3" d="M700.58,531.14l-7.24-16.83a.39.39,0,0,0-.36-.23H660a.39.39,0,0,0-.36.23l-7.24,16.83a.38.38,0,0,1-.35.23H632.67a.39.39,0,0,1-.35-.54l34.24-79.26a.39.39,0,0,1,.36-.23H686a.39.39,0,0,1,.36.23l34.24,79.26a.39.39,0,0,1-.35.54H700.93A.38.38,0,0,1,700.58,531.14Z"/><path class="cls-4" d="M700.58,531.14l-7.24-16.83a.39.39,0,0,0-.36-.23H660a.39.39,0,0,0-.36.23l-7.24,16.83a.38.38,0,0,1-.35.23H632.67a.39.39,0,0,1-.35-.54l34.24-79.26a.39.39,0,0,1,.36-.23H686a.39.39,0,0,1,.36.23l34.24,79.26a.39.39,0,0,1-.35.54H700.93A.38.38,0,0,1,700.58,531.14Z"/><path class="cls-5" d="M681.51,531.14l-7.24-16.83a.39.39,0,0,0-.36-.23h-33a.38.38,0,0,0-.35.23l-7.24,16.83a.39.39,0,0,1-.36.23H614.76a.39.39,0,0,1-.36-.54l34.25-79.26a.38.38,0,0,1,.35-.23h16.78a.39.39,0,0,1,.36.23l34.24,79.26a.39.39,0,0,1-.35.54H681.86A.38.38,0,0,1,681.51,531.14ZM657.09,476l-9.48,21.89a.38.38,0,0,0,.35.54h18.87a.39.39,0,0,0,.35-.54L657.8,476A.39.39,0,0,0,657.09,476Z"/><path class="cls-3" d="M681.51,531.14l-7.24-16.83a.39.39,0,0,0-.36-.23h-33a.38.38,0,0,0-.35.23l-7.24,16.83a.39.39,0,0,1-.36.23H614.76a.39.39,0,0,1-.36-.54l34.25-79.26a.38.38,0,0,1,.35-.23h16.78a.39.39,0,0,1,.36.23l34.24,79.26a.39.39,0,0,1-.35.54H681.86A.38.38,0,0,1,681.51,531.14ZM657.09,476l-9.48,21.89a.38.38,0,0,0,.35.54h18.87a.39.39,0,0,0,.35-.54L657.8,476A.39.39,0,0,0,657.09,476Z"/><path class="cls-4" d="M681.51,531.14l-7.24-16.83a.39.39,0,0,0-.36-.23h-33a.38.38,0,0,0-.35.23l-7.24,16.83a.39.39,0,0,1-.36.23H614.76a.39.39,0,0,1-.36-.54l34.25-79.26a.38.38,0,0,1,.35-.23h16.78a.39.39,0,0,1,.36.23l34.24,79.26a.39.39,0,0,1-.35.54H681.86A.38.38,0,0,1,681.51,531.14ZM657.09,476l-9.48,21.89a.38.38,0,0,0,.35.54h18.87a.39.39,0,0,0,.35-.54L657.8,476A.39.39,0,0,0,657.09,476Z"/><polygon class="cls-6" points="168.31 230.11 169.63 216.5 179.34 217.44 178.02 231.04 191.63 232.36 190.69 242.07 177.08 240.75 175.77 254.36 166.06 253.42 167.38 239.81 153.77 238.5 154.7 228.79 168.31 230.11"/><path class="cls-5" d="M199.87,215.32a2.49,2.49,0,0,1-2.23-2.71l1.78-18.46a2.48,2.48,0,0,1,2.71-2.23l18.46,1.78a2.48,2.48,0,0,1,2.23,2.71L221,214.87a2.49,2.49,0,0,1-2.71,2.23Z"/><path class="cls-7" d="M199.87,215.32l18.46,1.78a2.49,2.49,0,0,0,2.71-2.23l1.78-18.46a2.48,2.48,0,0,0-2.23-2.71l-18.46-1.78a2.48,2.48,0,0,0-2.71,2.23l-1.78,18.46A2.49,2.49,0,0,0,199.87,215.32Z"/><path class="cls-8" d="M124.37,275.24a15.14,15.14,0,1,0,2.07-21.31A15.14,15.14,0,0,0,124.37,275.24Z"/><path class="cls-2" d="M672,538.49H590.87A16.93,16.93,0,0,1,574.52,526l-17-63.25-21.24-79.09h0L540.55,371l17-1.09,25.63-1.63L606.88,518S672,527.79,672,538.49Z"/><polygon class="cls-5" points="557.53 369.95 557.53 462.71 536.29 383.62 536.29 383.62 540.55 371.04 557.53 369.95"/><polygon class="cls-5" points="581.22 356.1 583.16 368.32 540.55 371.04 544.83 358.43 581.22 356.1"/><path class="cls-6" d="M412.14,404.08A32.57,32.57,0,0,0,408.5,392l-9.91-18.75a17.29,17.29,0,0,1-1-13.85l12.74-35.63-14.29,1.06-2.55-48.12,72.15-5.34,34-2.52h0c13.69,7.65,30.64,11.8,51.13,11.8,2.27-2.86,4.45-5.67,6.52-8.47a33.93,33.93,0,0,1,14.21,22.62l9.73,61.35-36.39,2.33L540.55,371l-4.26,12.58-25.35,74.83H430.68a34.45,34.45,0,0,1-29.37-16.35l-.17-.28a9,9,0,0,1,1.33-11l.25-.26h0a37.22,37.22,0,0,0,7.39-11.91A31.23,31.23,0,0,0,412.14,404.08Z"/><path class="cls-5" d="M510.94,458.45l-13.86,40.91a48.85,48.85,0,0,1-46.26,33.17H407.77a72.34,72.34,0,0,1-68.15-48L330,457.65l-6.87-19.17.56-.2c0-34.38,35.39-45.38,65.89-40.92a78.09,78.09,0,0,1,22.58,6.72,31.23,31.23,0,0,1-2,14.56,37.22,37.22,0,0,1-7.39,11.91h0l-.25.26a9,9,0,0,0-1.33,11l.17.28a34.45,34.45,0,0,0,29.37,16.35Z"/><polygon class="cls-5" points="393.5 276.66 396.05 324.78 383.76 325.69 381.22 277.56 393.5 276.66"/><path class="cls-2" d="M392.14,530.82H304.28l-3.51-39.43a6.59,6.59,0,0,0-2.44-4.54l1.35-12.77,1.37-13,15.75-1.87L330,457.65l9.64,26.91A72.37,72.37,0,0,0,392.14,530.82Z"/><path class="cls-2" d="M307.91,396.06l-6.86,65-1.37,13H255l-.27-7.49L249,308.45a46.39,46.39,0,0,1,30.76-45.36v51.06a29.28,29.28,0,0,0,31.44,29.2l50.57-3.75,4.74-.35,23,58.11c-30.5-4.46-65.89,6.54-65.89,40.92l-.56.2Z"/><path class="cls-2" d="M381.22,277.57l2.55,48.12-22,1.62-50.57,3.75a29.28,29.28,0,0,1-31.44-29.21v-105a76.93,76.93,0,0,0-2.16-18.07l-3.5-14.39L290.24,153l1.84,4.27a4.79,4.79,0,0,0,8.62.36l8.82-16.57a4.62,4.62,0,0,1,1.36-1.55,4.18,4.18,0,0,1,6.43,4.63l-6.25,20.68a36.66,36.66,0,0,0-1.14,16.06l13.16,86,1.57,10.27a4.85,4.85,0,0,0,5.16,4.19l10.44-.77Z"/><path class="cls-5" d="M361.78,327.31l4.74,11.94-4.74.35-50.57,3.75a29.28,29.28,0,0,1-31.44-29.2v-12.3a29.28,29.28,0,0,0,31.44,29.21Z"/><path class="cls-2" d="M340.25,280.6h0l-10.44.77a4.85,4.85,0,0,1-5.16-4.19l-1.57-10.27.22,0A56.28,56.28,0,0,1,340.25,280.6Z"/><path class="cls-2" d="M337,109.92l-18.15,22.52a8.31,8.31,0,0,0-9.33-13Z"/><path class="cls-2" d="M319.05,122.53a8.32,8.32,0,0,1-.24,9.91l-.24.3a8.55,8.55,0,0,1-1.47,1.34l-.05,0-6.68,4.71L290.24,153l-16.13,11.38-19.77,14a8.31,8.31,0,0,0-9.58-13.58l25.13-17.74,23.65-16.69,13.93-9.83a8.18,8.18,0,0,1,2-1A8.3,8.3,0,0,1,319.05,122.53Z"/><path class="cls-2" d="M318.57,132.74l-.56.7-.91.64A8.55,8.55,0,0,0,318.57,132.74Z"/><path class="cls-2" d="M308.42,119.85l1.06-.36a8.18,8.18,0,0,0-2,1Z"/><path class="cls-2" d="M304.28,530.83l.68,7.66H283.49L284.6,526l2.8-31.36.29-3.29a6.56,6.56,0,0,1,6.54-6,6.47,6.47,0,0,1,4.1,1.44,6.59,6.59,0,0,1,2.44,4.54Z"/><path class="cls-2" d="M299.6,114.14a11.67,11.67,0,0,1-2.35,12.26l-3.71,4-23.65,16.69-.37-1.53a10.41,10.41,0,0,1,3.22-10.25l24.5-21.72a1.47,1.47,0,0,1,2.34.56Z"/><path class="cls-6" d="M299.68,474.08l-1.35,12.77a6.47,6.47,0,0,0-4.1-1.44,6.56,6.56,0,0,0-6.54,6l-.29,3.29H255.7l-.74-20.6Z"/><polygon class="cls-5" points="287.4 494.68 284.6 526.04 211.64 526.04 255.7 494.68 287.4 494.68"/><path class="cls-2" d="M284.6,526,290,538.49H207.67a6.23,6.23,0,0,1,0-12.45H284.6Z"/><path class="cls-2" d="M256.34,166.79a8.31,8.31,0,1,1-11.58-2A8.3,8.3,0,0,1,256.34,166.79Z"/><path class="cls-2" d="M255,474.08l.74,20.6L211.64,526h-4a6.22,6.22,0,0,0-6,4.79H133V485.72l121.67-19.13Z"/><polygon class="cls-6" points="109.29 489.64 109.29 489.45 133.03 485.72 133.03 530.83 109.29 530.83 109.29 489.64"/><polygon class="cls-5" points="109.29 489.64 109.29 530.83 78.65 530.83 78.65 446.59 109.29 489.64"/><path class="cls-2" d="M78.65,446.59v84.24H66.19V442.62a6.23,6.23,0,0,1,12.46,0Z"/><polyline class="cls-7" points="510.94 458.45 536.29 383.62 540.55 371.04 544.83 358.43 552.5 335.76"/><line class="cls-7" x1="290.15" y1="346.51" x2="307.91" y2="396.06"/><line class="cls-7" x1="389.56" y1="397.36" x2="366.52" y2="339.25"/><line class="cls-7" x1="366.52" y1="339.25" x2="361.78" y2="327.31"/><path class="cls-7" d="M510.94,458.45l-13.86,40.91a48.85,48.85,0,0,1-46.26,33.17H407.77a72.34,72.34,0,0,1-68.15-48L330,457.65l-6.87-19.17-15.2-42.42"/><path class="cls-7" d="M340.25,280.6a56.28,56.28,0,0,0-16.95-13.72"/><path class="cls-7" d="M279.77,263.09A46.39,46.39,0,0,0,249,308.45l5.68,158.14.27,7.49.74,20.6L211.64,526"/><path class="cls-7" d="M291.19,538.49H207.67a6.23,6.23,0,0,1,0-12.45H284.6"/><path class="cls-7" d="M298.33,486.85a6.47,6.47,0,0,0-4.1-1.44,6.56,6.56,0,0,0-6.54,6l-.29,3.29L284.6,526,284,533a5.08,5.08,0,0,0,5.07,5.54h9.64a5.74,5.74,0,0,0,5.71-6.24l-.13-1.42-3.51-39.44A6.59,6.59,0,0,0,298.33,486.85Z"/><line class="cls-7" x1="255.7" y1="494.68" x2="287.4" y2="494.68"/><polyline class="cls-7" points="298.33 486.85 299.68 474.08 301.05 461.08 307.9 396.06"/><path class="cls-7" d="M269.89,147.05l-.37-1.53a10.41,10.41,0,0,1,3.22-10.25l24.5-21.72a1.47,1.47,0,0,1,2.34.56l0,0a11.67,11.67,0,0,1-2.35,12.26l-3.71,4"/><polyline class="cls-7" points="110.01 490.65 109.29 489.64 78.65 446.59"/><path class="cls-7" d="M244.76,164.79a8.31,8.31,0,1,1-2,11.59A8.3,8.3,0,0,1,244.76,164.79Z"/><path class="cls-7" d="M318.57,132.74a8.55,8.55,0,0,1-1.47,1.34"/><path class="cls-7" d="M307.47,120.53a8.18,8.18,0,0,1,2-1,8.31,8.31,0,0,1,9.33,13"/><polyline class="cls-7" points="244.76 164.79 269.89 147.05 293.54 130.36 307.46 120.53 308.42 119.86 309.48 119.49 336.96 109.92 318.81 132.44 318.57 132.74 318.01 133.44 317.1 134.08 317.05 134.12 310.37 138.83 290.24 153.04 274.11 164.42 254.34 178.38"/><path class="cls-7" d="M274.11,164.42l3.5,14.39a76.93,76.93,0,0,1,2.16,18.07v105a29.28,29.28,0,0,0,31.44,29.21l50.57-3.75,22-1.62,12.28-.91,14.29-1.06L397.6,359.35a17.29,17.29,0,0,0,1,13.85L408.5,392a32.57,32.57,0,0,1,3.64,12.13,31.23,31.23,0,0,1-2,14.56,37.22,37.22,0,0,1-7.39,11.91h0l-.25.26a9,9,0,0,0-1.33,11l.17.28a34.45,34.45,0,0,0,29.37,16.35h80.26"/><path class="cls-7" d="M290.24,153l1.84,4.27a4.79,4.79,0,0,0,8.62.36l8.82-16.57a4.62,4.62,0,0,1,1.36-1.55,4.18,4.18,0,0,1,6.43,4.63l-6.25,20.68a36.66,36.66,0,0,0-1.14,16.06l13.16,86,1.57,10.27a4.85,4.85,0,0,0,5.16,4.19l10.44-.77,41-3,12.28-.91,72.15-5.34,34-2.52"/><path class="cls-7" d="M557.28,272.13a33.93,33.93,0,0,1,14.21,22.62l9.73,61.35,1.94,12.22L606.88,518S672,527.8,672,538.49H590.87A16.93,16.93,0,0,1,574.52,526L536.29,383.62"/><path class="cls-7" d="M460.86,191.94c-1.1,2.77-1.67,5.05-2.1,6.05-2,4.62-12.66,9-12.66,9l4.42,6.14c-7.32,18.09.75,27.27,10.46,31.56a4.58,4.58,0,0,1,2.45,5.83l-8.32,21.57"/><path class="cls-5" d="M594.51,191.11h0s-27,18.68-45.08,13.39-17.21-30.24-49-39.52a30.5,30.5,0,0,0-14.86-.94c-10.92,2.27-25.28,11.24-25.28,23.5,0,3.83.76,7.4,6.95,12.3-3.55,30,2.55,55.54,20.67,73.94,10.19,10.35,24.18,18.43,42.39,23.75C570.75,269,589.56,241.19,594.51,191.11Z"/><path class="cls-7" d="M594.51,191.11h0s-27,18.68-45.08,13.39-17.21-30.24-49-39.52a30.5,30.5,0,0,0-14.86-.94c-10.92,2.27-25.28,11.24-25.28,23.5,0,3.83.76,7.4,6.95,12.3-3.55,30,2.55,55.54,20.67,73.94,10.19,10.35,24.18,18.43,42.39,23.75C570.75,269,589.56,241.19,594.51,191.11Z"/><line class="cls-7" x1="392.14" y1="530.83" x2="304.28" y2="530.83"/><polyline class="cls-7" points="201.61 530.83 133.03 530.83 109.29 530.83 109.29 489.64 109.29 489.45 133.03 485.72 254.69 466.58"/><line class="cls-7" x1="301.05" y1="461.08" x2="329.98" y2="457.65"/><path class="cls-7" d="M109.29,530.83H66.19V442.62a6.23,6.23,0,0,1,12.46,0v88.21"/><line class="cls-7" x1="381.22" y1="277.57" x2="383.77" y2="325.69"/><polyline class="cls-7" points="393.5 276.65 393.5 276.66 396.05 324.78"/><line class="cls-7" x1="540.55" y1="371.04" x2="583.16" y2="368.32"/><line class="cls-7" x1="544.83" y1="358.43" x2="581.22" y2="356.1"/><path class="cls-7" d="M323.67,438.28c0-34.38,35.39-45.38,65.89-40.92a78.09,78.09,0,0,1,22.58,6.72h0"/><line class="cls-8" x1="517.84" y1="15.04" x2="530.75" y2="27.95"/><line class="cls-8" x1="517.84" y1="27.95" x2="530.75" y2="15.04"/><path class="cls-9" d="M498.18,42.75c-14.77.19-26.21,3.53-35.9,10.46-9.43,6.75-16.83,16.53-24.67,26.88-8.54,11.29-18.13,24-31.63,33.76"/><path class="cls-9" d="M384.37,77.68c6.92-5.78,12.85-13.6,19.86-22.86,8.94-11.81,19.08-25.2,33.68-35.65C455.11,6.85,475.26.87,499.52.87"/><path class="cls-10" d="M351.69,109.52c76.87,0,62.09-87.71,147.83-87.71"/></g></g></svg>