<svg xmlns="http://www.w3.org/2000/svg" viewBox="0 0 676.67 590.1"><defs><style>.cls-1{fill:#f0f0f0;}.cls-2,.cls-6{fill:none;stroke:#323433;stroke-linecap:round;stroke-linejoin:round;}.cls-2{stroke-width:1.74px;}.cls-3{fill:#323433;}.cls-4{fill:#fff;}.cls-5{fill:#52cca7;}.cls-6{stroke-width:2.61px;}</style></defs><title>Asset 16</title><g id="Layer_2" data-name="Layer 2"><g id="graphic"><circle class="cls-1" cx="338.58" cy="417.32" r="162.33" transform="translate(-195.92 361.65) rotate(-45)"/><circle class="cls-2" cx="322.34" cy="120.4" r="53.65"/><path class="cls-3" d="M672.77,156a4.83,4.83,0,0,1,2.05,6.5l-4.4,8.29L568.3,116.6l-1.48-.79a4.82,4.82,0,0,1-2.05-6.5l2.15-4.06a4.82,4.82,0,0,1,6.54-2Z"/><path class="cls-4" d="M670.42,170.78l-.46.87a19.25,19.25,0,0,1-20.17,9.9A108.19,108.19,0,0,0,632.5,180c-.21,0-25.28,0-31.18,11.19L544.6,161.57l2.33-4.43,15-28.49,6.39-12.05Z"/><path class="cls-5" d="M423.73,263.52h58.75A14.06,14.06,0,0,0,495,256l49.64-94.41h0l56.72,29.59L533,321.12a40.6,40.6,0,0,1-35.93,21.7H399c-6.35-15.56-13.1-31.47-20.58-48.63a64.46,64.46,0,0,0-59.22-38.75q-17.61,0-34,.15a53.6,53.6,0,0,1,62.24-3.71,5.78,5.78,0,0,0,6.15,0,53.41,53.41,0,0,1,58.92,1.29,54.37,54.37,0,0,1,11.18,10.34Z"/><path class="cls-4" d="M561.91,128.65l-15,28.49-.23.18Z"/><path class="cls-5" d="M412.56,253.18c-.2-.49-12.91-32.07-22.3-54.64L386,188.31l59.6-23.43C465.79,213.76,486,263.07,486,263.07a14,14,0,0,1-3.55.45H423.73a54.37,54.37,0,0,0-11.18-10.34Z"/><path class="cls-4" d="M464.39,104.46a18.9,18.9,0,0,1-5.33,21.83c-19.24,15.5-18,26.75-13.46,38.59L386,188.31l-1.19-2.86L367.4,142.77,464,103.55Z"/><path class="cls-3" d="M460.47,94.86l3.54,8.69L367.4,142.77l-1.56.63a4.8,4.8,0,0,1-6.3-2.59l-1.74-4.26a4.82,4.82,0,0,1,2.69-6.26l93.67-38A4.82,4.82,0,0,1,460.47,94.86Z"/><path class="cls-4" d="M425.48,412.44A36.59,36.59,0,0,1,391,461.21H306.23a14.78,14.78,0,0,0-14.75-16.32h-.39l-4.53-21.42L358,408.21c-3.83-9.44-7.42-18-10.88-26.13h0l58.43-23C412.41,376.44,418.91,393.79,425.48,412.44Z"/><path class="cls-4" d="M405.54,359.08l-58.43,23h0c-1.41-3.33-2.8-6.58-4.18-9.79L401.6,349.2Q403.6,354.15,405.54,359.08Z"/><path class="cls-3" d="M327.49,336.16c-4.3,7.1-12.48,16.17-26.28,16.17H227.53C185.09,333.1,146.05,324.4,101.27,320l-16.51-41.3c26-8.86,53.42-14.35,84.05-17.74,6.5,20.69,20.36,57.59,36.32,56.92A33.38,33.38,0,0,0,227.68,308a18,18,0,0,0,9.06,2.42c13.72,0,38.37-10.37,30.65-54.59h0q8.75-.12,17.85-.2,16.38-.14,34-.15a64.46,64.46,0,0,1,59.22,38.75c7.48,17.16,14.23,33.07,20.58,48.63q1.31,3.19,2.59,6.38l-58.68,23.09C337.74,360.22,332.73,348.73,327.49,336.16Z"/><path class="cls-4" d="M284,446.92a14.81,14.81,0,0,1,7.11-2h.39a14.8,14.8,0,1,1-7.5,2Z"/><path class="cls-4" d="M279.2,425,284,446.92a14.93,14.93,0,0,0-7.25,14.29h-6.65a32.68,32.68,0,0,0-15.57,4c-7.6,4.12-16.54,8.08-26.49,12.37a19.35,19.35,0,0,1-17.49-1.07,218.64,218.64,0,0,1-29.8-20.91H199c12.25,7.19,22.73,9.6,29.69,2.19a11.6,11.6,0,0,0,3.08-7.92V437.09a7.6,7.6,0,0,0-2.53-5.66c-7.56-6.74-11-12-11-18.88a26,26,0,0,1,.43-4.51,3.44,3.44,0,0,1,5.51-2.08c9.5,7.4,16.94,12.53,27,17.36a36.06,36.06,0,0,0,23.18,2.77Z"/><path class="cls-5" d="M288.61,423l4.53,21.42a30.51,30.51,0,0,0-10.3,2.72l-4.78-21.88Z"/><path class="cls-4" d="M267.39,255.8c7.72,44.22-16.93,54.59-30.65,54.59a18,18,0,0,1-9.06-2.42c8.46-8.45,13-21.47,12.09-35.7,8.42-6.55,13.11-8.95,11.85-15.81,0-.13-.05-.25-.08-.38q7.79-.16,15.85-.29Z"/><path class="cls-4" d="M251.62,256.46c1.26,6.86-3.43,9.26-11.85,15.81.92,14.23-3.63,27.25-12.09,35.7a33.38,33.38,0,0,1-22.55,9.86c-16,.67-29.82-36.23-36.32-56.92-1.31-4.16-2.32-7.67-3-10.08h0c16.1,6.74,38.62,5.9,63.13-4.36,0,0,2.91,13.73,3.54,19.56,2.92-6.82,8.56-11.29,13-12.44,3-.78,5.41-.05,6.07,2.49C251.57,256.21,251.6,256.33,251.62,256.46Z"/><path class="cls-3" d="M245.47,253.58h0c-4.42,1.15-10.06,5.62-13,12.44-.63-5.83-3.54-19.56-3.54-19.56-24.51,10.26-47,11.1-63.13,4.36-15.94-6.67-25.59-20.79-24.66-40.55C183.54,240.15,242.38,181.31,245.47,253.58Z"/><path class="cls-4" d="M242.94,366.16a3.64,3.64,0,0,1-1.55.33H40.84a32.13,32.13,0,0,1-16.68-59.61,315.24,315.24,0,0,1,50.58-24.64l14.65,36.62q6,.5,11.88,1.08c44.78,4.45,83.82,13.15,126.26,32.38q7.65,3.46,15.47,7.4a3.59,3.59,0,0,1-.06,6.43Z"/><path class="cls-4" d="M218.13,443.1v9.53a2.92,2.92,0,0,1-2.92,2.92H144.29a2.93,2.93,0,0,1-2.93-2.92V443.1Z"/><rect class="cls-3" x="141.36" y="436.93" width="76.77" height="6.17"/><path class="cls-4" d="M218.13,412.55v24.38H141.36V412.48a2.93,2.93,0,0,1,2.93-2.93h70.92a2.93,2.93,0,0,1,2.92,2.93Zm-52.62,10.3a2.49,2.49,0,1,0-2.49,2.49A2.48,2.48,0,0,0,165.51,422.85Zm-9.6,0a2.5,2.5,0,1,0-2.5,2.49A2.49,2.49,0,0,0,155.91,422.85Z"/><path class="cls-3" d="M163,420.36a2.49,2.49,0,1,1-2.49,2.49A2.48,2.48,0,0,1,163,420.36Z"/><path class="cls-3" d="M153.41,420.36a2.49,2.49,0,1,1-2.49,2.49A2.49,2.49,0,0,1,153.41,420.36Z"/><path class="cls-4" d="M84.76,278.65,101.27,320q-5.86-.58-11.88-1.08L74.74,282.25Q79.72,280.38,84.76,278.65Z"/><path class="cls-6" d="M180.73,455.55a218.64,218.64,0,0,0,29.8,20.91A19.35,19.35,0,0,0,228,477.53c9.95-4.29,18.89-8.25,26.49-12.37a32.68,32.68,0,0,1,15.57-4h6.65"/><path class="cls-6" d="M327.49,336.16c5.24,12.57,10.25,24.06,15.43,36.13,1.38,3.21,2.77,6.46,4.18,9.79,3.46,8.13,7,16.69,10.88,26.13l-71.42,15.26L279.2,425l-4.91,1a36.06,36.06,0,0,1-23.18-2.77c-10-4.83-17.46-10-27-17.36a3.44,3.44,0,0,0-5.51,2.08,26,26,0,0,0-.43,4.51c0,6.9,3.45,12.14,11,18.88a7.6,7.6,0,0,1,2.53,5.66v12.73a11.6,11.6,0,0,1-3.08,7.92c-7,7.41-17.44,5-29.69-2.19"/><path class="cls-6" d="M319.15,315.73c2.88,7.24,5.64,14,8.34,20.43"/><path class="cls-6" d="M306.23,461.21H391a36.59,36.59,0,0,0,34.49-48.77c-6.57-18.65-13.07-36-19.94-53.36q-1.95-4.93-3.94-9.88-1.29-3.18-2.59-6.38c-6.35-15.56-13.1-31.47-20.58-48.63a64.46,64.46,0,0,0-59.22-38.75q-17.61,0-34,.15-9.11.07-17.85.2-8.07.12-15.85.29"/><path class="cls-6" d="M245.47,253.58c-3.09-72.27-61.93-13.43-104.31-43.3-.93,19.76,8.72,33.88,24.66,40.55,16.1,6.74,38.62,5.9,63.13-4.36,0,0,2.91,13.73,3.54,19.56,2.92-6.82,8.56-11.29,13-12.44,3-.78,5.41-.05,6.07,2.49,0,.13.06.25.08.38,1.26,6.86-3.43,9.26-11.85,15.81.92,14.23-3.63,27.25-12.09,35.7a33.38,33.38,0,0,1-22.55,9.86c-16,.67-29.82-36.23-36.32-56.92-1.31-4.16-2.32-7.67-3-10.08"/><path class="cls-6" d="M242.94,366.16a3.59,3.59,0,0,0,.06-6.43q-7.83-3.94-15.47-7.4C185.09,333.1,146.05,324.4,101.27,320q-5.86-.58-11.88-1.08c-7.32-.6-14.8-1.1-22.49-1.54"/><path class="cls-6" d="M168.81,260.91c-30.63,3.39-58,8.88-84,17.74q-5,1.73-10,3.6a315.24,315.24,0,0,0-50.58,24.64,31.85,31.85,0,0,0,16.68,59.19c47.7,0,162.46.41,200.55.41a3.64,3.64,0,0,0,1.55-.33"/><path class="cls-6" d="M242.94,366.16h0a371.19,371.19,0,0,0-35.79-14.4"/><path class="cls-6" d="M141.36,443.1v9.53a2.93,2.93,0,0,0,2.93,2.92h70.92a2.92,2.92,0,0,0,2.92-2.92V412.48a2.93,2.93,0,0,0-2.92-2.93H144.29a2.93,2.93,0,0,0-2.93,2.93V443.1Z"/><line class="cls-6" x1="141.36" y1="436.93" x2="218.13" y2="436.93"/><line class="cls-6" x1="141.36" y1="443.1" x2="218.13" y2="443.1"/><path class="cls-6" d="M155.91,422.85a2.5,2.5,0,1,1-2.5-2.49A2.49,2.49,0,0,1,155.91,422.85Z"/><path class="cls-6" d="M165.51,422.85a2.49,2.49,0,1,1-2.49-2.49A2.48,2.48,0,0,1,165.51,422.85Z"/><path class="cls-6" d="M306.23,461.21a14.78,14.78,0,0,0-14.75-16.32h-.39a14.83,14.83,0,1,0,15.14,16.32Z"/><polyline class="cls-6" points="288.29 467.46 291.48 459.71 301.21 455.3"/><line class="cls-6" x1="342.92" y1="372.29" x2="401.6" y2="349.2"/><polyline class="cls-6" points="347.11 382.08 405.54 359.08 405.55 359.08"/><line class="cls-6" x1="89.39" y1="318.87" x2="74.74" y2="282.25"/><polyline class="cls-6" points="101.27 319.95 84.76 278.65 84.76 278.65"/><path class="cls-6" d="M227.53,352.33h73.68c13.8,0,22-9.07,26.28-16.17h0"/><path class="cls-6" d="M188.75,275.32c2.86,8.06,3.5,13.12.84,20.66a1.47,1.47,0,0,0,1.33,1.95l6.31.2"/><path class="cls-6" d="M204.13,277.31c2.65,1.33,8.75.53,11.27-1.59"/><path class="cls-6" d="M227.68,308a18,18,0,0,0,9.06,2.42c13.72,0,38.37-10.37,30.65-54.59"/><path class="cls-6" d="M423.73,263.52a54.37,54.37,0,0,0-11.18-10.34,53.41,53.41,0,0,0-58.92-1.29,5.78,5.78,0,0,1-6.15,0,53.6,53.6,0,0,0-62.24,3.71"/><path class="cls-6" d="M434.51,308.79a53.53,53.53,0,0,0-10.78-45.27"/><path class="cls-6" d="M399,342.82h98.05A40.6,40.6,0,0,0,533,321.12l68.33-130C607.25,179.9,632.46,180,632.5,180a108.19,108.19,0,0,1,17.29,1.58,19.25,19.25,0,0,0,20.17-9.9l.46-.87L568.3,116.6l-6.39,12.05L546.7,157.32l.23-.18"/><polyline class="cls-6" points="544.6 161.57 546.93 157.14 561.91 128.65 568.26 116.58"/><path class="cls-6" d="M423.73,263.52h58.75A14.06,14.06,0,0,0,495,256l49.64-94.41"/><path class="cls-6" d="M412.56,253.18h0c-.2-.49-12.91-32.07-22.3-54.64L386,188.31l-1.19-2.86L367.4,142.77,464,103.55l.38.91a18.88,18.88,0,0,1-5.33,21.83c-23,18.53-16.78,30.55-13.46,38.59C465.79,213.76,486,263.07,486,263.07"/><path class="cls-6" d="M670.42,170.78l4.4-8.29a4.83,4.83,0,0,0-2.05-6.5L573.46,103.3a4.82,4.82,0,0,0-6.54,2l-2.15,4.06a4.82,4.82,0,0,0,2.05,6.5l1.48.79"/><path class="cls-6" d="M464,103.55l-3.54-8.69a4.82,4.82,0,0,0-6.31-2.59l-93.67,38a4.82,4.82,0,0,0-2.69,6.26l1.74,4.26a4.8,4.8,0,0,0,6.3,2.59l1.56-.63"/><polyline class="cls-6" points="544.6 161.57 544.6 161.57 601.32 191.16"/><line class="cls-6" x1="386" y1="188.31" x2="445.6" y2="164.88"/><path class="cls-4" d="M238.16,535.07a2.29,2.29,0,0,1-.12,2.34l-34.21,51.38L180.9,533.11l55.27.74A2.29,2.29,0,0,1,238.16,535.07Z"/><path class="cls-4" d="M180.9,533.11l22.93,55.68L37.52,586.57l-36-87.49a2.28,2.28,0,0,1,2.14-3.16l159.53,2.13a5,5,0,0,1,4.59,3.11ZM99.85,554,106,543.8,91.63,533.35l-6.14,10.18Z"/><polygon class="cls-3" points="106 543.8 99.85 553.97 85.49 543.53 91.63 533.35 106 543.8"/><ellipse class="cls-5" cx="120.17" cy="496.28" rx="15.18" ry="20.57" transform="translate(-334.59 264.05) rotate(-49.34)"/><path class="cls-6" d="M180.9,533.11l-13.16-31.95a5,5,0,0,0-4.59-3.11L3.62,495.92a2.28,2.28,0,0,0-2.14,3.16l36,87.49,166.31,2.22Z"/><path class="cls-3" d="M180.85,533.11h.05l55.27.74a2.29,2.29,0,0,1,1.87,3.56l-34.21,51.38"/><polyline class="cls-2" points="366.84 47.41 378.51 38.37 390.18 47.41 401.85 38.37 413.51 47.41 425.18 38.37"/><line class="cls-2" x1="322.61" y1="0.87" x2="336.37" y2="14.62"/><line class="cls-2" x1="322.61" y1="14.62" x2="336.37" y2="0.87"/><path class="cls-3" d="M349.63,101.9l-.95,2.62h-8.43l-2.84,7.17h0l-6.15,17H310.8l-6.56-17.8H334.9l3.41-9Zm-34.25,28.6a3.46,3.46,0,1,0,3.46,3.46A3.46,3.46,0,0,0,315.38,130.5Zm12.08,0a3.46,3.46,0,1,0,3.46,3.46A3.46,3.46,0,0,0,327.46,130.5Z"/><line class="cls-6" x1="493.01" y1="342.82" x2="575.43" y2="342.82"/></g></g></svg>