<svg xmlns="http://www.w3.org/2000/svg" viewBox="0 0 673.02 542.95"><defs><style>.cls-1{fill:#f0f0f0;}.cls-2{fill:#fdfdfd;}.cls-3{fill:#323433;}.cls-4{fill:#52cca7;}.cls-5{fill:#fff;}.cls-6,.cls-7{fill:none;stroke:#323433;stroke-linecap:round;stroke-linejoin:round;}.cls-6{stroke-width:2.61px;}.cls-7{stroke-width:1.74px;}</style></defs><title>Asset 25</title><g id="Layer_2" data-name="Layer 2"><g id="graphic"><ellipse class="cls-1" cx="339.3" cy="492.53" rx="333.71" ry="50.42"/><path class="cls-2" d="M616.14,446.6h9.12a14.57,14.57,0,0,0-14.57,14.57v7.68a14.57,14.57,0,0,0,14.57,14.58H568.71a14.58,14.58,0,0,1-14.58-14.58v-7.68a14.57,14.57,0,0,1,14.58-14.57Z"/><path class="cls-2" d="M559.92,418.55h56.22a14,14,0,0,0,0,28.05H559.92a14,14,0,0,1,0-28.05Z"/><path class="cls-2" d="M442.7,465v18.42H435a14,14,0,0,1-2.91-.3h0a14.59,14.59,0,0,1-11.64-14.28v-7.68A14.57,14.57,0,0,1,435,446.6H568.71a14.57,14.57,0,0,0-14.58,14.57v7.68a14.58,14.58,0,0,0,14.58,14.58H466.33V465Z"/><path class="cls-3" d="M559.92,446.6H467a14,14,0,1,1,0-28.05h92.9a14,14,0,0,0,0,28.05Z"/><path class="cls-4" d="M507.63,385.3a71.1,71.1,0,0,1,4,33.25H474.5c-14.94-11-30.09-21.94-46.59-33.25Z"/><path class="cls-3" d="M316.63,296.44,279.4,283c9.33-25.67,18.63-52.82,28.28-82.58a45,45,0,0,1,35-30.42q12.53-2.17,25.71-4.62c-3.22,6.5-8,19.75,7.94,17.57,19.27-2.63,33.45-12.21,44.75-27.78h0q18.5-3.72,38.06-7.86c25.71-5.43,47.8,18.8,40,43.89-5.86,18.83-11.61,36.35-17.6,53.31a127.07,127.07,0,0,0,4.77,96.39c5.25,11.16,11.16,23.11,17.55,35.77a81.49,81.49,0,0,1,3.76,8.63H427.91c-5.63-3.85-11.41-7.75-17.4-11.7a67.86,67.86,0,0,0-36.89-11.23h0a41.1,41.1,0,0,0,6.66-5.64c20-21,36.63-41.35,59.2-68.18l-47.23-40.18c-16.55,26.76-28.27,47.14-43.92,67.68a22,22,0,0,1-7.51,6.24l-1.89,1h0c-6.43-8.19-18.46-14.87-21.62-23.95a13.71,13.71,0,0,1-.68-2.86Z"/><path class="cls-4" d="M467,446.6H435a14.57,14.57,0,0,0-14.58,14.57v7.68a14.59,14.59,0,0,0,11.65,14.28,73.73,73.73,0,0,1-34.87-12.87c-14.68-10-27.46-19-37.79-26.94h0A14.75,14.75,0,0,0,348.09,430l-20-4.72-3.83-.91a20.45,20.45,0,0,0-24.68,15.56c-.5,2.24-.95,4.45-1.37,6.66-13.18,3.46-27.06,6.69-41.88,9.86-2.58.56-5.18,1.1-7.81,1.65l-10.45-5.28a6.15,6.15,0,0,1-3.2-7l5.65-23.05a5.11,5.11,0,0,1,5.93-3.82,50.38,50.38,0,0,1,9.27,2.78,3.74,3.74,0,0,0,4.79-5.08c-1.24-2.57-2.27-4.95-3.15-7.27q11.7-5.25,22.82-10.27c18-8.15,35.05-16,52-24.35l27.71-6.44a41,41,0,0,0,13.7-6h0a68,68,0,0,1,36.89,11.23c6,3.95,11.77,7.85,17.4,11.7,16.5,11.31,31.65,22.25,46.59,33.25H467a14,14,0,1,0,0,28.05Z"/><path class="cls-3" d="M385.44,363.5c-1.7,1.83-3.42,3.65-5.16,5.49a41.14,41.14,0,0,1-20.36,11.63l-27.71,6.45-52,12.09c18-8.15,35.05-16,52-24.35l27.71-6.44a41,41,0,0,0,13.7-6h0A67.89,67.89,0,0,1,385.44,363.5Z"/><polygon class="cls-4" points="466.33 483.43 466.33 507.21 454.18 499.78 442.7 507.21 442.7 483.43 442.7 465.01 466.33 465.01 466.33 483.43"/><path class="cls-2" d="M392.25,248.37l47.23,40.18c-22.57,26.83-39.24,47.21-59.2,68.18a41,41,0,0,1-20.36,11.64l-27.71,6.44-73.06,17a16.9,16.9,0,0,0-5.8,2.57c-.3.21-.6.42-.89.65-7.49,5.91-21.06,9.61-36.53,12.25-5.74,1-11.74,1.82-17.8,2.57,4.06,4,8.09,5.64,13.9,7.77l.37.13a2.42,2.42,0,0,1,.48,4.3c-1.16.75-2.26,1.44-3.32,2.11a125.64,125.64,0,0,1-11.49,6.42h0l-.45.22a9.17,9.17,0,0,1-8.49-.27l-.26-.14A67.75,67.75,0,0,1,178.25,423a7.89,7.89,0,0,1-2.77-6.73,7.31,7.31,0,0,1,.35-1.77l3-10a69.83,69.83,0,0,1-9.54,7.89c-6.34,4.64-14.2,10-20.11,14.8l-2.81-7.2c4.44-4,9.54-8.48,14.53-13,6.88-6.18,13.54-12.32,18-17a26,26,0,0,1,18.32-8.09l30.35-.64,1.29,0A12,12,0,0,0,234,380c26-13.11,46.39-24.7,66.15-35.75,12.75-7.13,25.24-14,38.78-21l1.89-1a22,22,0,0,0,7.51-6.24C364,295.51,375.7,275.13,392.25,248.37Z"/><path class="cls-2" d="M421.09,155.17h0c-11.3,15.57-25.48,25.15-44.75,27.78-16,2.18-11.16-11.07-7.94-17.57l8.18-1.53L378,150.73c-7.14,1.56-14.09,2.94-21.54,4.29a19.83,19.83,0,0,1-23.38-18.92c-.34-11.41-.53-21.92-.61-32.46,7.06-1.47,14.54-2.68,23.2-3.78a124.9,124.9,0,0,1,23.19-27.31,242.59,242.59,0,0,1-.26,42s16.49-30.66,25.77-26.28-7.22,23.7-7.22,23.7c2.82,3,7.82,10.85,12.12,18.39l2.32,26.73Z"/><path class="cls-3" d="M413.65,4.92c11.66,7.54,14.19,24.37,5.64,37.61a31.55,31.55,0,0,1-9.5,9.51,24.13,24.13,0,0,0-17.27-13.27,63.76,63.76,0,0,0-20-1A30.3,30.3,0,0,1,377,15.24C385.59,2,402-2.61,413.65,4.92Z"/><path class="cls-3" d="M409.79,52c8.42,16.57,3.29,43.49.12,56.19a47.11,47.11,0,0,0-1.22,15.56l.57,6.57c-4.3-7.54-9.3-15.42-12.12-18.39,0,0,16.49-19.32,7.22-23.7s-25.77,26.28-25.77,26.28a242.59,242.59,0,0,0,.26-42,124.9,124.9,0,0,0-23.19,27.31c-8.66,1.1-16.14,2.31-23.2,3.78A238.37,238.37,0,0,0,300,113c6.12-16,11.44-27.07,23.19-42.77L301.3,87.5c16.41-23.89,41.9-46.68,71.26-49.76a63.76,63.76,0,0,1,20,1A24.13,24.13,0,0,1,409.79,52Z"/><path class="cls-2" d="M359.43,443.32a14.17,14.17,0,0,1,0,2.16c-.78,10-2.64,19.09-5.27,29.79a17.14,17.14,0,0,1-20.57,12.62l-8.65-2.05c-10.63-3.8-17.18-15.25-15.62-26.65.84-6.16,1.9-11.93,3.22-18a21,21,0,0,1,15.59-15.94l20,4.72A14.76,14.76,0,0,1,359.43,443.32Z"/><path class="cls-4" d="M259.15,391.8l73.06-17c-23.94,11.76-48.1,22.62-74.82,34.62a82.15,82.15,0,0,1-4-15.06A16.9,16.9,0,0,1,259.15,391.8Z"/><path class="cls-3" d="M324.29,424.38l3.83.91a21,21,0,0,0-15.59,15.94c-1.32,6-2.38,11.8-3.22,18-1.56,11.4,5,22.85,15.62,26.65l-10.62-2.51A23.48,23.48,0,0,1,300.47,474a23.23,23.23,0,0,1-4-16.5c.5-3.72,1.09-7.28,1.77-10.85.42-2.21.87-4.42,1.37-6.66A20.45,20.45,0,0,1,324.29,424.38Z"/><path class="cls-2" d="M317.31,299.3h0c-5.41,14.61-11.05,29.3-17.16,44.92C280.39,355.27,260,366.86,234,380a12,12,0,0,1-5.13,1.28l-1.29,0c6.25-10.06,10.44-19,19.41-27.77.38-.38.77-.75,1.16-1.12a44.82,44.82,0,0,0,11-16.15C266,319,272.72,301.38,279.4,283l37.23,13.43h0A13.71,13.71,0,0,0,317.31,299.3Z"/><path class="cls-4" d="M298.24,446.6c-.68,3.57-1.27,7.13-1.77,10.85a23.23,23.23,0,0,0,4,16.5c-16.36-5.39-29.89-11.7-44.11-17.49C271.18,453.3,285.06,450.06,298.24,446.6Z"/><path class="cls-2" d="M260.54,416.7a3.74,3.74,0,0,1-4.79,5.08,49.61,49.61,0,0,0-9.27-2.78,5.12,5.12,0,0,0-5.93,3.82l-5.65,23a6.16,6.16,0,0,0,3.2,7l10.44,5.28c-.24,3.33-15,7.26-27.68,7.85-5.74.27-11-.15-14.31-1.64a8.88,8.88,0,0,1-1.53-.87c-5.28-3.91-1.89-19.25.77-28.51.44-1.54.86-2.91,1.22-4l2.55-6.76c1.06-.67,2.16-1.36,3.32-2.11a2.42,2.42,0,0,0-.48-4.3l-.37-.13,3.9-10.34c15.47-2.64,29-6.34,36.53-12.25.29-.23.59-.44.89-.65a82.15,82.15,0,0,0,4,15.06C258.27,411.75,259.31,414.13,260.54,416.7Z"/><path class="cls-2" d="M260.58,483v.35a3.56,3.56,0,0,1-3.56,3.56H168.66a3.56,3.56,0,0,1-3.56-3.56V483a3.55,3.55,0,0,1,3.56-3.56H257A3.56,3.56,0,0,1,260.58,483Z"/><path class="cls-4" d="M247,353.48v0c-9,8.79-13.16,17.71-19.41,27.77l-30.35.64A26,26,0,0,0,178.91,390c-4.43,4.69-11.09,10.83-18,17l-26.09-16.65-2.91-7.45a3.44,3.44,0,0,0-3.19-2.19H122.4a47.08,47.08,0,0,1-8.46-12.42c-15.06-32.15,17.83-65.76,50.3-51.41Z"/><path class="cls-3" d="M220.86,466h0c-4.12,2.93-13.5,7-33.92,7A54.77,54.77,0,0,1,165.57,469l-14-35.76c9.24-2.54,24.66-3,37.26-2.88l.26.14a9.17,9.17,0,0,0,8.49.27l.45-.22h0c3.14.1,5.81.22,7.78.32.39,0,.77,0,1.16,0-.36,1.12-.78,2.49-1.22,4-8,.7-23.49,3.45-22.81,14.18.65,10.47,11.08,15.15,23.57,15.21h0C209.83,465.81,215.12,466.23,220.86,466Z"/><path class="cls-2" d="M215.93,407.27,212,417.61c-5.81-2.13-9.84-3.77-13.9-7.77C204.19,409.09,210.19,408.25,215.93,407.27Z"/><path class="cls-2" d="M209.56,424.15,207,430.91c-.39,0-.77,0-1.16,0-2-.1-4.64-.22-7.78-.32A125.64,125.64,0,0,0,209.56,424.15Z"/><path class="cls-5" d="M206.55,464.32h0c-12.49-.06-22.92-4.74-23.57-15.21-.68-10.73,14.83-13.48,22.81-14.18-2.66,9.26-6,24.6-.77,28.51A8.88,8.88,0,0,0,206.55,464.32Z"/><path class="cls-2" d="M178.87,404.48l-3,10a7.31,7.31,0,0,0-.35,1.77h0l-6.14-3.92A69.83,69.83,0,0,0,178.87,404.48Z"/><path class="cls-2" d="M168.66,486.93H40.87a3.74,3.74,0,1,1,0-7.47h125a2.22,2.22,0,0,0,.37,0l.14.84A3.55,3.55,0,0,0,165.1,483v.35A3.56,3.56,0,0,0,168.66,486.93Z"/><path class="cls-2" d="M168.27,476a2.57,2.57,0,0,1-2,3.48,2.22,2.22,0,0,1-.37,0h-125a3.4,3.4,0,0,1-3-2.17l-36.34-93a2.58,2.58,0,0,1,2.4-3.51H128.75a3.44,3.44,0,0,1,3.19,2.19l2.91,7.45L146.41,420l2.81,7.2,2.38,6.09,14,35.76Z"/><path class="cls-6" d="M227.58,381.27c6.25-10.06,10.44-19,19.41-27.77.38-.38.77-.75,1.16-1.12a44.82,44.82,0,0,0,11-16.15C266,319,272.72,301.38,279.4,283c9.33-25.67,18.63-52.82,28.28-82.58a45,45,0,0,1,35-30.42q12.53-2.17,25.71-4.62l8.18-1.53L378,150.73c-7.14,1.56-14.09,2.94-21.54,4.29a19.83,19.83,0,0,1-23.38-18.92c-.34-11.41-.53-21.92-.61-32.46"/><path class="cls-6" d="M409.26,130.36c-4.3-7.54-9.3-15.42-12.12-18.39,0,0,16.49-19.32,7.22-23.7s-25.77,26.28-25.77,26.28a242.59,242.59,0,0,0,.26-42,124.9,124.9,0,0,0-23.19,27.31c-8.66,1.1-16.14,2.31-23.2,3.78A238.37,238.37,0,0,0,300,113c6.12-16,11.44-27.07,23.19-42.77L301.3,87.5c16.41-23.89,41.9-46.68,71.26-49.76a63.76,63.76,0,0,1,20,1A24.13,24.13,0,0,1,409.79,52c8.42,16.57,3.29,43.49.12,56.19a47.11,47.11,0,0,0-1.22,15.56l.57,6.57,2.32,26.73,9.51-1.92q18.5-3.72,38.06-7.86c25.71-5.43,47.8,18.8,40,43.89-5.86,18.83-11.61,36.35-17.6,53.31a127.07,127.07,0,0,0,4.77,96.39c5.25,11.16,11.16,23.11,17.55,35.77a81.49,81.49,0,0,1,3.76,8.63,71.1,71.1,0,0,1,4,33.25"/><path class="cls-6" d="M432.08,483.13a73.66,73.66,0,0,1-34.85-12.87c-14.69-10-27.47-19-37.8-26.94"/><path class="cls-6" d="M298.24,446.6c-13.18,3.46-27.06,6.7-41.88,9.86l-7.82,1.65"/><path class="cls-6" d="M220.86,466c-4.12,2.93-13.5,7-33.92,7A54.77,54.77,0,0,1,165.57,469"/><path class="cls-6" d="M151.6,433.26c9.24-2.54,24.66-3,37.26-2.88"/><path class="cls-6" d="M198.07,430.57c3.14.1,5.81.22,7.78.32.39,0,.77,0,1.16,0"/><path class="cls-6" d="M257.39,409.43c26.72-12,50.88-22.86,74.82-34.62"/><path class="cls-6" d="M373.62,362.37a67.86,67.86,0,0,1,36.89,11.23c6,3.95,11.77,7.85,17.4,11.7,16.5,11.31,31.65,22.25,46.59,33.25"/><path class="cls-6" d="M317.31,299.3c-5.41,14.61-11.05,29.3-17.16,44.92"/><path class="cls-6" d="M316.63,296.44a13.71,13.71,0,0,0,.68,2.86c3.16,9.08,15.19,15.76,21.62,23.95"/><path class="cls-6" d="M323.16,254c0,9.69-6.63,25.5-6.63,40.8a14.41,14.41,0,0,0,.1,1.63"/><path class="cls-6" d="M146.41,420c4.44-4,9.54-8.48,14.53-13,6.88-6.18,13.54-12.32,18-17a26,26,0,0,1,18.32-8.09l30.35-.64,1.29,0A12,12,0,0,0,234,380c26-13.11,46.39-24.7,66.15-35.75,12.75-7.13,25.24-14,38.78-21l1.89-1a22,22,0,0,0,7.51-6.24c15.65-20.54,27.37-40.92,43.92-67.68l47.23,40.18c-22.57,26.83-39.24,47.21-59.2,68.18a41,41,0,0,1-20.36,11.64l-27.71,6.44-73.06,17a16.9,16.9,0,0,0-5.8,2.57c-.3.21-.6.42-.89.65-7.49,5.91-21.06,9.61-36.53,12.25-5.74,1-11.74,1.82-17.8,2.57,4.06,4,8.09,5.64,13.9,7.77l.37.13a2.42,2.42,0,0,1,.48,4.3c-1.16.75-2.26,1.44-3.32,2.11a125.64,125.64,0,0,1-11.49,6.42h0l-.45.22a9.17,9.17,0,0,1-8.49-.27l-.26-.14A67.75,67.75,0,0,1,178.25,423a7.89,7.89,0,0,1-2.77-6.73,7.31,7.31,0,0,1,.35-1.77l3-10a69.83,69.83,0,0,1-9.54,7.89c-6.34,4.64-14.2,10-20.11,14.8"/><path class="cls-6" d="M166.25,479.43a2.22,2.22,0,0,1-.37,0h-125a3.4,3.4,0,0,1-3-2.17l-36.34-93a2.58,2.58,0,0,1,2.4-3.51H128.75a3.44,3.44,0,0,1,3.19,2.19l2.91,7.45L146.41,420l2.81,7.2,2.38,6.09,14,35.76,2.7,6.93A2.57,2.57,0,0,1,166.25,479.43Z"/><path class="cls-6" d="M168.66,486.93a3.56,3.56,0,0,1-3.56-3.56V483a3.55,3.55,0,0,1,3.56-3.56H257a3.56,3.56,0,0,1,3.56,3.56v.35a3.56,3.56,0,0,1-3.56,3.56H168.83"/><path class="cls-6" d="M168.83,486.93h-128a3.74,3.74,0,1,1,0-7.47"/><polyline class="cls-6" points="279.4 283.01 316.63 296.44 316.63 296.44"/><path class="cls-6" d="M247,353.48l-82.74-36.59c-32.47-14.35-65.36,19.26-50.3,51.41a47.08,47.08,0,0,0,8.46,12.42"/><line class="cls-6" x1="134.85" y1="390.36" x2="160.94" y2="407.01"/><line class="cls-6" x1="169.33" y1="412.37" x2="175.47" y2="416.29"/><path class="cls-6" d="M256.36,456.46c14.22,5.79,27.75,12.1,44.11,17.49"/><path class="cls-6" d="M253.35,394.37a82.15,82.15,0,0,0,4,15.06c.88,2.32,1.92,4.7,3.15,7.27a3.74,3.74,0,0,1-4.79,5.08,49.61,49.61,0,0,0-9.27-2.78,5.12,5.12,0,0,0-5.93,3.82l-5.65,23a6.16,6.16,0,0,0,3.2,7l10.44,5.28c-.24,3.33-15,7.26-27.68,7.85-5.74.27-11-.15-14.31-1.64a8.88,8.88,0,0,1-1.53-.87c-5.28-3.91-1.89-19.25.77-28.51.44-1.54.86-2.91,1.22-4l2.55-6.76"/><line class="cls-6" x1="212.03" y1="417.61" x2="215.93" y2="407.27"/><path class="cls-6" d="M205.79,434.94c-8,.7-23.49,3.45-22.81,14.18.65,10.47,11.08,15.15,23.57,15.21"/><path class="cls-6" d="M359.43,443.32a14.17,14.17,0,0,1,0,2.16c-.78,10-2.64,19.09-5.27,29.79a17.14,17.14,0,0,1-20.57,12.62l-8.65-2.05-10.62-2.51A23.48,23.48,0,0,1,300.47,474a23.23,23.23,0,0,1-4-16.5c.5-3.72,1.09-7.28,1.77-10.85.42-2.21.87-4.42,1.37-6.66a20.45,20.45,0,0,1,24.68-15.56l3.83.91,20,4.72A14.76,14.76,0,0,1,359.43,443.32Z"/><path class="cls-6" d="M327.31,486.54a21,21,0,0,1-2.38-.7c-10.63-3.8-17.18-15.25-15.62-26.65.84-6.16,1.9-11.93,3.22-18a21,21,0,0,1,15.59-15.94"/><line class="cls-6" x1="427.91" y1="385.3" x2="507.63" y2="385.3"/><path class="cls-6" d="M372.56,37.74A30.3,30.3,0,0,1,377,15.24C385.59,2,402-2.61,413.65,4.92s14.19,24.37,5.64,37.61a31.55,31.55,0,0,1-9.5,9.51"/><path class="cls-6" d="M341.81,112.31c2,5,2.2,8.74,2.15,14.08a4.58,4.58,0,0,1-.45,1.92l-1.27,2.6a.93.93,0,0,0,.75,1.33l7.22.73"/><path class="cls-6" d="M361.17,111.85a6.19,6.19,0,0,1-2.9,2.09h0a6.29,6.29,0,0,1-2.67.27,6.09,6.09,0,0,1-3.34-1.53"/><path class="cls-6" d="M368.4,165.39c-3.22,6.5-8,19.75,7.94,17.57,19.27-2.63,33.45-12.21,44.75-27.78"/><line class="cls-6" x1="568.71" y1="483.43" x2="466.33" y2="483.43"/><path class="cls-6" d="M442.7,483.43H435a14,14,0,0,1-2.91-.3h0a14.59,14.59,0,0,1-11.64-14.28v-7.68A14.57,14.57,0,0,1,435,446.6H568.71"/><path class="cls-6" d="M616.14,446.6h9.12a14.57,14.57,0,0,0-14.57,14.57v7.68a14.57,14.57,0,0,0,14.57,14.58H568.71a14.58,14.58,0,0,1-14.58-14.58v-7.68a14.57,14.57,0,0,1,14.58-14.57Z"/><path class="cls-6" d="M467,446.6a14,14,0,1,1,0-28.05h92.9"/><path class="cls-6" d="M559.92,446.6a14,14,0,0,1,0-28.05h56.22a14,14,0,0,0,0,28.05"/><polygon class="cls-6" points="466.33 483.43 466.33 507.21 454.18 499.78 442.7 507.21 442.7 483.43 442.7 465.01 466.33 465.01 466.33 483.43"/><line class="cls-6" x1="466.33" y1="465.01" x2="475.59" y2="465.01"/><line class="cls-6" x1="433.87" y1="465.01" x2="442.7" y2="465.01"/><path class="cls-4" d="M114.58,239.7a17.8,17.8,0,1,0,17.79,17.8A17.8,17.8,0,0,0,114.58,239.7Zm0,26.37a8.58,8.58,0,1,1,8.57-8.57A8.58,8.58,0,0,1,114.58,266.07Z"/><line class="cls-7" x1="60.54" y1="209.79" x2="75.75" y2="225"/><line class="cls-7" x1="60.54" y1="225" x2="75.75" y2="209.79"/><polyline class="cls-7" points="168.75 280.02 184.9 277.71 191.16 292.78 207.32 290.48 213.59 305.55 229.74 303.24"/><polygon class="cls-7" points="66.96 303.3 70.71 286.5 53.91 290.25 66.96 303.3"/><path class="cls-7" d="M596.71,410.38a345.76,345.76,0,0,0-14.83-31.8H544.27a343.07,343.07,0,0,0-14.82,31.8"/><line class="cls-7" x1="563.08" y1="378.58" x2="563.08" y2="227.95"/><path class="cls-7" d="M599.13,318c-8.88,8.88-17.57,11.75-29.1,13.45,1.7-11.54,4.56-20.23,13.44-29.1s22.42-16.6,33.95-18.29C615.72,295.54,608,309.08,599.13,318Z"/><path class="cls-7" d="M551.69,337.94c4.53,4.53,5.72,9.23,6.13,15.57-6.34-.41-11-1.6-15.57-6.13s-8.19-11.7-8.6-18C540,329.75,547.16,333.41,551.69,337.94Z"/><path class="cls-7" d="M588.73,280.57c-4.53,4.53-9.23,5.72-15.57,6.13.41-6.34,1.6-11,6.13-15.57s11.7-8.19,18-8.6C596.92,268.87,593.26,276,588.73,280.57Z"/><path class="cls-7" d="M548.13,257.1c5.45,5.45,6.89,11.11,7.38,18.74-7.63-.49-13.29-1.93-18.74-7.38s-9.85-14.08-10.34-21.71C534.05,247.25,542.69,251.65,548.13,257.1Z"/><path class="cls-7" d="M571.18,226.68c0,7.7-3,12.72-8,18.46-5-5.74-8-10.76-8-18.46s3-16.93,8-22.67C568.19,209.75,571.18,219,571.18,226.68Z"/><path class="cls-7" d="M545.52,293.38c6.84,6.85,8.65,14,9.27,23.54-9.59-.62-16.7-2.42-23.54-9.26s-12.39-17.69-13-27.28C527.83,281,538.67,286.54,545.52,293.38Z"/><line class="cls-7" x1="589.19" y1="311.75" x2="563.08" y2="337.85"/><line class="cls-7" x1="537.51" y1="300.15" x2="563.08" y2="325.71"/><line class="cls-7" x1="545.71" y1="341.34" x2="563.08" y2="358.71"/><line class="cls-7" x1="541.21" y1="261.05" x2="563.08" y2="282.92"/><line class="cls-7" x1="585.39" y1="274.76" x2="563.08" y2="297.06"/></g></g></svg>