<svg xmlns="http://www.w3.org/2000/svg" viewBox="0 0 575.37 583.07"><defs><style>.cls-1{fill:#f0f0f0;}.cls-2{fill:#fff;}.cls-3{fill:#323433;}.cls-4{fill:#52cca7;}.cls-5,.cls-6{fill:none;stroke:#323433;stroke-linecap:round;stroke-linejoin:round;}.cls-5{stroke-width:2.61px;}.cls-6{stroke-width:1.74px;}</style></defs><title>Asset 24</title><g id="Layer_2" data-name="Layer 2"><g id="graphic"><circle class="cls-1" cx="177.06" cy="309.39" r="116.73" transform="translate(-166.91 215.82) rotate(-45)"/><path class="cls-2" d="M571.7,376.42a7.09,7.09,0,0,1,.43,10.16l-4.74,5L467.28,304.08l6-6.37a7.1,7.1,0,0,1,9.89-.42Z"/><path class="cls-3" d="M467.28,304.08,567.39,391.6c-13.44,13.65-46.34-8-72.05-13.52a13.92,13.92,0,0,0-5.06-.14l-9.17-9h0a32.06,32.06,0,0,0-10.95-28.07l-19.77-19Z"/><path class="cls-4" d="M481.11,368.93l9.17,9a14.15,14.15,0,0,0-8,4.23l-3.75,3.95-46-45.4,9.6-10.12h0Z"/><path class="cls-2" d="M470.16,340.85a32.06,32.06,0,0,1,10.95,28.07h0l-39-38.33h0l8.26-8.7Z"/><path class="cls-4" d="M478.51,386.12,445,421.45l-90.17,7.06-75.21-9.13V371.92c-1.89,2.49-3.82,5-5.76,7.55L210,334.42l24.94-32.65h80.66a21.77,21.77,0,0,0,24.93,0h20.06v.51c21.49,21.28,18.48,60.88,0,77.93v36.38l71.95-75.87Z"/><path class="cls-2" d="M366.93,217.11c10.62-8.48,20.74-17.08,29.76-25.73,5.12-4.91,8.37-10.34,8.77-17A113.55,113.55,0,0,1,410.84,145a4.41,4.41,0,0,1,4.25-3.15,4.31,4.31,0,0,1,4.19,4.75c-.73,7-1.14,12.32-1.51,18.57a4.82,4.82,0,0,0,8.16,3.76c12.34-11.72,14-22.34,6.69-40a5.34,5.34,0,0,1,2.13-6.65,5.25,5.25,0,0,1,7.39,2.23c9.19,18.91,10.33,35.45,6.21,50.72a70.56,70.56,0,0,1-16.29,29.2c-23.29,25.31-44.37,48-65.85,70.75l-32.88-32.47C344.62,234.4,356,225.82,366.93,217.11Z"/><polygon class="cls-4" points="445.01 421.45 429.7 437.59 354.85 428.51 445.01 421.45"/><path class="cls-2" d="M436.17,574.45a7.09,7.09,0,0,1-7.07,7.3l-6.91,0L416.81,448.9H419l6.59,0a7.1,7.1,0,0,1,7.11,6.88Z"/><polygon class="cls-4" points="429.7 437.59 418.98 448.89 418.98 448.9 416.81 448.9 390.77 448.9 376.3 448.9 279.63 448.9 279.63 434.39 354.85 428.51 429.7 437.59"/><path class="cls-3" d="M416.81,448.9l5.38,132.87c-19.15-.36-26.09-39.12-39.77-61.58a13.74,13.74,0,0,0-3.38-3.77l-.5-12.33h0l.26-.19a32.08,32.08,0,0,0,13.31-27.61l-1.34-27.39Zm-12.1,63.76a6.1,6.1,0,1,0-6.1,6.1A6.1,6.1,0,0,0,404.71,512.66Z"/><path class="cls-2" d="M398.61,506.56a6.1,6.1,0,1,1-6.1,6.1A6.1,6.1,0,0,1,398.61,506.56Z"/><path class="cls-2" d="M392.11,476.29A32.08,32.08,0,0,1,378.8,503.9l-.26.19h0L376.3,448.9h14.47Z"/><path class="cls-4" d="M378.54,504.09l.5,12.33a14,14,0,0,0-8.58-2.92h-187c-45.16,0-70.76-51.75-43.34-87.65l68.35-89.48,53.88,58.15c-13.71,18-28,36.67-41.54,54.38H376.3Z"/><path class="cls-3" d="M297.16,212.48l-39,41.59a511.52,511.52,0,0,0,41.33,35.62H234.93A83.42,83.42,0,0,0,233.1,272c-3.66-17.16-12.2-29.87-19.46-44.77h0c-6.5-13.35-12-28.45-12-50.08v-8.57a35.53,35.53,0,0,1,36.64-35.5c6.45.2,12.73.46,18.89.78,6.91,12.59,22.29,32.75,49.31,31,15.83-1,19-14.06,13-25.71h0c9.58,1.12,19.28,2.38,29.31,3.76a24.78,24.78,0,0,1,21.36,24.13c.32,18.62-1.29,34.42-3.27,50.06-10.9,8.71-22.31,17.29-33.6,25.65l-1.3,1a3.68,3.68,0,0,1-4.83-.39Z"/><path class="cls-2" d="M366.21,275.23l-5.52,5.86-8.13,8.6q-4.35,4.6-8.75,9.23a21.48,21.48,0,0,1-3.29,2.85,21.77,21.77,0,0,1-24.93,0l-.36-.26c-5.47-4-10.69-7.91-15.73-11.82a511.52,511.52,0,0,1-41.33-35.62l39-41.59,30,30.85a3.68,3.68,0,0,0,4.83.39l1.3-1Z"/><path class="cls-3" d="M360.69,281.09q-.1,4.2-.11,8.6h-8Z"/><path class="cls-2" d="M360.58,289.69v12.08H340.52a22,22,0,0,0,3.29-2.85q4.41-4.64,8.75-9.23Z"/><path class="cls-3" d="M357.71,513.5,348,523.74c-20.31,21.42-53.59,13.33-64.66-10.24Z"/><polygon class="cls-4" points="354.85 428.51 279.63 434.39 279.63 419.38 354.85 428.51"/><path class="cls-3" d="M320.56,3.49c8-6,19.19,1.15,17.13,10.9-2.37,11.16-7.24,19.71-15.44,28.46h0a10.27,10.27,0,0,0-4.38-6.5h0a10.26,10.26,0,0,0-7.35-1.6l-2.59.42a53.94,53.94,0,0,0-5.34.85l-.07,0c-9.5,2-20.66,6.41-28.39,9.79a12.81,12.81,0,0,0-7.41,14.35l3.77,18.18L260,76.71a14,14,0,0,0-5.66-.63c-3.44-8.16-5.07-11.68-7.06-20.4a25.91,25.91,0,0,1,20.15-31C288.13,20.38,306.81,13.79,320.56,3.49Z"/><path class="cls-2" d="M330.61,83.15c2.79,14.7-11.5,28.68-26.11,31.43l4.23,22.76a.85.85,0,0,0,.74.69q5,.54,10.06,1.13h0c6,11.65,2.81,24.69-13,25.71-27,1.74-42.4-18.42-49.31-31,3.83.19,7.6.41,11.34.65a.86.86,0,0,0,.9-1L264.1,101.6c-.47-2.66-.93-5.27-1.37-7.85-6-3.41-13.37-8.7-12.33-13.9a4.39,4.39,0,0,1,4-3.77,14,14,0,0,1,5.66.63l10.43,1.65L266.7,60.18a12.81,12.81,0,0,1,7.41-14.35C281.84,42.45,293,38,302.5,36l.07,0,5.34-.85c4.09-.42,7.57-.15,9.94,1.18h0a10.27,10.27,0,0,1,4.38,6.5c.06.29.11.58.15.88C324.44,60.73,327.55,67,330.61,83.15Zm-13.3-14.78c1.31-.32,2-1.93,1.63-3.59s-1.8-2.74-3.11-2.42-2,1.93-1.63,3.59S316,68.69,317.31,68.37Zm-27.19,6.22c1.32-.32,2-1.93,1.63-3.58s-1.8-2.75-3.11-2.42-2,1.93-1.63,3.58S288.81,74.92,290.12,74.59Z"/><path class="cls-3" d="M318.94,64.78c.41,1.66-.32,3.27-1.63,3.59s-2.71-.76-3.11-2.42.32-3.27,1.63-3.59S318.53,63.12,318.94,64.78Z"/><path class="cls-2" d="M315.59,301.77H234.93V289.69H299.5c5,3.91,10.26,7.82,15.73,11.82Z"/><path class="cls-2" d="M310.5,34.75a10.26,10.26,0,0,1,7.35,1.6c-2.37-1.33-5.85-1.6-9.94-1.18Z"/><path class="cls-2" d="M307.91,35.17l-5.34.85A53.94,53.94,0,0,1,307.91,35.17Z"/><path class="cls-3" d="M291.75,71c.41,1.65-.31,3.26-1.63,3.58s-2.7-.76-3.11-2.42.32-3.26,1.63-3.58S291.35,69.35,291.75,71Z"/><path class="cls-4" d="M210,334.41l63.88,45.06-11.49,15L208.5,336.37Z"/><path class="cls-2" d="M233.1,272l-40.56,47.13-28.08-30.3a35,35,0,0,0,4.29-4.56l44.89-57C220.9,242.14,229.44,254.85,233.1,272Z"/><polygon class="cls-2" points="209.99 334.42 208.5 336.37 200.46 327.69 209.99 334.42"/><polygon class="cls-2" points="192.54 319.14 200.46 327.69 190.95 320.99 192.54 319.14"/><path class="cls-2" d="M164.46,288.84l28.08,30.3L191,321,154.4,295.2A35.77,35.77,0,0,0,164.46,288.84Z"/><path class="cls-2" d="M127.73,367.4a11.11,11.11,0,0,1-6.08-8.31h0a10.84,10.84,0,0,1,.15-4c3-13.38,11.56-26.42,25.18-41a1.51,1.51,0,0,0-1.35-2.53A118.18,118.18,0,0,1,118.19,313a4.51,4.51,0,0,1-.66-8.94c11.07-2.18,21.33-4.86,30.26-6.75a35.73,35.73,0,0,0,6.61-2.07L191,321l-28.64,33.28A41,41,0,0,1,140,367.65a39.45,39.45,0,0,1-6.34.85l-.58,0A10.92,10.92,0,0,1,127.73,367.4Z"/><path class="cls-3" d="M360.58,289.69v10.19l-1.79,1.89c-1.16,1.22-2.31,2.45-3.47,3.68l-8.75,9.23a21.7,21.7,0,0,1-28.22,2.84l-.37-.26c-5.46-4-10.68-7.91-15.72-11.81-1.58-1.23-3.14-2.45-4.68-3.68-5.06-4-9.93-8-14.7-12.08H299.5c5,3.91,10.26,7.82,15.73,11.82l.36.26a21.77,21.77,0,0,0,24.93,0,22,22,0,0,0,3.29-2.85q4.41-4.64,8.75-9.23Z"/><polyline class="cls-5" points="442.14 330.6 481.11 368.93 490.28 377.94"/><path class="cls-5" d="M481.11,368.92a32.06,32.06,0,0,0-10.95-28.07l-19.77-19"/><path class="cls-5" d="M567.39,391.6l4.74-5a7.09,7.09,0,0,0-.43-10.16l-88.52-79.13a7.1,7.1,0,0,0-9.89.42l-6,6.37"/><polyline class="cls-5" points="376.3 448.9 378.54 504.09 379.04 516.41"/><path class="cls-5" d="M378.54,504.09l.26-.19a32.08,32.08,0,0,0,13.31-27.61l-1.34-27.39"/><path class="cls-5" d="M422.19,581.77l6.91,0a7.09,7.09,0,0,0,7.07-7.3l-3.49-118.69a7.1,7.1,0,0,0-7.11-6.88l-6.59,0h-2.17"/><polyline class="cls-5" points="279.63 344.04 279.63 371.92 279.63 419.38 279.63 434.39 279.63 448.9"/><path class="cls-5" d="M283.34,513.5c11.07,23.57,44.35,31.66,64.66,10.24l9.71-10.24"/><path class="cls-5" d="M419,448.89l10.72-11.3L445,421.45l33.5-35.33,3.75-3.95a14.15,14.15,0,0,1,8-4.23,13.92,13.92,0,0,1,5.06.14c25.71,5.54,58.61,27.17,72.05,13.52L467.28,304.08,450.39,321.9l-8.26,8.7-9.6,10.12L360.58,416.6"/><line class="cls-5" x1="360.58" y1="289.69" x2="352.56" y2="289.69"/><path class="cls-5" d="M299.5,289.69H234.93v12.08L210,334.41l-1.49,2-68.35,89.48c-27.42,35.9-1.82,87.65,43.34,87.65h187a14,14,0,0,1,8.58,2.92,13.74,13.74,0,0,1,3.38,3.77c13.68,22.46,20.62,61.22,39.77,61.58L416.81,448.9h-196c13.53-17.71,27.83-36.42,41.54-54.38l11.49-15q2.92-3.81,5.77-7.55"/><line class="cls-5" x1="360.58" y1="301.77" x2="340.52" y2="301.77"/><line class="cls-5" x1="315.59" y1="301.77" x2="234.93" y2="301.77"/><path class="cls-5" d="M360.58,417.38V380.21c18.48-17,21.48-56.65,0-77.93V289.69q0-4.4.11-8.6"/><path class="cls-5" d="M317.85,36.35a10.26,10.26,0,0,0-7.35-1.6l-2.59.42-5.34.85"/><path class="cls-5" d="M366.93,217.11h0c2-15.64,3.59-31.44,3.27-50.06a24.78,24.78,0,0,0-21.36-24.13c-10-1.38-19.73-2.64-29.31-3.76q-5.05-.58-10.06-1.13a.85.85,0,0,1-.74-.69l-4.23-22.76c14.61-2.75,28.9-16.73,26.11-31.43-3.06-16.13-6.17-22.42-8.22-39.42,0-.3-.09-.59-.15-.88a10.27,10.27,0,0,0-4.38-6.5"/><path class="cls-5" d="M213.64,227.24c7.26,14.9,15.8,27.61,19.46,44.77a83.42,83.42,0,0,1,1.83,17.68"/><path class="cls-5" d="M317.86,36.35h0c-2.37-1.33-5.85-1.6-9.94-1.18a53.94,53.94,0,0,0-5.34.85l-.07,0c-9.5,2-20.66,6.41-28.39,9.79a12.81,12.81,0,0,0-7.41,14.35l3.77,18.18L260,76.71a14,14,0,0,0-5.66-.63,4.39,4.39,0,0,0-4,3.77c-1,5.2,6.29,10.49,12.33,13.9.44,2.58.9,5.19,1.37,7.85l5.34,31.92a.86.86,0,0,1-.9,1c-3.74-.24-7.51-.46-11.34-.65-6.16-.32-12.44-.58-18.89-.78a35.53,35.53,0,0,0-36.64,35.5v8.57c0,21.63,5.47,36.73,12,50.08"/><path class="cls-5" d="M254.38,76.08c-3.44-8.16-5.07-11.68-7.06-20.4a25.91,25.91,0,0,1,20.15-31c20.66-4.27,39.34-10.86,53.09-21.16,8-6,19.19,1.15,17.13,10.9-2.37,11.16-7.24,19.71-15.44,28.46"/><path class="cls-5" d="M304.48,62.16a24.42,24.42,0,0,0,1.27,11.21,9,9,0,0,0,4.53,5.1l.77.38a2.54,2.54,0,0,1-.49,4.73l-6.66,1.73"/><path class="cls-5" d="M291.75,71c.41,1.65-.31,3.26-1.63,3.58s-2.7-.76-3.11-2.42.32-3.26,1.63-3.58S291.35,69.35,291.75,71Z"/><path class="cls-5" d="M318.94,64.78c.41,1.66-.32,3.27-1.63,3.59s-2.71-.76-3.11-2.42.32-3.27,1.63-3.59S318.53,63.12,318.94,64.78Z"/><path class="cls-5" d="M257.2,133.86c6.91,12.59,22.29,32.75,49.31,31,15.83-1,19-14.06,13-25.71"/><path class="cls-5" d="M404.71,512.66a6.1,6.1,0,1,0-6.1,6.1A6.1,6.1,0,0,0,404.71,512.66Z"/><path class="cls-5" d="M252.54,166.65l44.62,45.83,30,30.85a3.68,3.68,0,0,0,4.83.39l1.3-1c11.29-8.36,22.7-16.94,33.6-25.65,10.62-8.48,20.74-17.08,29.76-25.73,5.12-4.91,8.37-10.34,8.77-17A113.55,113.55,0,0,1,410.84,145a4.41,4.41,0,0,1,4.25-3.15,4.31,4.31,0,0,1,4.19,4.75c-.73,7-1.14,12.32-1.51,18.57a4.82,4.82,0,0,0,8.16,3.76c12.34-11.72,14-22.34,6.69-40a5.34,5.34,0,0,1,2.13-6.65,5.25,5.25,0,0,1,7.39,2.23c9.19,18.91,10.33,35.45,6.21,50.72a70.56,70.56,0,0,1-16.29,29.2c-23.29,25.31-44.37,48-65.85,70.75l-5.52,5.86-8.13,8.6q-4.35,4.6-8.75,9.23a21.48,21.48,0,0,1-3.29,2.85,21.77,21.77,0,0,1-24.93,0l-.36-.26c-5.47-4-10.69-7.91-15.73-11.82a511.52,511.52,0,0,1-41.33-35.62c-11.27-10.8-22.61-22.6-35.05-36.32"/><polyline class="cls-5" points="258.17 254.08 258.17 254.07 297.16 212.47"/><polyline class="cls-5" points="333.33 242.76 366.21 275.23 432.53 340.72 478.51 386.12"/><path class="cls-5" d="M121.65,359.09a11.11,11.11,0,0,0,6.08,8.31,10.92,10.92,0,0,0,5.33,1.12l.58,0a39.45,39.45,0,0,0,6.34-.85,41,41,0,0,0,22.33-13.38L191,321l1.59-1.85L233.1,272"/><path class="cls-5" d="M213.64,227.23h0l-44.89,57a35,35,0,0,1-4.29,4.56,36.29,36.29,0,0,1-16.67,8.43c-8.93,1.89-19.19,4.57-30.26,6.75a4.51,4.51,0,0,0,.66,8.94,118.18,118.18,0,0,0,27.44-1.37,1.51,1.51,0,0,1,1.35,2.53c-13.62,14.59-22.2,27.63-25.18,41a10.84,10.84,0,0,0-.15,4"/><polyline class="cls-5" points="143.2 330.94 121.65 359.09 121.65 359.1"/><line class="cls-5" x1="151.18" y1="336.77" x2="127.73" y2="367.4"/><polyline class="cls-5" points="159.16 342.6 139.98 367.65 139.98 367.66"/><polyline class="cls-5" points="154.4 295.2 190.95 320.99 200.46 327.69 209.99 334.42 273.87 379.47"/><polyline class="cls-5" points="164.46 288.84 192.54 319.14 200.46 327.69 208.5 336.37 262.38 394.52"/><polyline class="cls-5" points="279.63 434.39 354.85 428.51 445.01 421.45"/><polyline class="cls-5" points="279.63 419.38 354.85 428.51 429.7 437.59"/><polygon class="cls-4" points="27.86 276.55 36.56 239.98 0 248.69 27.86 276.55"/><path class="cls-6" d="M65.2,146.22a61,61,0,1,1-61,61A61,61,0,0,1,65.2,146.22Z"/><polygon class="cls-3" points="433.99 3.66 437.2 6.88 432.3 11.78 437.2 16.67 433.99 19.89 429.09 14.99 424.19 19.89 420.98 16.67 425.87 11.78 420.98 6.88 424.19 3.66 429.09 8.56 433.99 3.66"/><polygon class="cls-3" points="78.98 184.41 88.03 193.45 74.25 207.23 88.03 221 78.98 230.05 65.2 216.27 51.43 230.05 42.38 221 56.16 207.23 42.38 193.45 51.43 184.41 65.2 198.18 78.98 184.41"/><circle class="cls-6" cx="67.37" cy="347.83" r="11.24" transform="translate(-238.21 168.54) rotate(-48.64)"/><line class="cls-6" x1="15.53" y1="305.3" x2="29.51" y2="319.27"/><line class="cls-6" x1="15.53" y1="319.27" x2="29.51" y2="305.3"/><polyline class="cls-6" points="424.91 35.91 434.1 47.77 424.91 59.63 434.1 71.48 424.91 83.34 434.1 95.2"/><polygon class="cls-6" points="46.36 403.73 27.13 365.58 7.9 403.73 46.36 403.73"/></g></g></svg>