<svg xmlns="http://www.w3.org/2000/svg" viewBox="0 0 609.77 659.06"><defs><style>.cls-1{fill:#f0f0f0;}.cls-2{fill:#fff;}.cls-3{fill:#323433;}.cls-4{fill:#52cca7;}.cls-5,.cls-6,.cls-7{fill:none;stroke-linecap:round;stroke-linejoin:round;}.cls-5,.cls-7{stroke:#323433;}.cls-5,.cls-6{stroke-width:2.61px;}.cls-6{stroke:#fff;}.cls-7{stroke-width:1.74px;}</style></defs><title>Asset 21</title><g id="Layer_2" data-name="Layer 2"><g id="graphic"><circle class="cls-1" cx="366.13" cy="554.59" r="104.47"/><path class="cls-2" d="M273.22,151.81h0a40.92,40.92,0,0,0-13.8,10.44L256.85,159c-1.79-2.27,11.81-13,13.6-10.69Z"/><path class="cls-3" d="M608,424.68a16.72,16.72,0,0,1-4.86,13.62l-12.75,12.64a16.76,16.76,0,0,1-13.67,4.75l-7.84-.89,0,0c.17-.13.33-.28.49-.43l37.36-37a5,5,0,0,0,.44-.49l0,0Z"/><path class="cls-2" d="M608.47,413a6.07,6.07,0,0,1-1.35,3.78,5,5,0,0,1-.44.49l-37.36,37c-.16.15-.32.3-.49.43a6,6,0,0,1-8-9l37.36-37A6,6,0,0,1,608.47,413Z"/><path class="cls-2" d="M598.22,400.18a6,6,0,0,1,0,8.54l-37.36,37a6,6,0,1,1-8.51-8.58l37.37-37A6,6,0,0,1,598.22,400.18Z"/><path class="cls-4" d="M590.06,391.88a5.59,5.59,0,0,1,0,7.91l-.35.35-37.37,37-.35.35a5.59,5.59,0,0,1-7.91,0l-9.56-9.65a12.21,12.21,0,0,0,1.54-1.27l43.18-42.82a11.53,11.53,0,0,0,1.29-1.52Z"/><path class="cls-2" d="M498.82,326.38c11.83,6.15,25.3,29.91,18.69,36.46S498.91,344.17,498.82,326.38Z"/><path class="cls-2" d="M485.28,342.24c11.13,7.57,25,27.81,18.87,33.85S486.71,359.44,485.28,342.24Z"/><path class="cls-2" d="M580.5,382.24a11.53,11.53,0,0,1-1.29,1.52L536,426.58a12.21,12.21,0,0,1-1.54,1.27,11.66,11.66,0,0,1-13,.24l-6.17-4A81.4,81.4,0,0,0,481.81,412,73.72,73.72,0,0,1,439,390.73c-28.77-29-28.36-76.62.88-105.15A74.05,74.05,0,0,1,565.1,329.49,81.73,81.73,0,0,0,577,363.2l3.83,6A11.67,11.67,0,0,1,580.5,382.24Zm-95.22-40c1.43,17.2,12.77,39.89,18.87,33.85S496.41,349.81,485.28,342.24Zm13.54-15.86c.09,17.79,12.09,43,18.69,36.46S510.65,332.53,498.82,326.38Z"/><polygon class="cls-2" points="62.27 501.5 35.7 614.53 26.4 612.35 51.68 499.47 62.27 501.5"/><path class="cls-2" d="M114.44,565.26l-8.37,62.49-9.31-1.25,7.84-63.64Z"/><path class="cls-2" d="M239.57,527.18l-1.06,11.21a1.81,1.81,0,0,1-2.3,1.58C209,532.38,173.79,524,134.49,515.75,172.18,519.12,208.11,523,239.57,527.18Z"/><path class="cls-4" d="M398.11,230l3.69,5.7-41.93,23.59c9.05,22.31,10,40.47,3.88,72.41a74.1,74.1,0,0,0-1.15,18.91c-31.15,7.57-62.82,12.05-89.82,13.14a16,16,0,0,0,1-4.39c1.12-18.08-17.61-39.65-17.61-39.65l-52,36.57-4.41-6.91L175.92,312c16.81-11.44,33.46-23.15,50.72-35.69a202.68,202.68,0,0,1,25.92-16l3.39-1.76c14.81,10.52,36.62,24.12,57.63,7.57,9.63-7.59,3.29-23-3.7-31.66a16.78,16.78,0,0,0,5.3-5.24h0c8-3.77,16.26-7.65,25.08-11.71q5.46-2.52,10.75-5.37c9.34-5,18-9.73,26.29-14.26Z"/><polygon class="cls-3" points="291.25 445.97 291.91 459.27 276.38 453.37 291.25 445.97"/><path class="cls-3" d="M149.28,574c-16.72,13.86-21.31,55.85-43.21,53.71l8.37-62.49C127.25,568.4,138.68,571.28,149.28,574Z"/><path class="cls-3" d="M96.27,561.14c-26.95-1.79-34.48,58.56-60.57,53.39l26.57-113c12,2.22,23.93,4.49,35.59,6.78-1.81,9-5.5,27.54-6.7,34.35C90.24,547.84,92,555,96.27,561.14Z"/><path class="cls-2" d="M306.43,517.16l52.82,6.63c-2.31,15.83-4.83,31.15-7.91,47.84A30.43,30.43,0,0,1,315.51,596c-10.32-2-20.13-4-29.63-5.78h0a30.65,30.65,0,0,0,3.67-8.11c6.47-22.53,11.67-42.6,16.89-64.92Z"/><path class="cls-3" d="M291.62,570.61c-9.72,26.85-29.82,27.95-46.86,25.76-9-1.15-20.65-2.91-33.56-5.08,12.27,3.62,25.09,7.48,39.65,11.87a30.93,30.93,0,0,0,35-13,30.65,30.65,0,0,0,3.67-8.11q1.59-5.55,3.09-10.91C292.54,571.16,291.7,570.61,291.62,570.61Z"/><path class="cls-2" d="M239.57,527.18,241.31,509l65.12,8.17h0c-5.22,22.32-10.42,42.39-16.89,64.92a31,31,0,0,1-14.94,18.63,31,31,0,0,1-23.75,2.45c-38.76-11.69-65.27-19.67-101.57-29.12-10.6-2.76-22-5.64-34.84-8.78l-9.84-2.4-5.08-1.22a19.3,19.3,0,0,0-3.25-.5c-4.27-6.15-6-13.3-5.11-18.5,1.2-6.81,4.89-25.31,6.7-34.35,12.51,2.47,24.76,5,36.63,7.46h0C173.79,524,209,532.38,236.21,540a1.81,1.81,0,0,0,2.3-1.58Z"/><path class="cls-2" d="M239.57,527.18,241.31,509l65.12,8.17h0c-5.22,22.32-10.42,42.39-16.89,64.92a31,31,0,0,1-14.94,18.63,31,31,0,0,1-23.75,2.45c-38.76-11.69-65.27-19.67-101.57-29.12-10.6-2.76-22-5.64-34.84-8.78l-9.84-2.4-5.08-1.22a19.3,19.3,0,0,0-3.25-.5c-4.27-6.15-6-13.3-5.11-18.5,1.2-6.81,4.89-25.31,6.7-34.35,12.51,2.47,24.76,5,36.63,7.46h0C173.79,524,209,532.38,236.21,540a1.81,1.81,0,0,0,2.3-1.58Z"/><path class="cls-2" d="M309.88,234.38c7,8.62,13.33,24.07,3.7,31.66-21,16.55-42.82,2.95-57.63-7.57l10-5.14,2.31-28.07,1-12.19c-4.75-5.69-4.65-12-2-15,2.18-2.53,3.77-.23,4.72,2.21,5.88-5.79,17.17-7.75,33.81-7.25A30.88,30.88,0,0,0,318,191.21c.19,10.37.18,19.33-.15,29.41a16.75,16.75,0,0,1-2.63,8.52h0A16.78,16.78,0,0,1,309.88,234.38Z"/><path class="cls-2" d="M2.2,389.24c-.26-.83-.51-1.7-.76-2.57a3.45,3.45,0,0,1,5-4A89.78,89.78,0,0,0,39.94,393.8a17.67,17.67,0,0,0,11.66-2.45c48.05-29.44,86.59-53.74,124.32-79.4l23.87,37.42c-20.15,8.78-109.62,48-122.51,57.93-9.21,7.11-15.11,25.38-18.2,37.8a4.79,4.79,0,0,1-9,.78,54.33,54.33,0,0,1-4.35-15.25,11.9,11.9,0,0,0-8.63-10.07C15.11,414.44,7.22,405.4,2.2,389.24Z"/><path class="cls-2" d="M523.6,88.33l.39.08,2.9.63A5.35,5.35,0,0,1,531,95.49c-4.71,20.18-7.44,28.75-10.13,46a3.88,3.88,0,0,0,2.23,4.14l16.55,7.45a3.92,3.92,0,0,1-1.39,7.57c-14.07.23-26.46.74-37.69,1.32a10.88,10.88,0,0,0-5.54,1.86c-37.13,26.07-65.36,46.54-96.88,66.19l-20.8-32.2c35.28-19.36,62.95-35.62,101.88-60.1a51.57,51.57,0,0,0,16.31-16.39l20.9-29.66A7.12,7.12,0,0,1,523.6,88.33Z"/><path class="cls-3" d="M376.29,444c1.09,24.43.45,50.93-1.45,81.73l-15.59-2-52.82-6.63L241.31,509l-25.05-3.15a214.94,214.94,0,0,1,17.38-72.7c21.37,3.05,53.25,2.18,77.95.57a528,528,0,0,0,63.49-8.26Q375.88,434.55,376.29,444Zm-84.38,15.26-.65-13.3-14.88,7.4Z"/><path class="cls-3" d="M372.89,405.66c.89,6.51,1.62,13.09,2.19,19.79a528,528,0,0,1-63.49,8.26c-24.7,1.61-56.58,2.48-77.95-.57,14.9-34.55,34.47-56.54,39.14-69.39,27-1.09,58.67-5.57,89.82-13.14a73.74,73.74,0,0,0,2.09,13.09A373.08,373.08,0,0,1,372.89,405.66Z"/><path class="cls-3" d="M326.36,145.07s14,37.42-8.39,46.14A30.88,30.88,0,0,1,305.76,193c-16.64-.5-27.93,1.46-33.81,7.25-.95-2.44-2.54-4.74-4.72-2.21-2.6,3-2.7,9.35,2,15l-1,12.19c-24.62-24.37-21.33-48.51-8.85-63a40.92,40.92,0,0,1,13.8-10.44,32.3,32.3,0,0,1,15.4-3.12c8.41.52,13,7,21.64,7.55S326.36,145.07,326.36,145.07Z"/><path class="cls-3" d="M267.87,132.84c5.09,5.08,2.58,15.45,2.58,15.45-1.79-2.27-15.39,8.42-13.6,10.69,0,0-23.89,24.07-36.89,17.43s-1-19.53-15.41-27.35-19.63,17-35,6.71.23-28.33-15-37.5-31.64,11.25-46.14.84-6.81-22.93-15.62-30.82-27.05,3.52-27.05,3.52c16.82-28,56.34-57.49,69.2-90.51,23.65,12.93,6.19,32.84,22.17,44s22.58-8.34,36.64,2.26,1.78,30.83,14.4,40.05,20.3-2.86,30.35,6.2-.49,25.5,8.19,32.1S262.77,127.77,267.87,132.84Z"/><path class="cls-3" d="M291.62,570.61c-9.72,26.85-29.82,27.95-46.86,25.76-9-1.15-20.65-2.91-33.56-5.08,12.27,3.62,25.09,7.48,39.65,11.87a30.93,30.93,0,0,0,35-13,30.65,30.65,0,0,0,3.67-8.11q1.59-5.55,3.09-10.91C292.54,571.16,291.7,570.61,291.62,570.61Z"/><path class="cls-3" d="M353.19,560.31c-7.46,27.56-27.4,30.32-44.57,29.55-7.25-.32-16.25-.36-26.25-.92-.34.28-.68.55-1,.81,10.44,2.1,21.23,4.17,33.51,6.79a32.15,32.15,0,0,0,23.88-4.82,31,31,0,0,0,13.35-19.81c.75-3.77,1.48-7.47,2.17-11.13C354.16,560.79,353.27,560.31,353.19,560.31Z"/><path class="cls-5" d="M580.5,382.24a11.67,11.67,0,0,0,.36-13l-3.83-6a81.73,81.73,0,0,1-11.93-33.71,74.05,74.05,0,0,0-125.19-43.91c-29.24,28.53-29.65,76.13-.88,105.15A73.72,73.72,0,0,0,481.81,412a81.4,81.4,0,0,1,33.5,12.12l6.17,4a11.66,11.66,0,0,0,13-.24,12.21,12.21,0,0,0,1.54-1.27l43.18-42.82A11.53,11.53,0,0,0,580.5,382.24Z"/><path class="cls-5" d="M552.31,437.18l-.35.35a5.59,5.59,0,0,1-7.91,0l-9.56-9.65-.1-.1"/><path class="cls-5" d="M580.4,382.14l.1.1,9.56,9.64a5.59,5.59,0,0,1,0,7.91l-.35.35"/><path class="cls-5" d="M560.82,445.76a6,6,0,1,1-8.51-8.58l37.37-37a6,6,0,1,1,8.5,8.58"/><path class="cls-5" d="M607.12,416.81a5,5,0,0,1-.44.49l-37.36,37c-.16.15-.32.3-.49.43a6,6,0,0,1-8-9l37.36-37a6,6,0,0,1,8.94,8.09Z"/><path class="cls-5" d="M568.85,454.8l7.84.89a16.76,16.76,0,0,0,13.67-4.75l12.75-12.64A16.72,16.72,0,0,0,608,424.68l-.82-7.85"/><path class="cls-5" d="M498.82,326.38c0-5.64,1.13-10.54,4.05-13.43,5.94-5.89,11.86,1.84,16.35,11.27"/><path class="cls-5" d="M498.82,326.38c11.83,6.15,25.3,29.91,18.69,36.46S498.91,344.17,498.82,326.38Z"/><path class="cls-5" d="M485.28,342.24c-.54-6.49.34-12.19,3.45-15.27,2.73-2.71,6.33-2.54,10.09-.59"/><path class="cls-5" d="M485.28,342.24c11.13,7.57,25,27.81,18.87,33.85S486.71,359.44,485.28,342.24Z"/><path class="cls-5" d="M475.55,369.31s-8.58-20.77-.5-28.78c2.22-2.2,6-1.14,10.23,1.71"/><path class="cls-5" d="M175.92,312l23.87,37.42,4.41,6.91,52-36.57s18.73,21.57,17.61,39.65a16,16,0,0,1-1,4.39c-4.67,12.85-24.24,34.84-39.14,69.39a214.94,214.94,0,0,0-17.38,72.7L241.31,509l65.12,8.17,52.82,6.63,15.59,2c1.9-30.8,2.54-57.3,1.45-81.73q-.42-9.47-1.21-18.56c-.57-6.7-1.3-13.28-2.19-19.79a373.08,373.08,0,0,0-8.2-42,73.66,73.66,0,0,1-.94-32c6.1-31.94,5.17-50.1-3.88-72.41L401.8,235.7l-3.69-5.7-20.8-32.2-.05-.07"/><line class="cls-5" x1="512.24" y1="117.57" x2="523.6" y2="88.33"/><path class="cls-5" d="M315.19,229.14c8-3.77,16.26-7.65,25.08-11.71q5.46-2.52,10.75-5.37c9.34-5,18-9.73,26.29-14.26,35.28-19.36,62.95-35.62,101.88-60.1a51.57,51.57,0,0,0,16.31-16.39l20.9-29.66a7.12,7.12,0,0,1,7.2-3.32l.39.08,2.9.63A5.35,5.35,0,0,1,531,95.49c-4.71,20.18-7.44,28.75-10.13,46a3.88,3.88,0,0,0,2.23,4.14l16.55,7.45a3.92,3.92,0,0,1-1.39,7.57c-14.07.23-26.46.74-37.69,1.32a10.88,10.88,0,0,0-5.54,1.86c-37.13,26.07-65.36,46.54-96.88,66.19"/><path class="cls-5" d="M36.59,403.65A116,116,0,0,1,2.2,389.24"/><path class="cls-5" d="M318,191.21c.19,10.37.18,19.33-.15,29.41a16.75,16.75,0,0,1-2.63,8.52h0A16.72,16.72,0,0,1,299,236.76c-5-.62-10.2-1.43-16.47-2.71"/><line class="cls-5" x1="303.12" y1="244.06" x2="302.7" y2="236.81"/><path class="cls-5" d="M268.27,225.26c-24.62-24.37-21.33-48.51-8.85-63a40.92,40.92,0,0,1,13.8-10.44,32.3,32.3,0,0,1,15.4-3.12c8.41.52,13,7,21.64,7.55s16.1-11.18,16.1-11.18,14,37.42-8.39,46.14A30.88,30.88,0,0,1,305.76,193c-16.64-.5-27.93,1.46-33.81,7.25-.95-2.44-2.54-4.74-4.72-2.21-2.6,3-2.7,9.35,2,15l-1,12.19L266,253.33l-10,5.14-3.39,1.76a202.68,202.68,0,0,0-25.92,16c-17.26,12.54-33.91,24.25-50.72,35.69-37.73,25.66-76.27,50-124.32,79.4a17.67,17.67,0,0,1-11.66,2.45A89.78,89.78,0,0,1,6.41,382.71a3.45,3.45,0,0,0-5,4c.25.87.5,1.74.76,2.57,5,16.16,12.91,25.2,34.86,31.32a11.9,11.9,0,0,1,8.63,10.07A54.33,54.33,0,0,0,50,445.88a4.79,4.79,0,0,0,9-.78c3.09-12.42,9-30.69,18.2-37.8,12.89-9.94,102.36-49.15,122.51-57.93"/><path class="cls-5" d="M256,258.47c14.81,10.52,36.62,24.12,57.63,7.57,9.63-7.59,3.29-23-3.7-31.66"/><path class="cls-5" d="M272.78,363.75c27-1.09,58.67-5.57,89.82-13.14"/><path class="cls-5" d="M259.42,162.26,256.85,159c-1.79-2.27,11.81-13,13.6-10.69l2.77,3.52"/><path class="cls-5" d="M270.45,148.29s2.51-10.37-2.58-15.45-12.53-.34-21.21-6.93,1.85-23-8.19-32.1-17.71,3-30.35-6.2-.34-29.45-14.4-40-20.67,8.89-36.64-2.26,1.48-31.07-22.17-44c-12.86,33-52.38,62.53-69.2,90.51,0,0,18.23-11.42,27.05-3.52s1.12,20.4,15.62,30.82,30.91-10,46.14-.84-.4,27.24,15,37.5,20.58-14.53,35-6.71S207,169.76,220,176.41,256.85,159,256.85,159"/><path class="cls-5" d="M134.49,515.75C173.79,524,209,532.38,236.21,540a1.81,1.81,0,0,0,2.3-1.58l1.06-11.21L241.31,509"/><path class="cls-5" d="M306.43,517.16c-5.22,22.32-10.42,42.39-16.89,64.92a31,31,0,0,1-14.94,18.63,31,31,0,0,1-23.75,2.45c-38.76-11.69-65.27-19.67-101.57-29.12-10.6-2.76-22-5.64-34.84-8.78l-9.84-2.4-5.08-1.22a19.3,19.3,0,0,0-3.25-.5c-26.95-1.79-34.48,58.56-60.57,53.39l26.57-113c12,2.22,23.93,4.49,35.59,6.78,12.51,2.47,24.76,5,36.63,7.46"/><polyline class="cls-5" points="62.27 501.5 51.68 499.47 26.4 612.35 35.7 614.53"/><path class="cls-5" d="M97.86,508.29h0c-1.81,9-5.5,27.54-6.7,34.35-.92,5.2.84,12.35,5.11,18.5"/><path class="cls-5" d="M359.25,523.79c-2.31,15.83-4.83,31.15-7.91,47.84A30.43,30.43,0,0,1,315.51,596c-10.32-2-20.13-4-29.63-5.78"/><path class="cls-5" d="M149.28,574c-16.72,13.86-21.31,55.85-43.21,53.71l8.37-62.49"/><path class="cls-5" d="M134.49,515.75h0c37.69,3.37,73.62,7.29,105.08,11.43h0"/><polyline class="cls-5" points="104.6 562.87 96.76 626.5 106.07 627.75"/><path class="cls-5" d="M286.53,203.08c3.79.93,10.24.53,11.62-1.06"/><path class="cls-5" d="M308.44,200.19c-.85,2.71-1.71,10.26,3.84,13.18A13.88,13.88,0,0,1,308.6,217"/><path class="cls-5" d="M375.08,425.45c21.25-4.22,37.26-9.41,36.58-14.38s-20.13-5.78-38.77-5.41"/><path class="cls-6" d="M233.64,433.14c21.37,3.05,53.25,2.18,77.95.57a528,528,0,0,0,63.49-8.26"/><path class="cls-5" d="M227.48,405.87c-10.87,4.39-17.61,9.64-17.35,15.6s9.69,9.7,23.51,11.67"/><path class="cls-5" d="M376.29,444c8-1.23,15.89-2.58,23.36-4"/><path class="cls-6" d="M292.05,452.41c6.38-.31,12.6-.66,18.53-1.05,20.1-1.32,43.55-3.93,65.71-7.35"/><path class="cls-5" d="M238.8,404.07a5.87,5.87,0,1,0-6.22,5.5A5.87,5.87,0,0,0,238.8,404.07Z"/><polygon class="cls-2" points="291.25 445.97 276.38 453.37 291.91 459.27 291.25 445.97"/><path class="cls-3" d="M174.39,226a6.14,6.14,0,1,0-4.91,7.17A6.13,6.13,0,0,0,174.39,226Z"/><polyline class="cls-7" points="485.76 455.2 501.43 455.61 504.95 470.88 520.62 471.28 524.14 486.56 539.81 486.96"/><line class="cls-7" x1="114.01" y1="207.01" x2="129.65" y2="217.72"/><line class="cls-7" x1="116.47" y1="220.19" x2="127.19" y2="204.55"/></g></g></svg>