<svg xmlns="http://www.w3.org/2000/svg" viewBox="0 0 639.89 589.36"><defs><style>.cls-1{fill:#f0f0f0;}.cls-2{fill:#fff;}.cls-3{fill:#323433;}.cls-4{fill:#52cca7;}.cls-5,.cls-6{fill:none;stroke:#323433;stroke-linecap:round;stroke-linejoin:round;}.cls-5{stroke-width:2.61px;}.cls-6{stroke-width:1.74px;}</style></defs><title>Asset 15</title><g id="Layer_2" data-name="Layer 2"><g id="graphic"><ellipse class="cls-1" cx="319.95" cy="548.85" rx="319.95" ry="40.51"/><path class="cls-2" d="M588.42,391.72a4.52,4.52,0,0,1-1.31,6.26L495,458.37a2.53,2.53,0,0,1-3.51-.73l-3.6-5.5a2.52,2.52,0,0,1,.73-3.5l.73-.49,15.82-10.36,14.15-9.27,65.24-42.76Z"/><path class="cls-3" d="M584.51,385.76l-65.24,42.76a10,10,0,1,0-18.42,5.62,9.94,9.94,0,0,0,4.27,3.65L489.3,448.15l-13.47-25.66a10.24,10.24,0,0,1-.4-8.72,9.53,9.53,0,0,1,3.37-4.2c7.42-5.2,18.06,2.31,27-3.53s8.65-16.41,14.1-24.77a21.85,21.85,0,0,1,4.44-5,2.87,2.87,0,0,1,3.66,0c5.1,4.26,20.74,15.93,31.69,8.76C572.93,376.34,584.51,385.76,584.51,385.76Z"/><polygon class="cls-3" points="533.11 41.03 533.11 72.58 521.83 72.14 521.83 72.13 521.83 41.5 533.11 41.03"/><path class="cls-4" d="M512.42,369.33l7.46,11.94c-5.45,8.36-5.27,19-14.1,24.77s-19.56-1.67-27,3.53a9.53,9.53,0,0,0-3.37,4.2q-5.4-7.42-10.51-14.61Z"/><path class="cls-2" d="M519.27,428.52l-14.15,9.27a10,10,0,1,1,12.51-14.65A10.06,10.06,0,0,1,519.27,428.52Z"/><path class="cls-4" d="M468.34,70.08l-9.78-.38,11.27-10a4,4,0,0,0,1.33-3,3.87,3.87,0,0,0-.56-2,3.94,3.94,0,0,0-5.27-1.47l-17,9.19c-5.82-.41-18.69-4.92-25.77,5.74l-16.11-.65-11.83-.47a28.13,28.13,0,0,0,2.69-5.67,3,3,0,0,0-4-3.72L380.85,63.3a12.34,12.34,0,0,0-4.15,3.07h0L337.32,64.8V49.19L521.83,41.5V72.13h0Z"/><path class="cls-2" d="M470.6,54.73a3.87,3.87,0,0,1,.56,2,4,4,0,0,1-1.33,3l-11.27,10,9.78.38L441.1,85.67a25.48,25.48,0,0,0-10.78,12.1c-12.68,29.73-18.19,61.75-31.71,96.79A35.12,35.12,0,0,1,355,215.2c-11.29-3.66-21.81-7.32-31.91-11q-3.81-1.39-7.56-2.81l19.2-42.67c5.38,2.63,11.17,5.44,17.42,8.44q4,1.92,8.24,4l39.86-66,22.26-36.87c7.08-10.66,20-6.15,25.77-5.74l17-9.19A3.94,3.94,0,0,1,470.6,54.73Z"/><path class="cls-2" d="M447.52,528v7.12A4.52,4.52,0,0,1,443,539.6H332.8a2.53,2.53,0,0,1-2.53-2.53v-6.58A2.53,2.53,0,0,1,332.8,528H447.52Z"/><path class="cls-3" d="M447.52,528H333.68l2.8-28.84a10.11,10.11,0,0,1,8.28-9.06,9.1,9.1,0,0,1,1.28-.13c9.07-.28,13.84,11.84,24.51,11.84,12.79,0,18.41-13.19,31.71-14.73h.12a2.85,2.85,0,0,1,3.05,2c1.93,6.37,8.61,24.7,21.71,24.7C443,513.73,447.52,528,447.52,528Z"/><path class="cls-2" d="M434,245.23a34.28,34.28,0,0,0-36.46-15.33l-51,17.31c-7.66,7.08-12.38,20.58-15.24,32.19-5.15,20.88-4.31,47.36-3.91,73.26h0c14.64-2.63,30.11-15.23,48.45-18.67-17.79,38.92-27.33,73.18-30.37,139.16H403.8c5.6-48.46,12.75-83.77,24.24-128.3C440,365,449.45,377.36,464.93,399.16l47.49-29.83Z"/><path class="cls-2" d="M394.58,67.07l11.83.47h0l-6.15,37.51-39.86,66q-4.26-2-8.24-4l17.37-57.46a43.73,43.73,0,0,0,1.76-9.27c.76-9.6,1.32-17.32,2.36-27.13a12.43,12.43,0,0,1,3.05-6.9h0a12.34,12.34,0,0,1,4.15-3.07l12.39-5.62a3,3,0,0,1,4,3.72A28.13,28.13,0,0,1,394.58,67.07Z"/><path class="cls-4" d="M345.38,473.15H403.8c-.52,4.55-1,9.17-1.54,13.89h0c-13.3,1.54-18.92,14.73-31.71,14.73-10.67,0-15.44-12.12-24.51-11.84a9.1,9.1,0,0,0-1.28.13h0Q345,481.31,345.38,473.15Z"/><path class="cls-3" d="M371.9,216.41v.07a31.22,31.22,0,0,1-22.47,4.82c-10-1.66-19.52-3.57-29.19-5.85l2.85-11.28c10.1,3.71,20.62,7.37,31.91,11A35.24,35.24,0,0,0,371.9,216.41Z"/><path class="cls-3" d="M249.47,279.37l97-32.16c-7.66,7.08-12.38,20.58-15.24,32.19-5.15,20.88-4.31,47.36-3.91,73.26.07,4.92.13,9.82.13,14.65-51-9.76-159,33.47-159-45.47,0-31.35,8-34.07,12.64-61.81H251C251,266,250.35,271.79,249.47,279.37Z"/><polygon class="cls-3" points="337.32 49.19 337.32 64.81 329.59 64.5 329.59 49.51 337.32 49.19"/><polygon class="cls-2" points="336.16 155.54 334.74 158.69 315.54 201.36 313.98 204.84 310.82 203.56 302.87 200.33 304.32 197.06 323.7 153.26 323.7 153.26 325.05 150.22 336.16 155.54"/><path class="cls-2" d="M281.69,188c-.3,5.08-.74,11-1.38,16.45-.85,7.42-2.06,14.09-3.74,17-2.79,4.74-11.62,12.42-18.46,18A19.72,19.72,0,0,0,250.8,256c.1,1.38.15,2.73.16,4.07H181c1.94-11.54,3.32-27.42,3.32-51.49,0-40.24,17.86-71.57,38.33-86a31.84,31.84,0,0,1,14.78-5.59h0a33.5,33.5,0,0,1,8.94.2c10.26,1.63,12.13,2.26,23,8.07,8.89,4.75,23.81,13,54.3,28.07l-19.38,43.8C296.7,194.08,289.22,191.06,281.69,188Z"/><path class="cls-3" d="M323.1,204.17l-2.85,11.28-1,4L307.51,217l1.09-4.41,2.22-9,3.16,1.28,1.56-3.48Q319.29,202.77,323.1,204.17Z"/><path class="cls-3" d="M310.82,203.56l-2.22,9c-8.9-2.33-18.17-5-28.29-8.12.64-5.48,1.08-11.37,1.38-16.45,7.53,3.09,15,6.11,22.63,9.09l-1.45,3.27Z"/><path class="cls-2" d="M305.18,76.24c-1.88,9-3.16,15-6.39,22.68a10.94,10.94,0,0,1-7.89,6.44,98.89,98.89,0,0,1-15.42,2,4.13,4.13,0,0,0-3.88,3.29l-3.09,14.58c-10.13-5.42-11.87-6-21.44-7.52a31,31,0,0,0-8.33-.18,45.81,45.81,0,0,0,6.47-22.62c5.68-4.38,10.89-10,16.3-17.29,0,0-7.6-11.55-2-17.82s12.62,4,12.62,4c9.19-8.74,16.83-11.56,28.27-11.25C299.31,63.68,300.43,71.65,305.18,76.24Z"/><path class="cls-3" d="M308.22,53.13c-2.8-.31-5.37-.52-7.78-.59-11.44-.31-19.08,2.51-28.27,11.25,0,0-7-10.3-12.62-4s2,17.82,2,17.82c-5.41,7.29-10.62,12.91-16.3,17.29v-.05c-7.1-2.14-27.26-24.65-18.06-49.24,2.37-6.33,6.69-12.8,13.67-19.1a35.09,35.09,0,0,1,7.81-5.34C273.41,8.78,306.06,31.07,308.22,53.13Z"/><path class="cls-4" d="M292.3,406.75a83.87,83.87,0,0,1-24.38,116.08c-38.78,25.33-173,12.78-173,12.78s42.49-127.91,81.27-153.24A83.88,83.88,0,0,1,292.3,406.75ZM243,489.14a42.47,42.47,0,1,0-58.78-12.34A42.46,42.46,0,0,0,243,489.14Z"/><path class="cls-2" d="M246.69,14.13a22,22,0,0,1,1.94,7,35.09,35.09,0,0,0-7.81,5.34c-7,6.3-11.3,12.77-13.67,19.1h-.55a22.21,22.21,0,0,1-6.71-1C222.41,37,227.33,29,236,21.17A41.85,41.85,0,0,1,246.69,14.13Z"/><path class="cls-3" d="M226.6,1.3a22.13,22.13,0,0,1,20.09,12.83,41.85,41.85,0,0,0-10.66,7C227.33,29,222.41,37,219.89,44.55A22.15,22.15,0,0,1,226.6,1.3Z"/><path class="cls-5" d="M346.45,247.21l51-17.31A34.28,34.28,0,0,1,434,245.23l78.47,124.1,7.46,11.94"/><path class="cls-5" d="M331.21,279.4c18.12-1.95,46.53-3.27,62.64-2.57"/><path class="cls-5" d="M327.3,352.66c14.64-2.63,30.11-15.23,48.45-18.67-17.79,38.92-27.33,73.18-30.37,139.16q-.37,8.16-.62,16.9"/><path class="cls-5" d="M390.5,268.56c1.1,2.78,2.21,5.53,3.35,8.27a538.78,538.78,0,0,0,34.19,68C440,365,449.45,377.36,464.92,399.16q5.11,7.2,10.51,14.61"/><path class="cls-5" d="M428,344.85c-11.49,44.53-18.64,79.84-24.24,128.3-.52,4.55-1,9.17-1.54,13.89"/><path class="cls-5" d="M239.16,116.77a45.9,45.9,0,0,0,6.05-21.9v-.05c-7.1-2.14-27.26-24.65-18.06-49.24,2.37-6.33,6.69-12.8,13.67-19.1a35.09,35.09,0,0,1,7.81-5.34c24.78-12.36,57.43,9.93,59.59,32-2.8-.31-5.37-.52-7.78-.59-11.44-.31-19.08,2.51-28.27,11.25,0,0-7-10.3-12.62-4s2,17.82,2,17.82c-5.41,7.29-10.62,12.91-16.3,17.29l0,0"/><path class="cls-5" d="M219.89,44.55C222.41,37,227.33,29,236,21.17a41.85,41.85,0,0,1,10.66-7h0"/><path class="cls-5" d="M268.6,124.76l3-14.15a4.13,4.13,0,0,1,3.88-3.29,98.89,98.89,0,0,0,15.42-2,10.94,10.94,0,0,0,7.89-6.44c3.23-7.65,4.51-13.72,6.39-22.68-4.75-4.59-5.87-12.56-4.74-23.7"/><path class="cls-5" d="M285.9,65.39c1.78,1,5.67.87,7.59,0"/><path class="cls-5" d="M248.63,21.14a22.15,22.15,0,1,0-22,24.45h.55"/><path class="cls-5" d="M281.69,188c-.3,5.08-.74,11-1.38,16.45-.85,7.42-2.06,14.09-3.74,17-2.79,4.74-11.62,12.42-18.46,18A19.72,19.72,0,0,0,250.8,256c.1,1.38.15,2.73.16,4.07.07,6-.61,11.76-1.49,19.34l97-32.16c-7.66,7.08-12.38,20.58-15.24,32.19-5.15,20.88-4.31,47.36-3.91,73.26.07,4.92.13,9.82.13,14.65-51-9.76-159,33.47-159-45.47,0-31.35,8-34.07,12.64-61.81,1.94-11.54,3.32-27.42,3.32-51.49,0-40.24,17.86-71.57,38.33-86a31.84,31.84,0,0,1,14.78-5.59h0a33.5,33.5,0,0,1,8.94.2c10.26,1.63,12.13,2.26,23,8.07,8.89,4.75,23.81,13,54.3,28.07"/><path class="cls-5" d="M334.74,158.69c5.38,2.63,11.17,5.44,17.42,8.44q4,1.92,8.24,4l39.86-66,22.26-36.87c7.08-10.66,20-6.15,25.77-5.74l17-9.19a3.94,3.94,0,0,1,5.27,1.47,3.87,3.87,0,0,1,.56,2,4,4,0,0,1-1.33,3l-11.27,10,9.78.38,53.49,2.06,11.28.44V41l-11.28.47L337.32,49.19l-7.73.32v15l7.73.3,39.38,1.57"/><path class="cls-5" d="M253.09,176.06c9.81,4.11,19.23,8.07,28.6,11.91,7.53,3.09,15,6.11,22.63,9.09"/><path class="cls-5" d="M315.54,201.36q3.75,1.41,7.56,2.81c10.1,3.71,20.62,7.37,31.91,11a35.12,35.12,0,0,0,43.6-20.64c13.52-35,19-67.06,31.71-96.79a25.48,25.48,0,0,1,10.78-12.1l27.24-15.59.12-.07"/><polygon class="cls-5" points="315.54 201.36 313.98 204.84 310.82 203.56 302.87 200.33 304.32 197.06 323.7 153.26 323.7 153.26 325.05 150.22 336.16 155.54 334.74 158.69 315.54 201.36"/><polyline class="cls-5" points="323.11 204.17 320.25 215.45 319.23 219.46 307.51 216.95 308.6 212.54 310.82 203.56"/><path class="cls-5" d="M280.31,204.42c10.12,3.11,19.39,5.79,28.29,8.12"/><path class="cls-5" d="M320.25,215.45c9.67,2.28,19.17,4.19,29.19,5.85a31.22,31.22,0,0,0,22.47-4.82"/><line class="cls-5" x1="400.26" y1="105.06" x2="406.41" y2="67.55"/><path class="cls-5" d="M352.16,167.13l17.37-57.46a43.73,43.73,0,0,0,1.76-9.27c.76-9.6,1.32-17.32,2.36-27.13a12.43,12.43,0,0,1,3.05-6.9h0a12.34,12.34,0,0,1,4.15-3.07l12.39-5.62a3,3,0,0,1,4,3.72,28.13,28.13,0,0,1-2.69,5.67,29.89,29.89,0,0,1-8.38,8.66c2.94,3.88,6,11.48,4,21.09"/><polyline class="cls-5" points="422.52 68.19 406.41 67.54 394.58 67.08"/><line class="cls-5" x1="337.32" y1="49.19" x2="337.32" y2="64.8"/><line class="cls-5" x1="521.83" y1="41.5" x2="521.83" y2="72.13"/><line class="cls-5" x1="181.03" y1="260.03" x2="250.96" y2="260.03"/><path class="cls-5" d="M267.92,522.83a83.87,83.87,0,1,0-91.71-140.46C137.43,407.7,94.94,535.61,94.94,535.61S229.14,548.16,267.92,522.83Z"/><path class="cls-5" d="M243,489.14a42.47,42.47,0,1,0-58.78-12.34A42.46,42.46,0,0,0,243,489.14Z"/><path class="cls-5" d="M344.76,490.06a10.11,10.11,0,0,0-8.28,9.06L333.68,528H447.52s-4.53-14.23-20.38-14.23c-13.1,0-19.78-18.33-21.71-24.7a2.85,2.85,0,0,0-3.05-2h-.12c-13.3,1.54-18.92,14.73-31.71,14.73-10.67,0-15.44-12.12-24.51-11.84A9.1,9.1,0,0,0,344.76,490.06Z"/><path class="cls-5" d="M447.52,528v7.12A4.52,4.52,0,0,1,443,539.6H332.8a2.53,2.53,0,0,1-2.53-2.53v-6.58A2.53,2.53,0,0,1,332.8,528h.88"/><path class="cls-5" d="M475.43,413.77a10.24,10.24,0,0,0,.4,8.72l13.47,25.66,15.82-10.36,14.15-9.27,65.24-42.76s-11.58-9.42-24.84-.73c-10.95,7.17-26.59-4.5-31.69-8.76a2.87,2.87,0,0,0-3.66,0,21.85,21.85,0,0,0-4.44,5c-5.45,8.36-5.27,19-14.1,24.77s-19.56-1.67-27,3.53A9.53,9.53,0,0,0,475.43,413.77Z"/><path class="cls-5" d="M584.51,385.76l3.91,6a4.52,4.52,0,0,1-1.31,6.26L495,458.37a2.53,2.53,0,0,1-3.51-.73l-3.6-5.5a2.52,2.52,0,0,1,.73-3.5l.73-.49"/><path class="cls-5" d="M519.27,428.52a10,10,0,1,0-18.42,5.62,9.94,9.94,0,0,0,4.27,3.65"/><line class="cls-5" x1="345.38" y1="473.15" x2="403.8" y2="473.15"/><polyline class="cls-5" points="464.92 399.16 464.93 399.16 512.42 369.33"/><line class="cls-6" x1="473.71" y1="211.59" x2="486.99" y2="224.88"/><line class="cls-6" x1="473.71" y1="224.88" x2="486.99" y2="211.59"/><circle class="cls-6" cx="508.7" cy="255.05" r="8.03" transform="translate(-31.36 434.41) rotate(-45)"/><path class="cls-3" d="M519.61,132.88a16.92,16.92,0,0,0-17,16.89c0,9.35,16.86,30.68,16.86,30.68s17-21.26,17-30.61A16.92,16.92,0,0,0,519.61,132.88Zm-.14,26a8.57,8.57,0,1,1,8.59-8.55A8.57,8.57,0,0,1,519.47,158.87Z"/><polyline class="cls-6" points="92.06 414.04 94.49 398.08 110.55 396.46 112.98 380.5 129.04 378.88 131.48 362.92"/></g></g></svg>