<svg xmlns="http://www.w3.org/2000/svg" viewBox="0 0 556.99 582.09"><defs><style>.cls-1{fill:#f0f0f0;}.cls-2,.cls-6,.cls-8{fill:none;}.cls-2,.cls-6,.cls-7,.cls-8{stroke:#323433;stroke-linecap:round;stroke-linejoin:round;}.cls-2,.cls-7{stroke-width:1.74px;}.cls-3,.cls-7{fill:#323433;}.cls-4{fill:#fff;}.cls-5{fill:#52cca7;}.cls-6{stroke-width:2.61px;}.cls-8{stroke-width:3.48px;}</style></defs><title>Asset 18</title><g id="Layer_2" data-name="Layer 2"><g id="graphic"><ellipse class="cls-1" cx="277.28" cy="534.64" rx="277.28" ry="47.45"/><line class="cls-2" x1="89.82" y1="161.44" x2="109.47" y2="179.59"/><line class="cls-2" x1="90.57" y1="180.34" x2="108.71" y2="160.69"/><path class="cls-3" d="M396.64,174.54c-.5-1-3.84-.25-8.62,1.85-10.33,4.53-27.36,15.41-37,28.91-1.22-4.51-2.47-9.15-3.75-14-9.39,31.85-6.72,54.68,8.95,85.22a5.24,5.24,0,0,1-.59,5.7l-.78,1a5.18,5.18,0,0,0-1.14,2.76H219.55a5.29,5.29,0,0,0-1.14-2.76l-.79-1a5.24,5.24,0,0,1-.58-5.7c15.67-30.54,18.34-53.37,9-85.22-1.29,4.81-2.53,9.45-3.75,14-9.67-13.5-26.7-24.38-37-28.91-4.78-2.1-8.12-2.84-8.62-1.85h0c8.12-16,15.34-30.29,22.15-44.7a34.22,34.22,0,0,1,32.93-19.51l7.64.45a257.57,257.57,0,0,0,23.86,45.51c7.36,11.11,15.85,22.1,26.47,35.11l-5.72,14.76h11.65l-5.93-14.76a252.68,252.68,0,0,0,20.91-26.65c9.82-14.75,17.08-30.63,24.32-54l6.7-.39a34.2,34.2,0,0,1,32.93,19.51C381.31,144.25,388.52,158.58,396.64,174.54Z"/><path class="cls-4" d="M547.46,234.35l1.57.53a6.72,6.72,0,0,1,4.87,5.43c.81,5.12,1.35,9.4,1.73,14.09,1.13,13.84-15.25,23.94-15.29,24a11.94,11.94,0,0,1-6.8,1.65,119.82,119.82,0,0,1-38.76-8.37c-42.34,6.58-60.85,11.1-98.56,15.51a24.48,24.48,0,0,1-26.09-16.76c-7.29-22.52-12.92-42.16-19.14-65.1,9.67-13.5,26.7-24.38,37-28.91l6.38,22.68h0l10.79,38.32a4.21,4.21,0,0,0,4.13,3.07c17.53-.33,44.95,1.07,79.08,1.49a10.59,10.59,0,0,0,8-3.36c5.25-5.71,15.78-11,27.51-18.54a2.17,2.17,0,0,1,2.24-.08,2.2,2.2,0,0,1,1.13,1.93c0,7.74-1.76,12-10.59,12.48l-4.49,8.83a3.41,3.41,0,0,0,.86,4.16l10,8.29a2.66,2.66,0,0,0,4.07-.85,52.7,52.7,0,0,0,6-20.57,3.65,3.65,0,0,1,4.6-3.18l2.11.71Z"/><path class="cls-5" d="M248.88,340.24l-4.45,44.5h0c-44.83-3.48-82-5.6-128.16-8.35a40.89,40.89,0,0,1,2.43-81.7h94a5.26,5.26,0,0,0,4.6-2.72l1.6-2.94a5.19,5.19,0,0,0,.61-3H353.68a5.19,5.19,0,0,0,.61,3l1.6,2.94a5.26,5.26,0,0,0,4.6,2.72h94a40.89,40.89,0,0,1,40.65,36.55c2.49,23.27-15.36,43.77-38.72,45.18-38.81,2.34-71.14,7.13-107.24,9.78L346,339.74q-12.88,1.29-24.89,2-11.69.74-22.54,1Q275.59,342.67,248.88,340.24Z"/><path class="cls-3" d="M396.65,174.55c4.72,9.34.72,19.24-2.25,24.52L388,176.39c4.78-2.1,8.12-2.84,8.62-1.85Z"/><path class="cls-3" d="M362,414.24a13.18,13.18,0,0,1-2.11,17.59,7.29,7.29,0,0,1-11-1.71c-9.67-16.18-29.44-26.66-49.83-33.3h0c-.2-.86-.4-1.72-.61-2.58a243.71,243.71,0,0,1,42.42-7.44C347.29,395.22,354.22,404.05,362,414.24Z"/><path class="cls-4" d="M346,339.74l3.27,46.46-5.83.41-2.54.18a243.71,243.71,0,0,0-42.42,7.44c-1.34.37-2.67.75-4,1.15h0c-1.66.49-3.31,1-5,1.54h0c5.22-23,14.61-40,31.62-55.14Q333.06,341,346,339.74Z"/><path class="cls-3" d="M346.14,60.89,336.53,56c3.36,23.56-1.67,41.37-11.84,54.9a76.9,76.9,0,0,1-21.3,19,223.9,223.9,0,0,1-4-34.2A25.42,25.42,0,0,0,316,73.19c.12-2.24.22-4.47.27-6.71h1.82a6.41,6.41,0,0,0,6.37-5.66l.23-1.88a6.42,6.42,0,0,0-6.38-7.17h-2.19c1.26-10.25-.88-20.16-9.14-26.34a28.24,28.24,0,0,1,4.13,12.13c-6.94-2.31-24.45-2.64-24.45-2.64s-17.52.33-24.45,2.64a28.16,28.16,0,0,1,4.12-12.13c-8.25,6.18-10.4,16.09-9.13,26.34H255a6.41,6.41,0,0,0-6.37,7.17l.22,1.88a6.42,6.42,0,0,0,6.37,5.66h1.83c.05,2.24.14,4.47.26,6.71A25.42,25.42,0,0,0,274,95.67,226.51,226.51,0,0,1,270,130c-8.82-5.44-16.23-11.55-21.84-18.75-9.2-11.78-13.57-26.45-11.44-45.75l-12,6.18A287.25,287.25,0,0,0,239,37.78C242.9,26.38,259.76,1.3,286.61,1.3,299.45,1.3,310,7,318,14.26,334.33,29.16,335.76,44.62,346.14,60.89Z"/><path class="cls-4" d="M303.39,129.87a76.9,76.9,0,0,0,21.3-19l.4.29c3.23-.13,6.47-.29,9.77-.48-7.24,23.4-14.5,39.28-24.32,54-18.2,1-32.53-1.43-47.38-8.46a257.57,257.57,0,0,1-23.86-45.51c3,.16,5.91.31,8.84.42,5.61,7.2,13,13.31,21.84,18.75a226.51,226.51,0,0,0,4-34.28,25.42,25.42,0,0,1-16.61-22.48c-.12-2.24-.21-4.47-.26-6.71h-1.83a6.42,6.42,0,0,1-6.37-5.66l-.22-1.88A6.41,6.41,0,0,1,255,51.77h2.2c-1.27-10.25.88-20.16,9.13-26.34a28.16,28.16,0,0,0-4.12,12.13c6.93-2.31,24.45-2.64,24.45-2.64s17.51.33,24.45,2.64A28.24,28.24,0,0,0,307,25.43c8.26,6.18,10.4,16.09,9.14,26.34h2.19a6.42,6.42,0,0,1,6.38,7.17l-.23,1.88a6.41,6.41,0,0,1-6.37,5.66H316.3c-.05,2.24-.15,4.47-.27,6.71a25.42,25.42,0,0,1-16.6,22.48A223.9,223.9,0,0,0,303.39,129.87Z"/><path class="cls-4" d="M263.16,156.29c14.85,7,29.18,9.48,47.38,8.46a252.68,252.68,0,0,1-20.91,26.65C279,178.39,270.52,167.4,263.16,156.29Z"/><path class="cls-3" d="M321.06,341.78c-17,15.18-26.4,32.18-31.62,55.14h0c-20.39,6.64-40.16,17.12-49.83,33.3a7.19,7.19,0,0,1-6.22,3.5,7.31,7.31,0,0,1-4.8-1.79,13.16,13.16,0,0,1-2.1-17.58c8.32-10.92,15.69-20.28,22.5-29.25h0a400,400,0,0,0,24.13-34.89,15.31,15.31,0,0,1,13.14-7.38q6,0,12.25-.1Q309.38,342.51,321.06,341.78Z"/><path class="cls-4" d="M299,396.81h0c-1.53-.5-3.08-1-4.62-1.44,1.34-.4,2.67-.78,4-1.15C298.64,395.09,298.84,396,299,396.81Z"/><polygon class="cls-3" points="289.63 191.4 295.56 206.16 283.91 206.16 289.63 191.4"/><path class="cls-4" d="M298.52,342.73q-6.25.13-12.25.1a15.31,15.31,0,0,0-13.14,7.38A400,400,0,0,1,249,385.1h0l-4.56-.36h0l4.45-44.5Q275.63,342.69,298.52,342.73Z"/><path class="cls-4" d="M33.39,231.77l2.11-.71a3.66,3.66,0,0,1,4.6,3.18,52.7,52.7,0,0,0,6,20.57,2.66,2.66,0,0,0,4.07.85l10-8.29a3.41,3.41,0,0,0,.86-4.16l-4.49-8.83c-8.4-.5-10.37-4.33-10.58-11.37a2.76,2.76,0,0,1,1.4-2.47,2.72,2.72,0,0,1,2.83.07c11.38,7.22,21.52,12.41,26.64,18a10.58,10.58,0,0,0,8,3.36c34.14-.42,61.54-1.82,79.08-1.49a4.21,4.21,0,0,0,4.13-3.07l10.79-38.32,6.38-22.68c10.33,4.53,27.36,15.41,37,28.91-6.22,22.95-11.85,42.59-19.15,65.12A24.45,24.45,0,0,1,177,287.16c-37.71-4.41-56.23-8.93-98.56-15.51A119.82,119.82,0,0,1,39.7,280a11.94,11.94,0,0,1-6.81-1.65s-16.43-10.13-15.3-24c.39-4.69.92-9,1.74-14.09a6.72,6.72,0,0,1,4.87-5.43l1.57-.53Z"/><path class="cls-3" d="M185.21,176.39l-6.38,22.68c-3-5.27-7-15.18-2.24-24.53C177.09,173.55,180.43,174.29,185.21,176.39Z"/><path class="cls-6" d="M303.4,130v-.08a223.9,223.9,0,0,1-4-34.2A25.42,25.42,0,0,0,316,73.19c.12-2.24.22-4.47.27-6.71h1.82a6.41,6.41,0,0,0,6.37-5.66l.23-1.88a6.42,6.42,0,0,0-6.38-7.17h-2.19c1.26-10.25-.88-20.16-9.14-26.34a28.24,28.24,0,0,1,4.13,12.13c-6.94-2.31-24.45-2.64-24.45-2.64s-17.52.33-24.45,2.64a28.16,28.16,0,0,1,4.12-12.13c-8.25,6.18-10.4,16.09-9.13,26.34H255a6.41,6.41,0,0,0-6.37,7.17l.22,1.88a6.42,6.42,0,0,0,6.37,5.66h1.83c.05,2.24.14,4.47.26,6.71A25.42,25.42,0,0,0,274,95.67,226.51,226.51,0,0,1,270,130c-8.82-5.44-16.23-11.55-21.84-18.75-9.2-11.78-13.57-26.45-11.44-45.75l-12,6.18A287.25,287.25,0,0,0,239,37.78C242.9,26.38,259.76,1.3,286.61,1.3,299.45,1.3,310,7,318,14.26c16.38,14.9,17.81,30.36,28.19,46.63L336.53,56c3.36,23.56-1.67,41.37-11.84,54.9a76.9,76.9,0,0,1-21.3,19l-.14.08"/><path class="cls-6" d="M287.9,47.79c-.92,5.65-.36,11.25,2.89,14.81a1,1,0,0,1-.14,1.46,22.41,22.41,0,0,1-5.27,2.87"/><path class="cls-6" d="M267.66,50.79a14,14,0,0,1,9.91-1.56"/><path class="cls-6" d="M305.77,50.79a14.28,14.28,0,0,0-9.23-1.72"/><path class="cls-6" d="M248.14,111.2c-2.93-.11-5.86-.26-8.84-.42l-7.64-.45a34.22,34.22,0,0,0-32.93,19.51c-6.81,14.41-14,28.74-22.15,44.7h0"/><path class="cls-6" d="M325.09,111.2c3.23-.13,6.47-.29,9.77-.48l6.7-.39a34.2,34.2,0,0,1,32.93,19.51c6.82,14.41,14,28.74,22.15,44.7"/><path class="cls-6" d="M178.83,199.07c-3-5.27-7-15.18-2.24-24.53.5-1,3.84-.25,8.62,1.85,10.33,4.53,27.36,15.41,37,28.91"/><path class="cls-6" d="M394.4,199.07c3-5.28,7-15.18,2.25-24.52h0c-.5-1-3.84-.25-8.62,1.85-10.33,4.53-27.36,15.41-37,28.91"/><path class="cls-6" d="M33.39,231.77c-.77,15.37.47,22.91,3.8,30.74"/><path class="cls-6" d="M539.84,231.77c.77,15.37-.47,22.91-3.8,30.74"/><path class="cls-6" d="M25.77,234.35c-1.2,15.31-.18,22.88,2.92,30.79"/><path class="cls-6" d="M547.46,234.35c1.2,15.31.18,22.88-2.92,30.79"/><path class="cls-6" d="M185.21,176.39l-6.38,22.68L168,237.39a4.21,4.21,0,0,1-4.13,3.07c-17.54-.33-44.94,1.07-79.08,1.49a10.58,10.58,0,0,1-8-3.36c-5.12-5.57-15.26-10.76-26.64-18a2.72,2.72,0,0,0-2.83-.07A2.76,2.76,0,0,0,46,223c.21,7,2.18,10.87,10.58,11.37l4.49,8.83a3.41,3.41,0,0,1-.86,4.16l-10,8.29a2.66,2.66,0,0,1-4.07-.85,52.7,52.7,0,0,1-6-20.57,3.66,3.66,0,0,0-4.6-3.18l-2.11.71-7.62,2.58-1.57.53a6.72,6.72,0,0,0-4.87,5.43c-.82,5.12-1.35,9.4-1.74,14.09-1.13,13.84,15.26,23.94,15.3,24A11.94,11.94,0,0,0,39.7,280a119.82,119.82,0,0,0,38.75-8.37c42.33,6.58,60.85,11.1,98.56,15.51a24.45,24.45,0,0,0,26.08-16.74c7.3-22.53,12.93-42.17,19.15-65.12,1.22-4.51,2.46-9.15,3.75-14,9.39,31.85,6.72,54.68-9,85.22a5.24,5.24,0,0,0,.58,5.7l.79,1a5.29,5.29,0,0,1,1.14,2.76,5.19,5.19,0,0,1-.61,3l-1.6,2.94a5.26,5.26,0,0,1-4.6,2.72h-94a40.89,40.89,0,0,0-2.43,81.7c46.15,2.75,83.33,4.87,128.16,8.35l4.56.36"/><polyline class="cls-6" points="219.55 285.98 353.68 285.98 353.68 285.98"/><path class="cls-6" d="M294.42,395.38c1.34-.4,2.67-.78,4-1.15a243.71,243.71,0,0,1,42.42-7.44l2.54-.18,5.83-.41c36.1-2.65,68.43-7.44,107.24-9.78,23.36-1.41,41.21-21.91,38.72-45.18a40.89,40.89,0,0,0-40.65-36.55h-94a5.26,5.26,0,0,1-4.6-2.72l-1.6-2.94a5.25,5.25,0,0,1,.53-5.81l.78-1a5.24,5.24,0,0,0,.59-5.7c-15.67-30.54-18.34-53.37-8.95-85.22,1.28,4.81,2.53,9.45,3.75,14,6.22,22.94,11.85,42.58,19.14,65.1a24.48,24.48,0,0,0,26.09,16.76c37.71-4.41,56.22-8.93,98.56-15.51A119.82,119.82,0,0,0,533.54,280a11.94,11.94,0,0,0,6.8-1.65s16.42-10.13,15.29-24c-.38-4.69-.92-9-1.73-14.09a6.72,6.72,0,0,0-4.87-5.43l-1.57-.53-7.62-2.58-2.11-.71a3.65,3.65,0,0,0-4.6,3.18,52.7,52.7,0,0,1-6,20.57,2.66,2.66,0,0,1-4.07.85l-10-8.29a3.41,3.41,0,0,1-.86-4.16l4.49-8.83c8.83-.52,10.56-4.74,10.59-12.48A2.2,2.2,0,0,0,526.1,220a2.17,2.17,0,0,0-2.24.08c-11.73,7.51-22.26,12.83-27.51,18.54a10.59,10.59,0,0,1-8,3.36c-34.13-.42-61.55-1.82-79.08-1.49a4.21,4.21,0,0,1-4.13-3.07L394.4,199.07h0L388,176.39"/><path class="cls-6" d="M441,325.21c-35.11,6.87-66.72,11.69-95.09,14.53q-12.88,1.29-24.89,2-11.69.74-22.54,1-6.25.13-12.25.1a15.31,15.31,0,0,0-13.14,7.38A400,400,0,0,1,249,385.1h0c-6.81,9-14.18,18.33-22.5,29.25a13.16,13.16,0,0,0,2.1,17.58,7.31,7.31,0,0,0,4.8,1.79,7.19,7.19,0,0,0,6.22-3.5c9.67-16.18,29.44-26.66,49.83-33.3,1.66-.54,3.31-1.05,5-1.54"/><path class="cls-6" d="M321.06,341.78c-17,15.18-26.4,32.18-31.62,55.14"/><polyline class="cls-6" points="345.95 339.74 349.22 386.2 349.22 386.2"/><path class="cls-6" d="M147.44,325.1c37.76,7.39,71.46,12.41,101.44,15.14q26.75,2.44,49.64,2.49"/><path class="cls-6" d="M340.85,386.79c6.44,8.43,13.37,17.26,21.14,27.45a13.18,13.18,0,0,1-2.11,17.59,7.29,7.29,0,0,1-11-1.71c-9.67-16.18-29.44-26.66-49.83-33.3-1.53-.5-3.08-1-4.62-1.44h0"/><path class="cls-6" d="M298.43,394.23c.21.86.41,1.72.61,2.58"/><line class="cls-6" x1="248.88" y1="340.24" x2="244.43" y2="384.74"/><path class="cls-6" d="M239.3,110.78a257.57,257.57,0,0,0,23.86,45.51c7.36,11.11,15.85,22.1,26.47,35.11a252.68,252.68,0,0,0,20.91-26.65c9.82-14.75,17.08-30.63,24.32-54"/><polygon class="cls-6" points="289.63 191.4 283.91 206.16 295.56 206.16 289.63 191.4"/><path class="cls-6" d="M263.16,156.29c14.85,7,29.18,9.48,47.38,8.46"/><path class="cls-4" d="M384.06,516.83V548a4.79,4.79,0,0,1-4.79,4.78H250.17a4.79,4.79,0,0,1-4.79-4.78V539h103.9A13.11,13.11,0,0,0,360,533.38c5.59-8,10.77-13,19.73-18l1-.55A2.23,2.23,0,0,1,384.06,516.83Z"/><path class="cls-4" d="M379.75,493.08v22.34c-9,5-14.14,10-19.73,18A13.11,13.11,0,0,1,349.28,539H245.38c0-3.08,3.18-5.83,8.25-8.54,7.94-4.23,20.52-8.33,32.8-13.37h0a137,137,0,0,0,19.43-9.49h0c8.66-5.33,15.18-11.71,16.71-19.75a4.31,4.31,0,0,1,4.85-3.4c13.05,1.75,8.72,11.34,23.29,11.34a41.69,41.69,0,0,0,22.51-6.23A4.25,4.25,0,0,1,379.75,493.08Zm-34.52,24.36a7.93,7.93,0,1,0-7.93,7.93A7.93,7.93,0,0,0,345.23,517.44Z"/><path class="cls-3" d="M337.3,509.51a7.93,7.93,0,1,1-7.93,7.93A7.93,7.93,0,0,1,337.3,509.51Z"/><path class="cls-4" d="M305.86,507.55A137,137,0,0,1,286.43,517H216.1a12.67,12.67,0,0,1-10.37-5.38,52.24,52.24,0,0,0-19-17.32h0V472.8a4.09,4.09,0,0,1,6.3-3.45,40.28,40.28,0,0,0,21.71,6c14.05,0,9.88-9.26,22.47-10.95a4.18,4.18,0,0,1,4.67,3.29C245.93,489,286.33,498.23,305.86,507.55Zm-70.55-11.26a7.65,7.65,0,1,0-7.66,7.65A7.65,7.65,0,0,0,235.31,496.29Z"/><path class="cls-4" d="M216.1,517h70.33c-12.28,5-24.86,9.14-32.8,13.37H187.17a4.61,4.61,0,0,1-4.62-4.61V495.7a2.15,2.15,0,0,1,3.19-1.89c.33.17.65.35,1,.53a52.24,52.24,0,0,1,19,17.32A12.67,12.67,0,0,0,216.1,517Z"/><path class="cls-3" d="M227.65,488.64a7.65,7.65,0,1,1-7.64,7.65A7.65,7.65,0,0,1,227.65,488.64Z"/><path class="cls-6" d="M379.75,515.42l1-.55a2.23,2.23,0,0,1,3.31,2V548a4.79,4.79,0,0,1-4.79,4.78H250.17a4.79,4.79,0,0,1-4.79-4.78V539h103.9A13.11,13.11,0,0,0,360,533.38C365.61,525.42,370.79,520.43,379.75,515.42Z"/><path class="cls-6" d="M305.86,507.55c8.66-5.33,15.18-11.71,16.71-19.75a4.31,4.31,0,0,1,4.85-3.4c13.05,1.75,8.72,11.34,23.29,11.34a41.69,41.69,0,0,0,22.51-6.23,4.25,4.25,0,0,1,6.53,3.57v22.34"/><path class="cls-6" d="M286.43,517a137,137,0,0,0,19.43-9.49"/><path class="cls-6" d="M245.38,539c0-3.08,3.18-5.83,8.25-8.54,7.94-4.23,20.52-8.33,32.8-13.37"/><path class="cls-6" d="M345.23,517.44a7.93,7.93,0,1,0-7.93,7.93A7.93,7.93,0,0,0,345.23,517.44Z"/><path class="cls-6" d="M253.63,530.41H187.17a4.61,4.61,0,0,1-4.62-4.61V495.7a2.15,2.15,0,0,1,3.19-1.89c.33.17.65.35,1,.53a52.24,52.24,0,0,1,19,17.32A12.67,12.67,0,0,0,216.1,517h70.33"/><path class="cls-6" d="M305.86,507.55h0c-19.53-9.32-59.93-18.54-64-39.85a4.18,4.18,0,0,0-4.67-3.29c-12.59,1.69-8.42,10.95-22.47,10.95a40.28,40.28,0,0,1-21.71-6,4.09,4.09,0,0,0-6.3,3.45v21.54"/><path class="cls-6" d="M220,496.29a7.65,7.65,0,1,1,7.64,7.65A7.64,7.64,0,0,1,220,496.29Z"/><polygon class="cls-7" points="535.89 193.71 538.66 196.47 534.45 200.68 538.66 204.89 535.89 207.66 531.68 203.45 527.48 207.66 524.71 204.89 528.92 200.68 524.71 196.47 527.48 193.71 531.68 197.92 535.89 193.71"/><circle class="cls-2" cx="480.29" cy="172.79" r="10.45"/><rect class="cls-7" x="34.52" y="186.07" width="11.25" height="11.25" transform="translate(-123.79 84.54) rotate(-45)"/><path class="cls-8" d="M178.9,400c-16.82-1.07-33.69-2.07-51.68-3.14L113.61,396a55.72,55.72,0,0,1-39.53-19.77,58.81,58.81,0,0,1-3.81-5"/><path class="cls-8" d="M394.33,400c16.81-1.07,33.69-2.07,51.67-3.14l13.62-.81a55.71,55.71,0,0,0,39.52-19.77,56.81,56.81,0,0,0,3.81-5"/><path class="cls-2" d="M159.09,411.9c-10.62-.65-21.41-1.29-32.64-2l-13.63-.81a69.67,69.67,0,0,1-45-20.34"/><path class="cls-2" d="M414.13,411.9c10.62-.65,21.42-1.29,32.65-2l13.62-.81a69.67,69.67,0,0,0,45-20.34"/></g></g></svg>