<svg xmlns="http://www.w3.org/2000/svg" viewBox="0 0 521.37 618.62"><defs><style>.cls-1{fill:#f0f0f0;}.cls-2{fill:#fff;}.cls-3{fill:#323433;}.cls-4{fill:#52cca7;}.cls-5,.cls-6{fill:none;stroke:#323433;stroke-linecap:round;stroke-linejoin:round;}.cls-5{stroke-width:2.61px;}.cls-6{stroke-width:1.74px;}</style></defs><title>Asset 17</title><g id="Layer_2" data-name="Layer 2"><g id="graphic"><ellipse class="cls-1" cx="269.21" cy="575.47" rx="252.16" ry="43.15"/><path class="cls-2" d="M499.73,388.25c4.17,13.85,2.3,20.1-2.14,24a2.88,2.88,0,0,1-4.65-1.36l-.12-.41-15.75-52.34a88.88,88.88,0,0,0-6.6-16.07c-4-7.63-10.41-18.08-17.89-24.7a2.73,2.73,0,0,1-.63-.82,2.76,2.76,0,0,1,1.46-3.83c3.77-1.49,7.55-2.88,10.85-4.05a10.54,10.54,0,0,1,13.61,6.9l2.68,8.91c5.13,17.06-.37,17.1,4,31.5S494.58,371.14,499.73,388.25Z"/><path class="cls-3" d="M477.07,358.15l15.75,52.34h0c-13.83,3.25-20.2-6.34-28.54-15.76l.13-.11-.25-5.49a28.17,28.17,0,0,0-21-26.05,65.77,65.77,0,0,0-11.52-2,26.56,26.56,0,0,0-.35-11.29c-3.41-11.33-11.89-10.72-13.67-16.63a1.4,1.4,0,0,1,0-.88c1.55-4.79,24.84-12.08,34.29-15.76h0a2.73,2.73,0,0,0,.63.82c7.48,6.62,13.85,17.07,17.89,24.7A88.88,88.88,0,0,1,477.07,358.15Z"/><path class="cls-2" d="M464.16,389.13l.25,5.49-.13.11c-8.09-9.11-18-18.08-38.41-15.1l0,0a76,76,0,0,0,5.76-18.48,65.77,65.77,0,0,1,11.52,2A28.17,28.17,0,0,1,464.16,389.13Z"/><path class="cls-3" d="M432.84,86.85c11.7,6.68,8.32,56.66-20.59,48.52-12.17-3.43-10.09-11-23.82-14.78-6.6-1.8-13.16-.71-18.2.91h0c0-.72,0-1.44,0-2.17A30.1,30.1,0,0,0,340.41,89c-5.57-.06-11-.08-16.2-.09q-7.06,0-13.78,0c.34-16.42,1.57-31.31,3.58-42.21,0,0,7.87-2.14,5.67-8.2-3.86-10.65-5.6,10.56-18.05-.29,13.16,4.05,11.21-15.78-9.22-15a34.84,34.84,0,0,1-14.71-2.16c-5.84-2.41-10.15-6.83-13.3-13.5l.61-.52S308.4-5.06,322.9,5.88c17.67,13.31,1.56,24.52,20.15,33.79s31.87-7.35,47.71,4.54-1.4,27.57,12.18,36.68S421.13,80.16,432.84,86.85Z"/><path class="cls-2" d="M417.63,333.2c1.78,5.91,10.26,5.3,13.67,16.63a26.56,26.56,0,0,1,.35,11.29,76,76,0,0,1-5.76,18.48c-42.54,13.51-71.84,22-109,32.88a26.51,26.51,0,0,1-32.64-17.13c-7.74-23.45-13-42.87-19.79-67,18.76.54,38.55.44,60.76-.28l1.39,29.82,91-25.58A1.4,1.4,0,0,0,417.63,333.2Z"/><path class="cls-4" d="M336.57,145.08A150.44,150.44,0,0,0,316.1,187.2c-15.12.77-31.23,1.14-49.83,1.64a17.12,17.12,0,0,0,7.64-18.08L256.19,87.91c6.8.38,13.57.61,20.43.76a139.54,139.54,0,0,0-1.38,26.18,3.07,3.07,0,0,0,4.46,2.66c16.73-8.4,28.82-16.32,44.51-28.62,5.24,0,10.63,0,16.2.09a30.1,30.1,0,0,1,29.84,30.35c0,.73,0,1.45,0,2.17-.21,16.11-1.06,30.95-2.62,45.65l-32.18-.92C335.75,159.19,336.06,152.44,336.57,145.08Z"/><path class="cls-2" d="M218.32,175.29a6,6,0,0,1,7.12,1.52,124.5,124.5,0,0,0,18.11,17.95l17.2-3.68a17,17,0,0,0,5.52-2.24c18.6-.5,34.71-.87,49.83-1.64,4.78-.24,9.47-.53,14.1-.87a4.83,4.83,0,0,0,4.46-4.53c.31-5.55.55-10.63.77-15.57l32.18.92c-1.19,11.34-2.82,22.58-4.9,34.26a18.59,18.59,0,0,1-18,15.31c-9.3.18-18.11.11-26.58-.24C292,215.4,269,211.57,245.05,203.66a85,85,0,0,1-22.51,1.06l-.22,0a14.52,14.52,0,0,1-11-6.88,50.32,50.32,0,0,1-4.64-9.54,6.49,6.49,0,0,1,2.44-7.53c1.06-.73,2.12-1.43,3.22-2.12h0a63.62,63.62,0,0,1,5.92-3.3Z"/><path class="cls-2" d="M336.57,145.08c-.51,7.36-.82,14.11-1.14,21.15-.22,4.94-.46,10-.77,15.57a4.83,4.83,0,0,1-4.46,4.53c-4.63.34-9.32.63-14.1.87A150.44,150.44,0,0,1,336.57,145.08Z"/><path class="cls-2" d="M274.33,43c.73-6.69,1.66-13.13,2.9-20.44a6,6,0,0,1,.47-1.53,34.84,34.84,0,0,0,14.71,2.16c20.43-.82,22.38,19,9.22,15,12.45,10.85,14.19-10.36,18.05.29,2.2,6.06-5.67,8.2-5.67,8.2-2,10.9-3.24,25.79-3.58,42.21q6.72,0,13.78,0c-15.69,12.3-27.78,20.22-44.51,28.62a3.07,3.07,0,0,1-4.46-2.66,139.54,139.54,0,0,1,1.38-26.18l5.85.1a62.21,62.21,0,0,0,5.44-20.34,1.15,1.15,0,0,0-1.05-1.26,14.64,14.64,0,0,1-13.33-15.79c.12-1.46.25-2.9.38-4.31l-2.35-1.26A30.16,30.16,0,0,0,274.33,43Z"/><path class="cls-2" d="M286.17,574.55a11.11,11.11,0,0,1-10.62,12.06l-9.79.39c-18.74.74-17.33-4.88-33.17-4.25s-18.09,6.28-36.89,7c-15.23.6-21.11-2.95-23.93-8.5a3,3,0,0,1,2.61-4.38l.46,0,57.52-2.29a93.22,93.22,0,0,0,18.12-2.5c8.84-2.11,21.17-5.86,29.89-11.74a2.71,2.71,0,0,1,1-.43,2.91,2.91,0,0,1,3.52,2.49C285.43,566.65,285.85,570.87,286.17,574.55Z"/><path class="cls-3" d="M273.8,523.21c3.75,7.39,6.5,27.61,7.58,36.71a2.71,2.71,0,0,0-1,.43c-8.72,5.88-21.05,9.63-29.89,11.74a93.22,93.22,0,0,1-18.12,2.5l-57.52,2.29c.32-14.88,11.79-18.85,23.66-24.79l5.67,1.19a29.67,29.67,0,0,0,32.08-14.56,69.27,69.27,0,0,0,5-11.25,27.43,27.43,0,0,0,11.61,2.63c12.44-.49,11.55-9.4,18-9.65C271.94,520.41,272.9,521.44,273.8,523.21Z"/><path class="cls-2" d="M207.51,182.33a6.5,6.5,0,0,0-.83,5.95,50.32,50.32,0,0,0,4.64,9.54,14.42,14.42,0,0,0,2.71,3.25l-63.36,13.56a152.21,152.21,0,0,1-52.11,90.62,139.21,139.21,0,0,0,17.38-73.34q-.19-4.91-.72-9.7l-34,7.26a17.11,17.11,0,0,1-20.32-13.16l-5.62-26.26,5.59-1.3a5.92,5.92,0,0,0,4.45-4.6c.21-1,.4-2,.57-3h0c.5-2.83.86-5.53,1.15-8.27.35-3.27.59-6.61.83-10.35a5,5,0,0,0-5.28-5.28l-14.13.93-1.81-8.49L38,109.23A17.11,17.11,0,0,1,51.19,88.91L230.68,50.52A17.12,17.12,0,0,1,251,63.68l5.18,24.23,17.72,82.85a17.12,17.12,0,0,1-13.16,20.32l-17.2,3.68a124.5,124.5,0,0,1-18.11-17.95,6,6,0,0,0-7.12-1.52l-.06,0a63.62,63.62,0,0,0-5.92,3.3h0c-1.1.69-2.16,1.39-3.22,2.12A6.54,6.54,0,0,0,207.51,182.33Zm-13.41-39.7a9,9,0,1,0-9.34-8.63A9,9,0,0,0,194.1,142.63Zm-38.86,7.9a9,9,0,1,0-9.35-8.63A9,9,0,0,0,155.24,150.53Zm-38.87,7.89a9,9,0,1,0-9.34-8.63A9,9,0,0,0,116.37,158.42Z"/><path class="cls-2" d="M241.11,389,273.8,523.21c-.9-1.77-1.86-2.8-2.87-2.76-6.49.25-5.6,9.16-18,9.65a27.43,27.43,0,0,1-11.61-2.63,75.65,75.65,0,0,1-16.83-10.6c0,.14,0,.29,0,.43l-34-121A84,84,0,0,1,187.21,370l1.87-47.61c19.54,2.48,38.09,4.21,57.29,5.22l-6,43.51A50.6,50.6,0,0,0,241.11,389Z"/><path class="cls-2" d="M224.4,517.3c0-.14,0-.29,0-.43a75.65,75.65,0,0,0,16.83,10.6,69.27,69.27,0,0,1-5,11.25,29.67,29.67,0,0,1-32.08,14.56l-5.67-1.19C210,546.31,222,538.66,224.4,517.3Z"/><path class="cls-3" d="M222.54,204.72a85,85,0,0,0,22.51-1.06c24,7.91,46.9,11.74,73.11,12.82,21.21,41.84,9.76,75.24,32.22,110.59-8.75.42-17.12.76-25.16,1-22.21.72-42,.82-60.76.28q-9.18-.25-18.09-.73c-19.2-1-37.75-2.74-57.29-5.22q-4.16-.53-8.38-1.11c5.21-54.2,21.55-88.56,41.62-116.59h0Z"/><path class="cls-3" d="M202.73,133.29a9,9,0,1,1-9.34-8.63A9,9,0,0,1,202.73,133.29Z"/><path class="cls-3" d="M163.87,141.19a9,9,0,1,1-9.35-8.63A9,9,0,0,1,163.87,141.19Z"/><path class="cls-3" d="M125,149.08a9,9,0,1,1-9.34-8.63A9,9,0,0,1,125,149.08Z"/><path class="cls-2" d="M67.9,162.52c-.24,3.74-.48,7.08-.83,10.35-.29,2.74-.65,5.44-1.15,8.27h0c-.17,1-.36,2-.57,3a5.92,5.92,0,0,1-4.45,4.6l-5.59,1.3-4.6,1.07a2.43,2.43,0,0,1-2.84-1.53,124.36,124.36,0,0,1-5.75-27,13.71,13.71,0,0,1,1.6-7.77l2.75-5.09.21,0,1.81,8.49,14.13-.93A5,5,0,0,1,67.9,162.52Z"/><path class="cls-5" d="M222.32,204.71c-20.07,28-36.41,62.39-41.62,116.59q4.23.58,8.38,1.11c19.54,2.48,38.09,4.21,57.29,5.22q8.92.47,18.09.73c18.76.54,38.55.44,60.76-.28,8-.25,16.41-.59,25.16-1-22.46-35.35-11-68.75-32.22-110.59"/><path class="cls-5" d="M316.1,187.2a150.44,150.44,0,0,1,20.47-42.12"/><path class="cls-5" d="M214,201.07l-63.36,13.56a152.21,152.21,0,0,1-52.11,90.62,139.21,139.21,0,0,0,17.38-73.34q-.19-4.91-.72-9.7l-34,7.26a17.11,17.11,0,0,1-20.32-13.16l-5.62-26.26"/><path class="cls-5" d="M212.34,178.63c-1.1.69-2.16,1.39-3.22,2.12a6.49,6.49,0,0,0-2.44,7.53,50.32,50.32,0,0,0,4.64,9.54,14.52,14.52,0,0,0,11,6.88l.22,0a85,85,0,0,0,22.51-1.06c24,7.91,46.9,11.74,73.11,12.82,8.47.35,17.28.42,26.58.24a18.59,18.59,0,0,0,18-15.31c2.08-11.68,3.71-22.92,4.9-34.26,1.56-14.7,2.41-29.54,2.62-45.65,0-.72,0-1.44,0-2.17A30.1,30.1,0,0,0,340.41,89c-5.57-.06-11-.08-16.2-.09q-7.06,0-13.78,0c.34-16.42,1.57-31.31,3.58-42.21,0,0,7.87-2.14,5.67-8.2-3.86-10.65-5.6,10.56-18.05-.29,13.16,4.05,11.21-15.78-9.22-15a34.84,34.84,0,0,1-14.71-2.16c-5.84-2.41-10.15-6.83-13.3-13.5l.61-.52S308.4-5.06,322.9,5.88c17.67,13.31,1.56,24.52,20.15,33.79s31.87-7.35,47.71,4.54-1.4,27.57,12.18,36.68,18.19-.73,29.9,6,8.32,56.66-20.59,48.52c-12.17-3.43-10.09-11-23.82-14.78-6.6-1.8-13.16-.71-18.2.91"/><path class="cls-5" d="M48.49,158.17l-1.81-8.49L38,109.23A17.11,17.11,0,0,1,51.19,88.91L230.68,50.52A17.12,17.12,0,0,1,251,63.68l5.18,24.23,17.72,82.85a17.12,17.12,0,0,1-13.16,20.32l-17.2,3.68a124.5,124.5,0,0,1-18.11-17.95,6,6,0,0,0-7.12-1.52l-.06,0a63.62,63.62,0,0,0-5.92,3.3"/><path class="cls-5" d="M233.24,195.71a133.19,133.19,0,0,1-14.92-20.42"/><path class="cls-5" d="M226,197.36a127.22,127.22,0,0,1-13.7-18.73h0"/><path class="cls-5" d="M218.91,199.46a121.06,121.06,0,0,1-11.4-17.13h0"/><path class="cls-5" d="M277.7,21.07a6,6,0,0,0-.47,1.53c-1.24,7.31-2.17,13.75-2.9,20.44h0"/><path class="cls-5" d="M273.91,47.07c-.13,1.41-.26,2.85-.38,4.31a14.64,14.64,0,0,0,13.33,15.79,1.15,1.15,0,0,1,1.05,1.26,62.21,62.21,0,0,1-5.44,20.34l-5.85-.1c-6.86-.15-13.63-.38-20.43-.76"/><path class="cls-5" d="M125,149.08a9,9,0,1,0-8.63,9.34A9,9,0,0,0,125,149.08Z"/><path class="cls-5" d="M163.87,141.19a9,9,0,1,0-8.63,9.34A9,9,0,0,0,163.87,141.19Z"/><path class="cls-5" d="M202.73,133.29a9,9,0,1,0-8.63,9.34A9,9,0,0,0,202.73,133.29Z"/><path class="cls-5" d="M338.15,127.27c-.7,6.53-1.2,12.34-1.58,17.81h0c-.51,7.36-.82,14.11-1.14,21.15-.22,4.94-.46,10-.77,15.57a4.83,4.83,0,0,1-4.46,4.53c-4.63.34-9.32.63-14.1.87-15.12.77-31.23,1.14-49.83,1.64"/><path class="cls-5" d="M276.62,88.67a139.54,139.54,0,0,0-1.38,26.18,3.07,3.07,0,0,0,4.46,2.66c16.73-8.4,28.82-16.32,44.51-28.62"/><path class="cls-5" d="M279.75,33.36A31.82,31.82,0,0,1,274.33,43a30.16,30.16,0,0,1-2.77,2.77l2.35,1.26L276,48.18"/><path class="cls-5" d="M65.92,181.14c.5-2.83.86-5.53,1.15-8.27.35-3.27.59-6.61.83-10.35a5,5,0,0,0-5.28-5.28l-14.13.93-2.19.15"/><path class="cls-5" d="M46.47,149.72l-2.75,5.09a13.71,13.71,0,0,0-1.6,7.77,124.36,124.36,0,0,0,5.75,27,2.43,2.43,0,0,0,2.84,1.53l4.6-1.07,5.59-1.3a5.92,5.92,0,0,0,4.45-4.6c.21-1,.4-2,.57-3"/><line class="cls-5" x1="47.62" y1="165.79" x2="67.75" y2="164.73"/><line class="cls-5" x1="48.71" y1="173.84" x2="67.07" y2="172.87"/><polyline class="cls-5" points="50.29 181.97 65.92 181.14 65.92 181.14"/><path class="cls-5" d="M189.08,322.41,187.21,370a84,84,0,0,0,3.22,26.28l34,121h0"/><path class="cls-5" d="M273.88,523.55l-.08-.34L241.11,389a50.6,50.6,0,0,1-.74-17.82l6-43.51"/><path class="cls-5" d="M174.84,576.88c.32-14.88,11.79-18.85,23.66-24.79C210,546.31,222,538.66,224.4,517.3c0-.14,0-.29,0-.43a75.65,75.65,0,0,0,16.83,10.6,27.43,27.43,0,0,0,11.61,2.63c12.44-.49,11.55-9.4,18-9.65,1,0,2,1,2.87,2.76,3.75,7.39,6.5,27.61,7.58,36.71"/><path class="cls-5" d="M281.38,559.92a2.91,2.91,0,0,1,3.52,2.49c.53,4.24,1,8.46,1.27,12.14a11.11,11.11,0,0,1-10.62,12.06l-9.79.39c-18.74.74-17.33-4.88-33.17-4.25s-18.09,6.28-36.89,7c-15.23.6-21.11-2.95-23.93-8.5a3,3,0,0,1,2.61-4.38l.46,0,57.52-2.29a93.22,93.22,0,0,0,18.12-2.5c8.84-2.11,21.17-5.86,29.89-11.74A2.71,2.71,0,0,1,281.38,559.92Z"/><path class="cls-5" d="M198.5,552.09l5.67,1.19a29.67,29.67,0,0,0,32.08-14.56,69.27,69.27,0,0,0,5-11.25"/><path class="cls-5" d="M492.82,410.49c-13.83,3.25-20.2-6.34-28.54-15.76-8.09-9.11-18-18.08-38.41-15.1l0,0a76,76,0,0,0,5.76-18.48,26.56,26.56,0,0,0-.35-11.29c-3.41-11.33-11.89-10.72-13.67-16.63a1.4,1.4,0,0,1,0-.88c1.55-4.79,24.84-12.08,34.29-15.76"/><path class="cls-5" d="M452,316.56a2.76,2.76,0,0,1,1.46-3.83c3.77-1.49,7.55-2.88,10.85-4.05a10.54,10.54,0,0,1,13.61,6.9l2.68,8.91c5.13,17.06-.37,17.1,4,31.5s10.07,15.15,15.22,32.26c4.17,13.85,2.3,20.1-2.14,24a2.88,2.88,0,0,1-4.65-1.36l-.12-.41-15.75-52.34a88.88,88.88,0,0,0-6.6-16.07c-4-7.63-10.41-18.08-17.89-24.7A2.73,2.73,0,0,1,452,316.56Z"/><path class="cls-5" d="M464.41,394.62l-.25-5.49a28.17,28.17,0,0,0-21-26.05,65.77,65.77,0,0,0-11.52-2h0"/><path class="cls-5" d="M264.46,328.36c6.83,24.12,12.05,43.54,19.79,67a26.51,26.51,0,0,0,32.64,17.13c37.16-10.91,66.46-19.37,109-32.88"/><polyline class="cls-5" points="325.22 328.08 326.61 357.9 417.65 332.32"/><polyline class="cls-5" points="335.43 166.23 367.62 167.15 367.62 167.15"/><path class="cls-3" d="M290.32,35.11c1.11.06,1.92,1.61,1.82,3.46s-1.07,3.31-2.17,3.25-1.92-1.61-1.82-3.46S289.22,35.05,290.32,35.11Z"/><polyline class="cls-6" points="8.38 260.05 22.86 259.36 27.14 273.21 41.63 272.53 45.91 286.38 60.4 285.69"/><line class="cls-6" x1="0.87" y1="203.14" x2="14.91" y2="216.1"/><line class="cls-6" x1="1.41" y1="216.64" x2="14.37" y2="202.6"/><path class="cls-6" d="M437.39,276a8.08,8.08,0,1,1-8.16-8A8.08,8.08,0,0,1,437.39,276Z"/><path class="cls-4" d="M46.93,331.18,39,352.76a4.65,4.65,0,0,0,1.37,5.15,4.71,4.71,0,0,0,1.4.81l3.13,1.15h0l9,3.3h0l14.68,5.41c.29,9.91,6,19.83,12.37,27a37.85,37.85,0,0,1-1.88-20.36c.16-.87.35-1.73.56-2.58l8.85,3.25a4.65,4.65,0,0,0,6-2.77l.93-2.55h0l7-19.11h0l2.29-6.23a4.65,4.65,0,0,0-2.77-6L55.2,322.1a4.65,4.65,0,0,0-6,2.77Zm36.7,19.26a2.93,2.93,0,1,1-3.4,2.36A2.92,2.92,0,0,1,83.63,350.44Zm-23-2a2.92,2.92,0,1,1,3.4-2.36A2.92,2.92,0,0,1,60.58,348.42Zm12-1.86a2.92,2.92,0,1,1-3.4,2.35A2.91,2.91,0,0,1,72.63,346.56Z"/></g></g></svg>