<svg xmlns="http://www.w3.org/2000/svg" viewBox="0 0 481.45 614.28"><defs><style>.cls-1{fill:#f0f0f0;}.cls-2,.cls-6{fill:none;stroke:#323433;stroke-linecap:round;stroke-linejoin:round;}.cls-2{stroke-width:1.74px;}.cls-3{fill:#fff;}.cls-4{fill:#52cca7;}.cls-5{fill:#323433;}.cls-6{stroke-width:2.61px;}</style></defs><title>Asset 26</title><g id="Layer_2" data-name="Layer 2"><g id="graphic"><ellipse class="cls-1" cx="225.18" cy="571.65" rx="193.74" ry="42.63"/><path class="cls-2" d="M365.05,344.76a54.86,54.86,0,0,0,5.27,3.81A53.26,53.26,0,1,0,346,296.91"/><path class="cls-2" d="M368.35,335.88a45,45,0,0,0,6.71,5.21A44.4,44.4,0,1,0,354.41,304"/><path class="cls-3" d="M369.93,190c-7.87-.48-15.27-1.09-23.29-1.89a38.72,38.72,0,0,0-8.61.12c-10.44,1.34-20.35,2.59-29.89,3.76-22,2.67-41.9,4.83-61.57,6.25l-5.18.36a103.29,103.29,0,0,1-37.54-4.5c-4.87-1.51-9.56-3-14.13-4.47-4.3-1.37-8.49-2.74-12.63-4.1h0L192,137.13c9.09,3.26,18.57,6.58,28.79,10.1a87.59,87.59,0,0,0,19.83,4.32c8.34.83,17.5,1.84,27.21,2.9,12.57,1.36,26.05,2.8,39.86,4,8.82.75,17.77,1.38,26.69,1.83a16.28,16.28,0,0,0,8.71-2.07c6.64-3.7,15.67-6.82,20.75-11.45L371,135.58a2.77,2.77,0,0,1,3.42-1.06,4.8,4.8,0,0,1,2.63,6c-2.22,6.3-3.83,11.76-5.47,16.59,2.45-.34,4.87-.64,7.2-.92,4.9-.59,9.44-1.09,13.06-1.71a10.73,10.73,0,0,1,3.62,0,10.44,10.44,0,0,1,3.62,1.38l.06,0a8.15,8.15,0,0,1,3.56,9.21c-2.42,8.34-4.57,14.79-7.9,23.29a4,4,0,0,1-3.87,2.53l-3.36-.11C381.2,190.61,375.45,190.33,369.93,190Z"/><path class="cls-3" d="M395.61,148.35q0,3.1-.17,6.17a10.73,10.73,0,0,0-3.62,0c-3.62.62-8.16,1.12-13.06,1.71q.32-3.89.31-7.86a99.17,99.17,0,0,0-197.21-14.89c-5.34-2-10.58-3.89-15.8-5.85a115.71,115.71,0,0,1,229.55,20.74Z"/><path class="cls-3" d="M379.07,148.35q0,4-.31,7.86c-2.33.28-4.75.58-7.2.92,1.64-4.83,3.25-10.29,5.47-16.59a4.8,4.8,0,0,0-2.63-6,2.77,2.77,0,0,0-3.42,1.06l-7.11,11.14c-5.08,4.63-14.11,7.75-20.75,11.45a16.28,16.28,0,0,1-8.71,2.07c-8.92-.45-17.87-1.08-26.69-1.83a79.63,79.63,0,0,0-14.56-15.66l10.48-21.54q7,6.17,13.14,17.49L337.64,127q-9.79-17.54-23.74-26.9l3.71-7.63-15.86-7.72-3.57,7.34q-14.42-5-26.83-.75t-18.64,17q-6.22,12.8-2.2,23.17t17.77,22.06l-.42.85c-9.71-1.06-18.87-2.07-27.21-2.9a87.59,87.59,0,0,1-19.83-4.32c-10.22-3.52-19.7-6.84-28.79-10.1q-5.16-1.84-10.17-3.67a99.17,99.17,0,0,1,197.21,14.89Z"/><path class="cls-3" d="M369.93,190c5.52.34,11.27.62,17.62.86A115.73,115.73,0,0,1,283.7,264c-1.26,0-2.52.06-3.79.06A115.79,115.79,0,0,1,169.49,183l7.6,2.52h0c4.14,1.36,8.33,2.73,12.63,4.1h0a99.2,99.2,0,0,0,180.21.36Z"/><path class="cls-3" d="M369.93,190q-1.64,3.54-3.54,6.92a99.19,99.19,0,0,1-172.22,1.27,94.81,94.81,0,0,1-4.45-8.55h0c4.57,1.47,9.26,3,14.13,4.47a103.29,103.29,0,0,0,37.54,4.5l5.18-.36L243,205.62l-1.12,2.3,15.86,7.71,5.1-10.47q15.17,5.34,27.84,1.14a30.88,30.88,0,0,0,11.14-6.42,33.15,33.15,0,0,0,6.34-7.9c9.54-1.17,19.45-2.42,29.89-3.76a38.72,38.72,0,0,1,8.61-.12C354.66,188.9,362.06,189.51,369.93,190Z"/><path class="cls-4" d="M360.08,341.35c-29.91,51.15-50.14,86.86-64.22,127.92l-8.77-4.21h0L250,447.25q-3,5.94-5.83,11.79-8.37,17.4-15.16,34.24-2,5-3.86,9.85-5.93,15.57-10.55,30.72L199,526.67l-44.1-20.24c18.4-49,41.52-88.26,73.81-128.24a4.41,4.41,0,0,0-.54-6.1c-26.57-23.2-44-41.57-62.31-64.89a64.92,64.92,0,0,1-58.42-41.39L130.55,250c16.45-.54,40-3.84,60.74-23.89.52-.5,1-1,1.55-1.53h0a115.44,115.44,0,0,0,87.07,39.5c1.27,0,2.53,0,3.79-.06h0q6.62,3.58,13.47,7.63a575.45,575.45,0,0,1,56.9,38.92A23.73,23.73,0,0,1,360.08,341.35Z"/><path class="cls-5" d="M297.17,271.62c-3.13.36-6.3.6-9.5.7-1.26,0-2.53.06-3.8.06a115.42,115.42,0,0,1-87.06-39.5q-2.88-3.28-5.52-6.8c.52-.5,1-1,1.55-1.53h0a115.44,115.44,0,0,0,87.07,39.5c1.27,0,2.53,0,3.79-.06h0Q290.32,267.58,297.17,271.62Z"/><path class="cls-5" d="M297.4,366.09c-.82,2.23-27,73.69-30.7,89.17-4-1.91-10.78-5.3-16.57-8.2a784.73,784.73,0,0,1,45.13-77A25.47,25.47,0,0,0,297.4,366.09Z"/><path class="cls-4" d="M337.64,127,316.78,138.7q-6.15-11.31-13.14-17.49l-10.48,21.54a79.63,79.63,0,0,1,14.56,15.66c-13.81-1.16-27.29-2.6-39.86-4l.42-.85q-13.75-11.68-17.77-22.06t2.2-23.17q6.21-12.8,18.64-17t26.83.75l3.57-7.34,15.86,7.72-3.71,7.63Q327.84,109.49,337.64,127Zm-58,3.24,8.44-17.35c-5-.6-8.5,1.11-10.44,5.1S276.36,126.07,279.63,130.25Z"/><path class="cls-5" d="M304.85,518.83a9.62,9.62,0,0,1,3.58,8l-.21,4.15L229,493.28q6.81-16.86,15.16-34.24l37.71,17.87C277,493.76,293.53,509.75,304.85,518.83Z"/><path class="cls-4" d="M308.14,192a33.15,33.15,0,0,1-6.34,7.9,30.88,30.88,0,0,1-11.14,6.42q-12.68,4.2-27.84-1.14l-5.1,10.47-15.86-7.71,1.12-2.3,3.59-7.39C266.24,196.81,286.18,194.65,308.14,192Z"/><path class="cls-3" d="M308.22,531,306.29,535a6.06,6.06,0,0,1-8.08,2.87l-73-34.76q1.86-4.9,3.86-9.85Z"/><path class="cls-3" d="M288.07,112.9l-8.44,17.35q-4.9-6.27-2-12.25C279.57,114,283.05,112.3,288.07,112.9Z"/><path class="cls-3" d="M287.09,465.05h0l-5.18,11.85L244.2,459q2.82-5.85,5.83-11.79Z"/><path class="cls-3" d="M246.05,571.44v4.5A6.06,6.06,0,0,1,240,582H140.63a6.06,6.06,0,0,1-6.06-6.06v-4.5Z"/><path class="cls-5" d="M244.46,567.6l1.59,3.84H134.57c4.67-17.91,9.62-34.51,15-50.1a18.32,18.32,0,0,1,8.66,12.6h40.86c2.8,17.34,24.61,24.66,38.74,28A9.61,9.61,0,0,1,244.46,567.6Z"/><path class="cls-3" d="M199.06,533.94H158.2a18.32,18.32,0,0,0-8.66-12.6q2.61-7.61,5.35-14.91L199,526.67A25.51,25.51,0,0,0,199.06,533.94Z"/><path class="cls-5" d="M169.49,183a115.58,115.58,0,0,0,23.35,41.55h0C171.69,246,147.41,249.42,130.55,250c-3.28.11-6.29.11-8.93.11H63.28c-.69-48.78-.37-83.79,2.43-122.14A34.23,34.23,0,0,1,94.34,96.56a33.56,33.56,0,0,1,25.55,6.08q2,1.44,3.89,2.88c5,3.73,9.76,7.5,14.39,11.37,9.52,3.74,18.67,7.26,27.89,10.72,5.22,2,10.46,3.9,15.8,5.85q5,1.83,10.17,3.67l-14.94,48.39Z"/><path class="cls-5" d="M170.76,30.08H131.87V47H127s-5.4-12-12-7.32-.18,15.15-.18,15.15c-5.4,2.5-11,8.13-15.64,13.92l.24-1.36a17.18,17.18,0,0,0-.92-9.28C85.87,26.33,101.2,7,112.06,12.47,125.63-8.7,164.12,1.93,170.76,30.08Z"/><path class="cls-3" d="M155.75,57.49a1.59,1.59,0,0,1,.19,1.79c-3.55,6.9.72,24.3-30,26.18a2.24,2.24,0,0,0-2.11,2.23v17.83q-1.92-1.44-3.89-2.88a33.56,33.56,0,0,0-25.55-6.08l4.85-27.77c4.68-5.79,10.24-11.42,15.64-13.92,0,0-6.44-10.44.18-15.15S127,47,127,47h4.84v-17h19.81c-.12,5.72-.2,10.83-.66,17a10.41,10.41,0,0,0,1.84,6.71A40.27,40.27,0,0,0,155.75,57.49Z"/><path class="cls-3" d="M130.55,250l-23.12,15.84a64.51,64.51,0,0,1-3.91-15.73h18.1C124.26,250.08,127.27,250.08,130.55,250Z"/><path class="cls-5" d="M369.92,190h0c-23.39-1.44-24.61-2.7-31.9-1.77-32.62,4.17-64.54,8.23-96.64,10.37a103.29,103.29,0,0,1-37.54-4.5c-4.87-1.51-9.56-3-14.13-4.47h0c1.09,2.38,18.5,18.59,53.26,16,18.5-1.16,41.73-3.71,58.82-5.74,53.73-6.4,30-5.33,64.59-3,0,0,16-.86,20.71-4.93C381.72,191,374.27,190.33,369.92,190Z"/><path class="cls-6" d="M169.49,183a115.79,115.79,0,0,0,110.42,81.05c1.27,0,2.53,0,3.79-.06a115.73,115.73,0,0,0,103.85-73.14"/><path class="cls-6" d="M395.44,154.52q.17-3.06.17-6.17a115.71,115.71,0,0,0-229.55-20.74"/><path class="cls-6" d="M189.72,189.63a99.2,99.2,0,0,0,180.21.36h0"/><path class="cls-6" d="M378.76,156.21q.32-3.89.31-7.86a99.17,99.17,0,0,0-197.21-14.89"/><path class="cls-6" d="M177.09,185.52c4.14,1.36,8.33,2.73,12.63,4.1,4.57,1.47,9.26,3,14.13,4.47a103.29,103.29,0,0,0,37.54,4.5l5.18-.36c19.67-1.42,39.61-3.58,61.57-6.25,9.54-1.17,19.45-2.42,29.89-3.76a38.72,38.72,0,0,1,8.61-.12c8,.8,15.42,1.41,23.29,1.89,5.52.34,11.27.62,17.62.86l3.36.11a4,4,0,0,0,3.87-2.53c3.33-8.5,5.48-15,7.9-23.29a8.15,8.15,0,0,0-3.56-9.21l-.06,0a10.44,10.44,0,0,0-3.62-1.38,10.73,10.73,0,0,0-3.62,0c-3.62.62-8.16,1.12-13.06,1.71-2.33.28-4.75.58-7.2.92,1.64-4.83,3.25-10.29,5.47-16.59a4.8,4.8,0,0,0-2.63-6,2.77,2.77,0,0,0-3.42,1.06l-7.11,11.14c-5.08,4.63-14.11,7.75-20.75,11.45a16.28,16.28,0,0,1-8.71,2.07c-8.92-.45-17.87-1.08-26.69-1.83-13.81-1.16-27.29-2.6-39.86-4-9.71-1.06-18.87-2.07-27.21-2.9a87.59,87.59,0,0,1-19.83-4.32c-10.22-3.52-19.7-6.84-28.79-10.1q-5.16-1.84-10.17-3.67c-5.34-2-10.58-3.89-15.8-5.85-9.22-3.46-18.37-7-27.89-10.72-4.63-3.87-9.4-7.64-14.39-11.37q-1.92-1.44-3.89-2.88a33.56,33.56,0,0,0-25.55-6.08,34.23,34.23,0,0,0-28.63,31.38c-2.8,38.35-3.12,73.36-2.43,122.14h58.34c2.64,0,5.65,0,8.93-.11,16.86-.55,41.14-4,62.29-25.42"/><path class="cls-6" d="M100.71,159c26.9,9.54,47.54,16.86,68.78,24l7.6,2.52"/><polyline class="cls-6" points="192.03 137.13 177.09 185.52 177.09 185.52"/><path class="cls-6" d="M103.52,250.08a64.79,64.79,0,0,0,62.33,57.12c18.34,23.32,35.74,41.69,62.31,64.89a4.41,4.41,0,0,1,.54,6.1c-32.29,40-55.41,79.23-73.81,128.24q-2.74,7.31-5.35,14.91c-5.35,15.59-10.3,32.19-15,50.1H246.05l-1.59-3.84a9.61,9.61,0,0,0-6.66-5.66c-14.13-3.34-35.94-10.66-38.74-28a25.51,25.51,0,0,1-.07-7.27"/><path class="cls-6" d="M207.1,249.32c29.43,20.8,58.74,52.44,87.29,90.72a26.08,26.08,0,0,1,.87,30A784.74,784.74,0,0,0,250,447.25q-3,5.94-5.83,11.79-8.37,17.4-15.16,34.24-2,5-3.86,9.85-5.93,15.57-10.55,30.72L199,526.67l-44.1-20.24"/><path class="cls-6" d="M199.06,533.94H158.2a18.32,18.32,0,0,0-8.66-12.6"/><path class="cls-6" d="M134.57,571.44v4.5a6.06,6.06,0,0,0,6.06,6.06H240a6.06,6.06,0,0,0,6.06-6.06v-4.5"/><path class="cls-6" d="M229,493.28,308.22,531l.21-4.15a9.62,9.62,0,0,0-3.58-8c-11.32-9.08-27.87-25.07-22.94-41.92L244.2,459"/><path class="cls-6" d="M225.17,503.13h0l73,34.76a6.06,6.06,0,0,0,8.08-2.87l1.93-4.06"/><path class="cls-6" d="M287.09,465.06l8.77,4.21c14.08-41.06,34.31-76.77,64.22-127.92a23.73,23.73,0,0,0-6-30.81c-25.79-19.77-49-35-70.37-46.55"/><polyline class="cls-6" points="250.03 447.25 250.03 447.25 287.1 465.05"/><polyline class="cls-6" points="281.91 476.91 287.1 465.06 287.1 465.05"/><path class="cls-6" d="M123.78,105.52V87.69a2.24,2.24,0,0,1,2.11-2.23c30.77-1.88,26.5-19.28,30.05-26.18a1.59,1.59,0,0,0-.19-1.79,40.27,40.27,0,0,1-2.89-3.74A10.41,10.41,0,0,1,151,47c.46-6.13.54-11.24.66-17"/><path class="cls-6" d="M94.34,96.56l4.85-27.77.24-1.36a17.18,17.18,0,0,0-.92-9.28C85.87,26.33,101.2,7,112.06,12.47c13.57-21.17,52.06-10.54,58.7,17.61H131.87V47H127s-5.4-12-12-7.32-.18,15.15-.18,15.15c-5.4,2.5-11,8.13-15.64,13.92"/><line class="cls-6" x1="107.43" y1="265.81" x2="130.55" y2="249.97"/><path class="cls-5" d="M59.78,352.22,17,337.27a44.85,44.85,0,0,1,26.15-27Z"/><circle class="cls-2" cx="59.26" cy="352.06" r="31.24"/><polyline class="cls-2" points="70.42 370.1 80.29 362.44 90.17 370.1 100.04 362.44 109.92 370.1 119.8 362.44"/><path class="cls-4" d="M13.08,297.77a6.54,6.54,0,1,1-6.54-6.54A6.54,6.54,0,0,1,13.08,297.77Z"/><circle class="cls-2" cx="435.07" cy="204.32" r="7.57"/><line class="cls-2" x1="468.16" y1="226.34" x2="480.58" y2="238.77"/><line class="cls-2" x1="468.16" y1="238.77" x2="480.58" y2="226.34"/><path class="cls-5" d="M409.74,299.26q-3.66-.83-9.72.75l-.14.07-4.64-8.81a17.14,17.14,0,0,1,8.13-.81l.78-5.92a22.13,22.13,0,0,0-11.6,1.62l-1.26-2.39-3,1.58,1.23,2.34a13.07,13.07,0,0,0-5.9,6.7,9.71,9.71,0,0,0,.66,8.13c1.42,2.7,3.32,4.31,5.68,4.82s5.53.26,9.51-.76l4.79,9.09a18.35,18.35,0,0,1-10.26.2l-1.27,5.88a23,23,0,0,0,14.22-1l1.8,3.43,3-1.58L410,319.25a13.66,13.66,0,0,0,6.21-6.86,9.63,9.63,0,0,0-.61-8.21Q413.41,300.08,409.74,299.26Zm-13.31,1.56a10.67,10.67,0,0,1-4.48.11,3.72,3.72,0,0,1-2.25-2,3.81,3.81,0,0,1-.19-3.25,6.37,6.37,0,0,1,2.66-3Zm13.77,10.23a7.38,7.38,0,0,1-2.87,3.19l-4.44-8.44a11.41,11.41,0,0,1,4.79-.22,4.09,4.09,0,0,1,2.52,5.47Z"/><path class="cls-6" d="M146.9,46.58a8.85,8.85,0,0,1-6.55-.66"/></g></g></svg>