<svg xmlns="http://www.w3.org/2000/svg" viewBox="0 0 511.53 655.6"><defs><style>.cls-1,.cls-6{fill:none;stroke:#323433;stroke-linecap:round;stroke-linejoin:round;}.cls-1{stroke-width:1.74px;}.cls-2{fill:#52cca7;}.cls-3{fill:#f0f0f0;}.cls-4{fill:#fff;}.cls-5{fill:#323433;}.cls-6{stroke-width:2.61px;}</style></defs><title>Asset 13</title><g id="Layer_2" data-name="Layer 2"><g id="graphic"><line class="cls-1" x1="232.4" y1="51.06" x2="443.06" y2="51.06"/><line class="cls-1" x1="232.4" y1="42.47" x2="443.06" y2="42.47"/><line class="cls-1" x1="270.19" y1="271.25" x2="360.22" y2="271.25"/><line class="cls-1" x1="266.76" y1="262.66" x2="361.49" y2="262.66"/><path class="cls-1" d="M245.06,154.69V51.06"/><line class="cls-1" x1="430.4" y1="51.06" x2="430.4" y2="197.45"/><path class="cls-1" d="M337.73.87a5.07,5.07,0,1,0,5.07,5.07A5.07,5.07,0,0,0,337.73.87Z"/><line class="cls-1" x1="299.92" y1="42.47" x2="333.53" y2="3.1"/><line class="cls-1" x1="375.54" y1="42.47" x2="341.93" y2="3.1"/><path class="cls-1" d="M364.5,111c-1.43-4.12-2.76-8.75-5.43-9.06-2.45-.29-3.19,3.4-6.27,3.56-5.45.29-7.62-11.11-13.06-11.23-5-.11-7.26,9.28-12.32,8.75-3.15-.34-3.53-4.1-6.15-4.22-5.71-.25-8.82,17.25-14.15,17.07-3.84-.13-5.11-9.29-8.86-9.18-4,.11-5,10.79-10.26,11.45-3.56.44-4.87-4.24-8.1-4-4.72.36-9.51,10.57-13.81,21.31"/><path class="cls-1" d="M413.82,146.91c-2.22-9-4.32-11.15-5.93-11.23-2.1-.11-3.2,3.32-5.4,3-3.58-.48-3.07-9.83-7.78-11.45-1.66-.57-2.94.17-4.26.91"/><rect class="cls-2" x="392.25" y="76.95" width="6.97" height="6.97"/><rect class="cls-2" x="378.91" y="76.95" width="6.97" height="6.97"/><rect class="cls-2" x="365.56" y="76.95" width="6.97" height="6.97"/><ellipse class="cls-3" cx="289.55" cy="615.22" rx="194.39" ry="40.38"/><polyline class="cls-1" points="348.08 359.91 363.26 360.74 366.24 375.65 381.42 376.48 384.41 391.38 399.59 392.21"/><line class="cls-1" x1="320.54" y1="323.85" x2="333.1" y2="335.46"/><line class="cls-1" x1="321.02" y1="335.94" x2="332.62" y2="323.37"/><path class="cls-2" d="M187,296.69c-8.63,2.31-17.55,4.81-27.12,7.65h0c-.41-2.22-.89-4.45-1.42-6.72C169.27,297.23,179,296.87,187,296.69Z"/><path class="cls-2" d="M124,248c-14.8-.41-26.33-2.48-36.67-4.15,2.73-15.92,6.07-31.28,10-49a29.42,29.42,0,0,1,20-21.7c10.57-3.26,20.39-6.09,30.07-8.58l-.15.31,17.09,32.6,14.49-21.66,24.57,9.12L186.39,156.3c7.13-1.19,14.56-2.28,22.5-3.28a50.66,50.66,0,0,1,29.58,5.23c15.79,8.15,28.13,15,40.33,22.07a282.23,282.23,0,0,0-17.51,39.17h0c-7-3.63-14.05-7.58-22.36-12.34,9.51,23.56,17.75,46.75,25.11,70.43-16.22,4-30.37,7.39-44,10.71l-5-6.89s12.8,2.75,13.41-3.05c.41-3.88-48-8.43-80-11-6.74-16.76-13.33-31.13-20.31-49.1C126.6,229.34,125.49,238.4,124,248Z"/><path class="cls-4" d="M390.39,106.3a12.93,12.93,0,0,1,2.09,9.38c-1,8.92-51.68,82.34-72.54,112.25a19.82,19.82,0,0,1-23.37,7.16,332.14,332.14,0,0,1-35.28-15.59h0a282.23,282.23,0,0,1,17.51-39.17c7.49,4.36,14.92,8.84,23.07,13.8a1,1,0,0,0,1.24-.19l40.71-46a19.73,19.73,0,0,0,5-13.05c0-6.87-.19-12.51-.75-19.39a2.3,2.3,0,0,1,4.15-1.54,37.52,37.52,0,0,1,5.23,10,1.81,1.81,0,0,0,3.16.51l16.64-21.93a4.53,4.53,0,0,1,4.85-1.62,19.36,19.36,0,0,1,3.13,1.16A13.4,13.4,0,0,1,390.39,106.3Z"/><path class="cls-4" d="M489.07,224.55l-50.35,50.78-30.21-64.82a71.58,71.58,0,0,1,80.56,14Z"/><path class="cls-5" d="M295.05,403.12a63.59,63.59,0,0,1-5.64,41c-25.26,49.88-45.93,95.72-59.14,128.61l-8.75-5.17-41.17-24.34-.06,0c21.26-41,40.08-76.61,58.31-109.92a25.09,25.09,0,0,0,2.2-18.67c-8.85-32.42-16-59.72-22.1-85.12-4.68,40.41-8.07,67.76-13.55,102.09a29.64,29.64,0,0,1-30.56,24.92c-48.44-2.07-87.51-.35-120.33,9.55l.48-10.14L57,408.16v-.08c36.07-.33,65.88-.41,97.78-.12a3.38,3.38,0,0,0,3.4-3.12s3.45-36.59,4.11-55.43c.61-17.63.26-31.1-2.36-45.07h0c9.57-2.84,18.49-5.34,27.12-7.65,5.11-.11,9.49-.15,13-.09a12.26,12.26,0,0,1,7.43,2.68l13.83,11a12.19,12.19,0,0,0,11.34,2.05l16.14-5.25a2.77,2.77,0,0,0,1.66-1.52,2.72,2.72,0,0,0,0-2.25,3.8,3.8,0,0,0-3.74-2.16l-14.18,1.14a3.76,3.76,0,0,1-3.35-1.54l-9-12.44c13.59-3.32,27.74-6.68,44-10.71C276.23,316.83,286,357.4,295.05,403.12Z"/><path class="cls-2" d="M186.39,156.3l17.06,28.61-24.57-9.12c4.63-9.2,5.49-14.61,4.63-24.32l2.88,4.83Z"/><path class="cls-4" d="M183.51,151.47c.86,9.71,0,15.12-4.63,24.32-12.95-3.45-19.87-10.06-25.13-24l-2.91-17.09c5.95,9,16.26,19.31,31.52,16.95C182.75,151.61,183.13,151.54,183.51,151.47Z"/><path class="cls-5" d="M185.65,67.87a12,12,0,0,1,5.86,10.31,12.9,12.9,0,0,1-12.39,12.9c-4.71.19-10.32.58-19.12.28a7.88,7.88,0,0,0-7.4,11.25l4.11,8.69c-.24-.14-9.37-5.4-14.06-3.23L138.19,96.2a14.25,14.25,0,0,1,7-17.78c10.41-5.19,21.53-7,28.61-10.79A12,12,0,0,1,185.65,67.87Z"/><path class="cls-4" d="M32.61,465.77c-6.75,9.87-14,27.5-21.92,26.93l8.69-84.22c13.39-.16,25.83-.29,37.59-.4v.08l-2.23,47.78A49.46,49.46,0,0,0,45,457.1a20.54,20.54,0,0,0-8.1,3.6A23.87,23.87,0,0,0,32.61,465.77Z"/><path class="cls-2" d="M489.07,224.55a71.5,71.5,0,1,1-109.95,11.27h0l59.6,39.51Z"/><path class="cls-5" d="M233.38,623.73l-2.45,4a5,5,0,0,1-7.08,1.55L157.71,585a3.39,3.39,0,0,1-1.08-4.48l1.51-2.72a3.39,3.39,0,0,1,4.89-1.16Z"/><path class="cls-5" d="M16.07,404.69a3.4,3.4,0,0,1,3.31,3.79L10.69,492.7,6,492.4a5,5,0,0,1-4.68-5.54L9.5,407.68A3.41,3.41,0,0,1,13,404.63Z"/><path class="cls-2" d="M178.88,175.79l-14.49,21.66-17.09-32.6.15-.31,6.3-12.74C159,165.73,165.93,172.34,178.88,175.79Z"/><path class="cls-5" d="M408.51,210.51l30.21,64.82-59.6-39.51A71.78,71.78,0,0,1,408.51,210.51Z"/><path class="cls-4" d="M156.71,111.3l-4.11-8.69A7.88,7.88,0,0,1,160,91.36c8.8.3,14.41-.09,19.12-.28a12.9,12.9,0,0,0,7-2.38c2.92,7.45,4.61,19.81,5.53,29.38h0c-7.23.58-16,2.75-25.84,6.11a3.39,3.39,0,0,1-3.25-.62,35.8,35.8,0,0,1-6.42-7.22l-7.71,4h0l-.11-.64s-10.66-2.24-7.86-9.26a4.33,4.33,0,0,1,2.22-2.39C147.34,105.9,156.47,111.16,156.71,111.3Zm27.61-3.72c.8-.13,1.25-1.34,1-2.7s-1-2.35-1.84-2.21-1.25,1.33-1,2.69S183.53,107.71,184.32,107.58Zm-17.4,3.76c.79-.14,1.25-1.34,1-2.7s-1.05-2.35-1.83-2.22-1.25,1.34-1,2.7S166.13,111.47,166.92,111.34Z"/><path class="cls-4" d="M87.31,243.83c10.34,1.67,21.87,3.74,36.67,4.15-.86,5.44-1.85,11-3.12,17.29,0,0,11.83.79,27.65,2.07,32,2.59,80.4,7.14,80,11-.61,5.8-13.41,3.05-13.41,3.05l5,6.89,9,12.44a3.76,3.76,0,0,0,3.35,1.54l14.18-1.14a3.8,3.8,0,0,1,3.74,2.16,2.72,2.72,0,0,1,0,2.25,2.77,2.77,0,0,1-1.66,1.52l-16.14,5.25a12.19,12.19,0,0,1-11.34-2.05l-13.83-11A12.26,12.26,0,0,0,200,296.6c-3.47-.06-7.85,0-13,.09-8,.18-17.76.54-28.55.93-16.74.62-35.94,1.32-54.82,1.63a20.67,20.67,0,0,1-20.89-22.89C84,264.75,85.54,254.18,87.31,243.83Z"/><path class="cls-5" d="M191.62,118.08c.24.42,16.31,28.69-8.11,33.39-.38.07-.76.14-1.15.19-15.26,2.36-25.57-7.93-31.52-16.95h0l-2.44-14.34h0l7.71-4a35.8,35.8,0,0,0,6.42,7.22,3.39,3.39,0,0,0,3.25.62C175.67,120.83,184.39,118.66,191.62,118.08Z"/><path class="cls-4" d="M217.23,584.4a10.79,10.79,0,0,0,.17,1.16,23.76,23.76,0,0,0,2.45,6.2c5.56,10.58,17.76,25.21,13.53,32L163,576.62q8.91-17.31,17.26-33.39l.06,0,41.17,24.34a50,50,0,0,0-3.51,9.11A22.16,22.16,0,0,0,217.23,584.4Z"/><path class="cls-5" d="M168.38,108.57c.29,1.77-.31,3.34-1.33,3.51s-2.1-1.12-2.4-2.89.31-3.34,1.33-3.51S168.08,106.8,168.38,108.57Z"/><path class="cls-5" d="M185.78,104.81c.29,1.77-.3,3.34-1.33,3.51s-2.11-1.12-2.4-2.89.31-3.34,1.34-3.51S185.49,103.05,185.78,104.81Z"/><path class="cls-6" d="M379.12,235.82a71.42,71.42,0,1,0,29.39-25.31,71.15,71.15,0,0,0-29.39,25.31"/><polyline class="cls-6" points="489.07 224.55 438.72 275.33 379.12 235.82 379.12 235.82"/><line class="cls-6" x1="438.72" y1="275.33" x2="408.51" y2="210.51"/><path class="cls-6" d="M238.93,207.16c8.31,4.76,15.35,8.71,22.36,12.34a332.14,332.14,0,0,0,35.28,15.59,19.82,19.82,0,0,0,23.37-7.16C340.8,198,391.47,124.6,392.48,115.68a12.93,12.93,0,0,0-2.09-9.38,13.4,13.4,0,0,0-5.2-4.18,19.36,19.36,0,0,0-3.13-1.16,4.53,4.53,0,0,0-4.85,1.62l-16.64,21.93a1.81,1.81,0,0,1-3.16-.51,37.52,37.52,0,0,0-5.23-10A2.3,2.3,0,0,0,348,115.5c.56,6.88.75,12.52.75,19.39a19.73,19.73,0,0,1-5,13.05l-40.71,46a1,1,0,0,1-1.24.19c-8.15-5-15.58-9.44-23.07-13.8-12.2-7.11-24.54-13.92-40.33-22.07A50.66,50.66,0,0,0,208.89,153c-7.94,1-15.37,2.09-22.5,3.28"/><path class="cls-6" d="M19.38,408.48c13.39-.16,25.83-.29,37.59-.4,36.07-.33,65.88-.41,97.78-.12a3.38,3.38,0,0,0,3.4-3.12s3.45-36.59,4.11-55.43c.61-17.63.26-31.1-2.36-45.07-.41-2.22-.89-4.45-1.42-6.72"/><path class="cls-6" d="M148.51,267.34c-6.74-16.76-13.33-31.13-20.31-49.1-1.6,11.1-2.71,20.16-4.22,29.74-.86,5.44-1.85,11-3.12,17.29,0,0,11.83.79,27.65,2.07,32,2.59,80.4,7.14,80,11-.61,5.8-13.41,3.05-13.41,3.05l5,6.89,9,12.44a3.76,3.76,0,0,0,3.35,1.54l14.18-1.14a3.8,3.8,0,0,1,3.74,2.16,2.72,2.72,0,0,1,0,2.25,2.77,2.77,0,0,1-1.66,1.52l-16.14,5.25a12.19,12.19,0,0,1-11.34-2.05l-13.83-11A12.26,12.26,0,0,0,200,296.6c-3.47-.06-7.85,0-13,.09-8,.18-17.76.54-28.55.93-16.74.62-35.94,1.32-54.82,1.63a20.67,20.67,0,0,1-20.89-22.89c1.25-11.61,2.77-22.18,4.54-32.53,2.73-15.92,6.07-31.28,10-49a29.42,29.42,0,0,1,20-21.7c10.57-3.26,20.39-6.09,30.07-8.58"/><path class="cls-6" d="M191.62,118.08c-7.23.58-16,2.75-25.84,6.11a3.39,3.39,0,0,1-3.25-.62,35.8,35.8,0,0,1-6.42-7.22l-7.71,4"/><path class="cls-6" d="M186.09,88.7c2.92,7.45,4.61,19.81,5.53,29.38"/><path class="cls-6" d="M191.62,118.08h0c.24.42,16.31,28.69-8.11,33.39-.38.07-.76.14-1.15.19-15.26,2.36-25.57-7.93-31.52-16.95"/><path class="cls-6" d="M176,103.51c.58,6.33,2.21,9.48,5.26,12.9a1.81,1.81,0,0,1,.44,1.53,1.91,1.91,0,0,1-1,1.31,21,21,0,0,1-3.84,1.54"/><path class="cls-6" d="M156.71,111.3h0c-.24-.14-9.37-5.4-14.06-3.23a4.33,4.33,0,0,0-2.22,2.39c-2.8,7,7.86,9.26,7.86,9.26l.11.64,2.44,14.34h0l2.91,17.09-6.3,12.74-.15.31,17.09,32.6,14.49-21.66,24.57,9.12L186.39,156.3h0l-2.88-4.83c.86,9.71,0,15.12-4.63,24.32"/><path class="cls-6" d="M142.65,108.07,138.19,96.2a14.25,14.25,0,0,1,7-17.78c10.41-5.19,21.53-7,28.61-10.79a12,12,0,0,1,17.71,10.55,12.9,12.9,0,0,1-12.39,12.9c-4.71.19-10.32.58-19.12.28a7.88,7.88,0,0,0-7.4,11.25l4.11,8.69"/><path class="cls-6" d="M153.75,151.8c5.26,13.93,12.18,20.54,25.13,24"/><path class="cls-6" d="M234.12,195.47q2.46,5.86,4.81,11.69c9.51,23.56,17.75,46.75,25.11,70.43,12.19,39.24,21.95,79.81,31,125.53a63.59,63.59,0,0,1-5.64,41c-25.26,49.88-45.93,95.72-59.14,128.61l-8.75-5.17-41.17-24.34"/><path class="cls-6" d="M57,408.16l-2.23,47.78-.48,10.14c32.82-9.9,71.89-11.62,120.33-9.55a29.64,29.64,0,0,0,30.56-24.92c5.48-34.33,8.87-61.68,13.55-102.09,6.14,25.4,13.25,52.7,22.1,85.12a25.09,25.09,0,0,1-2.2,18.67c-18.23,33.31-37,68.93-58.31,109.92q-8.35,16.11-17.26,33.39"/><path class="cls-6" d="M221.52,567.6a50,50,0,0,0-3.51,9.11,22.16,22.16,0,0,0-.78,7.69,10.79,10.79,0,0,0,.17,1.16,23.76,23.76,0,0,0,2.45,6.2c5.56,10.58,17.76,25.21,13.53,32l-2.45,4a5,5,0,0,1-7.08,1.55L157.71,585a3.39,3.39,0,0,1-1.08-4.48l1.51-2.72a3.39,3.39,0,0,1,4.89-1.16l70.35,47.11"/><line class="cls-6" x1="211.5" y1="575.67" x2="218.01" y2="576.71"/><line class="cls-6" x1="210.59" y1="584.35" x2="217.23" y2="584.4"/><line class="cls-6" x1="213.57" y1="593.68" x2="219.85" y2="591.76"/><path class="cls-6" d="M54.74,455.94A49.46,49.46,0,0,0,45,457.1a20.54,20.54,0,0,0-8.1,3.6,23.87,23.87,0,0,0-4.33,5.07c-6.75,9.87-14,27.5-21.92,26.93L6,492.4a5,5,0,0,1-4.68-5.54L9.5,407.68A3.41,3.41,0,0,1,13,404.63l3.11.06a3.4,3.4,0,0,1,3.31,3.79L10.69,492.7"/><line class="cls-6" x1="42.91" y1="450.86" x2="45.04" y2="457.1"/><line class="cls-6" x1="34.82" y1="454.12" x2="37.87" y2="460.01"/><line class="cls-6" x1="27.97" y1="461.12" x2="32.61" y2="465.77"/><path class="cls-6" d="M87.31,243.83c10.34,1.67,21.87,3.74,36.67,4.15h0"/><path class="cls-6" d="M278.8,180.32a282.23,282.23,0,0,0-17.51,39.17"/><path class="cls-6" d="M159.91,304.34c9.57-2.84,18.49-5.34,27.12-7.65"/><path class="cls-6" d="M220.08,288.3c13.59-3.32,27.74-6.68,44-10.71"/><path class="cls-6" d="M368,127.37s9.7-13.82,17.2-25.25"/><path class="cls-6" d="M372.58,132.47s10.24-14.58,17.81-26.17"/><rect class="cls-1" x="453.63" y="392.36" width="10.91" height="10.91" transform="translate(-146.84 441.14) rotate(-45)"/><path class="cls-5" d="M410.25,427.62a6.79,6.79,0,1,0-6.78,6.78A6.79,6.79,0,0,0,410.25,427.62Z"/></g></g></svg>