<svg xmlns="http://www.w3.org/2000/svg" viewBox="0 0 514.62 565.24"><defs><style>.cls-1{fill:#f0f0f0;}.cls-2{fill:#fff;}.cls-3{fill:#323433;}.cls-4{fill:#52cca7;}.cls-5,.cls-6{fill:none;stroke:#323433;stroke-linecap:round;stroke-linejoin:round;}.cls-5{stroke-width:2.61px;}.cls-6{stroke-width:1.74px;}</style></defs><title>Asset 19</title><g id="Layer_2" data-name="Layer 2"><g id="graphic"><circle class="cls-1" cx="350.37" cy="358.32" r="149.52" transform="translate(-150.75 352.7) rotate(-45)"/><polygon class="cls-2" points="97.32 397.66 87.35 372.35 110.73 363.14 168.73 510.35 145.35 519.56 135.38 494.25 97.32 397.66"/><path class="cls-2" d="M508.83,285.91a6.57,6.57,0,0,1,3.68,9.37,447.24,447.24,0,0,1-40.06,62l-35.24-89.43A448.73,448.73,0,0,1,508.83,285.91Z"/><path class="cls-2" d="M374,354.12A54.17,54.17,0,0,1,280.26,401c2.68-1.39,5.54-2.86,8.53-4.38a44.93,44.93,0,0,0,76.61-38.21Z"/><path class="cls-2" d="M330.1,320.59l-1.17.52a45,45,0,0,0-45.83,20.12l-13,5.73a54,54,0,0,1,31.09-32l.68-.27C310.78,316.6,320,318.48,330.1,320.59Z"/><path class="cls-2" d="M298.74,229.31c3.39,7.42,7.07,14.93,11.17,22.83-13.46-5.24-27-10.19-41.39-15h0a96.63,96.63,0,0,1,1.19-19.2,74.39,74.39,0,0,1,12.39-30.49c5.17,15,10.42,28.28,16.64,41.89Z"/><path class="cls-2" d="M458.84,101.75h28.89c-18.33,10.44-31.5,17.48-50.1,24a46.25,46.25,0,0,0-13.39,7.42c-19.93,15.79-31.61,29.61-55.46,49.33a21.31,21.31,0,0,1-25.24,1.42c-14.23-9.32-25.81-16.91-38.47-25.9-2.89-2-5.83-4.17-8.88-6.4l24.86-33.58c1.34,1.09,2.56,2.08,3.65,2.92,10.55,8.09,31.52,24.42,31.52,24.42,26.08-16.23,50.55-28.81,67.37-39.22a23.8,23.8,0,0,0,5.26-4.43h0a21.19,21.19,0,0,0,1.62-2l5.42-7.59a3.3,3.3,0,0,1,6,2.26l-.76,7.36Z"/><path class="cls-2" d="M321.05,118.06l-24.86,33.58c-2.2-1.62-4.44-3.28-6.76-5h0l25.13-33.95C316.93,114.64,319.11,116.47,321.05,118.06Z"/><path class="cls-2" d="M316.79,51.35a1.08,1.08,0,0,1-.45,1.74c-1.91.66-3.49,1.22-5.1,1.85-.19,2.75-.41,5.41-.63,7.88a11.11,11.11,0,0,1-10.1,10.11l-11.46,1s-.88,9.12-1.75,18.5c-9.74-5.84-19.61-9.75-27.81-8.38l2.45-9.2a18.36,18.36,0,0,0,.61-5.14h0c2.19-11.47,7.88-15.08,16.62-22.07-1.75-5.28-3-11.09-.89-12.91,3.81-3.29,6.42.8,9.81,5.15.75-.72,1.52-1.47,2.29-2.26a115.71,115.71,0,0,0,15.15-18.87c3.11,3,4.76,8.1,5.55,14.08.32,2.44.49,5,.57,7.7a12.33,12.33,0,0,0,1.15,5A22.87,22.87,0,0,0,316.79,51.35Zm-14.7-8.17c0-1.53-.69-2.77-1.55-2.77S299,41.65,299,43.18s.69,2.77,1.54,2.77S302.09,44.71,302.09,43.18Z"/><path class="cls-2" d="M246.8,18.48a9.83,9.83,0,0,0-1.72,2.79c-3.1,8.27-1.87,15.64,3,23.75a45.28,45.28,0,0,0-10,2.22c-4.55-8.76-6.31-18.41-2.19-29.4a17.73,17.73,0,0,1,2-3.77A41.87,41.87,0,0,1,246.8,18.48Z"/><path class="cls-3" d="M255.35,409.93,244.57,415c-9.3,4.76,6.87,35.5-11.73,52.56L207.7,406.17a30.9,30.9,0,0,0,7.21-35L235.74,362Z"/><path class="cls-3" d="M135.22,314.2c11.19,4.3,21.69,8.25,33.65,14.34q-21.62,12-44.55,26.12c-3.54-20.83-58-23.39-58-23.39,20.59-8.95,35.54-15,54.46-18.43A26.88,26.88,0,0,1,135.22,314.2Z"/><path class="cls-3" d="M234.85,496c-4.59,12.62-9.58,22.67-14.83,33.44a26.83,26.83,0,0,1-9.62,10.83c-16.19,10.37-31.23,16.17-52.39,23.67.5-.53,38-39.12,26.45-56.64Q210.91,502,234.85,496Z"/><polygon class="cls-2" points="97.32 397.66 135.38 494.25 120.77 495.85 85.55 406.46 97.32 397.66"/><path class="cls-4" d="M235.74,362l-20.83,9.15-23.5,10.32a5.35,5.35,0,0,0-2.8,6.92l33.11,80.89a4.21,4.21,0,0,0,6.06,2,31.49,31.49,0,0,0,5.06-3.75c18.6-17.06,2.43-47.8,11.73-52.56l10.78-5.1,1.65,4c4-2.73,12.26-7.25,23.26-13A54.17,54.17,0,0,0,374,354.12l8.06-4.05a37.63,37.63,0,0,0-1.43-68.67c-13.16-5.57-25.32-10.74-37-15.6h0a324.91,324.91,0,0,1,60.41-1.66q16.43,1,33.16,3.74l35.24,89.43C417.07,428.47,344.84,468.41,234.85,496q-24,6-50.39,11.3-7.76,1.54-15.73,3.06l-58-147.21q6.85-4.33,13.59-8.48,23-14.18,44.55-26.12c19.51-10.79,38.28-20.22,56.52-28.32a70.84,70.84,0,0,0,10.68-3.37,584.42,584.42,0,0,0,65.77,17.82l-.68.27a54,54,0,0,0-31.09,32Z"/><path class="cls-3" d="M289.43,146.62h0c2.32,1.74,4.56,3.4,6.76,5,3.05,2.23,6,4.35,8.88,6.4h0c-6.51,10-15.52,18.43-23,29.38a74.39,74.39,0,0,0-12.39,30.49l-63.06-17.33c.4-.77.78-1.54,1.12-2.31C240.61,125,224.66,99.67,255,85.46a17.59,17.59,0,0,1,4.49-1.39c8.2-1.37,18.07,2.54,27.81,8.38h0c9.84,5.91,19.55,13.8,27.26,20.21Z"/><path class="cls-4" d="M496.12,64.47V95.72a6,6,0,0,1-6,6H458.84A37.28,37.28,0,0,0,496.12,64.47Z"/><path class="cls-2" d="M496.12,33.21V64.47a37.28,37.28,0,0,1-37.28,37.28H441.1l.76-7.36a3.3,3.3,0,0,0-6-2.26l-5.42,7.59a21.19,21.19,0,0,1-1.62,2h-1.27a6,6,0,0,1-6-6V64.47a37.29,37.29,0,0,1,37.28-37.29H490.1A6,6,0,0,1,496.12,33.21ZM468.69,68.57l10.31-9-13.64-1.23L460,45.74l-5.39,12.59L441,59.56l10.3,9-3,13.35,11.76-7,11.75,7Z"/><polygon class="cls-3" points="479 59.56 468.69 68.57 471.73 81.92 459.98 74.9 448.22 81.92 451.26 68.57 440.96 59.56 454.59 58.33 459.98 45.74 465.36 58.33 479 59.56"/><path class="cls-4" d="M427.58,27.18h31.26a37.29,37.29,0,0,0-37.28,37.29V33.21A6,6,0,0,1,427.58,27.18Z"/><path class="cls-2" d="M404,262l.09,2.15a324.91,324.91,0,0,0-60.41,1.66h0c-11.55-4.81-22.62-9.33-33.73-13.66-4.1-7.9-7.78-15.41-11.17-22.83,29.54,2.67,55.13,5.27,84.54,9.67A24.27,24.27,0,0,1,404,262Z"/><path class="cls-2" d="M365.4,358.42c-27.36,13.65-55.5,27.45-76.61,38.21-3,1.52-5.85,3-8.53,4.38-11,5.71-19.26,10.23-23.26,13l-1.65-4L235.74,362,270.07,347l13-5.73,45.83-20.12,1.17-.52c-10.11-2.11-19.32-4-28.26-5.92a584.42,584.42,0,0,1-65.77-17.82,70.84,70.84,0,0,1-10.68,3.37c-33.21,7.51-50.17-18-42.72-53.57,4.49-21.44,17.52-33.66,24-46.07l63.06,17.33a96.63,96.63,0,0,0-1.19,19.2h0c14.42,4.84,27.93,9.79,41.39,15,11.11,4.33,22.18,8.85,33.73,13.66s23.84,10,37,15.6a37.63,37.63,0,0,1,1.43,68.67L374,354.12Z"/><path class="cls-3" d="M365.4,358.42a44.93,44.93,0,0,1-76.61,38.21C309.9,385.87,338,372.07,365.4,358.42Z"/><path class="cls-3" d="M328.93,321.11,283.1,341.23a45,45,0,0,1,45.83-20.12Z"/><path class="cls-3" d="M314.6,8.9c5.5,6.8,2,15.28-3.52,23.94h0c-.79-6-2.44-11.07-5.55-14.08a115.71,115.71,0,0,1-15.15,18.87c-.77.79-1.54,1.54-2.29,2.26-3.39-4.35-6-8.44-9.81-5.15-2.11,1.82-.86,7.63.89,12.91-8.74,7-14.43,10.6-16.62,22.07a18.56,18.56,0,0,0-4.72-11.93A86.22,86.22,0,0,1,248.08,45c-4.87-8.11-6.1-15.48-3-23.75a9.83,9.83,0,0,1,1.72-2.79C257.14,6.28,303.05-7.67,314.6,8.9Z"/><path class="cls-3" d="M300.54,40.41c.86,0,1.55,1.24,1.55,2.77S301.4,46,300.54,46,299,44.71,299,43.18,299.69,40.41,300.54,40.41Z"/><path class="cls-3" d="M238.09,47.24a29.93,29.93,0,0,0-11.5,7.09c-11.17,11.25-5.7,25.43-16.6,33.19-11.92,8.5-23.89-4.61-37.56,2.92-16.39,9-8.13,32.76-24.75,43.09-13.13,8.16-22.42-4.07-42.81,3.5-18.54,6.87-19.41,20.16-32,20.38-14.48.26-28.11-17-32.62-32.32-5-17.12-.6-38.44,12.82-49.8,17.82-15.08,35.25,1.19,60.27-13.39,22.31-13,19.46-32.31,38.44-36.4,17.41-3.76,24.88,11.4,42.81,6.11,14.93-4.4,17-17,30.87-18.92a26.81,26.81,0,0,1,12.45,1.38,17.73,17.73,0,0,0-2,3.77C231.78,28.83,233.54,38.48,238.09,47.24Z"/><path class="cls-2" d="M207.7,406.17l25.14,61.42a31.49,31.49,0,0,1-5.06,3.75,4.21,4.21,0,0,1-6.06-2l-33.11-80.89a5.35,5.35,0,0,1,2.8-6.92l23.5-10.32a30.9,30.9,0,0,1-7.21,35Z"/><path class="cls-5" d="M235.7,361.93l0,.1,19.61,47.9,1.65,4c4-2.73,12.26-7.25,23.26-13,2.68-1.39,5.54-2.86,8.53-4.38,21.11-10.76,49.25-24.56,76.61-38.21l8.61-4.3,8.06-4.05a37.63,37.63,0,0,0-1.43-68.67c-13.16-5.57-25.32-10.74-37-15.6s-22.62-9.33-33.73-13.66c-13.46-5.24-27-10.19-41.39-15-7-2.34-14.15-4.65-21.65-7"/><path class="cls-5" d="M287.3,92.45c-9.74-5.84-19.61-9.75-27.81-8.38A17.59,17.59,0,0,0,255,85.46C224.66,99.67,240.61,125,207.77,198.27c-.34.77-.72,1.54-1.12,2.31-6.46,12.41-19.49,24.63-24,46.07-7.45,35.61,9.51,61.08,42.72,53.57a70.84,70.84,0,0,0,10.68-3.37,584.42,584.42,0,0,0,65.77,17.82c8.94,1.93,18.15,3.81,28.26,5.92l-1.17.52L283.1,341.23l-13,5.73L235.74,362l-20.83,9.15-23.5,10.32a5.35,5.35,0,0,0-2.8,6.92l33.11,80.89a4.21,4.21,0,0,0,6.06,2,31.49,31.49,0,0,0,5.06-3.75c18.6-17.06,2.43-47.8,11.73-52.56l10.78-5.1"/><path class="cls-5" d="M428.85,101.75a23.8,23.8,0,0,1-5.26,4.43c-16.82,10.41-41.29,23-67.37,39.22,0,0-21-16.33-31.52-24.42-1.09-.84-2.31-1.83-3.65-2.92-1.94-1.59-4.12-3.42-6.49-5.39-7.71-6.41-17.42-14.3-27.26-20.21"/><path class="cls-5" d="M428.85,101.75h-1.27a6,6,0,0,1-6-6V33.21a6,6,0,0,1,6-6H490.1a6,6,0,0,1,6,6V95.72a6,6,0,0,1-6,6h-49l.76-7.36a3.3,3.3,0,0,0-6-2.26l-5.42,7.59a21.19,21.19,0,0,1-1.62,2"/><path class="cls-5" d="M289.43,146.62c2.32,1.74,4.56,3.4,6.76,5,3.05,2.23,6,4.35,8.88,6.4,12.66,9,24.24,16.58,38.47,25.9a21.31,21.31,0,0,0,25.24-1.42c23.85-19.72,35.53-33.54,55.46-49.33a46.25,46.25,0,0,1,13.39-7.42c18.6-6.54,31.77-13.58,50.1-24"/><path class="cls-5" d="M285.63,143.76c1.29,1,2.55,1.93,3.8,2.86"/><path class="cls-5" d="M268.52,237.11a96.63,96.63,0,0,1,1.19-19.2,74.39,74.39,0,0,1,12.39-30.49c7.45-10.95,16.46-19.35,23-29.38"/><line class="cls-5" x1="206.65" y1="200.58" x2="269.71" y2="217.91"/><path class="cls-5" d="M458.84,27.18a37.29,37.29,0,0,0-37.28,37.29"/><path class="cls-5" d="M458.84,101.75a37.28,37.28,0,0,0,37.28-37.28"/><path class="cls-5" d="M262.55,69.72a18.56,18.56,0,0,0-4.72-11.93A86.22,86.22,0,0,1,248.08,45c-4.87-8.11-6.1-15.48-3-23.75a9.83,9.83,0,0,1,1.72-2.79c10.34-12.2,56.25-26.15,67.8-9.58,5.5,6.8,2,15.28-3.52,23.94"/><path class="cls-5" d="M259.49,84.07l2.45-9.2a18.36,18.36,0,0,0,.61-5.14"/><path class="cls-5" d="M238.09,47.24c-4.55-8.76-6.31-18.41-2.19-29.4a17.73,17.73,0,0,1,2-3.77"/><path class="cls-5" d="M287.3,92.46h0c.87-9.38,1.75-18.5,1.75-18.5l11.46-1a11.11,11.11,0,0,0,10.1-10.11c.22-2.47.44-5.13.63-7.88,1.61-.63,3.19-1.19,5.1-1.85a1.08,1.08,0,0,0,.45-1.74,22.87,22.87,0,0,1-4-5.85,12.33,12.33,0,0,1-1.15-5c-.08-2.66-.25-5.26-.57-7.7-.79-6-2.44-11.07-5.55-14.08a115.71,115.71,0,0,1-15.15,18.87c-.77.79-1.54,1.54-2.29,2.26-3.39-4.35-6-8.44-9.81-5.15-2.11,1.82-.86,7.63.89,12.91-8.74,7-14.43,10.6-16.62,22.07h0"/><path class="cls-5" d="M246.8,18.48a41.87,41.87,0,0,0-8.92-4.41,26.81,26.81,0,0,0-12.45-1.38c-13.89,1.89-15.94,14.52-30.87,18.92-17.93,5.29-25.4-9.87-42.81-6.11-19,4.09-16.13,23.41-38.44,36.4C88.29,76.48,70.86,60.21,53,75.29,39.62,86.65,35.2,108,40.22,125.09c4.51,15.36,18.14,32.58,32.62,32.32,12.62-.22,13.49-13.51,32-20.38,20.39-7.57,29.68,4.66,42.81-3.5C164.3,123.2,156,99.45,172.43,90.44,186.1,82.91,198.07,96,210,87.52c10.9-7.76,5.43-21.94,16.6-33.19a29.93,29.93,0,0,1,11.5-7.09,45.28,45.28,0,0,1,10-2.22"/><path class="cls-5" d="M302.09,43.18c0,1.53-.69,2.77-1.55,2.77S299,44.71,299,43.18s.69-2.77,1.54-2.77S302.09,41.65,302.09,43.18Z"/><line class="cls-5" x1="296.19" y1="151.64" x2="321.05" y2="118.06"/><polyline class="cls-5" points="289.43 146.62 289.43 146.62 314.56 112.67"/><path class="cls-5" d="M298.74,229.31c29.54,2.67,55.13,5.27,84.54,9.67A24.27,24.27,0,0,1,404,262l.09,2.15"/><path class="cls-5" d="M282.1,187.42c5.17,15,10.42,28.28,16.64,41.89h0c3.39,7.42,7.07,14.93,11.17,22.83"/><path class="cls-5" d="M225.39,300.22c-18.24,8.1-37,17.53-56.52,28.32q-21.62,12-44.55,26.12-6.73,4.14-13.59,8.48l-23.38,9.21,10,25.31,38.06,96.59,10,25.31,23.38-9.21q8-1.52,15.73-3.06Q210.91,502,234.85,496c110-27.58,182.22-67.52,237.6-138.68a447.24,447.24,0,0,0,40.06-62,6.57,6.57,0,0,0-3.68-9.37,448.73,448.73,0,0,0-71.62-18q-16.75-2.69-33.16-3.74a324.91,324.91,0,0,0-60.41,1.66"/><line class="cls-5" x1="110.73" y1="363.14" x2="168.73" y2="510.35"/><line class="cls-5" x1="437.21" y1="267.88" x2="472.45" y2="357.31"/><path class="cls-5" d="M328.93,321.11a45,45,0,0,0-45.83,20.12,1.4,1.4,0,0,1-.1.16"/><path class="cls-5" d="M288.73,396.56l.06.07a44.93,44.93,0,0,0,76.61-38.21"/><path class="cls-5" d="M168.87,328.54c-12-6.09-22.46-10-33.65-14.34a26.88,26.88,0,0,0-14.42-1.36c-18.92,3.46-33.87,9.48-54.46,18.43,0,0,54.44,2.56,58,23.39"/><path class="cls-5" d="M158,563.93c.5-.53,38-39.12,26.45-56.64"/><path class="cls-5" d="M234.85,496c-4.59,12.62-9.58,22.67-14.83,33.44a26.83,26.83,0,0,1-9.62,10.83c-16.19,10.37-31.23,16.17-52.39,23.67h0"/><polyline class="cls-5" points="135.38 494.25 120.77 495.85 85.55 406.46 97.32 397.66 97.32 397.66"/><path class="cls-6" d="M70.15,432l-21.64,8.53a18.87,18.87,0,0,0-34.34-1.71"/><path class="cls-6" d="M90.66,484.07,69,492.59A18.89,18.89,0,0,1,55.45,518"/><path class="cls-6" d="M81.14,459.92l-23.77,9.37a16.85,16.85,0,0,0-30.85,12.15L.87,491.55"/><path class="cls-5" d="M214.89,371.12l0,.06a30.9,30.9,0,0,1-7.21,35l25.14,61.42"/><polyline class="cls-6" points="421.4 188.72 427.42 175.76 441.47 178.36 447.5 165.4 461.55 168 467.57 155.04"/><line class="cls-6" x1="162.24" y1="164.03" x2="177.09" y2="177.75"/><line class="cls-6" x1="162.8" y1="178.32" x2="176.52" y2="163.46"/><path class="cls-4" d="M125.66,220.68a17.08,17.08,0,1,0,17.07,17.08A17.08,17.08,0,0,0,125.66,220.68Zm0,25.3a8.23,8.23,0,1,1,8.22-8.22A8.22,8.22,0,0,1,125.66,246Z"/><polygon class="cls-6" points="67.63 210.08 56.12 204.36 55.83 217.21 67.63 210.08"/></g></g></svg>