<svg xmlns="http://www.w3.org/2000/svg" viewBox="0 0 588.36 586.92"><defs><style>.cls-1{fill:#52cca7;}.cls-2{fill:#f0f0f0;}.cls-3,.cls-6{fill:none;stroke:#323433;stroke-linecap:round;stroke-linejoin:round;}.cls-3{stroke-width:1.74px;}.cls-4{fill:#fff;}.cls-5{fill:#323433;}.cls-6{stroke-width:2.61px;}</style></defs><title>Asset 20</title><g id="Layer_2" data-name="Layer 2"><g id="graphic"><path class="cls-1" d="M457.09,126.68l-7.6-4.25,2.29-4.1a10.85,10.85,0,0,1,2.88-3.65,17,17,0,0,1,4.72-1.91l7.66-2.16a6.82,6.82,0,0,0,3.88-3.31,6.5,6.5,0,0,0,.69-5,6.37,6.37,0,0,0-3.25-4,7,7,0,0,0-5.15-.81,7.33,7.33,0,0,0-4.34,3.1L450.73,96a15.8,15.8,0,0,1,9.92-6.77,17.1,17.1,0,0,1,11.89,2.18q6,3.34,7.93,8.71t-1.32,11.23a11.73,11.73,0,0,1-6,5.49,30.44,30.44,0,0,1-3.23,1.19c-.7.2-1.61.44-2.74.72s-2.1.54-2.9.77-1.46.43-2,.61a7.43,7.43,0,0,0-3.54,3.5Zm-12,12.89a6,6,0,0,1-2.86-3.5,5.27,5.27,0,0,1,.41-4.36,5.45,5.45,0,0,1,3.49-2.69,5.75,5.75,0,0,1,4.46.55,6,6,0,0,1,2.86,3.5,5.31,5.31,0,0,1-.41,4.36,5.51,5.51,0,0,1-3.49,2.69A5.75,5.75,0,0,1,445.08,139.57Z"/><ellipse class="cls-2" cx="294.18" cy="527.29" rx="294.18" ry="59.63"/><polyline class="cls-3" points="182.59 145.35 191.13 133.34 204.89 138.6 213.42 126.59 227.19 131.86 235.72 119.85"/><line class="cls-3" x1="17.05" y1="160" x2="31.31" y2="173.18"/><line class="cls-3" x1="17.59" y1="173.72" x2="30.77" y2="159.46"/><path class="cls-4" d="M337.11,317.33l-10.52,2.82h0l-9.26,2.49a7,7,0,0,1-8.66-5.25l-1.6-7.23-.76-3.41a25.21,25.21,0,0,1,.13-11.46c0-.14.06-.26.1-.39.93-3.77,2-7.09,3.12-10.56a24.93,24.93,0,0,1,2.38-5.06A24.28,24.28,0,0,1,325.26,269l16.18-5.16a24.26,24.26,0,0,1,24.25,5.66l34.18,33-1.71-11.31,54.57-7.76c5.88,30.31,10.16,54.48,15,81a28.56,28.56,0,0,1-27.84,33.76,28.26,28.26,0,0,1-8.51-1.22,102.82,102.82,0,0,1-17.67-7.11c-11.55-6-21.47-14.1-31.1-24.88l-11.24-45.44a35.12,35.12,0,0,0-20-23.69l2.76,8.81a7.56,7.56,0,0,1-5.25,9.57l-.25.07Z"/><path class="cls-5" d="M398.16,291.16l1.71,11.31-34.18-33a24.26,24.26,0,0,0-24.25-5.66L325.26,269A24.28,24.28,0,0,0,312,279.29a54.08,54.08,0,0,1-17.34-.74,5.33,5.33,0,0,0-4,9.6c5.35,3.81,9.81,5.84,15.85,6.76,0,.13-.07.25-.1.39a25.21,25.21,0,0,0-.13,11.46l.76,3.41A35.81,35.81,0,0,0,303.22,337L317.7,394.9a317.77,317.77,0,0,1-40.47-10.21c-15.67-52.81-27.7-96.81-35.93-141.44-14.26,4.42-28.25,8.75-42.61,13.07L183.54,199c13.91-4.69,27.89-9.86,43.29-15.45a103.69,103.69,0,0,1,43.54-5.87c8.85.71,17.54,1.4,26.16,2.12,2.41,16.87,11.31,36.11,34.83,38.68s38.05-22.27,38.65-31.5c10.3,1.2,20.89,2.52,31.94,4a46.83,46.83,0,0,1,39.54,36.81c4.44,21.21,8.07,39.32,11.24,55.65Z"/><path class="cls-4" d="M426.5,542.28v8.44a5.83,5.83,0,0,1-5.83,5.83H304.76a5.83,5.83,0,0,1-5.82-5.83v-3.46a12.49,12.49,0,0,1,.95-5Z"/><path class="cls-5" d="M414.31,493l12.19,49.29H299.89c4.23-9.91,21.64-10.79,34.63-19.26a30.45,30.45,0,0,0,11.8-13.6h58.75C405.07,502.54,409.16,496.65,414.31,493Zm-14,33.45a8.2,8.2,0,1,0-8.19,8.2A8.2,8.2,0,0,0,400.29,526.44Z"/><path class="cls-1" d="M348.68,314.22l.25-.07a7.56,7.56,0,0,0,5.25-9.57l-2.76-8.81a35.12,35.12,0,0,1,20,23.69l11.24,45.44,7.4,29.94,21.17,85.63L414.31,493c-5.15,3.66-9.24,9.55-9.24,16.43H346.32L330.48,446,317.7,394.9,303.22,337a35.81,35.81,0,0,1,3.83-26.79l1.6,7.23a7,7,0,0,0,8.66,5.25l9.26-2.49h0l10.52-2.82Z"/><path class="cls-1" d="M439.93,398.11h0a28.26,28.26,0,0,1-8.51-1.22,102.82,102.82,0,0,1-17.67-7.11c-11.55-6-21.47-14.1-31.1-24.88l7.4,29.94,21.17,85.63C451.45,467.64,453.1,427.48,439.93,398.11Z"/><path class="cls-4" d="M392.1,518.24a8.2,8.2,0,1,1-8.2,8.2A8.2,8.2,0,0,1,392.1,518.24Z"/><path class="cls-5" d="M371.5,74.79c8.81,11.61,28.92,16.69,22.92,34.23-4.83,14.14-24.78,40.25-39.87,57.31h0l1-26.57s17-7.81,16.44-14-20.15-2.57-20.15-2.57S372,106,369.06,98.39c0,0-19.27-9.11-30.81-21.13-.84-.87-1.64-1.76-2.38-2.65-10.08-12.17-9.54-31.81,13.67-25.16C362.37,53.13,368.36,70.64,371.5,74.79Z"/><path class="cls-4" d="M372,125.71c.56,6.24-16.44,14-16.44,14l-1,26.57-.71,18.79q8,.85,16.18,1.81c-.6,9.23-15.12,34.06-38.65,31.5s-32.42-21.81-34.83-38.68c4.94.41,9.85.83,14.77,1.26,1.75-8.87,3.28-17,4.53-24.26h0c11-1.65,22.08-6.13,34.84-13.78l-6.13-7.91s-18.06,16.64-24.83,5.69c-5.89-9.54.08-17.61-19.09-22.39h0A352.45,352.45,0,0,0,326.12,87c3.62-5,7.83-8.2,12.13-9.77,11.54,12,30.8,21.11,30.81,21.13,3,7.61-17.21,24.75-17.21,24.75S371.44,119.47,372,125.71Zm-32-11.77c1.51-1.8,1.84-4,.75-4.91s-3.19-.19-4.7,1.62-1.83,4-.74,4.91S338.47,115.74,340,113.94Z"/><path class="cls-5" d="M344.54,135.06l6.13,7.91c-12.76,7.65-23.8,12.13-34.84,13.78a67.93,67.93,0,0,1-15.7.48,16.11,16.11,0,0,1-10.37-27.12q5.44-5.78,10.86-11.75h0c19.17,4.78,13.2,12.85,19.09,22.39C326.48,151.7,344.54,135.06,344.54,135.06Z"/><path class="cls-5" d="M330.48,446l15.84,63.38a30.45,30.45,0,0,1-11.8,13.6l-.18-.27L318,513a13.58,13.58,0,0,0-5-1.79l-12.6-58.62Z"/><path class="cls-5" d="M340.72,109c1.09.91.76,3.11-.75,4.91s-3.6,2.52-4.69,1.62-.76-3.11.74-4.91S339.63,108.12,340.72,109Z"/><path class="cls-1" d="M300.4,452.55,313,511.17a13.55,13.55,0,0,0-4.95.21C256.38,523.27,220.27,531,175.8,538.12a44.25,44.25,0,0,1-29.11-82c47.28-27.38,85.09-48.51,130.54-71.44A317.77,317.77,0,0,0,317.7,394.9L330.48,446Z"/><path class="cls-4" d="M312,279.29a24.93,24.93,0,0,0-2.38,5.06c-1.16,3.47-2.19,6.79-3.12,10.56-6-.92-10.5-3-15.85-6.76a5.33,5.33,0,0,1,4-9.6A54.08,54.08,0,0,0,312,279.29Z"/><path class="cls-4" d="M229.52,34.07A48.69,48.69,0,0,1,140.06,72a47.8,47.8,0,0,1-2.56-6,48.69,48.69,0,0,1,92-31.87ZM195.62,85a37,37,0,1,0-47.07-22.85A37,37,0,0,0,195.62,85Z"/><path class="cls-4" d="M218.47,37.9A37,37,0,1,1,171.4,15,37,37,0,0,1,218.47,37.9Z"/><path class="cls-4" d="M183.54,199l15.15,57.37c-23.44,7.06-47.89,14.09-76.22,21.46a23.09,23.09,0,0,1-27.83-15.46c-17.2-55-27.69-94.83-40.35-158.81-.17-.84-.33-1.68-.5-2.52l1,3.56a6.08,6.08,0,0,0,8.93,3.66l5.77-3.35L82,97.56,95.37,89.8l6.8-4L120.79,79a20.3,20.3,0,0,1,5.6,5.7,2.92,2.92,0,0,1-2.25,4.57l-7.48.42a13.78,13.78,0,0,0-11.3,7.09L102.47,102a34.53,34.53,0,0,0-1.77,29.75l31.81,78.11a4.18,4.18,0,0,0,4.82,2.47C153.78,208.48,168.62,204,183.54,199Z"/><path class="cls-5" d="M140.06,72l-19.27,7-18.62,6.82,4.13-2.41A5.87,5.87,0,0,0,109,76.85L107,69l28.78-9.42a48.34,48.34,0,0,0,1.73,6.33A47.8,47.8,0,0,0,140.06,72Z"/><path class="cls-4" d="M95.37,89.8,82,97.56l-12.56,7.3-5.77,3.35a6.08,6.08,0,0,1-8.93-3.66l-1-3.56v0L50.17,87.66l-1.53-5.61a4.45,4.45,0,0,1,3-5.43l48.72-14.45A4.52,4.52,0,0,1,106,65.34L107,69,109,76.85a5.87,5.87,0,0,1-2.74,6.59l-4.13,2.41Z"/><path class="cls-5" d="M54.29,103.51l-.86.17-6.67,2.44c-5.07,1.85-10.48-.22-12-4.6s1.45-9.35,6.58-11l7.8-2.56,1-.28L53.79,101v0C54,101.83,54.12,102.67,54.29,103.51Z"/><path class="cls-6" d="M382.65,364.9c9.63,10.78,19.55,18.91,31.1,24.88a102.82,102.82,0,0,0,17.67,7.11,28.26,28.26,0,0,0,8.51,1.22,28.56,28.56,0,0,0,27.84-33.76c-4.88-26.47-9.16-50.64-15-81-3.17-16.33-6.8-34.44-11.24-55.65A46.83,46.83,0,0,0,402,190.94c-11.05-1.49-21.64-2.81-31.94-4q-8.2-1-16.18-1.81l.71-18.79,1-26.57s17-7.81,16.44-14-20.15-2.57-20.15-2.57S372,106,369.06,98.39c0,0-19.27-9.11-30.81-21.13-.84-.87-1.64-1.76-2.38-2.65-10.08-12.17-9.54-31.81,13.67-25.16,12.83,3.68,18.82,21.19,22,25.34,8.81,11.61,28.92,16.69,22.92,34.23-4.83,14.14-24.78,40.25-39.87,57.31"/><path class="cls-6" d="M315.83,156.75c-1.25,7.22-2.78,15.39-4.53,24.26-4.92-.43-9.83-.85-14.77-1.26-8.62-.72-17.31-1.41-26.16-2.12a103.69,103.69,0,0,0-43.54,5.87c-15.4,5.59-29.38,10.76-43.29,15.45-14.92,5-29.76,9.53-46.21,13.42a4.18,4.18,0,0,1-4.82-2.47L100.7,131.79A34.53,34.53,0,0,1,102.47,102l2.89-5.23a13.78,13.78,0,0,1,11.3-7.09l7.48-.42a2.92,2.92,0,0,0,2.25-4.57,20.3,20.3,0,0,0-5.6-5.7"/><path class="cls-6" d="M140.06,72a49,49,0,1,0-2.56-6A47.8,47.8,0,0,0,140.06,72Z"/><path class="cls-6" d="M195.62,85a37,37,0,1,0-47.07-22.85A37,37,0,0,0,195.62,85Z"/><path class="cls-6" d="M53.79,101l1,3.56a6.08,6.08,0,0,0,8.93,3.66l5.77-3.35L82,97.56,95.37,89.8l6.8-4,4.13-2.41A5.87,5.87,0,0,0,109,76.85L107,69l-1-3.69a4.52,4.52,0,0,0-5.64-3.17L51.67,76.62a4.45,4.45,0,0,0-3,5.43l1.53,5.61L53.79,101"/><polyline class="cls-6" points="140.06 71.98 120.79 79.03 102.17 85.85"/><path class="cls-6" d="M53.43,103.68l-6.67,2.44c-5.07,1.85-10.48-.22-12-4.6s1.45-9.35,6.58-11l7.8-2.56"/><line class="cls-6" x1="106.99" y1="69.03" x2="135.77" y2="59.61"/><line class="cls-6" x1="63.68" y1="83.67" x2="69.46" y2="104.86"/><line class="cls-6" x1="77.22" y1="79.99" x2="82.02" y2="97.56"/><line class="cls-6" x1="91.33" y1="74.99" x2="95.37" y2="89.8"/><path class="cls-6" d="M53.79,101v0c.17.84.33,1.68.5,2.52,12.66,64,23.15,103.78,40.35,158.81a23.09,23.09,0,0,0,27.83,15.46c28.33-7.37,52.78-14.4,76.22-21.46,14.36-4.32,28.35-8.65,42.61-13.07,8.23,44.63,20.26,88.63,35.93,141.44-45.45,22.93-83.26,44.06-130.54,71.44a44.25,44.25,0,0,0,29.11,82c44.47-7.09,80.58-14.85,132.25-26.74A13.41,13.41,0,0,1,318,513l16.33,9.79"/><polyline class="cls-6" points="233.46 467.03 300.4 452.55 330.48 446.04"/><path class="cls-6" d="M307.05,310.17A35.81,35.81,0,0,0,303.22,337L317.7,394.9,330.48,446l15.84,63.38a30.45,30.45,0,0,1-11.8,13.6c-13,8.47-30.4,9.35-34.63,19.26a12.49,12.49,0,0,0-.95,5v3.46a5.83,5.83,0,0,0,5.82,5.83H420.67a5.83,5.83,0,0,0,5.83-5.83v-8.44L414.31,493l-3.09-12.52-21.17-85.63-7.4-29.94-11.24-45.44a35.12,35.12,0,0,0-20-23.69"/><path class="cls-6" d="M346.32,509.42h58.75c0-6.88,4.09-12.77,9.24-16.43"/><line class="cls-6" x1="426.5" y1="542.28" x2="299.89" y2="542.28"/><path class="cls-6" d="M400.29,526.44a8.2,8.2,0,1,0-8.19,8.2A8.2,8.2,0,0,0,400.29,526.44Z"/><path class="cls-6" d="M277.23,384.69A317.77,317.77,0,0,0,317.7,394.9"/><path class="cls-6" d="M439.93,398.11c13.17,29.37,11.52,69.53-28.71,82.36"/><line class="cls-6" x1="313" y1="511.17" x2="300.4" y2="452.55"/><path class="cls-6" d="M326.59,320.15l10.52-2.82,11.57-3.11.25-.07a7.56,7.56,0,0,0,5.25-9.57l-2.76-8.81-1.74-5.53,3.43-9.86"/><path class="cls-6" d="M444.45,345.56l-44.58-43.09-34.18-33a24.26,24.26,0,0,0-24.25-5.66L325.26,269A24.28,24.28,0,0,0,312,279.29a24.93,24.93,0,0,0-2.38,5.06c-1.16,3.47-2.19,6.79-3.12,10.56,0,.13-.07.25-.1.39a25.21,25.21,0,0,0-.13,11.46l.76,3.41,1.6,7.23a7,7,0,0,0,8.66,5.25l9.26-2.49"/><path class="cls-6" d="M317.65,285.79c-.69,2.25-1.34,4.54-1.95,7a25.21,25.21,0,0,0-.13,11.46l2.36,10.64a7,7,0,0,0,8.64,5.26h0"/><path class="cls-6" d="M328.23,283c-.7,2.25-1.34,4.54-2,7a25.21,25.21,0,0,0-.13,11.46l2.36,10.64a7,7,0,0,0,8.6,5.27l.06,0"/><path class="cls-6" d="M340.28,279.74c-.69,2.25-1.34,4.54-1.95,7a25.21,25.21,0,0,0-.13,11.46l2.36,10.64a7,7,0,0,0,8.12,5.37l.54-.12"/><path class="cls-6" d="M312,279.29a54.08,54.08,0,0,1-17.34-.74,5.33,5.33,0,0,0-4,9.6c5.35,3.81,9.81,5.84,15.85,6.76"/><polyline class="cls-6" points="394.9 269.44 398.17 291.17 399.87 302.47"/><path class="cls-6" d="M338.25,77.26c-4.3,1.57-8.51,4.8-12.13,9.77a352.45,352.45,0,0,1-25.5,31.33q-5.4,6-10.86,11.75a16.11,16.11,0,0,0,10.37,27.12,67.93,67.93,0,0,0,15.7-.48c11-1.65,22.08-6.13,34.84-13.78l-6.13-7.91s-18.06,16.64-24.83,5.69c-5.89-9.54.08-17.61-19.09-22.39"/><path class="cls-6" d="M328.7,99.41c-5,7.29-8.88,10.76-14.68,12.19a1.14,1.14,0,0,0-.7,1.67,23.12,23.12,0,0,1,2.82,6.19"/><path class="cls-6" d="M340,113.94c-1.5,1.8-3.6,2.52-4.69,1.62s-.76-3.11.74-4.91,3.61-2.53,4.7-1.62S341.48,112.14,340,113.94Z"/><path class="cls-6" d="M296.53,179.75c2.41,16.87,11.31,36.11,34.83,38.68s38.05-22.27,38.65-31.5"/><line class="cls-6" x1="398.16" y1="291.16" x2="452.73" y2="283.4"/><line class="cls-6" x1="183.54" y1="198.95" x2="198.69" y2="256.32"/></g></g></svg>