<svg xmlns="http://www.w3.org/2000/svg" viewBox="0 0 543.82 669.84"><defs><style>.cls-1{fill:#52cca7;}.cls-2{fill:#f0f0f0;}.cls-3,.cls-4{fill:none;stroke:#323433;stroke-linecap:round;stroke-linejoin:round;}.cls-3{stroke-width:1.68px;}.cls-4{stroke-width:2.52px;}.cls-5{fill:#fff;}.cls-6{fill:#323433;}</style></defs><title>Asset 14</title><g id="Layer_2" data-name="Layer 2"><g id="graphic"><path class="cls-1" d="M393.5,30.93l-12.27-9.52a2.37,2.37,0,1,1,2.91-3.74l11.53,9c.9-1.66,1.83-3.3,2.75-4.93A40.07,40.07,0,0,0,374.05,1.58,39.63,39.63,0,0,0,359.75.13a40.09,40.09,0,0,0,28.45,33,39.45,39.45,0,0,0,3.94.93C392.56,33,393,32,393.5,30.93Z"/><circle class="cls-2" cx="414.26" cy="363.73" r="129.56" transform="translate(-135.86 399.46) rotate(-45)"/><circle class="cls-3" cx="157.62" cy="350.82" r="45.06" transform="translate(-201.9 214.2) rotate(-45)"/><polyline class="cls-3" points="59.27 272.61 74.91 273.46 77.99 288.83 93.63 289.68 96.71 305.05 112.36 305.9"/><line class="cls-3" x1="417.23" y1="245.68" x2="430.17" y2="257.63"/><line class="cls-3" x1="417.72" y1="258.13" x2="429.68" y2="245.18"/><path class="cls-4" d="M140.84,181.65V106.28a16.2,16.2,0,0,1,16.21-16.2h45.1a22.18,22.18,0,0,1,14.25,5.18l11.45,9.6"/><path class="cls-4" d="M283.83,121.13c11.66,4.44,22.89,5.67,39.18,6,14.85.34-25.31,4.29-41.52,3.32"/><polyline class="cls-4" points="141 13.96 141 50.49 150.64 50.49 173.97 35.27"/><path class="cls-4" d="M417.83,11.14a170.88,170.88,0,0,0-14.4,39.35h38.34"/><path class="cls-1" d="M341.51,113.86a17.69,17.69,0,0,1-14.68,10.47l7.07-7a1,1,0,0,0-1.46-1.49l-6.78,6.7A17.55,17.55,0,0,1,343,107.7,17.19,17.19,0,0,1,341.51,113.86Z"/><path class="cls-1" d="M455.46,30.34a27.89,27.89,0,0,1-23.15,16.5l11.15-11a1.64,1.64,0,1,0-2.3-2.34L430.47,44a27.69,27.69,0,0,1,27.29-23.41A27.64,27.64,0,0,1,455.46,30.34Z"/><path class="cls-1" d="M305.49,150.24a17.68,17.68,0,0,1-9.32-15.44l6.43,7.59a1,1,0,1,0,1.59-1.35L298,133.77a17.26,17.26,0,0,1,4.22,1.59,17.67,17.67,0,0,1,9.27,16.81A17.52,17.52,0,0,1,305.49,150.24Z"/><path class="cls-5" d="M496.8,307.28h-9.51a11.52,11.52,0,0,1-10.45-6.63c-.88-1.89-1.72-3.75-2.5-5.62-1.51-3.57-2.84-7.13-4.08-10.84-1.12-3.39-2.15-6.89-3.13-10.65q-.81-3.06-1.57-6.36a3.52,3.52,0,0,1,4.36-4.18l8.81,2.45,7.26,2,32.72,9.1h0l6.68,1.86a10.46,10.46,0,0,1,7.24,13c-12.48,43.07-26,69.61-51.77,107.15a16.78,16.78,0,0,1-20.53,5.85,445.64,445.64,0,0,1-53.57-27.94c7.94-15.27,15.16-28.81,24.54-44.7,9.27,5.92,18.88,11.81,29.2,17.89a2.56,2.56,0,0,0,3.3-.62C476,333.58,486.94,321.85,496.8,307.28Z"/><path class="cls-5" d="M518.71,219.48v57.1L486,267.48V217.23h30.46A2.26,2.26,0,0,1,518.71,219.48Z"/><path class="cls-6" d="M486,217.23v50.25l-7.26-2V219.39a2.16,2.16,0,0,1,2.15-2.16Z"/><path class="cls-6" d="M422.85,326.33q4.18,2.73,8.45,5.45c-9.38,15.89-16.6,29.43-24.54,44.7q-4.18-2.53-8.32-5.18C406.6,355.56,413.75,342,422.85,326.33Z"/><path class="cls-1" d="M422.85,326.33c-9.1,15.64-16.25,29.23-24.41,45-10.24-6.51-20.21-13.4-29.69-20.53v81.06H337.31a52.2,52.2,0,0,1-30-9.5C292.6,412,277.86,401.63,262.4,391h0c-4.91-39.52-4.57-73.15.49-116.68a20.72,20.72,0,0,0-5.47-16.54c-8.39-9-15.87-17.41-22.77-25.74,11.13-12.23,21.45-23.29,34.55-36.16l32.13,32.21c-3.24,7.2,9.78,16.11,9.78,16.11v2c-7.2,9.61-21.89,33.39-2.95,47,20.36,14.65,43.73,2.47,56.13-8.3C385.07,300.45,403.42,313.6,422.85,326.33Z"/><path class="cls-6" d="M399,563.93V666.5a2.08,2.08,0,0,1-2.15,2.08,49.08,49.08,0,0,1-7-.73V571a33.77,33.77,0,0,1-10.24-9.16h17.25A2.08,2.08,0,0,1,399,563.93Z"/><path class="cls-5" d="M389.91,571v96.85c-34.22-6.15-30.29-47.18-49.89-47.18V561.84h39.64A33.69,33.69,0,0,0,389.91,571Z"/><path class="cls-1" d="M389.91,571v20.65a32.49,32.49,0,0,1-27.64-29.81h17.39A33.69,33.69,0,0,0,389.91,571Z"/><path class="cls-6" d="M383.1,191.43c0,10.28-7.36,18.16-16,22.71a36.13,36.13,0,0,1-16.21,4.42c-12.68,0-29.4-3.55-29.4-3.55v24.08s-8.74-12-15.08-13.64h0c2.22-31.3,32.2-38.71,42.45-42.13C359.53,179.77,383.1,174.71,383.1,191.43Z"/><path class="cls-5" d="M367.12,214.15c.84,10.07,1.18,19.56,1.15,29.83a25.1,25.1,0,0,1-24.74,25c7.25,5.58,14.13,10.83,20.76,15.83-12.4,10.77-35.77,22.95-56.13,8.3-18.94-13.62-4.25-37.4,2.95-47v-2s-13-8.91-9.78-16.11a6.26,6.26,0,0,1,.66-1.13,3.84,3.84,0,0,1,4.44-1.47c6.34,1.62,15.08,13.64,15.08,13.64V215s16.72,3.55,29.4,3.55a36.13,36.13,0,0,0,16.21-4.42Z"/><path class="cls-6" d="M365.54,231.91c1.4.21,2.26,2.17,1.94,4.4s-1.72,3.87-3.11,3.66-2.26-2.17-1.94-4.39S364.15,231.71,365.54,231.91Z"/><path class="cls-6" d="M338.47,232.22c1.39.2,2.26,2.17,1.93,4.39s-1.71,3.87-3.1,3.66-2.26-2.17-1.94-4.39S337.07,232,338.47,232.22Z"/><path class="cls-5" d="M295.16,495.53,289.38,502c-20.27-13.86-37.6-26.09-55.93-40.4l5.21-6.89C256.46,468.64,273.62,480.81,295.16,495.53Z"/><path class="cls-6" d="M340,561.84V634c-16.25-9.88-42.66-12.88-56.25-12.88H194.48c-33.49,0-52.56-38.29-32.37-65l71.34-94.44c18.33,14.31,35.66,26.54,55.93,40.4l-53,59.8Z"/><path class="cls-5" d="M254.38,89l40.09-.88c-23.62,38-34.1,58-48.68,78.2a5.15,5.15,0,0,0,.54,6.62l15.76,15.81c-12.46,12.41-22.53,23.31-33.67,35.6h0A502.93,502.93,0,0,1,196.51,179a17.51,17.51,0,0,1,1-20.09C218.78,131.5,229.21,118.94,254.38,89Z"/><path class="cls-5" d="M293.28,50.49H282.66a26,26,0,0,0-1,3.67,4.47,4.47,0,0,1-4.4,3.63h-.16a4.56,4.56,0,0,1-4.41-5.74,25.7,25.7,0,0,1,1.92-4.87,6.26,6.26,0,0,1,5.59-3.36h5.94C292.67,43.82,293.28,48.35,293.28,50.49Z"/><path class="cls-5" d="M271.39,43.82h8.83a6.26,6.26,0,0,0-5.59,3.36,25.7,25.7,0,0,0-1.92,4.87,4.56,4.56,0,0,0,4.41,5.74h-8.83a4.55,4.55,0,0,1-4.41-5.74,25.7,25.7,0,0,1,1.92-4.87A6.28,6.28,0,0,1,271.39,43.82Z"/><path class="cls-5" d="M261.69,43.82h9.7a6.28,6.28,0,0,0-5.59,3.36,25.7,25.7,0,0,0-1.92,4.87,4.55,4.55,0,0,0,4.41,5.74H258.6a4.55,4.55,0,0,1-4.41-5.74,25.7,25.7,0,0,1,1.92-4.87A6.26,6.26,0,0,1,261.69,43.82Z"/><path class="cls-6" d="M262.09,188.72l7.11,7.12c-13.1,12.87-23.42,23.93-34.55,36.16-2.13-2.57-4.21-5.12-6.24-7.68h0C239.56,212,249.63,201.13,262.09,188.72Z"/><path class="cls-5" d="M253.55,43.82h8.14a6.26,6.26,0,0,0-5.58,3.36,25.7,25.7,0,0,0-1.92,4.87,4.55,4.55,0,0,0,4.41,5.74h-8.14a4.55,4.55,0,0,1-4.41-5.74c.15-.52.31-1,.49-1.56A25.61,25.61,0,0,1,248,47.18,6.26,6.26,0,0,1,253.55,43.82Z"/><path class="cls-5" d="M75.48,471.31c-13.12,14.55-41-15.84-68.44,5.45l59.13,53.31L79,541.61a33.88,33.88,0,0,1,13.67-1.47l10.9-12.09,15.81-17.54Z"/><path class="cls-1" d="M103.54,528.05l-10.9,12.09A33.88,33.88,0,0,0,79,541.61l-12.8-11.54A32.57,32.57,0,0,1,103.54,528.05Z"/><path class="cls-6" d="M92.64,540.14,81.08,553a2.1,2.1,0,0,1-3,.15L2,484.43a2.09,2.09,0,0,1-.11-3A48.76,48.76,0,0,1,7,476.76L79,541.61A33.7,33.7,0,0,1,92.64,540.14Z"/><path class="cls-6" d="M295.16,495.53c-21.54-14.72-38.7-26.89-56.5-40.78-13.14-10.26-26.63-21.46-42.49-35.33-26.58,31.55-45.64,56.1-67.67,99.26l-9.15-8.17-43.87-39.2L164.22,360.5a32,32,0,0,1,42.23-6.91C226.66,366.58,245,379,262.4,391c15.46,10.66,30.2,21,44.87,31.36a52.2,52.2,0,0,0,30,9.5h31.44v27.64c0,31-46.25,54.7-71.06,37.78Z"/><path class="cls-4" d="M262.4,391c-4.91-39.52-4.57-73.15.49-116.68a20.72,20.72,0,0,0-5.47-16.54c-8.39-9-15.87-17.41-22.77-25.74-2.13-2.57-4.21-5.12-6.24-7.68A502.93,502.93,0,0,1,196.51,179a17.51,17.51,0,0,1,1-20.09c21.27-27.37,31.7-39.93,56.87-69.9"/><path class="cls-4" d="M294.47,88.09h0c-23.62,38-34.1,58-48.68,78.2a5.15,5.15,0,0,0,.54,6.62l15.76,15.81,7.11,7.12,32.13,32.21"/><path class="cls-4" d="M518.71,276.58l6.68,1.86a10.46,10.46,0,0,1,7.24,13c-12.48,43.07-26,69.61-51.77,107.15a16.78,16.78,0,0,1-20.53,5.85,445.64,445.64,0,0,1-53.57-27.94q-4.18-2.53-8.32-5.18c-10.24-6.51-20.21-13.4-29.69-20.53v108.7c0,31-46.25,54.7-71.06,37.78l-2.53-1.72c-21.54-14.72-38.7-26.89-56.5-40.78-13.14-10.26-26.63-21.46-42.49-35.33-26.58,31.55-45.64,56.1-67.67,99.26l-9.15-8.17-43.87-39.2L164.22,360.5a32,32,0,0,1,42.23-6.91C226.66,366.58,245,379,262.4,391c15.46,10.66,30.2,21,44.87,31.36a52.2,52.2,0,0,0,30,9.5h31.44"/><path class="cls-4" d="M514.07,307.28H487.29a11.52,11.52,0,0,1-10.45-6.63c-.88-1.89-1.72-3.75-2.5-5.62-1.51-3.57-2.84-7.13-4.08-10.84-1.12-3.39-2.15-6.89-3.13-10.65q-.81-3.06-1.57-6.36a3.52,3.52,0,0,1,4.36-4.18l8.81,2.45,7.26,2,32.72,9.1"/><path class="cls-4" d="M233.46,461.64l-71.35,94.44c-20.19,26.73-1.12,65,32.37,65h89.29c13.59,0,40,3,56.25,12.88V561.84H236.34l53-59.8C267.54,486.79,250.52,475.07,233.46,461.64Z"/><path class="cls-4" d="M343.53,269c7.25,5.58,14.13,10.83,20.76,15.83,20.78,15.63,39.13,28.78,58.56,41.51q4.18,2.73,8.45,5.45c9.27,5.92,18.88,11.81,29.2,17.89a2.56,2.56,0,0,0,3.3-.62c12.18-15.47,23.14-27.2,33-41.77"/><path class="cls-4" d="M311.11,273.49V244.16s-13-8.91-9.78-16.11a6.26,6.26,0,0,1,.66-1.13,3.84,3.84,0,0,1,4.44-1.47c6.34,1.62,15.08,13.64,15.08,13.64V215s16.72,3.55,29.4,3.55a36.13,36.13,0,0,0,16.21-4.42c8.62-4.55,16-12.43,16-22.71,0-16.72-23.57-11.66-34.22-8.11-10.25,3.42-40.23,10.83-42.45,42.13"/><path class="cls-4" d="M335.7,269h7.83a25.1,25.1,0,0,0,24.74-25c0-10.27-.31-19.76-1.15-29.83"/><path class="cls-4" d="M311.11,246.11c-7.2,9.61-21.89,33.39-2.95,47,20.36,14.65,43.73,2.47,56.13-8.3"/><path class="cls-4" d="M352.53,230.18c-1.61,8.18-1,13.36,2.4,17.38,1.82,2.17-3.64,3.28-6.36,4.8"/><path class="cls-4" d="M518.71,276.58h0v-57.1a2.26,2.26,0,0,0-2.26-2.25H480.88a2.16,2.16,0,0,0-2.15,2.16v46.06"/><line class="cls-4" x1="485.99" y1="217.23" x2="485.99" y2="267.48"/><line class="cls-4" x1="505.54" y1="224.13" x2="511.94" y2="224.13"/><path class="cls-4" d="M467.13,273.54c9.77,1.16,26.34,4.77,26.34,4.77"/><path class="cls-4" d="M470.26,284.19c10,.5,25.12,2.53,25.12,2.53"/><path class="cls-4" d="M474.34,295h0c10-.3,24.44.38,24.44.38"/><path class="cls-4" d="M340,561.84h56.89a2.08,2.08,0,0,1,2.09,2.09V666.5a2.08,2.08,0,0,1-2.15,2.08,49.08,49.08,0,0,1-7-.73c-34.21-6.15-30.29-47.18-49.88-47.18"/><path class="cls-4" d="M389.9,667.85V571a33.77,33.77,0,0,1-10.24-9.16"/><path class="cls-4" d="M119.35,510.51,92.64,540.14,81.08,553a2.1,2.1,0,0,1-3,.15L2,484.43a2.09,2.09,0,0,1-.11-3A48.76,48.76,0,0,1,7,476.76c27.47-21.29,55.32,9.1,68.44-5.45"/><path class="cls-4" d="M7,476.76,79,541.61a33.7,33.7,0,0,1,13.67-1.47"/><path class="cls-4" d="M398.44,371.3c8.16-15.74,15.31-29.33,24.41-45"/><path class="cls-4" d="M406.76,376.48c7.94-15.27,15.16-28.81,24.54-44.7"/><path class="cls-4" d="M228.42,224.32c11.14-12.29,21.21-23.19,33.67-35.6h0"/><path class="cls-4" d="M234.65,232c11.13-12.23,21.45-23.29,34.55-36.16"/><polyline class="cls-4" points="237.28 99.78 227.06 89.57 254.38 88.97 294.47 88.09 384.17 86.12"/><polyline class="cls-4" points="176 42.37 162.81 50.49 241.45 50.49 246.54 50.49"/><path class="cls-4" d="M282.66,50.49h102.5A393.62,393.62,0,0,1,407.56,7"/><path class="cls-4" d="M282.66,50.49a26,26,0,0,0-1,3.67,4.47,4.47,0,0,1-4.4,3.63H250.46a4.55,4.55,0,0,1-4.41-5.74c.15-.52.31-1,.49-1.56A25.61,25.61,0,0,1,248,47.18a6.26,6.26,0,0,1,5.58-3.36h32.61c6.51,0,7.12,4.53,7.12,6.67"/><path class="cls-4" d="M258.6,57.79a4.55,4.55,0,0,1-4.41-5.74,25.7,25.7,0,0,1,1.92-4.87,6.26,6.26,0,0,1,5.58-3.36"/><path class="cls-4" d="M268.29,57.79a4.55,4.55,0,0,1-4.41-5.74,25.7,25.7,0,0,1,1.92-4.87,6.28,6.28,0,0,1,5.59-3.36"/><path class="cls-4" d="M277.12,57.79a4.56,4.56,0,0,1-4.41-5.74,25.7,25.7,0,0,1,1.92-4.87,6.26,6.26,0,0,1,5.59-3.36"/><circle class="cls-6" cx="138.93" cy="278.05" r="7.39" transform="translate(-155.92 179.68) rotate(-45)"/></g></g></svg>