<svg xmlns="http://www.w3.org/2000/svg" viewBox="0 0 549.97 599.88"><defs><style>.cls-1{fill:#f0f0f0;}.cls-2,.cls-7,.cls-8{fill:none;stroke-linecap:round;stroke-linejoin:round;}.cls-2,.cls-7{stroke:#323433;}.cls-2{stroke-width:1.74px;}.cls-3{fill:#52cca7;}.cls-4{fill:#fff;}.cls-5{fill:#323433;}.cls-6{fill:#fcfcfc;}.cls-7,.cls-8{stroke-width:2.61px;}.cls-8{stroke:#fff;}</style></defs><title>Asset 12</title><g id="Layer_2" data-name="Layer 2"><g id="graphic"><ellipse class="cls-1" cx="241.15" cy="564.33" rx="241.15" ry="35.55"/><path class="cls-2" d="M108.53,387.86a22.79,22.79,0,0,0,16.48,8.9c22.32,1.58,47.3,2.46,73.67,2.46s51.35-.88,73.66-2.46a22.75,22.75,0,0,0,16.48-8.9l2.14-2.8a5.39,5.39,0,0,0-4.57-8.64c-25.66,1.35-55.66,2.12-87.71,2.12s-62.06-.77-87.72-2.12a5.38,5.38,0,0,0-4.56,8.64Z"/><path class="cls-2" d="M221.43,399a6,6,0,0,1,.1,1.05v1.55a5.42,5.42,0,0,1-5.42,5.42H181.25a5.41,5.41,0,0,1-5.42-5.42v-1.55a5.19,5.19,0,0,1,.1-1.05"/><path class="cls-2" d="M205.68,407v93.65"/><line class="cls-2" x1="191.68" y1="500.67" x2="191.68" y2="407.02"/><rect class="cls-2" x="187.59" y="500.67" width="22.17" height="9.02" rx="2.54"/><path class="cls-2" d="M121.82,552l1.31-3.38a56.26,56.26,0,0,1,41.58-35l23-4.54"/><path class="cls-2" d="M275.53,552l-1.3-3.38a56.28,56.28,0,0,0-41.58-35l-23-4.54"/><circle class="cls-2" cx="120.03" cy="556.65" r="5"/><path class="cls-2" d="M272.33,556.65a5,5,0,1,1,5,5A5,5,0,0,1,272.33,556.65Z"/><circle class="cls-2" cx="198.68" cy="556.65" r="5"/><line class="cls-2" x1="198.68" y1="551.65" x2="198.68" y2="509.68"/><polyline class="cls-2" points="407.71 477.87 408.53 462.82 423.32 459.86 424.14 444.8 438.93 441.84 439.75 426.78"/><line class="cls-2" x1="74.25" y1="329.12" x2="86.71" y2="340.63"/><line class="cls-2" x1="74.73" y1="341.1" x2="86.24" y2="328.64"/><path class="cls-3" d="M548.67,314.63l-39.89,84.74-31-15.32a33.05,33.05,0,0,1,30.54-4.28l31.62-67.15A29.06,29.06,0,0,1,548.67,314.63Z"/><path class="cls-4" d="M539.91,312.62l-31.62,67.15a33.05,33.05,0,0,0-30.54,4.28l-13.6-6.72,25.29-54C509.74,335.24,519.76,311.41,539.91,312.62Z"/><path class="cls-5" d="M198.77,306.93h0l70.51-30.28,53.29-22.89a32.88,32.88,0,0,1,27.52.74l139.34,68.82-25.29,54-5.63,12C445.91,373.88,427,358.73,398.1,343L337,315.11a9.46,9.46,0,0,0-9.32.85c-5.83,4.08-17.07,11.75-31.06,20.46-23.81,14.84-55.62,32.72-82.47,41.12-9.62,3-18.6,4.8-26.34,4.8-43.64,0-54.71-41.79-39.08-75.41Z"/><path class="cls-5" d="M399.07,395.21a34.69,34.69,0,0,1-8.44,30.8l-58.5,63.3c-10.72,13.1-17.75,24.65-21.61,40.87l-8.81-7.68-45-39.23,66.54-71.69c-39.56-12.08-73.35-21.73-109.12-34,26.85-8.4,58.66-26.28,82.47-41.12,30.12,12.53,54.44,22.38,82.13,34.16A34.68,34.68,0,0,1,399.07,395.21Z"/><path class="cls-6" d="M359.31,87.08A3.5,3.5,0,0,1,362.78,91a19,19,0,0,1-2,6.83,14.53,14.53,0,0,1-1.12,1.81,6.43,6.43,0,0,1-5.23,2.64h-4a6.77,6.77,0,0,0,1.64-1.61,19.61,19.61,0,0,0,3.38-9.35,3.79,3.79,0,0,0-3.76-4.19Z"/><path class="cls-6" d="M336,103.48h10.39a7.09,7.09,0,0,0,4-1.25h4a6.43,6.43,0,0,0,5.23-2.64,14.53,14.53,0,0,0,1.12-1.81c1.13,13.41,1.53,21.76-.71,34.34v93.7a20,20,0,0,1-27.22,18.65l-34.42-13.35L314.09,189l14,5.23,2.73-57a26.86,26.86,0,0,0-1.4-9.82l-8-23.48a8.3,8.3,0,0,1,1.53-8l2.16-2.55,7.12-8.4a2.44,2.44,0,0,1,3.05-.56,2.39,2.39,0,0,1,1.26,2c0,.26,0,.52,0,.77,0,4.2-1.86,7.86-3.94,12.82A15.77,15.77,0,0,1,336,103.48Z"/><path class="cls-6" d="M351.68,87.08a3.79,3.79,0,0,1,3.76,4.19,19.61,19.61,0,0,1-3.38,9.35,6.77,6.77,0,0,1-1.64,1.61,7.09,7.09,0,0,1-4,1.25h-9.55a6.94,6.94,0,0,0,5.66-2.86,19.51,19.51,0,0,0,3.38-9.35,3.78,3.78,0,0,0-3.76-4.19h9.56Z"/><path class="cls-6" d="M342.12,87.08a3.78,3.78,0,0,1,3.76,4.19,19.51,19.51,0,0,1-3.38,9.35,6.94,6.94,0,0,1-5.66,2.86H336a15.77,15.77,0,0,0-3.34-3.58c2.08-5,4-8.62,3.94-12.82Z"/><path class="cls-6" d="M333.27,55.86l2.05,28.47a2.44,2.44,0,0,0-3.05.56l-7.12,8.4L326.58,56a3.35,3.35,0,0,1,6.69-.11Z"/><path class="cls-3" d="M148.79,211.74H108V181.61h0L119,171.44H176.6C174,188,183.27,203.61,198.22,207.1c15.74,3.68,31.8-7.49,35.88-24.95a35.65,35.65,0,0,0,.86-10.71h16.56A87.28,87.28,0,0,1,282.11,177l11.12,4.16L314.09,189l-15.66,42.17-18.66-7.23-17.48-6.78c-.1,6.78-.06,12.61.14,17.86.59,15.47,2.62,26,6.86,41.68l-70.51,30.28H126.91C154.19,266,137.78,241.42,148.79,211.74Z"/><path class="cls-4" d="M301.71,522.5h0c-17.93,16.19,2.42,32.69-4.53,51.8l-55.37-49.42a33,33,0,0,0,4.6-30.49l10.31-11.12Z"/><path class="cls-3" d="M241.81,524.88l55.37,49.42a28.39,28.39,0,0,1-4.42,7.83l-69.87-62.36,23.52-25.38a33,33,0,0,1-4.6,30.49Z"/><path class="cls-5" d="M293.23,181.14,282.11,177a87.28,87.28,0,0,0-30.59-5.54h-27a3.46,3.46,0,0,1-3.44-3.08c-1.39-12.51-2.62-22.69-2.77-35.48h0a27.18,27.18,0,0,0,5.49-5.07,12.21,12.21,0,0,0,8.46,3.39h2.31a12.26,12.26,0,0,0,8.2-3.14,35,35,0,0,0,4.6,8.43c10.77,14.54,27.1,12.37,38,26.53A42.34,42.34,0,0,1,293.23,181.14Z"/><path class="cls-5" d="M262.29,217.11l17.48,6.78A55.29,55.29,0,0,1,262.43,235C262.23,229.72,262.19,223.89,262.29,217.11Z"/><path class="cls-6" d="M247.24,92.83v26.1a5.19,5.19,0,0,1-.69,2.58,7.82,7.82,0,0,1-4.81,3.54,10.31,10.31,0,0,1-2.81.38h-3c-4.58,0-8.31-2.92-8.31-6.5V92.83c0-3.58,3.73-6.5,8.31-6.5h3c3.41,0,6.34,1.61,7.62,3.92A5.19,5.19,0,0,1,247.24,92.83Z"/><path class="cls-4" d="M246.56,90.25h0c-1.28-2.31-4.21-3.92-7.62-3.92h-3c-4.58,0-8.31,2.92-8.31,6.5v26.1c0,3.58,3.73,6.5,8.31,6.5h3a10.31,10.31,0,0,0,2.81-.38c.29,1,.63,2,1,3a12.26,12.26,0,0,1-8.2,3.14h-2.31A12.28,12.28,0,0,1,220,118.93V92.83a12.29,12.29,0,0,1,12.27-12.27H235A12.29,12.29,0,0,1,246.56,90.25Z"/><path class="cls-6" d="M246.55,121.51h0a12.34,12.34,0,0,1-3.8,6.55c-.39-1-.73-2-1-3A7.82,7.82,0,0,0,246.55,121.51Z"/><path class="cls-4" d="M217.52,56.23A18.44,18.44,0,0,1,235,80.57h-2.71a12.28,12.28,0,0,0-4,.69V74.61a18.35,18.35,0,0,0-1.56-7.41h0a18.38,18.38,0,0,0-16.82-11Z"/><path class="cls-6" d="M235,171.44a35.65,35.65,0,0,1-.86,10.71C230,199.61,214,210.78,198.22,207.1,183.27,203.61,174,188,176.6,171.44h10.06a2.67,2.67,0,0,0,2.64-2.19c.71-3.92,1.34-7.69,1.87-11.41.78-5.48,1.35-10.84,1.68-16.39h0l.69-.07c12.07-1.54,19.82-5,24.76-8.5.15,12.79,1.38,23,2.77,35.48a3.46,3.46,0,0,0,3.44,3.08Z"/><path class="cls-5" d="M228.21,74.61v6.64A12.28,12.28,0,0,0,220,92.83v7c-12-.19-34.74-3.9-41.07-19.27a24.38,24.38,0,0,1,1.58-3.2,23.73,23.73,0,0,1,8.61-8.48,23.45,23.45,0,0,1,10.55-3.09,134.05,134.05,0,0,1,27,1.41h0A18.35,18.35,0,0,1,228.21,74.61Z"/><path class="cls-6" d="M220,118.93a12.21,12.21,0,0,0,3.81,8.88,27.18,27.18,0,0,1-5.49,5.07h0c-4.94,3.51-12.69,7-24.76,8.5l-.69.07a14,14,0,0,1-2.42,0,6.86,6.86,0,0,0,.1-1.12,6.51,6.51,0,0,0-10.42-5.2,13.92,13.92,0,0,1-1.73-3.9,14.38,14.38,0,0,1-.4-2.27,238.64,238.64,0,0,1-.71-41.23,23.84,23.84,0,0,1,1.64-7.14C185.24,95.93,208,99.64,220,99.83Zm-16.4-10.09c.15-1.89-.65-3.49-1.79-3.58s-2.19,1.36-2.34,3.25.65,3.5,1.79,3.59S203.43,110.73,203.58,108.84ZM181.86,108c.15-1.89-.65-3.5-1.79-3.59s-2.18,1.36-2.34,3.26.65,3.49,1.79,3.58S181.7,109.88,181.86,108Z"/><path class="cls-6" d="M209.83,56.23a18.38,18.38,0,0,1,16.82,11,134.05,134.05,0,0,0-27-1.41,23.45,23.45,0,0,0-10.55,3.09h0a18.4,18.4,0,0,1,17.47-12.64Z"/><path class="cls-5" d="M198.87,56.23h7.69a18.4,18.4,0,0,0-17.47,12.64h0a23.73,23.73,0,0,0-8.61,8.48V74.61A18.38,18.38,0,0,1,198.87,56.23Z"/><path class="cls-5" d="M201.79,105.26c1.14.09,1.94,1.69,1.79,3.58s-1.2,3.35-2.34,3.26-1.94-1.7-1.79-3.59S200.65,105.17,201.79,105.26Z"/><path class="cls-5" d="M192.85,141.45h0c-.33,5.55-.9,10.91-1.68,16.39a27.12,27.12,0,0,1-7.89-11.07,6,6,0,0,0,.74,0,6.51,6.51,0,0,0,6.41-5.39A14,14,0,0,0,192.85,141.45Z"/><path class="cls-6" d="M190.53,140.3a6.86,6.86,0,0,1-.1,1.12,6.51,6.51,0,0,1-6.41,5.39,6,6,0,0,1-.74,0,6.51,6.51,0,1,1,7.25-6.47Z"/><path class="cls-5" d="M180.07,104.41c1.14.09,1.94,1.7,1.79,3.59s-1.2,3.34-2.34,3.25-1.94-1.7-1.79-3.58S178.93,104.32,180.07,104.41Z"/><path class="cls-4" d="M178.45,80.56h.46a23.84,23.84,0,0,0-1.64,7.14,238.64,238.64,0,0,0,.71,41.23,14.38,14.38,0,0,0,.4,2.27,12.26,12.26,0,0,1-12.2-12.27V92.83a12.26,12.26,0,0,1,12.27-12.27Z"/><path class="cls-6" d="M108,181.61v30.13H62.75c-16.2,0-23.39-36.52-4-50.19s86.38-37.43,86.38-37.43a109.9,109.9,0,0,1-.14-24,20,20,0,0,1,7-13.07,55.66,55.66,0,0,1,10.53-7,9.31,9.31,0,0,1,7.09-.65l5.24,1.61a12.29,12.29,0,0,0-8.76,11.76v26.1a12.27,12.27,0,0,0,2.26,7.1L119,171.44,108,181.6Z"/><path class="cls-7" d="M149.86,209c-.39.9-.74,1.8-1.07,2.7-11,29.68,5.4,54.26-21.88,95.19h71.86"/><path class="cls-7" d="M214.14,377.54c-9.62,3-18.6,4.8-26.34,4.8-43.64,0-54.71-41.79-39.08-75.41"/><path class="cls-8" d="M294,338.06c-22.24,13.72-50.74,29.6-75.67,38.11"/><path class="cls-7" d="M170,319.3l28.82-12.37h0l70.51-30.28,53.29-22.89a32.88,32.88,0,0,1,27.52.74l139.34,68.82-25.29,54-5.63,12C445.91,373.88,427,358.73,398.1,343L337,315.11a9.46,9.46,0,0,0-9.32.85c-5.83,4.08-17.07,11.75-31.06,20.46"/><path class="cls-7" d="M269.29,276.65C265.05,261,263,250.44,262.43,235c-.2-5.25-.24-11.08-.14-17.86l17.48,6.78,18.66,7.23,34.42,13.35a20,20,0,0,0,27.22-18.65v-93.7c2.24-12.58,1.84-20.93.71-34.34"/><line class="cls-7" x1="336.35" y1="103.48" x2="336" y2="103.48"/><path class="cls-7" d="M336.6,87.08h5.52a3.78,3.78,0,0,1,3.76,4.19,19.51,19.51,0,0,1-3.38,9.35,6.94,6.94,0,0,1-5.66,2.86"/><path class="cls-7" d="M351.68,87.08a3.79,3.79,0,0,1,3.76,4.19,19.61,19.61,0,0,1-3.38,9.35,6.77,6.77,0,0,1-1.64,1.61,7.09,7.09,0,0,1-4,1.25h-10"/><line class="cls-7" x1="342.12" y1="87.08" x2="350.48" y2="87.08"/><path class="cls-7" d="M350.48,87.08h8.83A3.5,3.5,0,0,1,362.78,91a19,19,0,0,1-2,6.83,14.53,14.53,0,0,1-1.12,1.81,6.43,6.43,0,0,1-5.23,2.64h-4"/><path class="cls-7" d="M325.15,93.29,326.58,56a3.35,3.35,0,0,1,6.69-.11l2.05,28.47"/><polyline class="cls-7" points="148.79 211.74 107.96 211.74 62.76 211.74"/><polyline class="cls-7" points="107.96 181.6 119.02 171.44 168.44 126.03"/><line class="cls-7" x1="85.25" y1="202.47" x2="107.96" y2="181.61"/><path class="cls-7" d="M174.94,81.07l-5.24-1.61a9.31,9.31,0,0,0-7.09.65,55.66,55.66,0,0,0-10.53,7,20,20,0,0,0-7,13.07,109.9,109.9,0,0,0,.14,24S78.23,147.87,58.8,161.55s-12.25,50.18,4,50.19h0"/><line class="cls-7" x1="314.09" y1="188.95" x2="298.43" y2="231.12"/><polyline class="cls-7" points="107.96 181.6 107.96 181.61 107.96 211.74"/><path class="cls-7" d="M218.3,132.88c-4.94,3.51-12.69,7-24.76,8.5l-.69.07a14,14,0,0,1-2.42,0"/><path class="cls-7" d="M223.79,127.81a27.18,27.18,0,0,1-5.49,5.07"/><path class="cls-7" d="M180.11,135.1a13.92,13.92,0,0,1-1.73-3.9,14.38,14.38,0,0,1-.4-2.27,238.64,238.64,0,0,1-.71-41.23,23.84,23.84,0,0,1,1.64-7.14,24.38,24.38,0,0,1,1.58-3.2,23.73,23.73,0,0,1,8.61-8.48,23.45,23.45,0,0,1,10.55-3.09,134.05,134.05,0,0,1,27,1.41"/><path class="cls-7" d="M190.43,141.42a6.86,6.86,0,0,0,.1-1.12,6.51,6.51,0,1,0-7.25,6.47,6,6,0,0,0,.74,0A6.51,6.51,0,0,0,190.43,141.42Z"/><path class="cls-7" d="M246.56,121.51a12.27,12.27,0,0,1-12,9.69h-2.31A12.28,12.28,0,0,1,220,118.93V92.83a12.29,12.29,0,0,1,12.27-12.27H235a12.29,12.29,0,0,1,11.6,9.68"/><path class="cls-7" d="M178.38,131.2a12.26,12.26,0,0,1-12.2-12.27V92.83a12.26,12.26,0,0,1,12.27-12.27h.46"/><path class="cls-7" d="M241.74,125.05a10.31,10.31,0,0,1-2.81.38h-3c-4.58,0-8.31-2.92-8.31-6.5V92.83c0-3.58,3.73-6.5,8.31-6.5h3c3.41,0,6.34,1.61,7.62,3.92a5.19,5.19,0,0,1,.69,2.58v26.1a5.19,5.19,0,0,1-.69,2.58A7.82,7.82,0,0,1,241.74,125.05Z"/><path class="cls-7" d="M206.56,56.23h-7.69a18.38,18.38,0,0,0-18.38,18.38v2.75"/><path class="cls-7" d="M228.21,81.25V74.61a18.35,18.35,0,0,0-1.56-7.41h0a18.38,18.38,0,0,0-16.82-11"/><path class="cls-7" d="M235,80.57a18.44,18.44,0,0,0-17.44-24.34h-11a18.4,18.4,0,0,0-17.47,12.64"/><path class="cls-7" d="M178.91,80.56C185.24,95.93,208,99.64,220,99.83"/><path class="cls-7" d="M189.44,103.32c-.68,6.4-2,9.57-5.44,12.82a1.88,1.88,0,0,0-.6,1.22,1.49,1.49,0,0,0,0,.21,2,2,0,0,0,1.86,2l4.4.26"/><path class="cls-7" d="M203.58,108.84c-.15,1.89-1.2,3.35-2.34,3.26s-1.94-1.7-1.79-3.59,1.2-3.34,2.34-3.25S203.73,107,203.58,108.84Z"/><path class="cls-7" d="M181.86,108c-.16,1.88-1.2,3.34-2.34,3.25s-1.94-1.7-1.79-3.58,1.2-3.35,2.34-3.26S182,106.11,181.86,108Z"/><path class="cls-7" d="M218.3,132.88h0c.15,12.79,1.38,23,2.77,35.48a3.46,3.46,0,0,0,3.44,3.08h27A87.28,87.28,0,0,1,282.11,177l11.12,4.16L314.09,189l14,5.23,2.73-57a26.86,26.86,0,0,0-1.4-9.82l-8-23.48a8.3,8.3,0,0,1,1.53-8l2.16-2.55,7.12-8.4a2.44,2.44,0,0,1,3.05-.56,2.39,2.39,0,0,1,1.26,2c0,.26,0,.52,0,.77,0,4.2-1.86,7.86-3.94,12.82a15.77,15.77,0,0,1,3.34,3.58,14.92,14.92,0,0,1,1.94,12.41"/><path class="cls-7" d="M192.85,141.45c-.33,5.55-.9,10.91-1.68,16.39-.53,3.72-1.16,7.49-1.87,11.41a2.67,2.67,0,0,1-2.64,2.19H119"/><path class="cls-7" d="M241.74,125.05c.29,1,.63,2,1,3a35,35,0,0,0,4.6,8.43c10.77,14.54,27.1,12.37,38,26.53a42.34,42.34,0,0,1,7.83,18.12h0"/><path class="cls-7" d="M279.77,223.89A55.29,55.29,0,0,1,262.43,235h0"/><path class="cls-7" d="M183.28,146.77a27.12,27.12,0,0,0,7.89,11.07"/><path class="cls-7" d="M176.6,171.44C174,188,183.27,203.61,198.22,207.1c15.74,3.68,31.8-7.49,35.88-24.95a35.65,35.65,0,0,0,.86-10.71"/><path class="cls-7" d="M489.44,323.32c20.3,11.92,30.32-11.91,50.47-10.7a29.06,29.06,0,0,1,8.76,2l-39.89,84.74-31-15.32-13.6-6.72"/><path class="cls-7" d="M539.91,312.62l-31.62,67.15a33.05,33.05,0,0,0-30.54,4.28"/><path class="cls-7" d="M301.71,522.5c-17.93,16.19,2.42,32.69-4.53,51.8a28.39,28.39,0,0,1-4.42,7.83l-69.87-62.36,23.52-25.38,10.31-11.12"/><path class="cls-7" d="M297.19,574.31h0l-55.37-49.42a33,33,0,0,0,4.6-30.49"/><path class="cls-7" d="M214.14,377.54c35.77,12.31,69.56,22,109.12,34l-66.54,71.69,45,39.23,8.81,7.68c3.86-16.22,10.89-27.77,21.61-40.87l58.5-63.3a34.66,34.66,0,0,0-11.89-55.43c-27.69-11.78-52-21.63-82.13-34.16"/><polygon class="cls-3" points="323.62 19.14 325.43 12.01 319.78 7.31 327.11 6.82 329.84 0 332.57 6.82 339.9 7.31 334.25 12.01 336.06 19.14 329.84 15.22 323.62 19.14"/><polygon class="cls-3" points="294.85 36.38 294.5 29.05 287.73 26.19 294.6 23.59 295.23 16.27 299.82 22 306.98 20.33 302.95 26.47 306.75 32.76 299.66 30.83 294.85 36.38"/><polygon class="cls-3" points="365.18 29.05 371.95 26.19 365.08 23.59 364.45 16.27 359.86 22 352.7 20.33 356.73 26.47 352.93 32.76 360.02 30.83 364.83 36.38 365.18 29.05"/><path class="cls-3" d="M48.54,293.18l-30,21.18L32.6,293.18h-5A16.22,16.22,0,0,1,11.43,277v-9.9a16.22,16.22,0,0,1,16.22-16.22H68.13a16.22,16.22,0,0,1,16.22,16.22V277a16.22,16.22,0,0,1-16.22,16.22Z"/><path class="cls-4" d="M35.42,279.13H26.09l.41-2.06L31.13,273a16.91,16.91,0,0,0,2.41-2.46,3.06,3.06,0,0,0,.66-1.75,1.34,1.34,0,0,0-1.46-1.49,2.92,2.92,0,0,0-1.31.33,8.71,8.71,0,0,0-1.67,1.14l-1.41-2a8.8,8.8,0,0,1,2.44-1.55,6.47,6.47,0,0,1,2.42-.46,4.26,4.26,0,0,1,2.92.95,3.18,3.18,0,0,1,1.08,2.51,4.76,4.76,0,0,1-.4,2A7,7,0,0,1,35.63,272,22.26,22.26,0,0,1,33,274.36l-2.61,2.15v.1h5.51Z"/><path class="cls-4" d="M47.47,276.19H45.82l-.61,2.94H42.37l.61-2.94H37.26l.47-2.27,7.46-9h3l-1.89,8.92H48Zm-4-2.32.56-2.41q.12-.57.39-1.59c.18-.69.31-1.14.4-1.37h-.1a13,13,0,0,1-1.23,1.76l-3,3.61Z"/><path class="cls-4" d="M58.28,265l-7.85,14.18H47.57L55.42,265Z"/><path class="cls-4" d="M57.56,279.13l7.15-11.66h-6.1l.54-2.52h9.46l-.4,1.88-7.3,12.3Z"/></g></g></svg>