<svg xmlns="http://www.w3.org/2000/svg" viewBox="0 0 655.26 613.96"><defs><style>.cls-1{fill:#323433;}.cls-2{fill:#fff;}.cls-3,.cls-6{fill:none;stroke:#323433;stroke-linecap:round;stroke-linejoin:round;}.cls-3{stroke-width:2.61px;}.cls-4{fill:#52cca7;}.cls-5{fill:#f0f0f0;}.cls-6{stroke-width:1.74px;}</style></defs><title>Asset 23</title><g id="Layer_2" data-name="Layer 2"><g id="graphic"><rect class="cls-1" x="541.32" y="186.93" width="89.88" height="13.6"/><polygon class="cls-2" points="541.32 200.53 541.32 317.44 547.74 313.46 554.16 317.44 560.58 313.46 567 317.44 573.42 313.46 579.84 317.44 586.26 313.46 592.68 317.44 599.1 313.46 605.52 317.44 611.94 313.46 618.36 317.44 624.78 313.46 631.2 317.44 631.2 200.53 541.32 200.53"/><polygon class="cls-3" points="631.2 317.44 624.78 313.46 618.36 317.44 611.94 313.46 605.52 317.44 599.1 313.46 592.68 317.44 586.26 313.46 579.84 317.44 573.42 313.46 567 317.44 560.58 313.46 554.16 317.44 547.74 313.46 541.32 317.44 541.32 186.93 631.2 186.93 631.2 317.44"/><circle class="cls-4" cx="586.26" cy="270.94" r="22.23"/><circle class="cls-3" cx="586.26" cy="270.94" r="22.23"/><path class="cls-1" d="M584.9,283.49V281.4a13.06,13.06,0,0,1-6.7-3.29l2.67-3.24a11.44,11.44,0,0,0,4,2.49V273.1a10.3,10.3,0,0,1-4.41-2.08,4.85,4.85,0,0,1-1.4-3.74,5.43,5.43,0,0,1,1.6-4,7,7,0,0,1,4.21-1.9v-1.4h3v1.46a13,13,0,0,1,5.7,2.37l-2.35,3.38a11,11,0,0,0-3.35-1.72v4.12a10.76,10.76,0,0,1,4.57,2.15,4.88,4.88,0,0,1,1.47,3.8,5.47,5.47,0,0,1-1.64,4.07,7.35,7.35,0,0,1-4.4,1.91v2Zm0-18.17a1.58,1.58,0,0,0-1.23,1.57,1.88,1.88,0,0,0,1.23,1.74Zm4.49,10.41a1.57,1.57,0,0,0-.31-1,2.68,2.68,0,0,0-1.15-.74v3.52A1.78,1.78,0,0,0,589.39,275.73Z"/><line class="cls-3" x1="569.65" y1="215.61" x2="600.12" y2="215.61"/><line class="cls-3" x1="569.65" y1="223.93" x2="600.12" y2="223.93"/><line class="cls-3" x1="569.65" y1="232.24" x2="600.12" y2="232.24"/><ellipse class="cls-5" cx="374.98" cy="584.05" rx="280.29" ry="29.91"/><path class="cls-1" d="M563.3,410.27v74.22a5.52,5.52,0,0,1-5.52,5.51h-7.45V404.76h7.45A5.52,5.52,0,0,1,563.3,410.27Z"/><polygon class="cls-2" points="457.24 112.77 551.39 233.55 521.16 254.38 441.03 124.02 448.13 119.09 457.24 112.77"/><path class="cls-4" d="M550.33,404.76V490c-17.89,0-9.31-32.51-28-49.7,7.34-7.12,12.14-29.62,6.27-35.54Z"/><path class="cls-2" d="M528.6,404.76c5.87,5.92,1.07,28.42-6.27,35.54H506.14V404.86H495.57v-.1Z"/><path class="cls-2" d="M521.16,254.37,475.4,285.64l-37.88-65.23L423.93,197l-7-12.1c4.43-17.78,9.05-36.95,12.78-53.13l7.84-5.36,1.55-1.06,2-1.34,5,8.2Z"/><path class="cls-1" d="M437.52,126.42v94L423.93,197l-7-12.1c4.43-17.78,9.05-36.95,12.78-53.13Z"/><path class="cls-1" d="M345,309.94l-61.43,72.45a7.33,7.33,0,0,0-1.23,7.43l57.13,144.46H285.62l-54.06-136.7a48.94,48.94,0,0,1,5.5-46.16l72.07-102.28h92.76a36,36,0,0,1,4.29,55l-4.68,97.35a3.23,3.23,0,0,0,3.23,3.39H506.14v50.06H379.82A34.83,34.83,0,0,1,345,420.09Z"/><path class="cls-4" d="M423.48,102.79a26.18,26.18,0,0,1,7.21,24.58l-.77,3.36h0c-.11.38-.22.75-.34,1.12A108.54,108.54,0,0,1,417.8,157.5c-4.61,7.36-9.55,14.94-14.68,22.51l-16.23-16.07,18.17-68.68a26.1,26.1,0,0,1,18.41,7.52h0Z"/><path class="cls-2" d="M429.58,131.85c.12-.37.23-.74.34-1.12l-.24,1.05Z"/><path class="cls-4" d="M304.64,180.92l-25.53,25.72-29.52-29.52c16.28-22.19,31.81-44,47.8-67.48a32.87,32.87,0,0,1,27.16-14.38H386.1c-17.22,27.07-40.78,77.19-40.78,106.74,0,15.85,22.06,26.85,34.06,11.1,8-10.51,16.08-21.8,23.74-33.09,5.13-7.57,10.07-15.15,14.68-22.51a108.54,108.54,0,0,0,11.78-25.65l.1-.07C426,148,421.33,167.12,416.9,184.91c-6.51,26.09-12.63,49.21-15,55.63H309.13C306.76,218.05,305.12,200,304.64,180.92Z"/><path class="cls-2" d="M386.89,163.94,403.12,180c-7.66,11.29-15.73,22.58-23.74,33.09-12,15.75-34.07,4.75-34.06-11.1,0-29.55,23.56-79.67,40.78-106.74.52-.82,1-1.61,1.54-2.38a20.94,20.94,0,0,1,17.52-9.44h10.16a13,13,0,0,1,9.16,3.79,10.37,10.37,0,0,1-1,15.55h0a26.1,26.1,0,0,0-18.41-7.52Z"/><rect class="cls-2" x="309.13" y="240.54" width="92.76" height="8.61"/><path class="cls-1" d="M394.35,22C394.35,41.36,378,65,378,65l-6.73-13.45s14.08-7.12,8.45-13.08-13.42,0-13.42,0l-4.15-3.65,9.61-14.59H337.36C328.09,20.19,320,14,320,1.34h39.88S394.35-.44,394.35,22Z"/><path class="cls-2" d="M379.71,38.43c5.63,6-8.45,13.08-8.45,13.08L378,65v30.3H348.18l2.12-23.63h0a37.38,37.38,0,0,0,4.38-4l7.67-8.14H350.9a8.48,8.48,0,0,1-6.63-3.21l-3.56-4.49a6.86,6.86,0,0,0-5.36-2.59h-7.43a2.7,2.7,0,0,1-2.11-4.38l4.42-5.55a30.06,30.06,0,0,0,6-13.08q.6-3,1.12-6h34.39l-9.61,14.59,4.15,3.65S374.07,32.46,379.71,38.43Zm-32.48-.56c0-1.59-.77-2.88-1.72-2.88s-1.71,1.29-1.71,2.88.77,2.88,1.71,2.88S347.23,39.46,347.23,37.87Z"/><path class="cls-1" d="M362.35,59.51l-7.67,8.14a37.41,37.41,0,0,1-17.94,10.59l-3.9,1a6.07,6.07,0,0,1-7.38-7.46c2.13-8,4.05-15.46,5.76-22.56h4.13a6.86,6.86,0,0,1,5.36,2.59l3.56,4.49a8.48,8.48,0,0,0,6.63,3.21Z"/><path class="cls-1" d="M347.53,575.45v7.45a5.51,5.51,0,0,1-5.51,5.52h-82.7a5.52,5.52,0,0,1-5.52-5.52v-7.45Z"/><path class="cls-4" d="M347.53,575.45H253.8c0-17.89,32.51-9.31,49.71-28,7.11,7.34,29.62,12.14,35.53,6.27C339,553.72,347.53,566.86,347.53,575.45Z"/><path class="cls-1" d="M345.51,35c.95,0,1.72,1.29,1.72,2.88s-.77,2.88-1.72,2.88-1.71-1.29-1.71-2.88S344.57,35,345.51,35Z"/><path class="cls-3" d="M345.51,35c.95,0,1.72,1.29,1.72,2.88s-.77,2.88-1.72,2.88-1.71-1.29-1.71-2.88S344.57,35,345.51,35Z"/><path class="cls-2" d="M331.1,534.28,339,553.72c-5.91,5.87-28.42,1.07-35.53-6.27l-5.39-13.17h33Z"/><path class="cls-2" d="M279.11,206.64l-70.68,71.17-20.37-18.22c22.75-30.36,42.64-56.71,61.53-82.47Z"/><path class="cls-1" d="M208.43,277.81l-9,9.1-19.84-17.75h0a22.93,22.93,0,0,0,5.07-5l3.45-4.61Z"/><path class="cls-2" d="M156.92,297.35l-5.32-4.18a2.11,2.11,0,0,0-2.81.17L147,295.09c-1.74,1.1-5.57,1.75-8.85,1a2.25,2.25,0,0,1-1-3.87l8.14-7.34a27.05,27.05,0,0,1,8.59-5.23L174.21,272a22.78,22.78,0,0,0,5.33-2.86h0l19.84,17.75-1,1-21,23.57-9,10.15a8.47,8.47,0,0,1-2.29,1.83l-.82-7,4.87-5.65a2.34,2.34,0,0,0-.11-3.16l-.21-.18-2-1.56-4.76-3.75-.16-.12Z"/><polygon class="cls-1" points="170.82 363.78 86.06 473.75 68.73 456.01 170.82 363.78"/><polygon class="cls-2" points="170.82 363.78 68.73 456.01 1.3 388.59 103.4 296.36 170.82 363.78"/><path class="cls-2" d="M165.27,316.48l.82,7a8.62,8.62,0,0,1-10-1.18l-.82-.75a1.14,1.14,0,0,1-.16-.15,4.17,4.17,0,0,1,.25-5.73l9-9c.81-.77,2.12-1.83,3.45-.78l2,1.56.21.18a2.34,2.34,0,0,1,.11,3.16Z"/><path class="cls-2" d="M163.07,302.18l4.76,3.75c-1.33-1.05-2.64,0-3.45.78l-9,9a4.17,4.17,0,0,0-.25,5.73l-5.65-5.13c-1.43-1.48-1.07-4.13.46-5.55l9.14-8.54c.79-.74,1.88-1.57,3.81-.14Z"/><path class="cls-2" d="M156.92,297.35l6,4.71c-1.93-1.43-3-.6-3.81.14L150,310.74c-1.53,1.42-1.89,4.07-.46,5.55l-5.3-4.82h0a3.53,3.53,0,0,1,.31-4.91l9.55-8.93A2.39,2.39,0,0,1,156.92,297.35Z"/><path class="cls-2" d="M151.6,293.17l5.32,4.18a2.39,2.39,0,0,0-2.86.27l-9.55,8.93a3.53,3.53,0,0,0-.31,4.91L140,307.63l-.14-.14a3.69,3.69,0,0,1,0-5.22l2.4-2.41,4.78-4.77,1.75-1.75A2.11,2.11,0,0,1,151.6,293.17Z"/><path class="cls-3" d="M331.1,534.28h8.35L282.32,389.82a7.33,7.33,0,0,1,1.23-7.43L345,309.94"/><path class="cls-3" d="M345,278.43V420.09a34.83,34.83,0,0,0,34.84,34.83H506.14V404.86H404.73a3.23,3.23,0,0,1-3.23-3.39l4.68-97.35a36,36,0,0,0-4.29-55H309.13L237.06,351.42a48.94,48.94,0,0,0-5.5,46.16l54.06,136.7H331"/><polyline class="cls-3" points="401.89 249.14 401.89 240.54 309.13 240.54 309.13 249.14"/><path class="cls-3" d="M386.1,95.26H324.55a32.87,32.87,0,0,0-27.16,14.38c-16,23.52-31.52,45.29-47.8,67.48-18.89,25.76-38.78,52.11-61.53,82.47l-3.45,4.61a23.38,23.38,0,0,1-10.4,7.82L154,279.64a27.05,27.05,0,0,0-8.59,5.23l-8.14,7.34a2.25,2.25,0,0,0,1,3.87c3.28.76,7.11.11,8.85-1"/><path class="cls-3" d="M309.13,240.54c-2.37-22.49-4-40.54-4.49-59.62-.37-14.57-.07-29.73,1.09-47.92"/><polyline class="cls-3" points="177.41 311.51 198.36 287.95 199.39 286.91 208.43 277.81 279.11 206.64 304.64 180.92"/><line class="cls-3" x1="161.94" y1="320.34" x2="165.27" y2="316.48"/><path class="cls-3" d="M165.27,316.48l4.87-5.65a2.34,2.34,0,0,0-.11-3.16l-.21-.18-2-1.56"/><line class="cls-3" x1="167.83" y1="305.93" x2="163.07" y2="302.18"/><line class="cls-3" x1="162.91" y1="302.06" x2="156.92" y2="297.35"/><path class="cls-3" d="M156.92,297.35l-5.32-4.18a2.11,2.11,0,0,0-2.81.17L147,295.09"/><line class="cls-3" x1="147.04" y1="295.09" x2="142.26" y2="299.86"/><path class="cls-3" d="M142.26,299.86l-2.4,2.41a3.69,3.69,0,0,0,0,5.22l.14.14,4.22,3.83"/><line class="cls-3" x1="144.2" y1="311.47" x2="149.5" y2="316.29"/><line class="cls-3" x1="149.5" y1="316.29" x2="155.15" y2="321.42"/><path class="cls-3" d="M155.31,321.57l.82.75a8.62,8.62,0,0,0,10,1.18"/><path class="cls-3" d="M166.09,323.5a8.47,8.47,0,0,0,2.29-1.83l9-10.15"/><path class="cls-3" d="M144.65,311.91a4.7,4.7,0,0,1-.45-.44h0a3.53,3.53,0,0,1,.31-4.91l9.55-8.93a2.39,2.39,0,0,1,2.86-.27l.16.1"/><path class="cls-3" d="M149.71,316.48l-.21-.19c-1.43-1.48-1.07-4.13.46-5.55l9.14-8.54c.79-.74,1.88-1.57,3.81-.14l.16.12"/><path class="cls-3" d="M155.31,321.57a1.14,1.14,0,0,1-.16-.15,4.17,4.17,0,0,1,.25-5.73l9-9c.81-.77,2.12-1.83,3.45-.78"/><line class="cls-3" x1="199.39" y1="286.91" x2="179.55" y2="269.16"/><line class="cls-3" x1="188.06" y1="259.59" x2="208.43" y2="277.81"/><path class="cls-3" d="M337.36,20.19h34.39l-9.61,14.59,4.15,3.65s7.78-6,13.42,0-8.45,13.08-8.45,13.08L378,65"/><line class="cls-3" x1="350.3" y1="71.63" x2="348.18" y2="95.26"/><path class="cls-3" d="M378,95.26V65S394.35,41.36,394.35,22c0-22.46-34.52-20.68-34.52-20.68H320c0,12.64,8.14,18.85,17.41,18.85q-.53,3-1.12,6a30.06,30.06,0,0,1-6,13.08l-4.42,5.55a2.7,2.7,0,0,0,2.11,4.38h3.3"/><path class="cls-3" d="M331.22,49.22h4.13a6.86,6.86,0,0,1,5.36,2.59l3.56,4.49a8.48,8.48,0,0,0,6.63,3.21h11.45l-7.67,8.14a37.41,37.41,0,0,1-17.94,10.59l-3.9,1a6.07,6.07,0,0,1-7.38-7.46c2.13-8,4.05-15.46,5.76-22.56"/><line class="cls-3" x1="249.59" y1="177.12" x2="279.11" y2="206.64"/><path class="cls-3" d="M495.57,404.86v-.1h33c5.87,5.92,1.07,28.42-6.27,35.54H506.14"/><path class="cls-3" d="M528.6,404.76h21.73V490c-17.89,0-9.31-32.51-28-49.7"/><path class="cls-3" d="M550.33,404.76h7.45a5.52,5.52,0,0,1,5.52,5.51v74.22a5.52,5.52,0,0,1-5.52,5.51h-7.45"/><path class="cls-3" d="M331,534.28h.11L339,553.72c-5.91,5.87-28.42,1.07-35.53-6.27l-5.39-13.17"/><path class="cls-3" d="M339,553.72s8.49,13.14,8.49,21.73H253.8c0-17.89,32.51-9.31,49.71-28"/><path class="cls-3" d="M347.53,575.45v7.45a5.51,5.51,0,0,1-5.51,5.52h-82.7a5.52,5.52,0,0,1-5.52-5.52v-7.45"/><polygon class="cls-3" points="68.73 456.01 1.3 388.59 103.4 296.36 170.82 363.78 68.73 456.01"/><polyline class="cls-3" points="170.82 363.78 86.06 473.75 68.73 456.01"/><polyline class="cls-3" points="170.82 363.78 166.09 323.5 165.27 316.48"/><line class="cls-3" x1="103.4" y1="296.35" x2="142.26" y2="299.86"/><path class="cls-3" d="M423.47,102.78a10.37,10.37,0,0,0,1-15.55,13,13,0,0,0-9.16-3.79H405.16a20.94,20.94,0,0,0-17.52,9.44c-.5.77-1,1.56-1.54,2.38-17.22,27.07-40.78,77.19-40.78,106.74,0,15.85,22.06,26.85,34.06,11.1,8-10.51,16.08-21.8,23.74-33.09,5.13-7.57,10.07-15.15,14.68-22.51a108.54,108.54,0,0,0,11.78-25.65c.12-.37.23-.74.34-1.12"/><path class="cls-3" d="M423.47,102.78a26.1,26.1,0,0,0-18.41-7.52l-18.17,68.68-2.27,8.58"/><path class="cls-3" d="M401.89,240.54c2.38-6.42,8.5-29.54,15-55.63,4.43-17.79,9.05-36.95,12.78-53.13l.24-1.05h0l.77-3.36a26.18,26.18,0,0,0-7.21-24.58"/><line class="cls-3" x1="386.89" y1="163.94" x2="403.12" y2="180.01"/><polygon class="cls-3" points="448.13 119.09 457.24 112.77 551.39 233.55 521.16 254.38 441.03 124.02 448.13 119.09"/><polyline class="cls-3" points="521.16 254.38 475.41 285.64 416.9 184.91"/><polyline class="cls-3" points="441.03 124.02 429.68 131.78 429.58 131.84"/><polyline class="cls-3" points="448.13 119.09 423.48 102.79 423.47 102.78 423.47 102.78"/><circle class="cls-6" cx="95.62" cy="246.51" r="10.64"/><line class="cls-6" x1="496.02" y1="349.47" x2="509.25" y2="362.7"/><line class="cls-6" x1="496.02" y1="362.7" x2="509.25" y2="349.47"/><line class="cls-6" x1="218.32" y1="109.45" x2="231.55" y2="122.68"/><line class="cls-6" x1="218.32" y1="122.68" x2="231.55" y2="109.45"/><path class="cls-1" d="M472.87,324.74a6.1,6.1,0,1,0-6.09,6.09A6.1,6.1,0,0,0,472.87,324.74Z"/><circle class="cls-4" cx="121.36" cy="165.34" r="33.31"/><path class="cls-1" d="M117.81,154.21a5.95,5.95,0,0,1,0,7.92,5.18,5.18,0,0,1-7.57,0,5.91,5.91,0,0,1,0-7.91,5.19,5.19,0,0,1,7.57,0Zm14.28-1-18,24.53h-4.53l18-24.53ZM115.45,160a2.76,2.76,0,0,0,.57-1.77,2.67,2.67,0,0,0-.6-1.77,1.83,1.83,0,0,0-1.46-.72,1.73,1.73,0,0,0-1.42.72,2.82,2.82,0,0,0-.56,1.77,2.67,2.67,0,0,0,.6,1.77,1.81,1.81,0,0,0,1.45.72A1.71,1.71,0,0,0,115.45,160Zm16.29,8.43a5.91,5.91,0,0,1,0,7.91,5.18,5.18,0,0,1-7.56,0,5.91,5.91,0,0,1,0-7.91,5.18,5.18,0,0,1,7.56,0Zm-2.28,5.86a2.82,2.82,0,0,0,.56-1.77,2.7,2.7,0,0,0-.6-1.78A1.83,1.83,0,0,0,128,170a1.73,1.73,0,0,0-1.42.71,2.79,2.79,0,0,0-.57,1.78,2.67,2.67,0,0,0,.6,1.77A1.83,1.83,0,0,0,128,175,1.74,1.74,0,0,0,129.46,174.29Z"/><polyline class="cls-6" points="142.76 164.39 153.98 155.69 165.2 164.39 176.43 155.69 187.65 164.39 198.88 155.69"/></g></g></svg>