<svg xmlns="http://www.w3.org/2000/svg" viewBox="0 0 501.04 655.59"><defs><style>.cls-1{fill:#f0f0f0;}.cls-2{fill:#fff;}.cls-3,.cls-6,.cls-7{fill:none;}.cls-3,.cls-7{stroke:#323433;stroke-linecap:round;stroke-linejoin:round;}.cls-3{stroke-width:2.61px;}.cls-4{fill:#52cca7;}.cls-5{fill:#323433;}.cls-7{stroke-width:1.74px;}</style></defs><title>Asset 22</title><g id="Layer_2" data-name="Layer 2"><g id="graphic"><ellipse class="cls-1" cx="252.88" cy="612.64" rx="195.18" ry="42.95"/><rect class="cls-2" x="198.07" y="618.03" width="92.45" height="9.31"/><path class="cls-3" d="M198.21,618.68l-.14,7.9a.78.78,0,0,0,.8.76h90.86a.78.78,0,0,0,.8-.76v-7.9"/><path class="cls-2" d="M473,273.1a4.42,4.42,0,0,0-.81-2.44,4.46,4.46,0,1,0,.81,2.44Zm26.53,8.8a1.2,1.2,0,0,1-.29,1.67L444.7,321.65l-27.38,19.14-100,70,11.59-40.95a30.22,30.22,0,0,1,6.21-11.43,37.64,37.64,0,0,0,8.93-21l101.21-70.75,20-14-59.86-85.17a124.39,124.39,0,0,0-1.54-21.7Zm-39,2.39a4.47,4.47,0,1,0-6.22-1.09A4.46,4.46,0,0,0,460.55,284.29Zm-11.48,6.93a5.19,5.19,0,0,0,.07-.87,5,5,0,0,0-9.91-.85l-.62,3.51-3.51-.61a5.1,5.1,0,0,0-.86-.08,5,5,0,0,0-.85,9.92l13.35,2.33Z"/><polygon class="cls-4" points="444.74 321.72 468.88 356.07 448.55 356.18 441.55 375.27 417.41 340.92 417.32 340.79 444.7 321.65 444.74 321.72"/><path class="cls-1" d="M405.38,167.46l59.86,85.17-20,14a70.39,70.39,0,0,0-11.51-8.12c-13.17-6.78-23.14,2.4-27.13,11.17s-18.75,10.78-25.53,6.39c-26.8-17.34-41.81-11-50,.17-7-12.74-11.26-28.22-15.78-42.21l30.78,4.52,1-6.21,33.2,4.53a15.07,15.07,0,0,0,16.9-12.43c2.74-16.29,6.91-41.7,7.86-50.57C405.09,173.82,405.32,171.4,405.38,167.46Z"/><path class="cls-2" d="M473,273.1a4.47,4.47,0,1,1-.81-2.44A4.45,4.45,0,0,1,473,273.1Z"/><path class="cls-2" d="M461.64,278.07a4.47,4.47,0,1,1-6.22-1.09A4.46,4.46,0,0,1,461.64,278.07Z"/><path class="cls-2" d="M445.28,266.59,344.07,337.34c.1-1.16.16-2.35.16-3.54a37.76,37.76,0,0,0-1.57-10.8l-4.33-17,17.46-6.19c-11.22-4.37-18.88-13.05-24.67-23.61,8.18-11.17,23.19-17.51,50-.17,6.78,4.39,21.54,2.39,25.53-6.39s14-17.95,27.13-11.17A70.39,70.39,0,0,1,445.28,266.59Z"/><path class="cls-2" d="M443.23,427.42v87.2a.8.8,0,0,1-.8.8h-8.17V426.48l8.17.15A.79.79,0,0,1,443.23,427.42Z"/><path class="cls-5" d="M449.14,290.35a5.19,5.19,0,0,1-.07.87l-2.33,13.35-13.35-2.33a5,5,0,0,1,.85-9.92,5.1,5.1,0,0,1,.86.08l3.51.61.62-3.51a5,5,0,0,1,9.91.85Z"/><path class="cls-5" d="M434.26,426.48v88.94c-26.27,0-18-47-33.61-48.2h0V426.48Z"/><path class="cls-2" d="M403.84,145.76a124.39,124.39,0,0,1,1.54,21.7c-.06,3.94-.29,6.36-.29,6.37-.95,8.87-5.12,34.28-7.86,50.57a15.07,15.07,0,0,1-16.9,12.43l-33.2-4.53,5.44-33.46,15.39,3.5a3.71,3.71,0,0,0,4.47-2.87l12-57.75c-5.36-4.89-8-8.34-9.24-15.1a13.19,13.19,0,0,0-1.59-4.34l-.22-.38-4.5-7.7a2.7,2.7,0,0,1,3.87-3.57l14,10.76-11.76-16.74C393.72,110.21,401.08,129.12,403.84,145.76Z"/><path class="cls-4" d="M264.91,423l-7.13,11.74A22.33,22.33,0,0,0,255,451l.62,2.93,28,132.59-.78.17H232.34L208,487.2l-7.57-30.95A48.51,48.51,0,0,1,204.7,422l16.21-30.57,15.48-29.19,13.12-24.75,1.25-.44,87.57-31,4.33,17a37.76,37.76,0,0,1,1.57,10.8c0,1.19-.06,2.38-.16,3.54a37.64,37.64,0,0,1-8.93,21,30.22,30.22,0,0,0-6.21,11.43l-11.59,40.95-4.45,15.73h87.76v40.73h0a5.68,5.68,0,0,0-.59,0H286.12a25,25,0,0,1-24.39-30.61Q263.32,429.65,264.91,423Z"/><path class="cls-2" d="M374.94,104.65l11.76,16.74-14-10.76a2.7,2.7,0,0,0-3.87,3.57l4.5,7.7L299.25,16.45,269.06,37.56,16.45,214.13,50,261.8l9,12.8,13.4,19.08,15.75,22.41h0a3,3,0,0,0-1.47,2.76l.93,16-7.82-11.14L1.52,212.39a1.21,1.21,0,0,1,.29-1.68L301,1.52a1.2,1.2,0,0,1,1.67.29Z"/><path class="cls-1" d="M177.72,300l-4.12,16.25a3.83,3.83,0,0,1-3.07,2.86l-69.65,9.24L92,316.85a3,3,0,0,0-3.29-1,2.88,2.88,0,0,0-.62.28h0L72.36,293.68a39.42,39.42,0,0,0,50.53-15.3c24.14,6.11,41.3-12.69,41.3-32.66,0-30.53-39.11-34.9-39.11-55.55,0-25.06,29.46-15.08,40.7-26.32C187.14,142.49,168.21,126,189.7,109c9.48-7.5,47.62.23,67.39-16.21,12.86-10.69,21.1-33.5,12-55.23l30.19-21.11L373.36,121.9l.22.38a13.19,13.19,0,0,1,1.59,4.34c1.23,6.76,3.88,10.21,9.24,15.1l-12,57.75a3.71,3.71,0,0,1-4.47,2.87l-15.39-3.5-39.05-8.9a56.9,56.9,0,0,0-27,.44c-6.86,1.79-13.53,3.72-20.17,5.85L263,177.3l-.21-1.23c-.28-11.35,6.32-10.75,6.32-26.94,0-23.38-16.49-23.38-31.18-23.38s-18.89-9.6-25.79-9.6h-.67a13.1,13.1,0,0,0,0,26.19h4.14c.11,5.17.18,9.78.6,15.32a9.46,9.46,0,0,1-1.66,6.06A41.28,41.28,0,0,1,212,167.1a1.44,1.44,0,0,0-.18,1.61c3.2,6.22-.65,21.93,27.13,23.63a2,2,0,0,1,1.91,2v11.17c-6.56,2.67-13.25,5.64-20.21,8.95A56.77,56.77,0,0,0,189.86,252ZM158,189.39a9.52,9.52,0,1,0-9.52,9.53A9.52,9.52,0,0,0,158,189.39Z"/><path class="cls-5" d="M266.33,196.23c6.64-2.13,13.31-4.06,20.17-5.85a56.9,56.9,0,0,1,27-.44l39.05,8.9-5.44,33.46-1,6.21L315.34,234c4.52,14,8.8,29.47,15.78,42.21,5.79,10.56,13.45,19.24,24.67,23.61L338.33,306l-87.57,31c-.15-.35-.31-.7-.46-1-11-24.23-17.61-39.95-25.21-64.09l-8.33,36.36L210.52,307,177.72,300l12.14-48a56.77,56.77,0,0,1,30.75-37.56c7-3.31,13.65-6.28,20.21-8.95C249.46,202,257.87,198.94,266.33,196.23Z"/><path class="cls-5" d="M283.69,586.55l6.84,32.13H198.21c0-17.45,35.5-22,34.13-32H282.9l.78-.17ZM252.9,603.27a7.32,7.32,0,1,0-7.32,7.32A7.31,7.31,0,0,0,252.9,603.27Z"/><path class="cls-2" d="M269.06,37.56c9.13,21.73.89,44.54-12,55.23-19.77,16.44-57.91,8.71-67.39,16.21-21.49,17-2.56,33.49-23.92,54.85-11.24,11.24-40.7,1.26-40.7,26.32,0,20.65,39.11,25,39.11,55.55,0,20-17.16,38.77-41.3,32.66a39.38,39.38,0,1,0-73.11-20.33q0,1.9.18,3.75L16.45,214.13Z"/><path class="cls-2" d="M263,177.3l3.31,18.93c-8.46,2.71-16.87,5.76-25.51,9.3V194.36a2,2,0,0,0-1.91-2c-27.78-1.7-23.93-17.41-27.13-23.63a1.44,1.44,0,0,1,.18-1.61,41.28,41.28,0,0,0,2.61-3.38,9.46,9.46,0,0,0,1.66-6.06c-.42-5.54-.49-10.15-.6-15.32H227a6.5,6.5,0,0,1,6.5,6.5v8.81h4.37s4.87-10.85,10.85-6.6.16,13.68.16,13.68C253.78,167,258.8,172.07,263,177.3Z"/><path class="cls-2" d="M257.78,434.74,264.91,423q-1.59,6.66-3.18,13.58a24.89,24.89,0,0,0,.41,12.77l-6.5,4.54L255,451A22.33,22.33,0,0,1,257.78,434.74Z"/><path class="cls-5" d="M262.81,176.07l.21,1.23c-4.22-5.23-9.24-10.32-14.12-12.57,0,0,5.82-9.43-.16-13.68s-10.85,6.6-10.85,6.6h-4.37v-8.81a6.5,6.5,0,0,0-6.5-6.5H211.49a13.1,13.1,0,0,1,0-26.19h.67c6.9,0,11.1,9.6,25.79,9.6s31.18,0,31.18,23.38C269.13,165.32,262.53,164.72,262.81,176.07Z"/><path class="cls-2" d="M250.3,336c.15.34.31.69.46,1l-1.25.44Z"/><path class="cls-1" d="M250.3,336l-.79,1.48-13.12,24.75a16.6,16.6,0,1,0-15.48,29.19L204.7,422a48.75,48.75,0,0,0-5.24,16.42l-17,11.9-68.08-96.88c24.56-.92,53.88-2.63,74.72-4.73a17.39,17.39,0,0,0,15.24-13.57l6.2-28.18,6.24,1.32,8.33-36.36C232.69,296.05,239.33,311.77,250.3,336Zm-55,52a8,8,0,1,0-8,8A8,8,0,0,0,195.32,388Z"/><path class="cls-2" d="M245.58,596a7.32,7.32,0,1,1-7.31,7.31A7.31,7.31,0,0,1,245.58,596Z"/><path class="cls-2" d="M236.39,362.23l-15.48,29.19a16.6,16.6,0,1,1,15.48-29.19Z"/><path class="cls-2" d="M210.52,307l-6.2,28.18a17.39,17.39,0,0,1-15.24,13.57c-20.84,2.1-50.16,3.81-74.72,4.73l-6,.22a25.85,25.85,0,0,1-8.37-1.12,25.55,25.55,0,0,1-11.14-7l-6.58-7a11.6,11.6,0,0,1-3.09-9l.54-5.79,7.82,11.14-.93-16a3,3,0,0,1,1.47-2.76,2.88,2.88,0,0,1,.62-.28,3,3,0,0,1,3.29,1l8.86,11.51,69.65-9.24a3.83,3.83,0,0,0,3.07-2.86L177.72,300Z"/><path class="cls-2" d="M200.44,456.25,208,487.2l-8,5.57a1.21,1.21,0,0,1-1.67-.29L100,352.53h0a25.85,25.85,0,0,0,8.37,1.12l6-.22,68.08,96.88,17-11.9A48.61,48.61,0,0,0,200.44,456.25Z"/><path class="cls-2" d="M187.35,380a8,8,0,1,1-8,8A8,8,0,0,1,187.35,380Z"/><path class="cls-5" d="M148.5,179.87a9.53,9.53,0,1,1-9.52,9.52A9.52,9.52,0,0,1,148.5,179.87Z"/><path class="cls-2" d="M128.53,258.05a39.22,39.22,0,0,1-5.64,20.33,43.11,43.11,0,0,1-5.15-1.65c-18.72-7.23-13.31-29-31.42-28.88-13.72.09-22.42,5.5-27.36,26.75l-9-12.8q-.18-1.85-.18-3.75a39.38,39.38,0,0,1,78.75,0Z"/><path class="cls-4" d="M117.74,276.73a43.11,43.11,0,0,0,5.15,1.65,39.42,39.42,0,0,1-50.53,15.3L59,274.6c4.94-21.25,13.64-26.66,27.36-26.75C104.43,247.72,99,269.5,117.74,276.73Z"/><path class="cls-6" d="M262.81,426.45l1,1c.35-1.51.71-3,1.06-4.49Z"/><polyline class="cls-3" points="405.38 167.46 465.24 252.63 445.28 266.59 344.07 337.34"/><polyline class="cls-3" points="199.46 438.42 182.44 450.31 114.36 353.43"/><polyline class="cls-3" points="88.11 316.09 72.36 293.68 58.96 274.6 49.96 261.8 16.45 214.13 269.06 37.56 299.25 16.45 373.36 121.9"/><path class="cls-3" d="M446.74,304.57l-13.35-2.33a5,5,0,0,1,.85-9.92,5.1,5.1,0,0,1,.86.08l3.51.61.62-3.51a5,5,0,0,1,9.91.85,5.19,5.19,0,0,1-.07.87Z"/><path class="cls-3" d="M461.64,278.07a4.47,4.47,0,1,1-6.22-1.09A4.46,4.46,0,0,1,461.64,278.07Z"/><line class="cls-3" x1="463.28" y1="292.3" x2="462.45" y2="280.51"/><path class="cls-3" d="M472.18,270.66a4.46,4.46,0,0,1-1.09,6.22,4.47,4.47,0,1,1,1.09-6.22Z"/><line class="cls-3" x1="473.81" y1="284.89" x2="472.99" y2="273.1"/><path class="cls-3" d="M291.37,379.46,264.91,423l-7.13,11.74A22.33,22.33,0,0,0,255,451l.62,2.93,28,132.59v.07l6.84,32.13H198.21c0-17.45,35.5-22,34.13-32L208,487.2l-7.57-30.95A48.51,48.51,0,0,1,204.7,422l16.21-30.57,15.48-29.19,13.12-24.75.79-1.48"/><line class="cls-3" x1="232.34" y1="586.65" x2="282.9" y2="586.65"/><path class="cls-3" d="M434.26,515.42h8.17a.8.8,0,0,0,.8-.8v-87.2a.79.79,0,0,0-.8-.79l-8.17-.15"/><path class="cls-3" d="M282.9,380.39A37.78,37.78,0,0,0,319,331.57"/><path class="cls-3" d="M264.91,423q-1.59,6.66-3.18,13.58a25,25,0,0,0,24.39,30.61H400.06a5.68,5.68,0,0,1,.59,0c15.6,1.15,7.34,48.2,33.61,48.2V426.48H312.89l4.45-15.73,11.59-40.95a30.22,30.22,0,0,1,6.21-11.43,37.64,37.64,0,0,0,8.93-21c.1-1.16.16-2.35.16-3.54a37.76,37.76,0,0,0-1.57-10.8"/><polyline class="cls-3" points="342.68 323.07 342.66 323 338.33 306"/><path class="cls-3" d="M177.64,300l.08,0,32.8,6.94,6.24,1.32,8.33-36.36c7.6,24.14,14.24,39.86,25.21,64.09.15.34.31.69.46,1"/><path class="cls-3" d="M315.34,234c4.52,14,8.8,29.47,15.78,42.21,5.79,10.56,13.45,19.24,24.67,23.61L338.33,306l-87.57,31-1.25.44"/><path class="cls-3" d="M308.34,215.43a159.29,159.29,0,0,1,7,18.56"/><path class="cls-3" d="M403.84,145.76,499.52,281.9a1.2,1.2,0,0,1-.29,1.67L444.7,321.65l-27.38,19.14-100,70"/><line class="cls-3" x1="262.14" y1="449.35" x2="255.64" y2="453.89"/><path class="cls-3" d="M208,487.2l-8,5.57a1.21,1.21,0,0,1-1.67-.29L100,352.53"/><path class="cls-3" d="M88.11,316.1a3,3,0,0,0-1.47,2.76l.93,16-7.82-11.14L1.52,212.39a1.21,1.21,0,0,1,.29-1.68L301,1.52a1.2,1.2,0,0,1,1.67.29l72.27,102.84,11.76,16.74-14-10.76a2.7,2.7,0,0,0-3.87,3.57l4.5,7.7.22.38a13.19,13.19,0,0,1,1.59,4.34c1.23,6.76,3.88,10.21,9.24,15.1l-12,57.75a3.71,3.71,0,0,1-4.47,2.87l-15.39-3.5-39.05-8.9a56.9,56.9,0,0,0-27,.44c-6.86,1.79-13.53,3.72-20.17,5.85-8.46,2.71-16.87,5.76-25.51,9.3-6.56,2.67-13.25,5.64-20.21,8.95A56.77,56.77,0,0,0,189.86,252l-12.14,48-4.12,16.25a3.83,3.83,0,0,1-3.07,2.86l-69.65,9.24L92,316.85a3,3,0,0,0-3.29-1A2.88,2.88,0,0,0,88.11,316.1Z"/><path class="cls-3" d="M347.13,232.3l33.2,4.53a15.07,15.07,0,0,0,16.9-12.43c2.74-16.29,6.91-41.7,7.86-50.57,0,0,.23-2.43.29-6.37a124.39,124.39,0,0,0-1.54-21.7c-2.76-16.64-10.12-35.55-28.9-41.11"/><polyline class="cls-3" points="315.33 233.99 315.34 233.99 346.12 238.51 347.13 232.3 352.57 198.84"/><path class="cls-3" d="M210.52,307l-6.2,28.18a17.39,17.39,0,0,1-15.24,13.57c-20.84,2.1-50.16,3.81-74.72,4.73l-6,.22a25.85,25.85,0,0,1-8.37-1.12,25.55,25.55,0,0,1-11.14-7l-6.58-7a11.6,11.6,0,0,1-3.09-9l.54-5.79"/><path class="cls-3" d="M240.82,205.61V194.36a2,2,0,0,0-1.91-2c-27.78-1.7-23.93-17.41-27.13-23.63a1.44,1.44,0,0,1,.18-1.61,41.28,41.28,0,0,0,2.61-3.38,9.46,9.46,0,0,0,1.66-6.06c-.42-5.54-.49-10.15-.6-15.32"/><path class="cls-3" d="M263,177.3c-4.22-5.23-9.24-10.32-14.12-12.57,0,0,5.82-9.43-.16-13.68s-10.85,6.6-10.85,6.6h-4.37v-8.81a6.5,6.5,0,0,0-6.5-6.5H211.49a13.1,13.1,0,0,1,0-26.19h.67c6.9,0,11.1,9.6,25.79,9.6s31.18,0,31.18,23.38c0,16.19-6.6,15.59-6.32,26.94l.21,1.23,3.31,18.93v0"/><line class="cls-3" x1="400.65" y1="426.48" x2="400.65" y2="467.21"/><path class="cls-3" d="M72.36,293.68a39.38,39.38,0,1,0-22.58-35.63q0,1.9.18,3.75"/><path class="cls-3" d="M59,274.6c4.94-21.25,13.64-26.66,27.36-26.75,18.11-.13,12.7,21.65,31.42,28.88a43.11,43.11,0,0,0,5.15,1.65c24.14,6.11,41.3-12.69,41.3-32.66,0-30.53-39.11-34.9-39.11-55.55,0-25.06,29.46-15.08,40.7-26.32C187.14,142.49,168.21,126,189.7,109c9.48-7.5,47.62.23,67.39-16.21,12.86-10.69,21.1-33.5,12-55.23"/><path class="cls-3" d="M158,189.39a9.52,9.52,0,1,0-9.52,9.53A9.52,9.52,0,0,0,158,189.39Z"/><path class="cls-3" d="M236.39,362.23a16.6,16.6,0,1,0-15.48,29.19"/><path class="cls-3" d="M195.32,388a8,8,0,1,0-8,8A8,8,0,0,0,195.32,388Z"/><path class="cls-3" d="M331.12,276.2c8.18-11.17,23.19-17.51,50-.17,6.78,4.39,21.54,2.39,25.53-6.39s14-17.95,27.13-11.17a70.39,70.39,0,0,1,11.51,8.12"/><path class="cls-7" d="M252.9,603.27a7.32,7.32,0,1,0-7.32,7.32A7.31,7.31,0,0,0,252.9,603.27Z"/><polyline class="cls-7" points="49.51 408.8 68.04 413.89 67.74 433.12 86.28 438.21 85.98 457.44 104.52 462.53"/><line class="cls-7" x1="41.58" y1="484.17" x2="57.51" y2="501.11"/><line class="cls-7" x1="41.08" y1="500.6" x2="58.01" y2="484.67"/><rect class="cls-5" x="97.99" y="502.02" width="15.01" height="15.01" transform="translate(-329.39 223.84) rotate(-45)"/></g></g></svg>