<svg xmlns="http://www.w3.org/2000/svg" viewBox="0 0 451 674.79"><defs><style>.cls-1{fill:#f0f0f0;}.cls-2,.cls-6{fill:none;stroke:#323433;stroke-linecap:round;stroke-linejoin:round;}.cls-2{stroke-width:1.74px;}.cls-3{fill:#fff;}.cls-4{fill:#323433;}.cls-5{fill:#52cca7;}.cls-6{stroke-width:2.61px;}</style></defs><title>Asset 11</title><g id="Layer_2" data-name="Layer 2"><g id="graphic"><ellipse class="cls-1" cx="183.95" cy="633.74" rx="172.69" ry="41.05"/><polyline class="cls-2" points="0.87 235.51 16.12 234.91 20.5 249.54 35.75 248.94 40.13 263.57 55.39 262.98"/><line class="cls-2" x1="300.72" y1="358.85" x2="313.33" y2="370.5"/><line class="cls-2" x1="301.2" y1="370.98" x2="312.85" y2="358.37"/><path class="cls-3" d="M449.42,315.13a4.22,4.22,0,0,1-1.11,4.64c-12.75,11.56-30.75,11.42-52.24,3.68a38.8,38.8,0,0,0-6-1.66l-73.17-14a35.79,35.79,0,0,1-17.11-8.41c-12.19-10.84-22.87-21.06-32.13-30.38h0l30-24.07c8.2,9.54,15.62,17.81,21,23a25.18,25.18,0,0,0,11.23,6.37l63.64,21a10.47,10.47,0,0,0,6.72-.48,17.62,17.62,0,0,1,8.59-1.34,13.19,13.19,0,0,0,7.16-1.49,70.4,70.4,0,0,0,10.41-6.69,2,2,0,0,1,3.25,2c-1.17,5.86-4.41,10-10.42,15.64l28.07,9.81A4.33,4.33,0,0,1,449.42,315.13Z"/><path class="cls-3" d="M334.39,427.47l19.32,86.79a33.2,33.2,0,0,1-9.26,2.55L325.12,430Z"/><path class="cls-4" d="M325.12,430l19.33,86.82c-16.21,1.69-18.22-16.18-31.73-21.72a18,18,0,0,0-17.48-13.76,19,19,0,0,0-3.13.27L283,441.4Z"/><path class="cls-4" d="M154.9,231.28c-14.75-5.81-24.11-10.6-36.87-13.93l3-6.64L136.7,175.4a406.93,406.93,0,0,0,52.93,12.84h0c-2.08,14.52-1.43,24.5,2.89,35.43a6.71,6.71,0,0,0,9.15,3.58c15.49-7.47,24.83-17.16,32-33.67,1.58.12,3.17.24,4.77.34a41.07,41.07,0,0,1,28.77,14.72c9.87,11.9,20.73,25,30.48,36.32l-30,24.07-4.36,3.5c-5.12-8-10.27-14.4-16.33-19.15-16.67,30.84-8.09,57.06,17.64,86.5-6.78.46-13.3.84-19.6,1.13-42.9,2-75.17.23-106.6-3.82-5.3-.69-10.58-1.44-15.88-2.24,21.92-30.47,26.48-50.33,26.74-55.67.61-12.49-6.24-18.29-2.85-29.59,1.77-5.86,4.12-6,7-13.81Q154.32,233.54,154.9,231.28Z"/><path class="cls-4" d="M176.54,525.7c-10.21,1.57-20.19,5.54-31.19,3.18C133.2,526.45,125,517.27,121.41,506a22.11,22.11,0,0,0,2.33,14.28c5.5,9.43,14.54,17.29,25.93,18.07,12.87,1.21,25.54.25,38.11-1.76L179,524.69C178.05,524.79,177.53,525.55,176.54,525.7Z"/><path class="cls-5" d="M149.67,538.31c-11.39-.78-20.43-8.64-25.93-18.07A22.11,22.11,0,0,1,121.41,506a43.81,43.81,0,0,1-1.2-4.57,43.81,43.81,0,0,0,1.2,4.57,18.6,18.6,0,0,1,5.87-10.86A18.6,18.6,0,0,0,121.41,506c3.63,11.31,11.79,20.49,23.94,22.92,11,2.36,20.84-1.81,31.05-3.38,1-.15.76-.1,1.74-.2l.54-.52c49.86-12.68,94.53-22.46,117.72-24.3l-1.32-5.82-3-13.06L283,441.4l-81.29,22s31.86-67.34,42.09-93.79A46.3,46.3,0,0,0,245,341c-42.9,2-75.17.23-106.6-3.82-25,29.64-47.07,56.6-73.23,90.08a40.18,40.18,0,0,0,.31,49.87c23.37,29.15,42.85,51.29,66.14,80,13.45,16.57,23.14,32.25,26.28,47.51l8.41-6.56,10.56-8.24,32.51-25.36-21.62-27.92C175.21,538.56,162.54,539.52,149.67,538.31Zm-23.3-93.16,18.76-20L130,463.73l-4.28-5.62A10.06,10.06,0,0,1,126.37,445.15Z"/><path class="cls-4" d="M287.19,85.24c7.5,9.72,4.34,25-2.8,33-7.44,8.33-15.79,4.94-20.33,13-5.07,9,2.86,17.59-2.54,23.64-4.64,5.19-11.55,0-20.08,5.84-7.17,4.89-6.15,11.19-12.19,13.73a11.57,11.57,0,0,1-5.43.79c.75-7.94,2.48-13.52,4-19.6,4-3.19,9.28-8.06,8-10.9-1.14-2.64-5.43-1.54-8.73-.21-2.46-11.18-10.29-18.19-20.86-21.25a15.53,15.53,0,0,0-19.57,12.24c-.75,4.25-1.39,8.27-1.93,12.36-7.59-20.64-5.56-29.42-1.53-33.41,5.28-5.23,13.16-1.38,21.6-8.64,7.79-6.7,5.94-14.17,12.45-17.79,7.26-4,12.39,5.64,23.13,4.07C252,90.4,252.74,79,264.82,76.85,272.7,75.46,282.07,78.61,287.19,85.24Z"/><path class="cls-3" d="M237.64,597.76l6.22,7.33-70.34,54.38a33.65,33.65,0,0,1-6.26-7.3l70.38-54.4Z"/><path class="cls-4" d="M237.64,597.76h0l-70.38,54.4c-8.41-14,6.91-23.37,6.18-38h0a18,18,0,0,0,5-21.67,18.48,18.48,0,0,0-1.58-2.71l32.51-25.36Z"/><path class="cls-3" d="M184.78,147.87c.54-4.09,1.18-8.11,1.93-12.36a15.53,15.53,0,0,1,19.57-12.24c10.57,3.06,18.4,10.07,20.86,21.25,3.3-1.33,7.59-2.43,8.73.21,1.24,2.84-4,7.71-8,10.9-1.53,6.08-3.26,11.66-4,19.6-.2,2-.33,4.23-.38,6.63l-.17,8.58a2.42,2.42,0,0,0,2.19,2.46q4,.36,8.18.69c-7.14,16.51-16.48,26.2-32,33.67a6.71,6.71,0,0,1-9.15-3.58c-4.32-10.93-5-20.91-2.89-35.43h0q3.63.63,7.31,1.2a3.26,3.26,0,0,0,3.62-2.27l3.69-12.07-4.46-.66A18.41,18.41,0,0,1,184,154.34C184.26,152.14,184.51,150,184.78,147.87Z"/><path class="cls-4" d="M160.1,27.73a4.71,4.71,0,1,1-4.71,4.71,4.62,4.62,0,0,1,.43-2,4.69,4.69,0,0,1,1.64-1.94l.19-.12A4.75,4.75,0,0,1,160.1,27.73Z"/><path class="cls-5" d="M158.94,1.3l-1.16,21a23.36,23.36,0,0,1-1.48,7c-.15.4-.31.78-.48,1.17A23.44,23.44,0,0,1,136,44.35h0c-.52,0-1,.06-1.57.06H122.14c-.53,0-1.06,0-1.58-.06A23.42,23.42,0,0,1,100.77,30.6a2,2,0,0,0-.1-.21c-.15-.36-.3-.72-.43-1.09h0a23.37,23.37,0,0,1-1.49-7l-1.15-21Z"/><path class="cls-3" d="M156.3,29.3l1.16-.77a4.69,4.69,0,0,0-1.64,1.94C156,30.08,156.15,29.7,156.3,29.3Z"/><path class="cls-5" d="M142.26,78.92c.18.32.38.62.57.92a10.39,10.39,0,0,0,8.71,4.64h2.54v6.77H102.45V84.48H105a10.47,10.47,0,0,0,7.29-2.92l5.57,1.27a6.26,6.26,0,0,0,7.36-4.21L126,76.3l2.81-8.89,1-3.19a5.94,5.94,0,0,0-2.38-6.75l-6.91-4.57c.18-3.69.14-6.74.08-8.49v-.06c.52,0,1,.06,1.58.06H134.4c.53,0,1,0,1.57-.06v.06a103.83,103.83,0,0,0,.89,17.15C137.72,67.59,139.33,74,142.26,78.92Z"/><path class="cls-3" d="M149.76,48.82a3.64,3.64,0,0,1,1.86,4.93l-5.51,11.47a11.07,11.07,0,0,0-1,3.6,27.67,27.67,0,0,1-2.83,10.1c-2.93-4.94-4.54-11.33-5.4-17.36a98.09,98.09,0,0,0,8.4-11.33A3.62,3.62,0,0,1,149.76,48.82Z"/><path class="cls-3" d="M136.7,175.4,121,210.71C103.22,202,85.76,193,65.56,181.22a19.44,19.44,0,0,1-6.71-27.05c15.29-24.59,29.63-43.31,43.6-63.56v.64h27.17c-12.27,26.52-23,50.76-32,67.6a2.27,2.27,0,0,0,1.18,3.2C112.11,167.21,124.6,171.63,136.7,175.4Z"/><path class="cls-3" d="M127.39,57.47a5.94,5.94,0,0,1,2.38,6.75l-1,3.19-16.88-6.12,2.92-7.38a3.29,3.29,0,0,1,4.88-1.54l.8.53Z"/><polygon class="cls-3" points="128.76 67.41 125.95 76.3 108.09 70.88 111.88 61.29 128.76 67.41"/><path class="cls-3" d="M126,76.3l-.74,2.32a6.26,6.26,0,0,1-7.36,4.21l-5.57-1.27L109.77,81a4.59,4.59,0,0,1-3.25-6.16l1.57-4Z"/><path class="cls-4" d="M100.77,30.6a4.69,4.69,0,1,1-1.89-2.19l.19.12a4.72,4.72,0,0,1,1.6,1.86A2,2,0,0,1,100.77,30.6Z"/><path class="cls-3" d="M100.24,29.3c.13.37.28.73.43,1.09a4.72,4.72,0,0,0-1.6-1.86l1.16.77Z"/><path class="cls-6" d="M267.67,269.05c9.26,9.32,19.94,19.54,32.13,30.38a35.79,35.79,0,0,0,17.11,8.41l73.17,14a38.8,38.8,0,0,1,6,1.66c21.49,7.74,39.49,7.88,52.24-3.68a4.22,4.22,0,0,0,1.11-4.64,4.33,4.33,0,0,0-2.12-2.3L419.23,303c6-5.64,9.25-9.78,10.42-15.64a2,2,0,0,0-3.25-2A70.4,70.4,0,0,1,416,292.05a13.19,13.19,0,0,1-7.16,1.49,17.62,17.62,0,0,0-8.59,1.34,10.47,10.47,0,0,1-6.72.48l-63.64-21A25.18,25.18,0,0,1,318.65,268c-5.37-5.23-12.79-13.5-21-23-9.75-11.32-20.61-24.42-30.48-36.32a41.07,41.07,0,0,0-28.77-14.72c-1.6-.1-3.19-.22-4.77-.34q-4.14-.33-8.18-.69a2.42,2.42,0,0,1-2.19-2.46l.17-8.58c.05-2.4.18-4.59.38-6.63.75-7.94,2.48-13.52,4-19.6,4-3.19,9.28-8.06,8-10.9-1.14-2.64-5.43-1.54-8.73-.21-2.46-11.18-10.29-18.19-20.86-21.25a15.53,15.53,0,0,0-19.57,12.24c-.75,4.25-1.39,8.27-1.93,12.36-.27,2.12-.52,4.27-.74,6.47a18.41,18.41,0,0,0,15.75,20.1l4.46.66-3.69,12.07a3.26,3.26,0,0,1-3.62,2.27q-3.67-.57-7.31-1.2A406.93,406.93,0,0,1,136.7,175.4c-12.1-3.77-24.59-8.19-37.92-13.35a2.27,2.27,0,0,1-1.18-3.2c9-16.84,19.75-41.08,32-67.6"/><path class="cls-6" d="M184.79,147.88h0c-7.59-20.64-5.56-29.42-1.53-33.41,5.28-5.23,13.16-1.38,21.6-8.64,7.79-6.7,5.94-14.17,12.45-17.79,7.26-4,12.39,5.64,23.13,4.07C252,90.4,252.74,79,264.82,76.85c7.88-1.39,17.25,1.76,22.37,8.39,7.5,9.72,4.34,25-2.8,33-7.44,8.33-15.79,4.94-20.33,13-5.07,9,2.86,17.59-2.54,23.64-4.64,5.19-11.55,0-20.08,5.84-7.17,4.89-6.15,11.19-12.19,13.73a11.57,11.57,0,0,1-5.43.79"/><path class="cls-6" d="M215.6,145.07a4,4,0,0,0-3.41-1.94,4.61,4.61,0,0,0-2.64.63"/><path class="cls-6" d="M194.82,140.48a4.37,4.37,0,0,0-3.14-.75,4.67,4.67,0,0,0-2.5,1.09"/><path class="cls-6" d="M201.28,139.3c1.62,7,.41,10.57-5.47,12.4-2,.63,1.31,2.21,3.8,3.5"/><path class="cls-6" d="M297.66,245l-30,24.07-4.36,3.5c-5.12-8-10.27-14.4-16.33-19.15-16.67,30.84-8.09,57.06,17.64,86.5-6.78.46-13.3.84-19.6,1.13-42.9,2-75.17.23-106.6-3.82-5.3-.69-10.58-1.44-15.88-2.24,21.92-30.47,26.48-50.33,26.74-55.67.61-12.49-6.24-18.29-2.85-29.59,1.77-5.86,4.12-6,7-13.81q.87-2.35,1.45-4.61a52.3,52.3,0,0,0,1.62-14.9"/><path class="cls-6" d="M102.45,90.61c-14,20.25-28.31,39-43.6,63.56a19.44,19.44,0,0,0,6.71,27.05C85.76,193,103.22,202,121,210.71"/><path class="cls-6" d="M136.7,175.4,121,210.71l-3,6.64c12.76,3.33,22.12,8.12,36.87,13.93h0"/><path class="cls-6" d="M233.64,193.59c-7.14,16.51-16.48,26.2-32,33.67a6.71,6.71,0,0,1-9.15-3.58c-4.32-10.93-5-20.91-2.89-35.43"/><path class="cls-6" d="M120.56,44.41c.06,1.75.1,4.8-.08,8.49"/><path class="cls-6" d="M112.28,81.56A10.47,10.47,0,0,1,105,84.48h-2.54v6.77h51.63V84.48h-2.54a10.39,10.39,0,0,1-8.71-4.64c-.19-.3-.39-.6-.57-.92-2.93-4.94-4.54-11.33-5.4-17.36A103.83,103.83,0,0,1,136,44.41"/><path class="cls-6" d="M136.86,61.56a98.09,98.09,0,0,0,8.4-11.33,3.64,3.64,0,0,1,6.36,3.52l-5.51,11.47a11.07,11.07,0,0,0-1,3.6,27.67,27.67,0,0,1-2.83,10.1h0"/><path class="cls-6" d="M120.48,52.9l-.8-.53a3.29,3.29,0,0,0-4.88,1.54l-2.92,7.38-3.79,9.59-1.57,4A4.59,4.59,0,0,0,109.77,81l2.51.57,5.57,1.27a6.26,6.26,0,0,0,7.36-4.21L126,76.3l2.81-8.89,1-3.19a5.94,5.94,0,0,0-2.38-6.75Z"/><line class="cls-6" x1="108.09" y1="70.88" x2="125.95" y2="76.3"/><line class="cls-6" x1="111.88" y1="61.29" x2="128.76" y2="67.41"/><path class="cls-6" d="M100.77,30.6a23.42,23.42,0,0,0,19.79,13.75c.52,0,1,.06,1.58.06H134.4c.53,0,1,0,1.57-.06h0a23.44,23.44,0,0,0,19.85-13.88c.17-.39.33-.77.48-1.17a23.36,23.36,0,0,0,1.48-7l1.16-21H97.59l1.15,21a23.37,23.37,0,0,0,1.49,7"/><path class="cls-6" d="M100.24,29.3c.13.37.28.73.43,1.09"/><line class="cls-6" x1="157.46" y1="28.53" x2="156.3" y2="29.3"/><path class="cls-6" d="M158.94,1.3h15.61a4.08,4.08,0,0,1,4,5L178,8.8a18.67,18.67,0,0,1-7.91,11.43l-12.4,8.18"/><polyline class="cls-6" points="99.07 28.53 100.23 29.3 100.23 29.3"/><path class="cls-6" d="M97.59,1.3H82a4.08,4.08,0,0,0-4,5l.57,2.51a18.61,18.61,0,0,0,7.9,11.43l12.4,8.18"/><path class="cls-6" d="M157.65,28.41a4.71,4.71,0,1,1-2.26,4,4.62,4.62,0,0,1,.43-2,4.69,4.69,0,0,1,1.64-1.94Z"/><path class="cls-6" d="M98.88,28.41a4.7,4.7,0,1,0,1.89,2.19,2,2,0,0,0-.1-.21,4.72,4.72,0,0,0-1.6-1.86Z"/><path class="cls-6" d="M145.13,425.1,130,463.73l-7.27,18.56c-10.36,26.44,13.65,53.46,41.13,46.31q7.47-2,14.83-3.82c49.86-12.68,94.53-22.46,117.72-24.3l-1.32-5.82-3-13.06L283,441.4"/><line class="cls-6" x1="169.22" y1="363.61" x2="145.13" y2="425.1"/><path class="cls-6" d="M295.08,494.66c7.67-1.87,13.26-1.37,17.64.43,13.51,5.54,15.52,23.41,31.73,21.72a33.2,33.2,0,0,0,9.26-2.55l-19.32-86.79L325.12,430,283,441.4l-81.29,22s31.86-67.34,42.09-93.79A46.3,46.3,0,0,0,245,341"/><polyline class="cls-6" points="344.45 516.82 344.45 516.81 325.12 429.99"/><path class="cls-6" d="M312.72,495.09a18,18,0,0,0-17.48-13.76,19,19,0,0,0-3.13.27"/><path class="cls-6" d="M178.68,524.78l30.72,39.69-32.51,25.36-10.56,8.24-8.41,6.56c-3.14-15.26-12.83-30.94-26.28-47.51-23.29-28.68-42.77-50.82-66.14-80a40.18,40.18,0,0,1-.31-49.87c26.16-33.48,48.19-60.44,73.23-90.08"/><path class="cls-6" d="M166.33,598.07c5,6.14,6.88,11.41,7.11,16.14.73,14.59-14.59,24-6.18,38a33.65,33.65,0,0,0,6.26,7.3l70.34-54.38-6.22-7.33L209.4,564.47"/><line class="cls-6" x1="167.26" y1="652.17" x2="237.64" y2="597.77"/><path class="cls-6" d="M173.44,614.21a18,18,0,0,0,5-21.67,18.48,18.48,0,0,0-1.58-2.71"/><path class="cls-6" d="M145.13,425.1h0l-18.76,20a10.06,10.06,0,0,0-.66,13l4.28,5.62"/><path class="cls-2" d="M43.85,321.66a6.27,6.27,0,1,1-6.27-6.27A6.27,6.27,0,0,1,43.85,321.66Z"/></g></g></svg>