<svg xmlns="http://www.w3.org/2000/svg" viewBox="0 0 514.05 585.77"><defs><style>.cls-1{fill:#f0f0f0;}.cls-2,.cls-6,.cls-7{fill:none;stroke-linecap:round;stroke-linejoin:round;}.cls-2,.cls-6{stroke:#323433;}.cls-2{stroke-width:1.74px;}.cls-3{fill:#52cca7;}.cls-4{fill:#fff;}.cls-5{fill:#323433;}.cls-6,.cls-7{stroke-width:2.61px;}.cls-7{stroke:#fff;}</style></defs><title>Asset 10</title><g id="Layer_2" data-name="Layer 2"><g id="graphic"><ellipse class="cls-1" cx="240.93" cy="544.54" rx="240.93" ry="41.23"/><polyline class="cls-2" points="369.98 273.05 381.69 264.06 393.32 273.15 405.03 264.15 416.66 273.24 428.37 264.24"/><line class="cls-2" x1="434.46" y1="310.23" x2="446.66" y2="321.5"/><line class="cls-2" x1="434.93" y1="321.97" x2="446.2" y2="309.77"/><path class="cls-2" d="M466.76,221.85a6.07,6.07,0,1,1-6.07-6.06A6.07,6.07,0,0,1,466.76,221.85Z"/><path class="cls-3" d="M420.17,52.2l5.19,19.7L408.9,52.2H377.24A12.69,12.69,0,0,1,364.7,37.52L368,17A16.89,16.89,0,0,1,384.63,2.74h46a12.69,12.69,0,0,1,12.54,14.69L439.91,38A16.88,16.88,0,0,1,423.23,52.2Z"/><path class="cls-4" d="M390.66,33.74h-2.73l1.2-5.62h-4.2l-1.19,5.62H381l2.75-13h2.73l-1.08,5.11h4.2l1.07-5.11h2.72Z"/><path class="cls-4" d="M401.07,33.74h-7.28l2.75-13h7.29L403.35,23h-4.56l-.6,2.86h4.25L402,28.1H397.7L397,31.46h4.56Z"/><path class="cls-4" d="M403.68,33.74l2.75-13h2.72l-2.28,10.74h4.56L411,33.74Z"/><path class="cls-4" d="M423.87,24.52a4.1,4.1,0,0,1-1.51,3.37,6.44,6.44,0,0,1-4.16,1.22h-1.39l-1,4.63h-2.72l2.76-13h3.63a4.86,4.86,0,0,1,3.26,1A3.55,3.55,0,0,1,423.87,24.52Zm-6.57,2.33h1.11a3,3,0,0,0,2-.62,2,2,0,0,0,.73-1.64,1.6,1.6,0,0,0-.43-1.22,1.89,1.89,0,0,0-1.3-.39h-1.28Z"/><path class="cls-4" d="M424,32.72a1.71,1.71,0,0,1,.47-1.28,1.78,1.78,0,0,1,1.34-.49,1.38,1.38,0,0,1,1,.34,1.24,1.24,0,0,1,.37,1,1.66,1.66,0,0,1-.49,1.25,1.77,1.77,0,0,1-1.28.48,1.46,1.46,0,0,1-1-.33A1.2,1.2,0,0,1,424,32.72Zm3.26-3.3h-2.15l1.4-8.7h3Z"/><path class="cls-5" d="M512.55,46.13a2.48,2.48,0,0,1-.24,2.36l-16,23.71h0l-20.58,30.4a8.4,8.4,0,0,1-9.65,3.27l-16.57-9.29-2.68-1.5a4.06,4.06,0,0,1-2.49-2.33l-2.66-6.45a4.1,4.1,0,0,0,2.49,2.32l19.25,10.79A8.4,8.4,0,0,0,473,96.14L509.65,42a2.47,2.47,0,0,0,.25-2.33Z"/><path class="cls-4" d="M509.9,39.7a2.47,2.47,0,0,1-.25,2.33L473,96.14a8.4,8.4,0,0,1-9.65,3.27L444.12,88.62a4.1,4.1,0,0,1-2-6.28l8.16-11L457.86,61l21.86-29.56A4.08,4.08,0,0,1,484.37,30l24,8.3A2.43,2.43,0,0,1,509.9,39.7ZM485.05,69c3.63-5.93,2.44-12.8-2.65-15.34s-12.16.19-15.79,6.12-2.43,12.81,2.66,15.35S481.42,75,485.05,69Z"/><path class="cls-4" d="M496.26,72.2l-1.79,11a32.89,32.89,0,0,1-12.69,21.22l-14.19,10.72c-13.61,24.25-28.95,47-48.38,74.68a21.92,21.92,0,0,1-32.69,3.62c-17.59-16-23.43-20.76-33.92-30.72l28.09-31,20.09,19.94a1.85,1.85,0,0,0,2.66-.08l44.78-49.87a18.87,18.87,0,0,1,1.24-5L466,105.87a8.4,8.4,0,0,0,9.65-3.27Z"/><path class="cls-4" d="M482.4,53.69c5.09,2.54,6.28,9.41,2.65,15.34s-10.69,8.68-15.78,6.13-6.28-9.42-2.66-15.35S477.31,51.14,482.4,53.69Zm-1.25,10.12a.8.8,0,0,0-.21-1.18,1,1,0,0,0-1.22.47.81.81,0,0,0,.21,1.19A1,1,0,0,0,481.15,63.81ZM475,60.74a.8.8,0,0,0-.21-1.18,1,1,0,0,0-1.22.47.82.82,0,0,0,.2,1.19A1,1,0,0,0,475,60.74Z"/><path class="cls-4" d="M480.94,62.63a.8.8,0,0,1,.21,1.18,1,1,0,0,1-1.22.48.81.81,0,0,1-.21-1.19A1,1,0,0,1,480.94,62.63Z"/><path class="cls-4" d="M474.8,59.56a.8.8,0,0,1,.21,1.18,1,1,0,0,1-1.23.48.82.82,0,0,1-.2-1.19A1,1,0,0,1,474.8,59.56Z"/><path class="cls-4" d="M457.86,61l-7.61,10.3h0c0-2.54,0-4.93-.16-7.35a3.85,3.85,0,0,1,5.1-3.87Z"/><path class="cls-5" d="M297,261.44l53.48,71.3a55.38,55.38,0,0,1,9.34,47l-28,109a25.5,25.5,0,0,0-16.37,13.37H262.34c18.38-40.62,26.89-72,38.51-127a19.49,19.49,0,0,0-3.56-18l-21-25.75-45-55.05a36.08,36.08,0,0,1-6.14-3.66A35.3,35.3,0,0,1,210.9,244.3a36.06,36.06,0,0,1,.41-5.43h92.45Z"/><path class="cls-4" d="M331.34,524.19c7.89,4.77,21.67,3.92,20.77,23.73H264.84l12.09-45.77h38.54a25.5,25.5,0,0,1,16.37-13.37l-5.35,20.82c0,.15-.06.29-.08.43a20.1,20.1,0,0,0-.15,7.08A10,10,0,0,0,331.34,524.19Z"/><path class="cls-3" d="M264.84,547.92h87.27a57.48,57.48,0,0,1-1.05,8.37H262.63Z"/><path class="cls-4" d="M311.09,85.31c-4.43-.2-5.21-.37-9.92-.5l-3.46-.09a2.33,2.33,0,0,1-2.27-2.22l-.54-12.16c1.19,0,2.33,0,3.44-.11a19.8,19.8,0,0,0,8.37-2.37h2.87a11,11,0,0,1,1.27.08,10.07,10.07,0,0,1,8.73,11.25l-.83,6.52Q315,85.49,311.09,85.31Z"/><path class="cls-5" d="M318.24,21.79c.76,2.66-.71,7.09-2.73,11.4-.66-4.2-1.55-8.53-2.75-13.94a5.49,5.49,0,0,1,3.67.42,3,3,0,0,1,1.63,1.64c.06.15.12.31.17.46S318.24,21.78,318.24,21.79Z"/><path class="cls-4" d="M318.23,21.77c-.05-.15-.11-.31-.17-.46A2.54,2.54,0,0,1,318.23,21.77Z"/><path class="cls-4" d="M315.51,33.19a140,140,0,0,1,1.56,16.27,19.84,19.84,0,0,1-18.73,20.77c-1.11.06-2.25.1-3.44.11l.54,12.16a2.33,2.33,0,0,0,2.27,2.22l3.46.09c2.84,7.1,6.33,21.14-9.53,23.41-16.63,2.37-33.1-15.6-39.59-23.69q7-.12,13.7-.14a1.78,1.78,0,0,0,1.77-1.59l1.69-14.94,1.69-15s-7.89-6.69-5.66-11.42a3.91,3.91,0,0,1,.4-.68c3.42-4.74,11.84,4.21,11.84,4.21s2.9-20,11.32-21.58,8.16,6.05,13.95,5c4.64-.85,5.9-7.95,10-9.11C314,24.66,314.85,29,315.51,33.19Z"/><path class="cls-5" d="M311.76,40.56c.15,1.56-.48,2.9-1.41,3s-1.81-1.1-2-2.66.48-2.89,1.41-3S311.6,39,311.76,40.56Z"/><path class="cls-5" d="M293.51,41.9c.17,1.73-.52,3.22-1.56,3.32s-2-1.22-2.18-2.95.52-3.22,1.56-3.32S293.35,40.17,293.51,41.9Z"/><path class="cls-5" d="M273.46,9.86h0c13.82-10.32,37.77-7.43,44.6,11.45a3,3,0,0,0-1.63-1.64,5.49,5.49,0,0,0-3.67-.42c-4.11,1.16-5.37,8.26-10,9.11-5.79,1.05-5.53-6.58-13.95-5s-11.32,21.58-11.32,21.58-8.42-8.95-11.84-4.21a3.91,3.91,0,0,0-.4.68C260.68,26.66,265.3,16,273.46,9.86Z"/><path class="cls-5" d="M231.28,276.32l45,55.05-6.76,22.75a80.42,80.42,0,0,1-28,40.77L156.8,460.06A23.89,23.89,0,0,0,133,464.17l-27-37.26-3.88-5.36a225.5,225.5,0,0,0,48.63-26.83c19.42-14.19,36.94-27.4,51.3-39.15a38.9,38.9,0,0,0,13.81-24.09l9.27-58.82A36.08,36.08,0,0,0,231.28,276.32Z"/><path class="cls-4" d="M238.89,84.82c-5.56.15-11.24.33-17,.53l.78-6.16a10.07,10.07,0,0,0-8.73-11.25,11,11,0,0,0-1.27-.08h56.55L267.52,82.8a1.78,1.78,0,0,1-1.77,1.59q-6.66,0-13.7.14Q245.6,84.64,238.89,84.82Z"/><path class="cls-3" d="M342.51,93.77a27.49,27.49,0,0,0-17.71-7.93l-2.25-.13c-2.5-.15-5.06-.28-7.66-.4q-6.64-.3-13.72-.5c2.84,7.1,6.33,21.14-9.53,23.41-16.63,2.37-33.1-15.6-39.59-23.69q-6.45.1-13.16.29c-5.56.15-11.24.33-17,.53-6.7.23-13.52.49-20.39.76-5.36.2-10.76.42-16.17.64h0l-2.07,38.61-.41,7.55,12.79-.57,20.41-.91,11.33-.51a270.1,270.1,0,0,1-3.21,34.53A154.32,154.32,0,0,1,213.92,201h0c-5.08,12-12,24.28-21.53,37.91H328s-4.52-24.11-4.52-39.67c0-10.59,5-30,8.15-47.47l16.44,16,4.55-5,28.09-31Z"/><path class="cls-4" d="M224.16,165.45A154.32,154.32,0,0,1,213.92,201H198.38a10.08,10.08,0,0,0,10-8.81L216,131.43l11.34-.51A271.84,271.84,0,0,1,224.16,165.45Z"/><path class="cls-4" d="M213.93,67.94a10.07,10.07,0,0,1,8.73,11.25l-.78,6.16c-6.7.23-13.52.49-20.39.76l1.19-9.45a10.08,10.08,0,0,1,10-8.8A11,11,0,0,1,213.93,67.94Z"/><path class="cls-4" d="M216,131.43l-7.68,60.72a10.08,10.08,0,0,1-10,8.81,11.13,11.13,0,0,1-1.28-.08,10.07,10.07,0,0,1-8.72-11.25l7.25-57.29Z"/><path class="cls-4" d="M46.8,211.05h0l-3.93-14.58-1.77-6.59A9.21,9.21,0,0,1,44,180.45l13.58-11.54c33.38-28.4,58.65-50.09,87.79-73.66A35,35,0,0,1,166.1,87.5l19.22-.75h0l-2.07,38.61-10.19.3a23,23,0,0,0-14.55,5.72c-16.62,14.61-35,29-61.27,49.22-8.47,10.22-6.9,24.88-2,40.35L80.08,200,63.84,213.73,56.9,219.6a5.39,5.39,0,0,1-3.75,1.31,5.21,5.21,0,0,1-4.73-3.85Z"/><path class="cls-4" d="M133.78,498.77c1.78,8.38,2.48,17-9.63,25L72.16,451,106,426.91l27,37.26a23.89,23.89,0,0,1,23.83-4.11L139,473.77a20.47,20.47,0,0,0-3.45,3A13.78,13.78,0,0,0,132,484C131.23,488.7,132.71,493.69,133.78,498.77Z"/><path class="cls-5" d="M141.61,248.37a32,32,0,0,1,1.47,35.55L125.65,260a12.29,12.29,0,1,0-19.87,14.47l17.43,23.92a32,32,0,1,1,18.4-50Z"/><path class="cls-3" d="M72.16,451l52,72.78a55.71,55.71,0,0,1-7.39,4l-51.4-71.95Z"/><path class="cls-5" d="M95.21,221l11.26,15.6A32.21,32.21,0,0,0,89.34,249l-25.5-35.3L80.08,200Z"/><path class="cls-5" d="M39.19,143.4l18.43,25.51L44,180.45a9.24,9.24,0,0,0-2.22,2.78L22.06,155.88A10.6,10.6,0,0,1,39.19,143.4ZM35,155.61a4.06,4.06,0,1,0-5.67-.89A4.07,4.07,0,0,0,35,155.61Z"/><path class="cls-4" d="M35.87,149.93a4.07,4.07,0,1,1-5.68-.89A4.07,4.07,0,0,1,35.87,149.93Z"/><path class="cls-6" d="M312.76,19.25c1.2,5.41,2.09,9.74,2.75,13.94a140,140,0,0,1,1.56,16.27,19.84,19.84,0,0,1-18.73,20.77c-1.11.06-2.25.1-3.44.11l.54,12.16a2.33,2.33,0,0,0,2.27,2.22l3.46.09q7.06.19,13.72.5c2.6.12,5.16.25,7.66.4l2.25.13a27.49,27.49,0,0,1,17.71,7.93l38.18,37.87,20.09,19.94a1.85,1.85,0,0,0,2.66-.08l44.78-49.87a18.87,18.87,0,0,1,1.24-5"/><path class="cls-6" d="M273.46,9.86c13.82-10.32,37.77-7.43,44.6,11.45.06.15.12.31.17.46"/><path class="cls-6" d="M265.24,41.41c-4.56-14.75.06-25.46,8.22-31.55"/><path class="cls-6" d="M263,10.61a12.3,12.3,0,0,1,10.24-.69"/><path class="cls-6" d="M273.46,9.86c-.06-.35-1.22-6.18,2.19-8.56"/><path class="cls-6" d="M273.46,9.86h0"/><path class="cls-6" d="M301.32,39.2c1.1,4.31,2.56,6.88,5.28,8.76a1.34,1.34,0,0,1,.26,2,8.33,8.33,0,0,1-4.28,2.48"/><path class="cls-6" d="M496.26,72.2l-1.79,11a32.89,32.89,0,0,1-12.69,21.22l-14.19,10.72c-13.61,24.25-28.95,47-48.38,74.68a21.92,21.92,0,0,1-32.69,3.62c-17.59-16-23.43-20.76-33.92-30.72"/><path class="cls-6" d="M213.92,201a154.32,154.32,0,0,0,10.24-35.51,271.84,271.84,0,0,0,3.22-34.53l-11.34.51-20.41.91-12.79.57.41-7.55,2.07-38.61"/><path class="cls-6" d="M307.91,80.85c11.86,10.93,30.31,34.58,23.7,70.88-3.18,17.49-8.15,36.88-8.15,47.47,0,15.56,4.52,39.67,4.52,39.67H192.38c9.5-13.63,16.45-25.91,21.53-37.91"/><path class="cls-6" d="M235.72,79.83l3.17,5,.31.49c22.19,56.38-10.65,76.62-19.72,80.39"/><path class="cls-6" d="M509.9,39.7a2.47,2.47,0,0,1-.25,2.33L473,96.14a8.4,8.4,0,0,1-9.65,3.27L444.12,88.62a4.1,4.1,0,0,1-2-6.28l8.16-11L457.86,61l21.86-29.56A4.08,4.08,0,0,1,484.37,30l24,8.3A2.43,2.43,0,0,1,509.9,39.7Z"/><path class="cls-6" d="M509.89,39.67v0l2.65,6.43a2.48,2.48,0,0,1-.24,2.36l-16,23.71h0l-20.58,30.4a8.4,8.4,0,0,1-9.65,3.27l-16.57-9.29-2.68-1.5a4.06,4.06,0,0,1-2.49-2.33l-2.66-6.45"/><path class="cls-6" d="M450.25,71.3c0-2.54,0-4.93-.16-7.35a3.85,3.85,0,0,1,5.1-3.87l2.67.92"/><path class="cls-6" d="M183.25,125.36l-10.19.3a23,23,0,0,0-14.55,5.72c-16.62,14.61-35,29-61.27,49.22-8.47,10.22-6.9,24.88-2,40.35"/><line class="cls-6" x1="89.34" y1="249.03" x2="63.84" y2="213.73"/><path class="cls-6" d="M41.82,183.24h0L22.06,155.88A10.6,10.6,0,0,1,39.19,143.4l18.43,25.51,0,0"/><path class="cls-6" d="M46.8,211.05l1.62,6a5.21,5.21,0,0,0,4.73,3.85,5.39,5.39,0,0,0,3.75-1.31l6.94-5.87L80.08,200,95.21,221l11.26,15.6"/><path class="cls-6" d="M315.45,33.33l.06-.14c2-4.31,3.49-8.74,2.73-11.4,0,0,0,0,0,0a2.54,2.54,0,0,0-.17-.46,3,3,0,0,0-1.63-1.64,5.49,5.49,0,0,0-3.67-.42c-4.11,1.16-5.37,8.26-10,9.11-5.79,1.05-5.53-6.58-13.95-5s-11.32,21.58-11.32,21.58-8.42-8.95-11.84-4.21a3.91,3.91,0,0,0-.4.68c-2.23,4.73,5.66,11.42,5.66,11.42l-1.69,15L267.52,82.8a1.78,1.78,0,0,1-1.77,1.59q-6.66,0-13.7.14-6.45.1-13.16.29c-5.56.15-11.24.33-17,.53-6.7.23-13.52.49-20.39.76-5.36.2-10.76.42-16.17.64l-19.22.75a35,35,0,0,0-20.69,7.75C116.27,118.82,91,140.51,57.62,168.91L44,180.45a9.21,9.21,0,0,0-2.94,9.43l1.77,6.59,3.93,14.58"/><path class="cls-6" d="M89.34,249a32.05,32.05,0,0,0,33.87,49.36l-17.43-23.92A12.29,12.29,0,1,1,125.65,260l17.43,23.92A32.05,32.05,0,0,0,89.34,249Z"/><path class="cls-6" d="M35.87,149.93a4.07,4.07,0,1,0-.9,5.68A4.07,4.07,0,0,0,35.87,149.93Z"/><line class="cls-6" x1="48.13" y1="192.33" x2="42.87" y2="196.47"/><polyline class="cls-6" points="54.27 205.19 46.8 211.05 46.8 211.05"/><path class="cls-6" d="M252.05,84.53c6.49,8.09,23,26.06,39.59,23.69C307.5,106,304,91.91,301.17,84.81"/><polyline class="cls-6" points="380.69 131.64 352.61 162.66 348.05 167.7 331.61 151.74"/><path class="cls-6" d="M201.49,86.11l1.19-9.45a10.08,10.08,0,0,1,10-8.8,11,11,0,0,1,1.27.08,10.07,10.07,0,0,1,8.73,11.25l-.78,6.16h0"/><path class="cls-6" d="M216,131.43l-7.68,60.72a10.08,10.08,0,0,1-10,8.81,11.13,11.13,0,0,1-1.28-.08,10.07,10.07,0,0,1-8.72-11.25l7.25-57.29"/><polyline class="cls-6" points="198.38 200.96 213.91 200.96 213.92 200.96"/><line class="cls-6" x1="212.66" y1="67.86" x2="269.21" y2="67.86"/><path class="cls-6" d="M306.71,67.86h2.87a11,11,0,0,1,1.27.08,10.07,10.07,0,0,1,8.73,11.25l-.8,6.31"/><path class="cls-6" d="M276.25,331.37l21,25.75a19.49,19.49,0,0,1,3.56,18c-11.62,55-20.13,86.41-38.51,127h53.13a25.5,25.5,0,0,1,16.37-13.37h0"/><path class="cls-7" d="M227.8,274.45a34.17,34.17,0,0,0,3.48,1.87l42.55,52.09"/><path class="cls-6" d="M211.31,238.87a36.06,36.06,0,0,0-.41,5.43,35.3,35.3,0,0,0,14.24,28.36"/><path class="cls-6" d="M276.93,502.15l-12.09,45.77-2.21,8.37h88.43a57.48,57.48,0,0,0,1.05-8.37c.9-19.81-12.88-19-20.77-23.73a10,10,0,0,1-5.08-7.08,20.1,20.1,0,0,1,.15-7.08c0-.14,0-.28.08-.43l5.35-20.82,28-109a55.38,55.38,0,0,0-9.34-47L297,261.44l-.07-.09"/><path class="cls-7" d="M294.94,258.64l-6.57-8.76"/><polyline class="cls-6" points="264.84 547.92 352.11 547.92 352.11 547.92"/><line class="cls-6" x1="316.23" y1="510.03" x2="326.41" y2="510.03"/><line class="cls-6" x1="315.02" y1="517.11" x2="326.26" y2="517.11"/><line class="cls-6" x1="313.82" y1="524.19" x2="331.34" y2="524.19"/><polyline class="cls-6" points="72.16 451 124.16 523.78 124.17 523.81"/><line class="cls-6" x1="129.14" y1="467.71" x2="135.55" y2="476.77"/><line class="cls-6" x1="124.22" y1="473.04" x2="131.99" y2="484.02"/><line class="cls-6" x1="118.46" y1="477.16" x2="133.78" y2="498.77"/><path class="cls-6" d="M106,426.91,72.16,451l-6.8,4.86,51.4,71.95a55.71,55.71,0,0,0,7.39-4c12.11-8,11.41-16.63,9.63-25-1.07-5.08-2.55-10.07-1.79-14.75a13.78,13.78,0,0,1,3.56-7.25,20.47,20.47,0,0,1,3.45-3l17.8-13.71,84.69-65.17a80.42,80.42,0,0,0,28-40.77l6.76-22.75"/><line class="cls-6" x1="303.76" y1="238.87" x2="297.04" y2="261.44"/><path class="cls-6" d="M156.8,460.06A23.89,23.89,0,0,0,133,464.17l-27-37.26-3.88-5.36a225.5,225.5,0,0,0,48.63-26.83c19.42-14.19,36.94-27.4,51.3-39.15a38.9,38.9,0,0,0,13.81-24.09l9.27-58.82"/><path class="cls-6" d="M485.05,69c-3.63,5.94-10.69,8.68-15.78,6.13s-6.28-9.42-2.66-15.35,10.7-8.67,15.79-6.12S488.68,63.1,485.05,69Z"/><path class="cls-6" d="M475,60.74a1,1,0,0,1-1.23.48.82.82,0,0,1-.2-1.19,1,1,0,0,1,1.22-.47A.8.8,0,0,1,475,60.74Z"/><path class="cls-6" d="M481.15,63.81a1,1,0,0,1-1.22.48.81.81,0,0,1-.21-1.19,1,1,0,0,1,1.22-.47A.8.8,0,0,1,481.15,63.81Z"/><line class="cls-6" x1="471.14" y1="65.84" x2="477" y2="68.77"/><polygon class="cls-2" points="129.01 57.91 129.01 69.19 136.99 63.55 129.01 57.91"/><polygon class="cls-2" points="111.9 57.91 111.9 69.19 119.88 63.55 111.9 57.91"/><polygon class="cls-2" points="94.79 57.91 94.79 69.19 102.77 63.55 94.79 57.91"/></g></g></svg>