<svg xmlns="http://www.w3.org/2000/svg" viewBox="0 0 563.61 632.49"><defs><style>.cls-1{fill:#f0f0f0;}.cls-2,.cls-6{fill:none;stroke:#323433;stroke-linecap:round;stroke-linejoin:round;}.cls-2{stroke-width:1.74px;}.cls-3{fill:#52cca7;}.cls-4{fill:#fbfbfb;}.cls-5{fill:#323433;}.cls-6{stroke-width:2.61px;}</style></defs><title>Asset 8</title><g id="Layer_2" data-name="Layer 2"><g id="graphic"><circle class="cls-1" cx="399.91" cy="378.47" r="102.24" transform="translate(-150.49 393.63) rotate(-45)"/><polyline class="cls-2" points="96.62 338.74 100.82 324.43 115.73 324.92 119.93 310.61 134.83 311.1 139.03 296.79"/><line class="cls-2" x1="126.92" y1="148.83" x2="139.52" y2="160.47"/><line class="cls-2" x1="127.4" y1="160.95" x2="139.03" y2="148.35"/><rect class="cls-2" x="84.15" y="269.83" width="10.94" height="10.94" transform="translate(-168.42 144.01) rotate(-45)"/><polygon class="cls-3" points="562.3 229.4 547.86 243.84 530.83 243.84 545.52 229.4 562.3 229.4"/><polygon class="cls-3" points="545.52 229.4 530.83 243.84 530.83 226.81 545.27 212.37 545.27 229.4 545.52 229.4"/><path class="cls-4" d="M499.68,303.85l-8.66.89-4.41.44a3.72,3.72,0,0,0-1.13-2.53c-.84-.77-1.76-1.7-2.65-2.63h0l1.44-10.33v-.07l-1.08,1.06-4.79,4.49.12.13-6.17,6.09-.29-.24A7.12,7.12,0,0,1,469.5,295c.73-8.17,2.1-14.69,3.35-21.87l-66.06-60.65a11.28,11.28,0,0,0-7-3q-16.43-.87-32.38-1.16v-46.7c12,.22,24.47.62,37.54,1.2a24.63,24.63,0,0,1,16.88,7.72c33.1,35.11,57,62,84.67,94.4a18.74,18.74,0,0,1,1.23,1.59,20.59,20.59,0,0,1,3.63,13.52l-1.14,13.55a11.16,11.16,0,0,1-10,10.17Z"/><path class="cls-4" d="M486.61,305.18a9.2,9.2,0,0,1-.76,3.79,2.06,2.06,0,0,1-3.22.82l-10.27-8.41,6.17-6.09c.47.54,2.31,2.65,4.3,4.72h0c.89.93,1.81,1.86,2.65,2.63A3.72,3.72,0,0,1,486.61,305.18Z"/><polygon class="cls-4" points="484.28 289.61 484.27 289.68 483.2 290.67 484.28 289.61"/><path class="cls-4" d="M484.27,289.68,482.83,300c-2-2.07-3.83-4.18-4.3-4.72l4.67-4.62Z"/><path class="cls-4" d="M483.2,290.67l-4.67,4.62-.12-.13Z"/><polygon class="cls-5" points="448.25 325.19 455.57 332.58 432.78 340.39 440.84 317.69 448.25 325.19"/><path class="cls-5" d="M192.47,405q28.1-6.81,60.32-12.56l8.4,51.67C207.76,452.64,174,459.92,127,470.31A37.88,37.88,0,0,1,96.79,402.5c39.51-28.2,70.24-47.07,115.27-78L321.35,315c24,17.29,52.65,39.59,84.23,66.36a41.23,41.23,0,0,1,8.26,53.38c-27.32,43.52-45.47,73.87-75.43,126.79l-49.67-32.23c23.79-40.43,45.38-75.94,63.47-101.63a5.33,5.33,0,0,0-1.91-7.82c-22.63-11.7-38.84-22-57.23-34l-.19-.12c-4.93-3.22-10-6.55-15.43-10.06a26,26,0,0,0-27.53-.47C232.54,385.59,213.72,394.88,192.47,405Z"/><path class="cls-3" d="M367.41,208.35v5.59c-11-3.74-25.89-5.21-42.5-5.27,2.94,37.3,1,64.61-3.56,106.34l-109.29,9.53c-10.72-39.74-14.39-66.69-17.85-101.35-18.51,3.58-35.27,8.91-47,15.14l-.71-5.38h0l-6.21-46.63c30.61-7.07,58.51-12.57,86.13-16.58l-9.74,7.11L239.79,175l25.57,35.17,10.17-38.25,24.67-4.81L292,163c23.6-1.42,48.29-1.86,75.44-1.38ZM237,249.66a13.07,13.07,0,0,0,11.38-14.57l-1.88-15.26-28.24,3.47,1.88,15.26a13.06,13.06,0,0,0,14.57,11.38Z"/><path class="cls-3" d="M353.82,604.74c3.1,8.3,3.78,17.15-1.9,26.45l-88-59.33c1.33-2.31,2.67-4.59,4-6.88l68.72,45.56A39,39,0,0,1,353.82,604.74Z"/><path class="cls-4" d="M337.62,573.64a42.35,42.35,0,0,0,3,6.66c4,7.46,10,15.64,13.24,24.44a39,39,0,0,0-17.22,5.8L267.88,565c7.11-12.21,14.07-24.14,20.86-35.67l49.67,32.23-.28.5C336.1,565.62,336.25,569.49,337.62,573.64Z"/><path class="cls-3" d="M292.91,385.88l16.92,94c-12.13,1.14-19.7-2.66-25-8.17a33.43,33.43,0,0,1,13.12-12L284.9,387.1Z"/><polygon class="cls-3" points="300.2 167.12 275.53 171.93 276.86 155.51 291.97 163.03 291.97 163.03 300.2 167.12"/><path class="cls-4" d="M271.91,450.68a18.5,18.5,0,0,0-4-4.84,8.13,8.13,0,0,0-6.76-1.75l-8.4-51.67q15.54-2.78,32.11-5.32L298,459.69a33.43,33.43,0,0,0-13.12,12C278.68,465.29,275.57,456.61,271.91,450.68Z"/><path class="cls-4" d="M292.88,385.74l.19.12-.16,0Z"/><path class="cls-4" d="M290.94,114.42c1.85,6.77-11.71,11.71-11.71,11.71l-2.37,29.38-1.33,16.42-10.17,38.25L239.79,175l2.83-17.11,2.1-12.67c-26.34-4.52-9.77-47.7-5.7-61.54,12.31,4.47,34.22-1,40.83,4.84,8,7.09-2.47,25.27-2.47,25.27s7.94-4.18,11.78-1.87A4,4,0,0,1,290.94,114.42Zm-27.58-5.25c.22-1.8-.59-3.37-1.8-3.52s-2.38,1.19-2.59,3,.59,3.37,1.8,3.51S263.15,111,263.36,109.17Zm-21.6-3.69c.45-1.58,0-3.11-1.12-3.42s-2.3.73-2.76,2.32.05,3.11,1.12,3.42S241.31,107.07,241.76,105.48Z"/><path class="cls-5" d="M279.23,70.05c16.68,3.74,23.16,23,9.93,41.88-3.84-2.31-11.78,1.87-11.78,1.87s10.48-18.18,2.47-25.27c-6.61-5.84-28.52-.37-40.83-4.84a13.19,13.19,0,0,1-6.32-4.4c-8.63-11.71,5.86-25.88,16-20.64S265.32,66.93,279.23,70.05Z"/><path class="cls-5" d="M261.56,105.65c1.21.15,2,1.72,1.8,3.52s-1.37,3.13-2.59,3-2-1.71-1.8-3.51S260.34,105.51,261.56,105.65Z"/><path class="cls-3" d="M248.36,235.09A13.07,13.07,0,0,1,237,249.66l-2.29.28a13.06,13.06,0,0,1-14.57-11.38l-1.88-15.26,28.24-3.47Z"/><polygon class="cls-3" points="242.62 157.9 239.79 175.01 216.68 176.85 226.42 169.74 242.62 157.9"/><path class="cls-5" d="M240.64,102.06c1.07.31,1.57,1.84,1.12,3.42s-1.68,2.62-2.76,2.32-1.57-1.84-1.12-3.42S239.57,101.76,240.64,102.06Z"/><path class="cls-4" d="M105.84,1.3A55.59,55.59,0,1,1,50.26,56.89,55.58,55.58,0,0,1,105.84,1.3Zm41.69,55.59a41.69,41.69,0,1,0-41.69,41.69A41.69,41.69,0,0,0,147.53,56.89Z"/><path class="cls-4" d="M18.86,86,21,87.22a6.92,6.92,0,0,1,3.44,5.52c.56,8.54,3,15.07,7.63,22.51,1.4-7.49,3-13.77,7.59-15.26a1.93,1.93,0,0,1,2.5,1.85c0,7.27,1.73,15.71,4.63,24.8A38.32,38.32,0,0,0,58.19,144l53.05,45.87a7.8,7.8,0,0,0,7,1.68c7.54-1.84,14.89-3.59,22.1-5.25L146.5,233q-14.73,3.3-30,7a21.5,21.5,0,0,1-20.27-5.63C70.22,208.46,49,182.6,28,152c-1.89-3.49-9.26-10.42-16-16.38A31.29,31.29,0,0,1,1.66,107.36C2.81,99.88,4.07,93.1,5.41,84.8a4.18,4.18,0,0,1,6.22-3l.93.53Z"/><path class="cls-4" d="M105.84,15.2A41.69,41.69,0,1,1,64.15,56.89,41.69,41.69,0,0,1,105.84,15.2Zm27.79,41.69a27.79,27.79,0,1,0-27.79,27.79A27.8,27.8,0,0,0,133.63,56.89Z"/><path class="cls-4" d="M105.84,29.09a27.8,27.8,0,1,1-27.79,27.8A27.8,27.8,0,0,1,105.84,29.09Zm13.9,27.8a13.9,13.9,0,1,0-13.9,13.89A13.9,13.9,0,0,0,119.74,56.89Z"/><circle class="cls-3" cx="105.84" cy="56.89" r="13.9"/><polyline class="cls-6" points="482.83 300.01 484.27 289.68 484.28 289.61 484.71 286.46 481.25 286.09"/><path class="cls-6" d="M8.49,109c1.2-11.67,2-19,4.07-26.59"/><path class="cls-6" d="M16.67,109.72c.55-10.16,1-17.06,2.19-23.71"/><path class="cls-6" d="M486.61,305.18l4.41-.44,8.66-.89.55-.05a11.16,11.16,0,0,0,10-10.17l1.14-13.55a20.59,20.59,0,0,0-3.63-13.52A18.74,18.74,0,0,0,506.5,265c-27.64-32.38-51.57-59.29-84.67-94.4A24.63,24.63,0,0,0,405,162.85c-13.07-.58-25.54-1-37.54-1.2-27.15-.48-51.84,0-75.44,1.38"/><path class="cls-6" d="M226.42,169.74c-27.62,4-55.52,9.51-86.13,16.58-7.21,1.66-14.56,3.41-22.1,5.25a7.8,7.8,0,0,1-7-1.68L58.19,144a38.32,38.32,0,0,1-11.44-17.38c-2.9-9.09-4.68-17.53-4.63-24.8a1.93,1.93,0,0,0-2.5-1.85c-4.57,1.49-6.19,7.77-7.59,15.26-4.68-7.44-7.07-14-7.63-22.51A6.92,6.92,0,0,0,21,87.22L18.86,86l-6.3-3.64-.93-.53a4.18,4.18,0,0,0-6.22,3c-1.34,8.3-2.6,15.08-3.75,22.56a31.29,31.29,0,0,0,10.28,28.22c6.77,6,14.14,12.89,16,16.38,21.07,30.64,42.25,56.5,68.28,82.4A21.5,21.5,0,0,0,116.52,240q15.27-3.75,30-7"/><path class="cls-6" d="M367.41,208.35q16,.28,32.38,1.16a11.28,11.28,0,0,1,7,3l66.06,60.65c-1.25,7.18-2.62,13.7-3.35,21.87a7.12,7.12,0,0,0,2.57,6.16l.29.24,10.27,8.41a2.06,2.06,0,0,0,3.22-.82,9.2,9.2,0,0,0,.76-3.79,3.72,3.72,0,0,0-1.13-2.53c-.84-.77-1.76-1.7-2.65-2.63h0c-2-2.07-3.83-4.18-4.3-4.72l-.12-.13,4.79-4.49,1.07-1h0"/><path class="cls-6" d="M502.65,285.14a86.25,86.25,0,0,1-3,18.71"/><path class="cls-6" d="M494.1,285.59A86.57,86.57,0,0,1,491,304.74"/><polyline class="cls-6" points="448.25 325.19 472.36 301.38 478.53 295.29 483.2 290.67 484.28 289.61"/><polyline class="cls-6" points="507.73 266.56 530.83 243.84 545.52 229.4"/><polygon class="cls-6" points="440.84 317.69 432.78 340.39 455.57 332.58 448.25 325.19 440.84 317.69"/><polygon class="cls-6" points="545.52 229.4 562.3 229.4 547.86 243.84 530.83 243.84 530.83 226.81 545.27 212.37 545.27 229.4 545.52 229.4"/><path class="cls-6" d="M145.74,417.88Q167.6,411,192.47,405q28.1-6.81,60.32-12.56,15.54-2.78,32.11-5.32l8-1.22.16,0"/><path class="cls-6" d="M292.88,385.74l0,.14,16.92,94c-12.13,1.14-19.7-2.66-25-8.17-6.15-6.38-9.26-15.06-12.92-21a18.5,18.5,0,0,0-4-4.84,8.13,8.13,0,0,0-6.76-1.75"/><path class="cls-6" d="M284.9,387.09h0L298,459.69a33.43,33.43,0,0,0-13.12,12"/><line class="cls-6" x1="272.39" y1="441.16" x2="267.95" y2="445.84"/><line class="cls-6" x1="277.34" y1="444.95" x2="271.91" y2="450.68"/><line class="cls-6" x1="212.06" y1="324.54" x2="321.35" y2="315.01"/><path class="cls-6" d="M140.29,186.32,146.5,233h0l.71,5.38c11.72-6.23,28.48-11.56,47-15.14,3.46,34.66,7.13,61.61,17.85,101.35-45,30.89-75.76,49.76-115.27,78A37.88,37.88,0,0,0,127,470.31c47-10.39,80.76-17.67,134.19-26.22l-8.4-51.67"/><path class="cls-6" d="M367.41,161.65v52.29c-11-3.74-25.89-5.21-42.5-5.27,2.94,37.3,1,64.61-3.56,106.34,24,17.29,52.65,39.59,84.23,66.36a41.23,41.23,0,0,1,8.26,53.38c-27.32,43.52-45.47,73.87-75.43,126.79l-.28.5c-2,3.58-1.88,7.45-.51,11.6a42.35,42.35,0,0,0,3,6.66c4,7.46,10,15.64,13.24,24.44,3.1,8.3,3.78,17.15-1.9,26.45l-88-59.33c1.33-2.31,2.67-4.59,4-6.88,7.11-12.21,14.07-24.14,20.86-35.67,23.79-40.43,45.38-75.94,63.47-101.63a5.33,5.33,0,0,0-1.91-7.82c-22.63-11.7-38.84-22-57.23-34l-.19-.12c-4.93-3.22-10-6.55-15.43-10.06a26,26,0,0,0-27.53-.47c-17.38,10.38-36.2,19.67-57.45,29.77"/><path class="cls-6" d="M147.53,56.89a41.69,41.69,0,1,0-41.69,41.69A41.69,41.69,0,0,0,147.53,56.89Z"/><path class="cls-6" d="M161.42,56.89a55.58,55.58,0,1,0-55.58,55.58A55.58,55.58,0,0,0,161.42,56.89Z"/><circle class="cls-6" cx="105.84" cy="56.89" r="27.79"/><circle class="cls-6" cx="105.84" cy="56.89" r="13.9"/><path class="cls-6" d="M353.82,604.74h0a39,39,0,0,0-17.22,5.8L267.88,565h0"/><polyline class="cls-6" points="338.42 561.54 288.74 529.31 288.64 529.25"/><line class="cls-6" x1="332.32" y1="581.84" x2="340.58" y2="580.3"/><line class="cls-6" x1="331.07" y1="574.85" x2="337.62" y2="573.64"/><path class="cls-6" d="M239.79,175l2.83-17.11,2.1-12.67c-26.34-4.52-9.77-47.7-5.7-61.54"/><path class="cls-6" d="M275.53,171.93l1.33-16.42,2.37-29.38s13.56-4.94,11.71-11.71a4,4,0,0,0-1.78-2.49c-3.84-2.31-11.78,1.87-11.78,1.87s10.48-18.18,2.47-25.27c-6.61-5.84-28.52-.37-40.83-4.84a13.19,13.19,0,0,1-6.32-4.4c-8.63-11.71,5.86-25.88,16-20.64s16.6,8.28,30.51,11.4c16.68,3.74,23.16,23,9.93,41.88"/><path class="cls-6" d="M250.66,103.42c-2.71,6.91-4.74,9.82-9,12.21a2.16,2.16,0,0,0-1,1.29,2.2,2.2,0,0,0-.07.56,2.13,2.13,0,0,0,1.68,2.08l5.18,1.1"/><path class="cls-6" d="M263.36,109.17c-.21,1.79-1.37,3.13-2.59,3s-2-1.71-1.8-3.51,1.37-3.13,2.59-3S263.58,107.37,263.36,109.17Z"/><path class="cls-6" d="M241.76,105.48c-.45,1.59-1.68,2.62-2.76,2.32s-1.57-1.84-1.12-3.42,1.69-2.62,2.76-2.32S242.21,103.9,241.76,105.48Z"/><polyline class="cls-6" points="242.62 157.9 226.42 169.74 216.68 176.85 239.79 175.01 265.36 210.18 275.53 171.93 300.2 167.12 291.97 163.03 291.97 163.03 276.86 155.51"/><path class="cls-6" d="M237,249.66l-2.29.28a13.06,13.06,0,0,1-14.57-11.38l-1.88-15.26,28.24-3.47,1.88,15.26A13.07,13.07,0,0,1,237,249.66Z"/></g></g></svg>