<svg xmlns="http://www.w3.org/2000/svg" viewBox="0 0 592.03 526.65"><defs><style>.cls-1{fill:#f0f0f0;}.cls-2,.cls-6,.cls-8{fill:none;}.cls-2,.cls-6,.cls-7{stroke:#323433;}.cls-2,.cls-6,.cls-7,.cls-8{stroke-linecap:round;stroke-linejoin:round;}.cls-2{stroke-width:1.74px;}.cls-3,.cls-7{fill:#323433;}.cls-4{fill:#fff;}.cls-5{fill:#52cca7;}.cls-6,.cls-7,.cls-8{stroke-width:2.61px;}.cls-8{stroke:#fff;}</style></defs><title>Asset 9</title><g id="Layer_2" data-name="Layer 2"><g id="graphic"><ellipse class="cls-1" cx="335.21" cy="487.17" rx="256.82" ry="39.47"/><polyline class="cls-2" points="81.93 345.1 83.84 330.46 98.5 328.66 100.42 314.01 115.08 312.21 117 297.57"/><line class="cls-2" x1="222.88" y1="158.57" x2="235.09" y2="169.84"/><line class="cls-2" x1="223.35" y1="170.3" x2="234.62" y2="158.1"/><path class="cls-3" d="M527.06,476A8.51,8.51,0,0,1,520.82,487l-32.71-95.73,5.81-1.1a4.17,4.17,0,0,1,4.71,2.75Z"/><path class="cls-4" d="M474.23,455.44a40.34,40.34,0,0,0-9.61-2.8h0l-12.3-54.23c11.24-2.37,23-4.7,35.79-7.12L520.82,487a8.21,8.21,0,0,1-1.8.19H500.43a8.3,8.3,0,0,1-8.24-7.82C491.37,466.92,483.17,459.33,474.23,455.44Z"/><path class="cls-3" d="M392.05,318.18c-23.94-6-45.33-17.18-63.33-36,8.1-38-11.14-41.77-7.6-58.48,2.61-12.26,8-15.9,13.22-29.33-15.15,16.15-25.84,28.9-43.47,44.52a32.68,32.68,0,0,1-21.4,8.22c-27.5.22-67-4.66-86.74,1.28l1-12.34,2.42-31.41,69.53,2.74a14.1,14.1,0,0,0,10.52-4.13c22.89-22.9,35.42-37.44,57-60.27a52.07,52.07,0,0,1,40.45-16.28c5.85.3,11.6.7,17.31,1.2a153.37,153.37,0,0,1-18.48,24c8.87.59,16.64,1.27,24.24,2.25.43,7.35,1.23,15.05,2.29,24,0,0,7.56-10,16.76-20.85,7.82,1.6,16.18,3.66,26,6.38-1.47-11.1-1.11-19.31,1.74-28.13,8.58,1.73,17.35,3.7,26.44,5.92a36,36,0,0,1,27.44,33.17c1.71,34.81,1.74,60.51,1.32,95.44a28.75,28.75,0,0,1-10.23,21.66q-1.61,1.33-3.26,2.75c-10.4,8.9-21.87,19.48-31.43,29.36s-17.06,18.85-19.9,24.89l-11.37-9.46-22.64-18.83Z"/><path class="cls-3" d="M480.43,73.57a14,14,0,0,1,2.73,10.63c-.8,6.58-5.33,11.49-10.31,11.35a16.21,16.21,0,0,1,.07,4.41c-.84,6.88-5.76,11.94-11,11.3a7.18,7.18,0,0,1-2-.52c-.89,4.28-3.79,7.71-7.81,8.61a9.91,9.91,0,0,1-7.82-1.62,13.39,13.39,0,0,1-20.64,6.61h0c.88-10,2.08-19.32,3.52-29.51,0,0,15.19-5.08,15.38-13.08a2.44,2.44,0,0,0,0-.27c4-8.58,2.28-24.38-12.21-35.86-9.58-7.61-24.93-6.32-37.15-3.47a19.1,19.1,0,0,0-14.66,16.54c-1,9.29-2.81,20.28-5,31.68a19.42,19.42,0,0,0-.34,3.92h0A15,15,0,0,1,363.35,88a14.81,14.81,0,0,1-2.13-13,7.43,7.43,0,0,1-3.13-9.14,14.28,14.28,0,0,1,2.28-21.55A16.3,16.3,0,0,1,371.74,29a10.51,10.51,0,0,1,7.47-7.81c.27-.07.53-.13.8-.18A18.38,18.38,0,0,1,388.69,12a18.58,18.58,0,0,1,9.52-2,15.09,15.09,0,0,1,6.9-7,14.75,14.75,0,0,1,17.68,3.19,18.13,18.13,0,0,1,4-2.75c7.32-3.68,15.65-1.9,18.6,4a10.13,10.13,0,0,1,.87,6.34c4.32-.81,8.52.32,11.11,3.4,2.71,3.23,3,7.83,1.19,12.09,4.55-1.93,9.48-1.27,12.24,2,2.47,2.95,2.56,7.24.61,11.08a7.24,7.24,0,0,1,1.87,1c3.74,2.66,4.39,8.34,1.85,13.49a7.78,7.78,0,0,1,4.56,1.4C483.93,61.13,484.22,68,480.43,73.57Z"/><path class="cls-5" d="M452.32,398.41c-32.53,6.86-60.88,14.11-98.89,25.23,67.43-28.36,99.39-55.88,99.56-99.83-.24-18-6.23.12-9.3.11-9.47,9.77-17.07,18.85-19.9,24.89l-11.37-9.46-17.66,14.08a47.64,47.64,0,0,1-19.83,13.37,34.76,34.76,0,0,0-11.5,7.44,39,39,0,0,1-16.29,9.05A73.64,73.64,0,0,1,327,385.91a4.69,4.69,0,0,1-4.11-7c4.66-8.48,8.94-15.68,13.94-23.15a25.63,25.63,0,0,1,11.59-9.47l14.1-5.78a66.75,66.75,0,0,0,22.57-15.25l4.66-4.79,2.27-2.34c-23.94-6-45.33-17.18-63.33-36-56.38.45-79.51-.53-128.93,1.74-36.22,1.65-43,39.85-22.94,62.45,30,33.8,50.25,52.75,81,82.38,4.24,4.08,8.67,8.36,13.36,12.9-.22.65-.42,1.29-.61,1.93,0,.13-.07.26-.11.38s-.09.35-.13.52a0,0,0,0,0,0,0c-.06.23-.12.46-.17.69l-.15.66c-.2.93-.36,1.85-.48,2.78,0,.21-.05.42-.07.63s0,.42-.07.63,0,.48,0,.72,0,.36,0,.53v0l0,.61c0,.75,0,1.51,0,2.25a34.61,34.61,0,0,0,10.76,23.82,33.84,33.84,0,0,0,23.48,9.47,36.07,36.07,0,0,0,5.88-.49q21.12-3.56,43.49-8.08c34.45-7,71.36-15.67,111.67-26.11Zm-146-20-.2.27c-.36.5-.73,1-1.08,1.51l-1.19,1.66-1.17,1.67-1.16,1.68-11.25-10.73-25-23.8c25.55,6.87,36.05,7.38,56.35,8.34C316.19,365.43,311.1,371.86,306.32,378.43Z"/><path class="cls-5" d="M430.4,45.62c14.49,11.48,16.2,27.28,12.21,35.86-.05-3.75-3.1-4.06-6.18-3.42C434.91,71.68,431,60.75,421,52.68S393,46.81,382.39,49.17a19.12,19.12,0,0,1,10.86-7C405.47,39.3,420.82,38,430.4,45.62Z"/><path class="cls-4" d="M386.65,154.2a178.76,178.76,0,0,1,.28-25.72l1.34.14a2.81,2.81,0,0,0,3-2.14,99.74,99.74,0,0,0,2.07-12.36l-5.62-1.45a19.29,19.29,0,0,1-14.14-22.3c2.17-11.4,4-22.39,5-31.68a19.15,19.15,0,0,1,3.8-9.52C393,46.81,410.85,44.55,421,52.68s14,19,15.48,25.38c3.08-.64,6.13-.33,6.18,3.42a2.44,2.44,0,0,1,0,.27c-.19,8-15.38,13.08-15.38,13.08-1.44,10.19-2.64,19.56-3.52,29.51q-.31,3.5-.57,7.11a2.41,2.41,0,0,0,2,2.56l2.88.54c-6.45,4.93-14.91,14.14-22.29,22.82-9.2,10.82-16.76,20.85-16.76,20.85C387.88,169.25,387.08,161.55,386.65,154.2ZM408.44,76c.17-1.72-.61-3.21-1.74-3.32s-2.2,1.18-2.37,2.9.61,3.21,1.74,3.32S408.27,77.68,408.44,76Zm-22.69-1.38c.15-1.56-.55-2.91-1.59-3s-2,1.08-2.15,2.65.55,2.91,1.58,3S385.59,76.16,385.75,74.59Z"/><path class="cls-4" d="M433.41,135.62c-2.85,8.82-3.21,17-1.74,28.13-9.79-2.72-18.15-4.78-26-6.38,7.38-8.68,15.84-17.89,22.29-22.82C429.79,134.9,431.6,135.25,433.41,135.62Z"/><path class="cls-4" d="M347.14,383.29A74,74,0,0,1,327,385.91a4.69,4.69,0,0,1-4.11-7c4.66-8.48,8.94-15.68,13.94-23.15a25.63,25.63,0,0,1,11.59-9.47l14.1-5.78a66.75,66.75,0,0,0,22.57-15.25l4.66-4.79,22.64,18.83-17.65,14.08a47.73,47.73,0,0,1-19.84,13.37,34.86,34.86,0,0,0-11.5,7.44A39,39,0,0,1,347.14,383.29Z"/><path class="cls-4" d="M386.93,128.48a178.76,178.76,0,0,0-.28,25.72c-7.6-1-15.37-1.66-24.24-2.25a153.37,153.37,0,0,0,18.48-24C382.9,128.08,384.92,128.27,386.93,128.48Z"/><path class="cls-3" d="M353,478.75,352.7,484a3.45,3.45,0,0,1-3.44,3.28H303.58a36.07,36.07,0,0,0,5.88-.49Q330.58,483.28,353,478.75Z"/><path class="cls-3" d="M303.58,487.32H257.16a8.5,8.5,0,0,1-8.44-9.49l31.38,0h0A33.8,33.8,0,0,0,303.58,487.32Z"/><path class="cls-4" d="M280.11,477.85h0l-31.38,0a8.5,8.5,0,0,1,.4-1.75l6-17.59a8.29,8.29,0,0,1,10-5.28,28.53,28.53,0,0,0,4.18.82A34.62,34.62,0,0,0,280.11,477.85Z"/><path class="cls-4" d="M186.1,204.64l-2.42,31.41c-47.29-4.65-80.56-14.55-101.82-37.3a3.63,3.63,0,0,1,3.74-5.95l41.06,13-6-9.82a3.68,3.68,0,0,1,.1-4,3.59,3.59,0,0,1,5.51-.42l3.48,3.58a8.73,8.73,0,0,0,6.41,2.6c5.44-.09,10.33,1.75,16.67,5.63Z"/><path class="cls-6" d="M334.35,194.37h0"/><path class="cls-6" d="M186.1,204.64h0l-2.42,31.41-1,12.34c19.74-5.94,59.24-1.06,86.74-1.28a32.68,32.68,0,0,0,21.4-8.22c17.63-15.62,28.32-28.37,43.47-44.52"/><path class="cls-6" d="M183.68,236.05c-47.29-4.65-80.56-14.55-101.82-37.3a3.63,3.63,0,0,1,3.74-5.95l41.06,13-6-9.82a3.68,3.68,0,0,1,.1-4,3.59,3.59,0,0,1,5.51-.42l3.48,3.58a8.73,8.73,0,0,0,6.41,2.6c5.44-.09,10.33,1.75,16.67,5.63l33.22,1.3,69.53,2.74a14.1,14.1,0,0,0,10.52-4.13c22.89-22.9,35.42-37.44,57-60.27a52.07,52.07,0,0,1,40.45-16.28c5.85.3,11.6.7,17.31,1.2,2,.18,4,.37,6,.58l1.34.14a2.81,2.81,0,0,0,3-2.14,99.74,99.74,0,0,0,2.07-12.36l-5.62-1.45a19.29,19.29,0,0,1-14.14-22.3c2.17-11.4,4-22.39,5-31.68a19.1,19.1,0,0,1,14.66-16.54c12.22-2.85,27.57-4.14,37.15,3.47,14.49,11.48,16.2,27.28,12.21,35.86"/><path class="cls-6" d="M444.24,323.35l-.55.57c-9.47,9.77-17.06,18.85-19.9,24.89l-11.37-9.46-22.64-18.83"/><path class="cls-6" d="M430.12,80.38a28.84,28.84,0,0,1,6.31-2.32c3.08-.64,6.13-.33,6.18,3.42a2.44,2.44,0,0,1,0,.27c-.19,8-15.38,13.08-15.38,13.08-1.44,10.19-2.64,19.56-3.52,29.51q-.31,3.5-.57,7.11a2.41,2.41,0,0,0,2,2.56l2.88.54c1.8.35,3.61.7,5.42,1.07,8.58,1.73,17.35,3.7,26.44,5.92a36,36,0,0,1,27.44,33.17c1.71,34.81,1.74,60.51,1.32,95.44a28.75,28.75,0,0,1-10.23,21.66q-1.61,1.33-3.26,2.75c-10.2,8.73-21.43,19.08-30.88,28.79"/><path class="cls-6" d="M392.05,318.18l-2.27,2.34-4.66,4.79a66.75,66.75,0,0,1-22.57,15.25l-14.1,5.78a25.63,25.63,0,0,0-11.59,9.47c-5,7.47-9.28,14.67-13.94,23.15a4.69,4.69,0,0,0,4.11,7,74,74,0,0,0,20.11-2.62,39,39,0,0,0,16.29-9.05,34.86,34.86,0,0,1,11.5-7.44,47.73,47.73,0,0,0,19.84-13.37l17.65-14.08"/><path class="cls-6" d="M342.22,361.7c-4.85,8-9.31,15.61-13.82,24.19"/><path class="cls-6" d="M350.56,362.33c-4.61,7.62-8.87,14.86-13.16,22.93"/><path class="cls-6" d="M358.9,363c-4.11,6.8-7.94,13.29-11.76,20.34"/><path class="cls-6" d="M339.86,175.09a119.61,119.61,0,0,1-5.51,19.28h0c-5.25,13.43-10.61,17.07-13.22,29.33-3.54,16.71,15.7,20.51,7.6,58.48,18,18.82,39.39,30,63.33,36"/><path class="cls-6" d="M328.72,282.18c-56.38.45-79.51-.53-128.93,1.73-36.22,1.67-43,39.86-22.94,62.45,34.16,38.46,55.63,57.7,94.42,95.29"/><path class="cls-6" d="M350.55,328.37c-10.69,10.43-20.26,20.5-28.91,30.65a316.09,316.09,0,0,0-20.12,26.2,305.64,305.64,0,0,0-29.4,54.22c-.32.74-.6,1.48-.85,2.21A33.92,33.92,0,0,0,269.34,454a34.62,34.62,0,0,0,10.77,23.82,33.8,33.8,0,0,0,23.47,9.47,36.07,36.07,0,0,0,5.88-.49q21.12-3.56,43.49-8.08c34.45-7,71.36-15.67,111.67-26.11"/><path class="cls-6" d="M301.52,385.22l-36.21-34.53c25.54,6.87,36,7.38,56.33,8.33"/><path class="cls-6" d="M324.38,330.64c2.82,6.31,5.2,10.88,8.8,15.46"/><path class="cls-6" d="M382.39,49.17C393,46.81,410.85,44.55,421,52.68s14,19,15.48,25.38"/><path class="cls-6" d="M423.7,124.34a13.39,13.39,0,0,0,20.64-6.61,9.91,9.91,0,0,0,7.82,1.62c4-.9,6.92-4.33,7.81-8.61a7.18,7.18,0,0,0,2,.52c5.23.64,10.15-4.42,11-11.3a16.21,16.21,0,0,0-.07-4.41c5,.14,9.51-4.77,10.31-11.35a14,14,0,0,0-2.73-10.63c3.79-5.59,3.5-12.44-.71-15.44a7.78,7.78,0,0,0-4.56-1.4c2.54-5.15,1.89-10.83-1.85-13.49a7.24,7.24,0,0,0-1.87-1c1.95-3.84,1.86-8.13-.61-11.08-2.76-3.29-7.69-4-12.24-2,1.8-4.26,1.52-8.86-1.19-12.09-2.59-3.08-6.79-4.21-11.11-3.4a10.13,10.13,0,0,0-.87-6.34c-2.95-5.87-11.28-7.65-18.6-4a18.13,18.13,0,0,0-4,2.75,14.75,14.75,0,0,0-17.68-3.19,15.09,15.09,0,0,0-6.9,7.05,18.58,18.58,0,0,0-9.52,2A18.38,18.38,0,0,0,380,21c-.27,0-.53.11-.8.18A10.51,10.51,0,0,0,371.74,29a16.3,16.3,0,0,0-11.37,15.26,14.28,14.28,0,0,0-2.28,21.55A7.43,7.43,0,0,0,361.22,75a14.81,14.81,0,0,0,2.13,13,15,15,0,0,0,9.92,6.34"/><path class="cls-7" d="M408.44,76c-.17,1.71-1.24,3-2.37,2.9s-1.92-1.6-1.74-3.32,1.23-3,2.37-2.9S408.61,74.25,408.44,76Z"/><path class="cls-7" d="M385.75,74.59c-.16,1.57-1.13,2.75-2.16,2.65s-1.74-1.46-1.58-3,1.12-2.75,2.15-2.65S385.9,73,385.75,74.59Z"/><path class="cls-6" d="M393.81,70.74c-.27,7.85-2.25,10.93-6.5,14.31a2.17,2.17,0,0,0-.76,1.2,2.39,2.39,0,0,0-.06.53,2.22,2.22,0,0,0,1.74,2.16l3.1.69"/><path class="cls-6" d="M386.93,128.48a178.76,178.76,0,0,0-.28,25.72c.43,7.35,1.23,15.05,2.29,24,0,0,7.56-10,16.76-20.85,7.38-8.68,15.84-17.89,22.29-22.82"/><path class="cls-6" d="M380.89,127.9a153.37,153.37,0,0,1-18.48,24c8.87.59,16.64,1.27,24.24,2.25h0"/><path class="cls-6" d="M405.7,157.37c7.82,1.6,16.18,3.66,26,6.38-1.47-11.1-1.11-19.31,1.74-28.13"/><path class="cls-6" d="M452.62,315c4.22,49.16-27.37,78.43-99.19,108.63,38-11.12,66.36-18.37,98.89-25.23,11.24-2.37,23-4.7,35.79-7.12l5.81-1.1a4.17,4.17,0,0,1,4.71,2.75l28.43,83A8.51,8.51,0,0,1,520.82,487a8.21,8.21,0,0,1-1.8.19H500.43a8.3,8.3,0,0,1-8.24-7.82c-.82-12.47-9-20.06-18-23.95a40.34,40.34,0,0,0-9.61-2.8h0l-12.3-54.23"/><polyline class="cls-6" points="488.11 391.29 488.11 391.29 520.82 487.02"/><line class="cls-6" x1="470.99" y1="446.38" x2="468.71" y2="453.51"/><line class="cls-6" x1="476.65" y1="447.86" x2="474.23" y2="455.44"/><line class="cls-6" x1="481.82" y1="451.06" x2="479.51" y2="458.27"/><path class="cls-6" d="M353,478.75,352.7,484a3.45,3.45,0,0,1-3.44,3.28h-92.1a8.48,8.48,0,0,1-8-11.24l6-17.59a8.29,8.29,0,0,1,10-5.28,28.53,28.53,0,0,0,4.18.82"/><line class="cls-6" x1="280.1" y1="477.86" x2="248.72" y2="477.83"/><path class="cls-8" d="M445,193.44c1.86,21.63,1.72,37.35.22,60.52a27.77,27.77,0,0,1-7.81,17.59l-45.32,46.63"/><path class="cls-2" d="M41.58,129.06a5.87,5.87,0,1,0-5.45,6.27A5.87,5.87,0,0,0,41.58,129.06Z"/><path class="cls-2" d="M81.84,146.25a5.87,5.87,0,1,0-5.45,6.27A5.87,5.87,0,0,0,81.84,146.25Z"/><path class="cls-2" d="M72.6,101.48a5.87,5.87,0,1,0-5.45,6.27A5.87,5.87,0,0,0,72.6,101.48Z"/><path class="cls-2" d="M47.13,67a5.87,5.87,0,1,0-5.45,6.26A5.88,5.88,0,0,0,47.13,67Z"/><path class="cls-2" d="M114.65,76.9a5.87,5.87,0,1,0-5.45,6.26A5.87,5.87,0,0,0,114.65,76.9Z"/><path class="cls-2" d="M119,112.83a5.87,5.87,0,1,0-5.45,6.26A5.88,5.88,0,0,0,119,112.83Z"/><path class="cls-2" d="M169.8,64.57a5.87,5.87,0,1,0-5.45,6.27A5.87,5.87,0,0,0,169.8,64.57Z"/><path class="cls-2" d="M214.18,33a5.86,5.86,0,1,0-5.44,6.26A5.87,5.87,0,0,0,214.18,33Z"/><path class="cls-2" d="M214.46,80.75A5.87,5.87,0,1,0,209,87,5.88,5.88,0,0,0,214.46,80.75Z"/><path class="cls-2" d="M159.93,105.27a5.87,5.87,0,1,0-5.45,6.26A5.87,5.87,0,0,0,159.93,105.27Z"/><path class="cls-2" d="M171,129a5.87,5.87,0,1,0-5.45,6.26A5.88,5.88,0,0,0,171,129Z"/><path class="cls-2" d="M108.63,44.61a5.87,5.87,0,1,0-5.45,6.26A5.87,5.87,0,0,0,108.63,44.61Z"/><path class="cls-2" d="M12.59,74.61a5.87,5.87,0,1,0-5.44,6.26A5.87,5.87,0,0,0,12.59,74.61Z"/><path class="cls-2" d="M13,36a5.87,5.87,0,1,0-5.45,6.26A5.87,5.87,0,0,0,13,36Z"/><path class="cls-2" d="M123,175.1c8.79-24,19.4-36.23,37-42.93"/><path class="cls-2" d="M169.83,125.85C180.65,108,189.6,96.39,204,84.76"/><path class="cls-2" d="M114.86,174c4.79-30.24,13.84-45.59,34.81-64.44"/><path class="cls-2" d="M157.17,100.69c5.75-9.77,7.63-18,7.25-29.86"/><path class="cls-2" d="M158.62,102c15.24-11.16,26.71-16.27,44.2-19.8"/><path class="cls-2" d="M207.38,39.2c-2.21,13.47-2.4,23-.21,36.27"/><path class="cls-2" d="M80.4,150.53c7.67,5.91,22.52,18.55,28.88,32.18-6.09-26.45-6.38-42.49,1.06-64.34"/><path class="cls-2" d="M41.36,131.1c11.57,2.87,20.53,6.5,29.58,12.56"/><path class="cls-2" d="M33.62,124C29,106.09,22.16,95.21,10.31,79.68"/><path class="cls-2" d="M39,124.63c7.14-8.68,14.07-14.26,22.5-20"/><path class="cls-2" d="M7.93,69.27A50.17,50.17,0,0,0,8.8,42"/><path class="cls-2" d="M10.71,41c8.16,10.64,14.81,17.13,25.52,23.4"/><path class="cls-2" d="M43.27,73c5.23,10.58,10.18,17.6,18.86,25.32"/><path class="cls-2" d="M41.86,61.59c.94-10.18,3.73-17,9.69-24.65"/><path class="cls-2" d="M71.62,98.63c10.29-9.18,18.8-14.39,31.68-19.25"/><path class="cls-2" d="M102.93,77.46c-19.78-.18-35.16-4-55.79-9.88"/><path class="cls-2" d="M104.67,50.57c2.68,7,3.54,13.1,3.82,20.87"/><path class="cls-2" d="M70.86,106.07c14.88,11.49,22.23,22,28.74,43.55"/><path class="cls-2" d="M108,83.11a62.59,62.59,0,0,0,3.36,24.57"/><path class="cls-2" d="M118.25,110.26C136.72,96.73,148,86.47,160.73,69.9"/><path class="cls-2" d="M118,76.29c13.08-.21,23.58-2.57,40.7-8.62"/><path class="cls-2" d="M169.74,64.09c13.86-.52,23.15,3.79,34.4,13.26"/><path class="cls-2" d="M169,62c14.38-6.43,24.69-13.29,35.49-24.15"/><path class="cls-2" d="M163.15,59.17c.32-8.34-.58-14.4-4.5-22.05"/><rect class="cls-3" x="102.73" y="256.78" width="10.68" height="10.68" transform="translate(-153.69 153.19) rotate(-45)"/></g></g></svg>