<svg xmlns="http://www.w3.org/2000/svg" viewBox="0 0 587.04 593.58"><defs><style>.cls-1{fill:#f0f0f0;}.cls-2,.cls-6{fill:none;stroke:#323433;stroke-linecap:round;stroke-linejoin:round;}.cls-2{stroke-width:1.74px;}.cls-3{fill:#323433;}.cls-4{fill:#fff;}.cls-5{fill:#52cca7;}.cls-6{stroke-width:2.61px;}</style></defs><title>Asset 7</title><g id="Layer_2" data-name="Layer 2"><g id="graphic"><ellipse class="cls-1" cx="322.51" cy="554.92" rx="186.13" ry="38.66"/><path class="cls-2" d="M533.93,150v-6.5a24.68,24.68,0,0,0-24.67-24.67h0a24.68,24.68,0,0,0-24.68,24.67V150"/><path class="cls-2" d="M524.91,150v-6.5c0-13.62-7-24.67-15.65-24.67h0c-8.65,0-15.66,11.05-15.66,24.67V150"/><path class="cls-2" d="M515,150v-6.5c0-13.62-2.58-24.67-5.77-24.67h0c-3.19,0-5.78,11.05-5.78,24.67V150"/><path class="cls-2" d="M505.49,119.06v-4a3.77,3.77,0,0,1,3.77-3.77h0a3.77,3.77,0,0,1,3.77,3.77v4"/><line class="cls-2" x1="509.26" y1="111.29" x2="509.26" y2="93.43"/><path class="cls-2" d="M516.68,267.16v-13.4a7.43,7.43,0,1,0-14.85,0v13.4H484.58V150h49.35V267.16Z"/><path class="cls-2" d="M484.58,218h6V237.9h-6"/><rect class="cls-2" x="504.87" y="217.98" width="8.76" height="19.92"/><path class="cls-2" d="M533.93,237.9h-6V218h6"/><polyline class="cls-2" points="533.93 267.15 586.17 267.15 586.17 233.49 578.75 226.07 533.93 226.07"/><path class="cls-2" d="M484.58,267.16H473.15V259a5.41,5.41,0,1,0-10.82,0v8.15H450.9V233.48l7.42-7.41h26.26"/><line class="cls-2" x1="586.17" y1="233.48" x2="533.93" y2="233.48"/><line class="cls-2" x1="450.9" y1="233.48" x2="484.58" y2="233.48"/><rect class="cls-2" x="543.62" y="242.37" width="3.84" height="15.82"/><rect class="cls-2" x="553.53" y="242.37" width="3.84" height="15.82"/><rect class="cls-2" x="563.43" y="242.37" width="3.84" height="15.82"/><rect class="cls-2" x="573.33" y="242.37" width="3.84" height="15.82"/><polyline class="cls-2" points="159.33 234.88 173.08 231.2 180.08 243.61 193.84 239.93 200.83 252.34 214.59 248.66"/><line class="cls-2" x1="132.67" y1="64.65" x2="144.7" y2="75.76"/><line class="cls-2" x1="133.13" y1="76.22" x2="144.24" y2="64.19"/><rect class="cls-3" x="367.17" y="426.19" width="10.44" height="10.44" transform="translate(-195.98 389.68) rotate(-45)"/><path class="cls-4" d="M543.62,186.08a23.1,23.1,0,0,1-4.79,4.47c-13,9.2-33,19.49-55.77,19.49-34.51,1.7-53.53,1.66-73.3,1.22a17,17,0,0,1-12.09-5.43c-.45-.49-.9-1-1.36-1.54l28.25-25.84a7.25,7.25,0,0,0,4.09,1.3l55.42.42a27.78,27.78,0,0,0,20.59-8.9l10.75-11.6a3.19,3.19,0,0,1,3.19-.94,3.11,3.11,0,0,1,2,4.12l-5.36,13.62,27.87-7.86a3.64,3.64,0,0,1,4.62,3.18,3.4,3.4,0,0,1,0,.45,21,21,0,0,1-.54,6.43A19.26,19.26,0,0,1,543.62,186.08Z"/><path class="cls-5" d="M434.61,341.92c-38,19.35-70.53,36.45-105,55.41l2.24-7.51a73.4,73.4,0,0,0,3-24.78l-1.46-29.17,39-17.77-53.3-26.48c.86,16.16,1.67,32.13,2.43,49.64.32,7.4.63,15.07.93,23.14A69.68,69.68,0,0,1,317,394.06q-2.83,6.74-5.56,13.28-5.1,12.33-9.84,24.07h0q-5.56,13.83-10.75,26.94L286.27,470c-7.95,20.1-15.47,39.09-23.21,57.42H209.55c16.69-43.16,29.3-77.21,47.51-121.83h0q2.35-5.77,4.86-11.82c1.29-3.15,2.63-6.36,4-9.63a24.05,24.05,0,0,0,1.35-14.22c-.23-1.1-.49-2.3-.75-3.61h0c-3.48-16.9-10-50.45-13.24-79.13-6-53.21,7.26-62,16.15-82L349.94,217h0l1.12,14.17a16.67,16.67,0,0,0,8.85,13.43c24.28,12.81,49.17,28,77,45.35A29.86,29.86,0,0,1,434.61,341.92Z"/><path class="cls-3" d="M331.81,389.82l-2.24,7.51h0q-8.94,4.91-18.1,10,2.71-6.55,5.56-13.28a69.68,69.68,0,0,0,5.43-29.66c-.3-8.07-.61-15.74-.93-23.14l11.82-5.39L334.81,365A73.4,73.4,0,0,1,331.81,389.82Z"/><path class="cls-4" d="M424.56,178.45l-28.25,25.84c-1.22-1.43-2.48-3-3.94-4.81l29-25.76c.08.29.16.58.22.85l.69,1.32A7.26,7.26,0,0,0,424.56,178.45Z"/><path class="cls-3" d="M421.39,173.72l-29,25.76c-14.54.93-23.37-14.53-25.78-49.75-9.33,18.64-10.57,32-10.77,55.71-2.29-.18-4.58-.41-6.85-.67-27.3-3.15-53.27-11.87-74.25-16.75-8.87-2.07-16.86-3.45-23.67-3.43,8.67-17.71,11.39-30.65,15.33-47.11-23.65,25-41.58,37.42-59.74,23.83l-10.55-34c27.62-16.43,49.47-28.18,76.68-41.84A29.47,29.47,0,0,1,292.33,83l.5.11c7.48,14.21,23,24,40.93,24A46.92,46.92,0,0,0,366,94.48l1.44.12a26.85,26.85,0,0,1,21.24,13.71C403.84,135.47,418.43,162.82,421.39,173.72Z"/><path class="cls-3" d="M396.5,19.77a5.61,5.61,0,0,1,.86,6.39A71.59,71.59,0,0,1,378,50.07a1.53,1.53,0,0,0,1.59,2.59,43.12,43.12,0,0,0,9.08-5.42A3.7,3.7,0,0,1,394.52,51c-3.89,17.87-22.84,27.56-48.61,28a181.26,181.26,0,0,1,3.26-24.51s12-7.46,9-12.43-7.91.23-8.13.45a11.81,11.81,0,0,0,1.7-3.42,6.4,6.4,0,0,0-1.48-6.75c-2.78-2.77-31.23-1.18-34.37-15.6a54.17,54.17,0,0,0-10.39,18.79l-4.9-.37-.65,0C298.33,23,302.6,9.22,321,3.31c28.79-9.24,31.24,16.3,46.73,19,7.22,1.26,15.58-1.08,22.43-3.94A5.62,5.62,0,0,1,396.5,19.77Z"/><path class="cls-4" d="M350.08,42.47c.22-.22,5.26-5.31,8.13-.45s-9,12.43-9,12.43A181.26,181.26,0,0,0,345.91,79q-.44,5.66-.74,11.73a1.74,1.74,0,0,0,1.52,1.82c6.17.74,12.57,1.39,19.34,2a46.92,46.92,0,0,1-32.27,12.62c-17.93,0-33.45-9.77-40.93-24,7.73,1.69,15,3.19,22.22,4.53a2.68,2.68,0,0,0,3.08-1.94l4.59-17.24C308.37,67.81,303,58.19,303.5,46.69c0-.58.06-1.18.11-1.77h0a6.19,6.19,0,0,0,2.53.78l1.75.13a6.06,6.06,0,0,0,6.45-5l.55-4.58,8,.62,0,4.4a6.07,6.07,0,0,0,5.61,5.7l1.75.13A6.06,6.06,0,0,0,336.66,42l.47-4.06,14.65,1.13A11.81,11.81,0,0,1,350.08,42.47Z"/><path class="cls-4" d="M350.3,32.3a6.4,6.4,0,0,1,1.48,6.75l-14.65-1.13-14.21-1.09-8-.62-9.35-.72A54.17,54.17,0,0,1,315.93,16.7C319.07,31.12,347.52,29.53,350.3,32.3Z"/><path class="cls-4" d="M349,204.77l1,12.26h0l-80.53-11.88A76.3,76.3,0,0,0,274.72,188c21,4.88,46.95,13.6,74.25,16.75Z"/><path class="cls-5" d="M337.13,37.92,336.66,42a6.06,6.06,0,0,1-6.42,5.08l-1.75-.13a6.07,6.07,0,0,1-5.61-5.7l0-4.4Z"/><path class="cls-5" d="M305.54,35.49l9.35.72-.55,4.58a6.06,6.06,0,0,1-6.45,5l-1.75-.13a6.19,6.19,0,0,1-2.53-.78,6.32,6.32,0,0,1-1.33-1A6.1,6.1,0,0,1,300.56,40l0-1.61.05-3.24Z"/><path class="cls-4" d="M303.61,44.92h0c-.05.59-.09,1.19-.11,1.77-.43-.89-.84-1.83-1.22-2.8A6.32,6.32,0,0,0,303.61,44.92Z"/><path class="cls-4" d="M301.63,431.41c2,10.78,3.93,23.53-7.78,33.55l-3-6.61Q296.09,445.23,301.63,431.41Z"/><path class="cls-4" d="M300.64,35.12l-.05,3.24c-.25-1.08-.45-2.18-.6-3.29Z"/><path class="cls-3" d="M294.7,561.48a18.65,18.65,0,0,1-.43,7.54h-98v-7.54Z"/><path class="cls-4" d="M263.89,542c7.94,6.77,28.52,6.24,30.81,19.5H196.24c4.78-12.11,9.17-23.35,13.31-34.05h53.51l-.84,2a14.58,14.58,0,0,0-1.41,6.78A8.18,8.18,0,0,0,263.89,542Z"/><path class="cls-3" d="M290.88,458.35l3,6.61a40.22,40.22,0,0,1-7.58,5.05Z"/><path class="cls-4" d="M265.91,384.14c-1.36,3.27-2.7,6.48-4,9.63l-9.46-21.07,14-6.39h0c.26,1.31.52,2.51.75,3.61A24.05,24.05,0,0,1,265.91,384.14Z"/><path class="cls-3" d="M252.46,372.7l9.46,21.07q-2.51,6-4.86,11.82l-13.16-29Z"/><path class="cls-4" d="M196.09,127.28l10.55,34L200,164.66l-10-35.19a8.41,8.41,0,0,0,1.26-.34l4.48-1.67Z"/><path class="cls-4" d="M93.33,91.1,82.75,85.36c.06-3.29.61-10.26,4.08-10.26,2.32,0,4,4.21,5,8.31a6.34,6.34,0,0,0,3.42,4.17C130.44,104.32,156.82,116.13,186,129a7.24,7.24,0,0,0,4.08.5l10,35.19-7.14,3.62a15,15,0,0,1-14.1-.3c-19.37-10.86-47.64-27.6-76.35-44.79a13.82,13.82,0,0,0-7.06-2H89a13.64,13.64,0,0,1-10.35-4.76C71.34,108,69,99.87,68.33,87.65L74.7,91.1Z"/><path class="cls-3" d="M93.33,91.1H74.7l-6.37-3.45L56.67,81.32c1.39.75,3.47-.38,4.63-2.54s1-4.51-.39-5.26L82.75,85.36Z"/><path class="cls-3" d="M77.46,28.34V58a5.22,5.22,0,0,1-5.22,5.22H66.66A5.22,5.22,0,0,0,71.87,58V28.34a5.21,5.21,0,0,0-5.21-5.22h5.58A5.21,5.21,0,0,1,77.46,28.34Z"/><path class="cls-4" d="M71.87,28.34V58a5.22,5.22,0,0,1-5.21,5.22H36.45V56.88H42a3.33,3.33,0,0,0,3.33-3.33V40.16A3.33,3.33,0,0,0,42,36.83H36.11V23.12H66.66A5.21,5.21,0,0,1,71.87,28.34Z"/><path class="cls-3" d="M56.22,76.17l.06-.12c1.17-2.15,3.24-3.29,4.63-2.53s1.56,3.11.39,5.26-3.24,3.29-4.63,2.54S55.12,78.3,56.22,76.17Z"/><path class="cls-5" d="M45.28,40.16V53.55A3.33,3.33,0,0,1,42,56.88H16.88a3.33,3.33,0,0,1-3.33-3.33V40.16a3.33,3.33,0,0,1,3.33-3.33H42A3.33,3.33,0,0,1,45.28,40.16ZM32.59,47a4.32,4.32,0,1,0-4.32,4.32A4.31,4.31,0,0,0,32.59,47Z"/><polygon class="cls-4" points="36.45 56.88 36.45 63.23 30.88 63.23 22.4 63.23 22.4 56.88 36.45 56.88"/><polygon class="cls-4" points="36.1 23.12 36.1 36.83 21.71 36.83 21.71 23.12 30.88 23.12 36.1 23.12"/><path class="cls-4" d="M28.27,42.67A4.32,4.32,0,1,1,24,47,4.31,4.31,0,0,1,28.27,42.67Z"/><path class="cls-4" d="M22.4,56.88v6.35H6.52A5.22,5.22,0,0,1,1.3,58V28.34a5.22,5.22,0,0,1,5.22-5.22H21.71V36.83H16.88a3.33,3.33,0,0,0-3.33,3.33V53.55a3.33,3.33,0,0,0,3.33,3.33Z"/><path class="cls-6" d="M303.5,46.69c-.43-.89-.84-1.83-1.22-2.8"/><path class="cls-6" d="M300.59,38.36c-.25-1.08-.45-2.18-.6-3.29C298.33,23,302.6,9.22,321,3.31c28.79-9.24,31.24,16.3,46.73,19,7.22,1.26,15.58-1.08,22.43-3.94a5.62,5.62,0,0,1,7.16,7.77A71.59,71.59,0,0,1,378,50.07a1.53,1.53,0,0,0,1.59,2.59,43.12,43.12,0,0,0,9.08-5.42A3.7,3.7,0,0,1,394.52,51c-3.89,17.87-22.84,27.56-48.61,28h0"/><path class="cls-6" d="M82.75,85.36c.06-3.29.61-10.26,4.08-10.26,2.32,0,4,4.21,5,8.31a6.34,6.34,0,0,0,3.42,4.17C130.44,104.32,156.82,116.13,186,129a7.24,7.24,0,0,0,4.08.5,8.41,8.41,0,0,0,1.26-.34l4.48-1.67.31-.18c27.62-16.43,49.47-28.18,76.68-41.84A29.47,29.47,0,0,1,292.33,83l.5.11c7.73,1.69,15,3.19,22.22,4.53a2.68,2.68,0,0,0,3.08-1.94l4.59-17.24C308.37,67.81,303,58.19,303.5,46.69c0-.58.06-1.18.11-1.77"/><path class="cls-6" d="M350.07,42.47h0c.22-.22,5.26-5.31,8.13-.45s-9,12.43-9,12.43A181.26,181.26,0,0,0,345.91,79q-.44,5.66-.74,11.73a1.74,1.74,0,0,0,1.52,1.82c6.17.74,12.57,1.39,19.34,2l1.44.12a26.85,26.85,0,0,1,21.24,13.71c15.13,27.16,29.72,54.51,32.68,65.41.08.29.16.58.22.85l.69,1.32a7.23,7.23,0,0,0,6.35,3.86l55.42.42a27.78,27.78,0,0,0,20.59-8.9l10.75-11.6a3.19,3.19,0,0,1,3.19-.94,3.11,3.11,0,0,1,2,4.12l-5.36,13.62,27.87-7.86a3.64,3.64,0,0,1,4.62,3.18,3.4,3.4,0,0,1,0,.45,21,21,0,0,1-.54,6.43,19.26,19.26,0,0,1-3.64,7.41,23.1,23.1,0,0,1-4.79,4.47c-13,9.2-33,19.49-55.77,19.49-34.51,1.7-53.53,1.66-73.3,1.22a17,17,0,0,1-12.09-5.43c-.45-.49-.9-1-1.36-1.54-1.22-1.43-2.48-3-3.94-4.81-14.54.93-23.37-14.53-25.78-49.75-9.33,18.64-10.57,32-10.77,55.71-2.29-.18-4.58-.41-6.85-.67-27.3-3.15-53.27-11.87-74.25-16.75-8.87-2.07-16.86-3.45-23.67-3.43,8.67-17.71,11.39-30.65,15.33-47.11-23.65,25-41.58,37.42-59.74,23.83L200,164.66l-7.14,3.62a15,15,0,0,1-14.1-.3c-19.37-10.86-47.64-27.6-76.35-44.79a13.82,13.82,0,0,0-7.06-2H89a13.64,13.64,0,0,1-10.35-4.76C71.34,108,69,99.87,68.33,87.65"/><path class="cls-6" d="M305.54,35.5h0A54.17,54.17,0,0,1,315.93,16.7c3.14,14.42,31.59,12.83,34.37,15.6a6.4,6.4,0,0,1,1.48,6.75,11.81,11.81,0,0,1-1.7,3.42"/><path class="cls-6" d="M292.83,83.12c7.48,14.21,23,24,40.93,24A46.92,46.92,0,0,0,366,94.48"/><polyline class="cls-6" points="190.03 129.46 190.03 129.47 200.02 164.66"/><line class="cls-6" x1="206.64" y1="161.31" x2="196.09" y2="127.28"/><line class="cls-6" x1="392.37" y1="199.48" x2="421.39" y2="173.72"/><line class="cls-6" x1="396.31" y1="204.29" x2="424.56" y2="178.45"/><path class="cls-6" d="M349,204.77l1,12.26,1.12,14.17a16.67,16.67,0,0,0,8.85,13.43c24.28,12.81,49.17,28,77,45.35a29.86,29.86,0,0,1-2.26,51.94c-44.56,22.7-81.6,42.28-123.14,65.42h0"/><path class="cls-6" d="M301.63,431.41c2,10.78,3.93,23.53-7.78,33.55a40.22,40.22,0,0,1-7.58,5.05"/><polyline class="cls-6" points="257.06 405.6 243.9 376.6 252.46 372.7 266.5 366.31"/><polyline class="cls-6" points="321.53 341.26 372.4 318.1 319.1 291.62"/><path class="cls-6" d="M263.06,527.43c7.74-18.33,15.26-37.32,23.21-57.42l4.61-11.66q5.21-13.12,10.75-26.94h0q4.75-11.75,9.84-24.07,2.71-6.55,5.56-13.28a69.68,69.68,0,0,0,5.43-29.66c-.3-8.07-.61-15.74-.93-23.14-.76-17.51-1.57-33.48-2.43-49.64-.56-10.51-1.14-21.1-1.74-32.24"/><path class="cls-6" d="M274.72,188a76.3,76.3,0,0,1-5.31,17.13c-8.89,20.08-22.12,28.82-16.15,82,3.22,28.68,9.76,62.23,13.24,79.13h0c.26,1.31.52,2.51.75,3.61a24.05,24.05,0,0,1-1.35,14.22c-1.36,3.27-2.7,6.48-4,9.63q-2.51,6-4.86,11.82h0c-18.21,44.62-30.82,78.67-47.51,121.83-4.14,10.7-8.53,21.94-13.31,34.05V569h98a18.65,18.65,0,0,0,.43-7.54c-2.29-13.26-22.87-12.73-30.81-19.5a8.18,8.18,0,0,1-3.08-5.77,14.58,14.58,0,0,1,1.41-6.78l.84-2"/><polyline class="cls-6" points="196.24 561.48 294.7 561.48 294.7 561.48"/><polyline class="cls-6" points="209.54 527.43 263.06 527.43 263.06 527.43"/><line class="cls-6" x1="245.88" y1="536.21" x2="260.81" y2="536.21"/><line class="cls-6" x1="250.14" y1="541.98" x2="263.89" y2="541.98"/><line class="cls-6" x1="252.46" y1="372.7" x2="261.92" y2="393.77"/><line class="cls-6" x1="290.88" y1="458.35" x2="293.85" y2="464.96"/><line class="cls-6" x1="269.41" y1="205.15" x2="349.94" y2="217.03"/><polyline class="cls-6" points="296.74 34.82 299.99 35.07 300.63 35.12 305.54 35.49 314.89 36.21 322.92 36.83 337.13 37.92 351.78 39.05"/><path class="cls-6" d="M337.13,37.92,336.66,42a6.06,6.06,0,0,1-6.42,5.08l-1.75-.13a6.07,6.07,0,0,1-5.61-5.7l0-4.4"/><path class="cls-6" d="M314.89,36.21l-.55,4.58a6.06,6.06,0,0,1-6.45,5l-1.75-.13a6.19,6.19,0,0,1-2.53-.78,6.32,6.32,0,0,1-1.33-1A6.1,6.1,0,0,1,300.56,40l0-1.61.05-3.24"/><path class="cls-6" d="M318.33,39.36c-.14,4.33-1.38,6.37-4.26,8.06a1.66,1.66,0,0,0-.81,1.22,1.64,1.64,0,0,0,0,.22,1.65,1.65,0,0,0,1.41,1.63l4.47.71"/><path class="cls-6" d="M66.66,63.23H6.52A5.22,5.22,0,0,1,1.3,58V28.34a5.22,5.22,0,0,1,5.22-5.22H66.66a5.21,5.21,0,0,1,5.21,5.22V58A5.22,5.22,0,0,1,66.66,63.23Z"/><path class="cls-6" d="M66.66,23.12h5.58a5.21,5.21,0,0,1,5.22,5.22V58a5.22,5.22,0,0,1-5.22,5.22H66.66"/><path class="cls-6" d="M36.11,36.83H42a3.33,3.33,0,0,1,3.33,3.33V53.55A3.33,3.33,0,0,1,42,56.88H16.88a3.33,3.33,0,0,1-3.33-3.33V40.16a3.33,3.33,0,0,1,3.33-3.33H36.11Z"/><path class="cls-6" d="M32.59,47a4.32,4.32,0,1,0-4.32,4.32A4.31,4.31,0,0,0,32.59,47Z"/><path class="cls-6" d="M21.71,36.83V22a4.59,4.59,0,1,1,9.17,0v1.15"/><path class="cls-6" d="M36.11,36.83V22a4.59,4.59,0,1,1,9.17,0v1.15"/><path class="cls-6" d="M22.4,56.88v8.19a4.24,4.24,0,1,0,8.48,0V63.23"/><path class="cls-6" d="M36.45,56.88v8.19a4.25,4.25,0,0,0,6.46,3.62,4.72,4.72,0,0,0,.78-.62,4.22,4.22,0,0,0,1.24-3V63.23"/><polyline class="cls-6" points="42.91 68.68 42.91 68.69 56.22 76.17 58.44 77.42"/><path class="cls-6" d="M60.91,73.52c1.39.75,1.56,3.11.39,5.26s-3.24,3.29-4.63,2.54-1.55-3-.45-5.15l.06-.12C57.45,73.9,59.52,72.76,60.91,73.52Z"/><polyline class="cls-6" points="60.91 73.52 82.75 85.36 93.33 91.1"/><path class="cls-6" d="M56.67,81.32l11.66,6.33L74.7,91.1H93.89a4.38,4.38,0,0,1,4.38,4.38V97"/><path class="cls-6" d="M78.41,97H97.6a4.38,4.38,0,0,1,4.38,4.38V103"/><path class="cls-6" d="M82.13,103h19.18a4.38,4.38,0,0,1,4.38,4.38V109"/><path class="cls-6" d="M85.47,108.89h19.18a4.38,4.38,0,0,1,4.38,4.38v1.54"/><path class="cls-6" d="M517.82,181.51s18.41-5.52,30-9.27"/><path class="cls-6" d="M518.67,187.48s17-5.09,28.59-8.81"/><path class="cls-6" d="M519.53,193.46s13.05-3.91,24.09-7.38"/><path class="cls-2" d="M226.57,206.66a6.24,6.24,0,1,0-6.24,6.24A6.24,6.24,0,0,0,226.57,206.66Z"/></g></g></svg>