<svg xmlns="http://www.w3.org/2000/svg" viewBox="0 0 513 583.15"><defs><style>.cls-1{fill:#f0f0f0;}.cls-2{fill:#fff;}.cls-3,.cls-4,.cls-7{fill:none;stroke-linecap:round;stroke-linejoin:round;}.cls-3,.cls-4{stroke:#323433;}.cls-3,.cls-7{stroke-width:2.61px;}.cls-4{stroke-width:1.74px;}.cls-5{fill:#323433;}.cls-6{fill:#52cca7;}.cls-7{stroke:#fff;}</style></defs><title>Asset 6</title><g id="Layer_2" data-name="Layer 2"><g id="graphic"><ellipse class="cls-1" cx="247.3" cy="546.69" rx="247.3" ry="36.46"/><path class="cls-2" d="M317.51,364.36q-2.37,2-4.72,3.81l.16-.11a89.82,89.82,0,0,1-20.89,12.43,98.87,98.87,0,0,1-22.74,6.17c-4.21.66-8.74,1.18-13.68,1.56H167.93c-4.94-.38-9.47-.9-13.68-1.56a98.82,98.82,0,0,1-22.75-6.17,90,90,0,0,1-20.77-12.34q-2.33-1.8-4.68-3.78a43.35,43.35,0,0,1-9.42-50.91s7.62-20.27,22.5-59.82,50.94-70.31,92.65-70.31h0c41.7,0,77.76,30.76,92.64,70.31s22.5,59.82,22.5,59.82a43.37,43.37,0,0,1-9.42,50.91l-.16.13Z"/><path class="cls-2" d="M317.51,364.36l-.15.14q-2.22,1.86-4.41,3.56l-.16.11Q315.15,366.35,317.51,364.36Z"/><path class="cls-2" d="M313,368.06q2.19-1.69,4.41-3.56A43.16,43.16,0,0,1,313,368.06Z"/><path class="cls-2" d="M106.05,364.37q2.36,2,4.68,3.78A43.45,43.45,0,0,1,106.05,364.37Z"/><path class="cls-3" d="M110.73,368.15a43.45,43.45,0,0,1-4.68-3.78"/><path class="cls-3" d="M269.32,386.66c-4.21.66-8.74,1.18-13.68,1.56H167.93c-4.94-.38-9.47-.9-13.68-1.56a98.82,98.82,0,0,1-22.75-6.17,90,90,0,0,1-20.77-12.34q-2.33-1.8-4.68-3.78a43.35,43.35,0,0,1-9.42-50.91s7.62-20.27,22.5-59.82,50.94-70.31,92.65-70.31h0c41.7,0,77.76,30.76,92.64,70.31s22.5,59.82,22.5,59.82a43.37,43.37,0,0,1-9.42,50.91l-.16.13q-2.22,1.86-4.41,3.56a89.82,89.82,0,0,1-20.89,12.43A98.87,98.87,0,0,1,269.32,386.66Z"/><path class="cls-3" d="M317.51,364.36l-.15.14a43.16,43.16,0,0,1-4.41,3.56l-.16.11q2.35-1.82,4.72-3.81l0,0"/><path class="cls-3" d="M106.05,364.37l0,0"/><line class="cls-3" x1="326.92" y1="313.46" x2="326.91" y2="313.43"/><line class="cls-3" x1="131.5" y1="380.49" x2="68.23" y2="551.78"/><line class="cls-3" x1="292.06" y1="380.49" x2="355.34" y2="551.78"/><line class="cls-3" x1="154.25" y1="386.66" x2="96.21" y2="543.79"/><line class="cls-3" x1="269.32" y1="386.66" x2="327.36" y2="543.79"/><path class="cls-3" d="M298.15,346.12l-.1.05a30.8,30.8,0,0,1-13.24,3H138.75a30.76,30.76,0,0,1-13.23-3l-.1-.05"/><polyline class="cls-4" points="396.69 241.18 408.83 231.84 420.9 241.28 433.05 231.94 445.13 241.37 457.27 232.04"/><line class="cls-4" x1="383.49" y1="186.58" x2="396.56" y2="198.65"/><line class="cls-4" x1="383.99" y1="199.15" x2="396.06" y2="186.08"/><rect class="cls-5" x="64.31" y="154.82" width="11.35" height="11.35" transform="translate(-92.99 96.49) rotate(-45)"/><path class="cls-4" d="M443.53,291.73a6.78,6.78,0,1,0-6.78,6.78A6.78,6.78,0,0,0,443.53,291.73Z"/><path class="cls-2" d="M508.41,433.81l2.88,4.6a2.67,2.67,0,0,1-.91,3.71L419.1,496a2.68,2.68,0,0,1-3.63-.9l-12.16-19.78a31.42,31.42,0,0,1,30.48,1.86l74.06-43.71.25-.16C508.2,433.47,508.31,433.64,508.41,433.81Z"/><path class="cls-5" d="M453.22,430.65a13.49,13.49,0,0,0,10.32,1.67l19.15-4.66c12-2.92,19.82-2.93,25.41,5.66l-.25.16-74.06,43.71a31.42,31.42,0,0,0-30.48-1.86l-14.68-23.87,55.57-32.8,4.21,6.85.48.78A13.37,13.37,0,0,0,453.22,430.65Z"/><path class="cls-6" d="M444.2,418.66l-55.57,32.8L322.68,344.23A31.9,31.9,0,0,0,263.14,326c-24.71,15.65-52.54,32.84-89.26,16.68-30.19-13.28-25-47-19.41-65.31l23.17-3.45a70.92,70.92,0,0,0-6.77,24,3.83,3.83,0,0,0,6.12,3.5c12.86-9.84,34.38-25.35,46.9-34.33l81.55-12.12,3.52-.53.19,0a47.69,47.69,0,0,1,47.64,22.19Z"/><path class="cls-5" d="M155.45,194l-41.6-11.11a491.92,491.92,0,0,1,26.8-57.1,44.5,44.5,0,0,1,40.51-23.25c8.14.26,16.48.46,24.89.61a28.75,28.75,0,0,0,54.33.56c10.48.06,20.64.1,30.21.18a39,39,0,0,1,38.69,39.27c-.11,17.65-.65,35-1.65,52.87H284.7c-.48,6.2-.93,12.68-1.43,20a5.88,5.88,0,0,1-4.37,5.28c-52,13.72-86.84,23.84-101.26,52.55l-23.17,3.45-25.15,3.74c4.52-10.91,8.38-21.44,11.49-31.68h0c21.13-10.61,41-22,67.81-37.41l1.59-.92a6.06,6.06,0,0,0,2.55.56h26a6,6,0,0,0,6-6V181.09a33.06,33.06,0,0,0,4.63-19,4.09,4.09,0,0,0-4.63-3.79V153a6,6,0,0,0-6-6h-26a6,6,0,0,0-6,6v7.21a85.6,85.6,0,0,0-12.17,18.33,23.94,23.94,0,0,1-13.86,11.86l-27.29,8.92Z"/><path class="cls-2" d="M284.7,196.06h42.93c-.76,13.46-1.77,27.26-3.07,41.76A18.37,18.37,0,0,1,309,254.37l-3.52.53L223.89,267c-12.52,9-34,24.49-46.9,34.33a3.83,3.83,0,0,1-6.12-3.5,70.92,70.92,0,0,1,6.77-24c14.42-28.71,49.25-38.83,101.26-52.55a5.88,5.88,0,0,0,4.37-5.28C283.77,208.74,284.22,202.26,284.7,196.06Z"/><path class="cls-6" d="M322.68,344.23a32.06,32.06,0,0,1-1.07,6L277.84,507.71H214.1L260,333.59a31.9,31.9,0,0,1,62.64,10.64Z"/><path class="cls-2" d="M310.71,552.82H311c0,.19,0,.39,0,.58l.21,8.17H199.89l6.45-24.45a31.68,31.68,0,0,1,6.33,2.86,31.16,31.16,0,0,1,12.05,12.85Z"/><path class="cls-5" d="M275.55,520c.95,4.63,4.92,7.63,9.42,9,13.85,4.2,25.45,6.48,26,23.82h-86.3A31.16,31.16,0,0,0,212.67,540a31.68,31.68,0,0,0-6.33-2.86l7.76-29.4h63.74l-2,7.31A10.33,10.33,0,0,0,275.55,520Z"/><path class="cls-5" d="M278.31,5.56a29.69,29.69,0,0,1-3.81,11.8A70.69,70.69,0,0,0,265.9,41c-.44,2.56-.84,4.4-1,5a6.24,6.24,0,0,0-3.06-.93c.07-2.88.12-5.87.14-9a23.1,23.1,0,0,0-.29-3.71,2.28,2.28,0,0,0-3.11-1.73c-12.15,4.92-27.26,4.1-37.55-1.43a6.36,6.36,0,0,0-8.67,2.73L205.69,45a6.24,6.24,0,0,0-3.09.95C193.37,9.66,218,2.58,236,1.42s26.44,6.45,32.22,7.44S278.31,5.56,278.31,5.56Z"/><path class="cls-2" d="M264.93,45.92a7.52,7.52,0,0,1,3.45,6.46c0,4.09-3,7.41-6.72,7.41h-.4c-.19,3.08-.41,6.1-.66,9.12A26.92,26.92,0,0,1,234,93.57,26.6,26.6,0,0,1,216.3,87a27.57,27.57,0,0,1-9.37-18.51c-.24-2.88-.45-5.76-.63-8.7h-.4c-3.71,0-6.72-3.32-6.72-7.41a7.55,7.55,0,0,1,3.42-6.44,6.24,6.24,0,0,1,3.09-.95l6.7-13.14a6.36,6.36,0,0,1,8.67-2.73c10.29,5.53,25.4,6.35,37.55,1.43a2.28,2.28,0,0,1,3.11,1.73A23.1,23.1,0,0,1,262,36c0,3.13-.07,6.12-.14,9A6.24,6.24,0,0,1,264.93,45.92Z"/><path class="cls-2" d="M253.46,103.7l6.92,0a28.75,28.75,0,0,1-54.33-.56l7.7.13a2.09,2.09,0,0,0,2.12-2c.22-4.83.36-9.57.43-14.33a26.7,26.7,0,0,0,34.78.28c0,5.14.07,9.86.3,14.45A2.1,2.1,0,0,0,253.46,103.7Z"/><path class="cls-2" d="M153.44,199.36l27.29-8.92a23.94,23.94,0,0,0,13.86-11.86,85.6,85.6,0,0,1,12.17-18.33v17h.09c14.52-7,23.77-11.24,36.46-18.42a4.19,4.19,0,0,1,1.48-.5,4.09,4.09,0,0,1,4.63,3.79,33.06,33.06,0,0,1-4.63,19c-6.32,11-18.63,20.65-34.58,30l-1.59.92c-26.83,15.43-46.68,26.8-67.81,37.41-5.23,2.63-10.54,5.22-16,7.81-15.06,7.06-28.81-15.56-24.34-32.66a381.31,381.31,0,0,1,13.43-41.63L155.45,194Z"/><path class="cls-6" d="M244.79,181.09v24.54a6,6,0,0,1-6,6h-26a6.06,6.06,0,0,1-2.55-.56C226.16,201.74,238.47,192.07,244.79,181.09Z"/><path class="cls-6" d="M244.79,153v5.26a4.19,4.19,0,0,0-1.48.5c-12.69,7.18-21.94,11.44-36.46,18.42h-.09V153a6,6,0,0,1,6-6h26A6,6,0,0,1,244.79,153Z"/><path class="cls-3" d="M118.57,210.76l34.87-11.4,27.29-8.92a23.94,23.94,0,0,0,13.86-11.86,85.6,85.6,0,0,1,12.17-18.33"/><path class="cls-3" d="M244.79,181.09v24.54a6,6,0,0,1-6,6h-26a6.06,6.06,0,0,1-2.55-.56"/><path class="cls-3" d="M206.76,177.22V153a6,6,0,0,1,6-6h26a6,6,0,0,1,6,6v5.26"/><path class="cls-3" d="M206.85,177.22c14.52-7,23.77-11.24,36.46-18.42a4.19,4.19,0,0,1,1.48-.5,4.09,4.09,0,0,1,4.63,3.79,33.06,33.06,0,0,1-4.63,19c-6.32,11-18.63,20.65-34.58,30l-1.59.92c-26.83,15.43-46.68,26.8-67.81,37.41-5.23,2.63-10.54,5.22-16,7.81-15.06,7.06-28.81-15.56-24.34-32.66a381.31,381.31,0,0,1,13.43-41.63,491.92,491.92,0,0,1,26.8-57.1,44.5,44.5,0,0,1,40.51-23.25c8.14.26,16.48.46,24.89.61l7.7.13a2.09,2.09,0,0,0,2.12-2c.22-4.83.36-9.57.43-14.33"/><path class="cls-3" d="M305.44,254.9,223.89,267c-12.52,9-34,24.49-46.9,34.33a3.83,3.83,0,0,1-6.12-3.5,70.92,70.92,0,0,1,6.77-24c14.42-28.71,49.25-38.83,101.26-52.55a5.88,5.88,0,0,0,4.37-5.28c.5-7.33,1-13.81,1.43-20,1-12.24,2-23.39,3.87-37.78"/><path class="cls-3" d="M251.08,87.27c0,5.14.07,9.86.3,14.45a2.1,2.1,0,0,0,2.08,2l6.92,0c10.48.06,20.64.1,30.21.18a39,39,0,0,1,38.69,39.27c-.11,17.65-.65,35-1.65,52.87-.76,13.46-1.77,27.26-3.07,41.76A18.37,18.37,0,0,1,309,254.37"/><line class="cls-3" x1="155.45" y1="194.03" x2="153.44" y2="199.36"/><line class="cls-3" x1="169.18" y1="157.64" x2="155.45" y2="194.03"/><polyline class="cls-3" points="113.85 182.92 155.45 194.03 155.45 194.03"/><path class="cls-3" d="M305.44,254.9l3.52-.53.19,0a47.69,47.69,0,0,1,47.64,22.19L444.2,418.66l4.21,6.85.48.78a13.47,13.47,0,0,0,14.65,6l19.15-4.66c12-2.92,19.82-2.93,25.41,5.66.1.15.21.32.31.49l2.88,4.6a2.67,2.67,0,0,1-.91,3.71L419.1,496a2.68,2.68,0,0,1-3.63-.9l-12.16-19.78-14.68-23.87L322.68,344.23h0"/><line class="cls-3" x1="388.63" y1="451.46" x2="444.2" y2="418.66"/><line class="cls-7" x1="434.91" y1="433.48" x2="448.41" y2="425.51"/><line class="cls-7" x1="439.58" y1="438.7" x2="453.22" y2="430.65"/><path class="cls-3" d="M507.85,433.48l-74.06,43.71a31.42,31.42,0,0,0-30.48-1.86"/><line class="cls-3" x1="214.1" y1="507.71" x2="277.84" y2="507.71"/><path class="cls-3" d="M310.71,552.82h-86A31.16,31.16,0,0,0,212.67,540a31.68,31.68,0,0,0-6.33-2.86"/><path class="cls-3" d="M263.14,326a31.89,31.89,0,0,1,58.47,24.29L277.84,507.71l-2,7.31a10.33,10.33,0,0,0-.26,5c.95,4.63,4.92,7.63,9.42,9,13.85,4.2,25.45,6.48,26,23.82,0,.19,0,.39,0,.58l.21,8.17H199.89l6.45-24.45,7.76-29.4L260,333.59A31.74,31.74,0,0,1,263.14,326Z"/><path class="cls-3" d="M140.81,249.41c-3.11,10.24-7,20.77-11.49,31.68l25.15-3.74,23.17-3.45"/><path class="cls-3" d="M154.47,277.35c-5.55,18.35-10.78,52,19.41,65.31,36.72,16.16,64.55-1,89.26-16.68"/><polyline class="cls-3" points="284.7 196.06 327.63 196.06 327.63 196.06"/><path class="cls-3" d="M202.6,45.94a6.24,6.24,0,0,1,3.09-.95l6.7-13.14a6.36,6.36,0,0,1,8.67-2.73c10.29,5.53,25.4,6.35,37.55,1.43a2.28,2.28,0,0,1,3.11,1.73A23.1,23.1,0,0,1,262,36c0,3.13-.07,6.12-.14,9a6.24,6.24,0,0,1,3.06.93,7.52,7.52,0,0,1,3.45,6.46c0,4.09-3,7.41-6.72,7.41h-.4c-.19,3.08-.41,6.1-.66,9.12A26.92,26.92,0,0,1,234,93.57,26.6,26.6,0,0,1,216.3,87a27.57,27.57,0,0,1-9.37-18.51c-.24-2.88-.45-5.76-.63-8.7h-.4c-3.71,0-6.72-3.32-6.72-7.41A7.55,7.55,0,0,1,202.6,45.94Z"/><path class="cls-3" d="M264.91,46s0,0,0,0c.13-.56.53-2.4,1-5a70.69,70.69,0,0,1,8.6-23.6,29.69,29.69,0,0,0,3.81-11.8S274,9.85,268.23,8.86,254,.27,236,1.42,193.37,9.66,202.6,45.94"/><path class="cls-3" d="M243.09,51.53a12.88,12.88,0,0,0,8.68-.49"/><path class="cls-3" d="M224.47,51.53a12.88,12.88,0,0,1-8.68-.49"/><path class="cls-3" d="M233.43,49.82c.67,7.53,1.83,12,5.2,14.63a2.37,2.37,0,0,1,.92,1.65v.05a2.34,2.34,0,0,1-1.93,2.54l-5,.89"/><path class="cls-3" d="M206.05,103.18a28.75,28.75,0,0,0,54.33.56"/><path class="cls-3" d="M219,181.42s17.56-8.63,30.45-17.27"/><path class="cls-3" d="M222.42,188.46s13.4-6.58,25.39-14"/><path class="cls-3" d="M195.81,273.25l-9,11.78a8.24,8.24,0,0,0-.49,9.28"/><path class="cls-3" d="M183.85,276.71l-5.79,13.63a8.24,8.24,0,0,0,1.65,8.94"/><line class="cls-7" x1="259.19" y1="515.75" x2="274.86" y2="515.75"/><line class="cls-7" x1="260.31" y1="522.62" x2="276.15" y2="522.62"/><circle class="cls-4" cx="55.64" cy="77.37" r="45.14" transform="translate(-38.41 62.01) rotate(-45)"/><line class="cls-4" x1="62.39" y1="86.91" x2="39.13" y2="54.04"/><line class="cls-4" x1="48.74" y1="80.05" x2="79.98" y2="67.31"/></g></g></svg>