<svg xmlns="http://www.w3.org/2000/svg" viewBox="0 0 664.3 486.49"><defs><style>.cls-1{fill:#f0f0f0;}.cls-2{fill:#fff;}.cls-3{fill:#323433;}.cls-4{fill:#52cca7;}.cls-5,.cls-6{fill:none;stroke:#323433;stroke-linecap:round;stroke-linejoin:round;}.cls-5{stroke-width:2.61px;}.cls-6{stroke-width:1.74px;}</style></defs><title>Asset 4</title><g id="Layer_2" data-name="Layer 2"><g id="graphic"><ellipse class="cls-1" cx="346.1" cy="439.58" rx="318.2" ry="46.91"/><path class="cls-2" d="M615.12,272.23c1,27,1.6,49.77,1.67,72.59s-.68,45.6-1.67,72.6A17.85,17.85,0,0,1,597.7,434.6c-26,.6-47.84.75-69.53.67-21.7.08-43.54-.07-69.54-.67a17.84,17.84,0,0,1-17.41-17.18c-1-27-1.6-49.78-1.67-72.6,0-6.93.09-13.86.21-20.91a52.89,52.89,0,0,1-44.41-38.74,52.63,52.63,0,0,0,34.67,13,53.63,53.63,0,0,0,10.37-1c.23-8,.51-16.21.83-24.9a17.86,17.86,0,0,1,9.45-15.11l80-1.66a15.76,15.76,0,0,1,10.49,3.74l8.3,7.06a8.39,8.39,0,0,0,5.1,2l10.83.45a1.15,1.15,0,0,0,.86-2,25.27,25.27,0,0,0-9.65-6.14,2.45,2.45,0,0,1,1-4.72c10,.19,23.36-1.94,33.55-1.38h.16l6.38.54A17.84,17.84,0,0,1,615.12,272.23Z"/><path class="cls-2" d="M593.69,253a.87.87,0,0,1-.53,1.62c-.6-.06-1.21-.1-1.84-.14h-.16c-10.19-.56-23.55,1.57-33.55,1.38a2.45,2.45,0,0,0-1,4.72,25.27,25.27,0,0,1,9.65,6.14,1.15,1.15,0,0,1-.86,2l-10.83-.45a8.39,8.39,0,0,1-5.1-2l-8.3-7.06a15.76,15.76,0,0,0-10.49-3.74l-80,1.66-8.42.18a21.1,21.1,0,0,1-20.2-13.72c-6.65-17.84-12.13-33-17.54-48.46h0l37.65-13.2,12.72,38.24S545.6,224.67,593.69,253Z"/><path class="cls-3" d="M252.73,182h0l-33.55-18.48c14-18.77,28.39-38.86,44.19-61.54a30.47,30.47,0,0,1,21.15-12.75A206.89,206.89,0,0,1,319,87.58c-3.54,9.7-16.06,49,10,56.79,24.71,7.36,43.3-30.6,48.94-43.79,3.09,1.22,6.22,2.52,9.4,3.93,7.06,3.11,14.35,6.68,21.95,10.73a37,37,0,0,1,18.12,22.29l14.77,44.39-37.65,13.2h0c-4.34-12.42-8.63-25.05-13.46-39.47-13.79,35.51-66.16,40.12-84.41,76.54H269.58c-15,0-30.48-8.67-41.07-16.18a26.9,26.9,0,0,0,3.83-4.46C239.67,200.86,246.31,191.32,252.73,182Z"/><path class="cls-3" d="M406.9,28.76c4.66,13.86,11.49,32,29.26,40.23a70.62,70.62,0,0,1-48.84,35.52c-3.18-1.41-6.31-2.71-9.4-3.93s-6.22-2.38-9.29-3.43A351.7,351.7,0,0,1,378.42,61s9.55-.6,11.34-8.95-2.69-8.65-6.57-7.45C366.12,37.3,361.76,26.87,359,9.68a127.28,127.28,0,0,0-18.64,23.89A33.75,33.75,0,0,1,350.53,11h0a33.81,33.81,0,0,1,23.74-9.7C391.07,1.3,401.6,13,406.9,28.76Z"/><path class="cls-2" d="M338.08,37.49q1.14-2,2.31-3.92h0A127.28,127.28,0,0,1,359,9.68c2.73,17.19,7.09,27.62,24.16,34.9,3.88-1.2,8.36-.9,6.57,7.45S378.42,61,378.42,61a351.7,351.7,0,0,0-9.79,36.17q4.61,1.57,9.29,3.43c-5.64,13.19-24.23,51.15-48.94,43.79-26.07-7.77-13.55-47.09-10-56.79,2.94.13,5.86.32,8.77.6s5.85.62,8.76,1c3.07-7.34,5.33-13.94,6.13-19.3l-.62-.27a17.28,17.28,0,0,1-10.12-14.43,17.78,17.78,0,0,1,1.81-9.51q1.07-2.11,2.13-4.14l0,0a2.3,2.3,0,0,1-.5-3.35l0,0A12.83,12.83,0,0,0,338.08,37.49Z"/><path class="cls-4" d="M365.83,239.72a26.48,26.48,0,0,1,4.09,32.71l-30.31,49.68-43.05,70.54H239.08l14.29-24.17,19.37-32.78,23.08-39.05H237.21s-37.09,2.28-54.78-20.54c-12.31-15.88-5.54-37.57,2.4-52.37l25.81-.48A26.94,26.94,0,0,0,228.51,216c10.59,7.51,26.08,16.18,41.07,16.18h77.75A26.49,26.49,0,0,1,365.83,239.72Z"/><path class="cls-4" d="M368.69,364.24a38.16,38.16,0,0,1,.74,42.26l-.26.4A38.13,38.13,0,0,1,337,424.49H316.17c-6-13.35-32.41-10.89-32.41-10.89l12.8-21,43.05-70.54Z"/><path class="cls-3" d="M342,69.66l.62.27c-.8,5.36-3.06,12-6.13,19.3q-4.37-.65-8.76-1h0a70.82,70.82,0,0,1-17-22.4,51.73,51.73,0,0,0,21.16-10.54h0A17.28,17.28,0,0,0,342,69.66Z"/><path class="cls-2" d="M317.39,430.42a28.63,28.63,0,0,1-2.82,11.47H210l6.78-11.47Z"/><path class="cls-3" d="M317.39,430.42H216.76l6.88-11.64,15.44-26.13h57.48l-12.8,21s26.38-2.46,32.41,10.89A14.33,14.33,0,0,1,317.39,430.42Z"/><polygon class="cls-3" points="295.81 296.65 272.74 335.7 272.59 335.61 239.14 296.65 295.81 296.65"/><path class="cls-4" d="M253.37,368.48l-14.29,24.17-15.44,26.13-.46-.27H189.61l17.11-50.2H253.1Z"/><path class="cls-2" d="M252.72,182h0c-6.42,9.32-13.06,18.86-20.39,29.55a26.91,26.91,0,0,1-21.7,11.71l-25.81.48-72.08,1.65-.73-.1a5.24,5.24,0,0,0,1.4-2.33,28.92,28.92,0,0,0,1-7.93,29.58,29.58,0,0,0-.91-7.64,5.47,5.47,0,0,0-5.28-4H93.71c-7.39-.83-10.81-4.94-12.32-7.92a2.11,2.11,0,0,1,1.89-3.06h24.29a18,18,0,0,1,6,1c16.7,3.67,17.83,4.56,23.4,3.69L200,184.74a8.79,8.79,0,0,0,5.63-3.34q6.75-8.78,13.54-17.88Z"/><path class="cls-3" d="M206.72,368.32l-17.11,50.2h0c-21.31.35-37.07,22.21-58,19.1l49.13-76Z"/><polygon class="cls-2" points="180.78 361.64 131.65 437.62 119.42 432 167.43 358.19 180.78 361.64"/><path class="cls-2" d="M113.5,207.39a29.58,29.58,0,0,1,.91,7.64,28.92,28.92,0,0,1-1,7.93,5.24,5.24,0,0,1-1.4,2.33,5.51,5.51,0,0,1-3.1,1.51,33.69,33.69,0,0,0,3.6-7.44,4.48,4.48,0,0,0-8.39-3.15,19.83,19.83,0,0,1-5.36,7.44,35.62,35.62,0,0,0,1.8-4.29,4.48,4.48,0,0,0-8.39-3.15,19.94,19.94,0,0,1-5.36,7.44,35.62,35.62,0,0,0,1.8-4.29,4.48,4.48,0,0,0-8.39-3.15A20.2,20.2,0,0,1,69.9,226.85H34.14C35.67,225.07,37,220.9,37,215s-1.27-9.85-2.75-11.69h74A5.47,5.47,0,0,1,113.5,207.39Z"/><path class="cls-2" d="M108.29,213.41a4.48,4.48,0,0,1,4.23,6,33.69,33.69,0,0,1-3.6,7.44c-2.76,4.18-6.88,7.72-12.86,7.72A13.76,13.76,0,0,1,90,233.24c4.12-1.94,6.94-5.79,8.82-9.59a19.83,19.83,0,0,0,5.36-7.44A4.52,4.52,0,0,1,108.29,213.41Z"/><path class="cls-2" d="M96.34,213.41a4.48,4.48,0,0,1,4.23,6,35.62,35.62,0,0,1-1.8,4.29c-1.88,3.8-4.7,7.65-8.82,9.59a13.48,13.48,0,0,1-5.84,1.28A13.76,13.76,0,0,1,78,233.24h0c4.12-1.94,6.94-5.79,8.82-9.59a19.94,19.94,0,0,0,5.36-7.44A4.52,4.52,0,0,1,96.34,213.41Z"/><path class="cls-2" d="M84.38,213.41a4.48,4.48,0,0,1,4.24,6,35.62,35.62,0,0,1-1.8,4.29c-1.88,3.8-4.7,7.65-8.82,9.59a13.49,13.49,0,0,1-5.85,1.28c-6.83,0-10.17-3.71-11.8-7.67H69.9a20.2,20.2,0,0,0,10.33-10.64A4.52,4.52,0,0,1,84.38,213.41Z"/><path class="cls-3" d="M34.24,203.34C35.72,205.18,37,209.29,37,215s-1.32,10-2.85,11.81a3,3,0,0,1-.83.72L10.13,240c3.46-2.21,6.07-12.54,6.07-24.95s-2.61-22.74-6.07-24.95L33.31,202.5A3.53,3.53,0,0,1,34.24,203.34Z"/><path class="cls-2" d="M10.13,190.08c3.46,2.21,6.07,12.54,6.07,24.95S13.59,237.77,10.13,240a2.46,2.46,0,0,1-1.38.43c-4.11,0-7.45-11.36-7.45-25.38s3.34-25.38,7.45-25.38A2.55,2.55,0,0,1,10.13,190.08Z"/><path class="cls-5" d="M331.88,55.23a51.73,51.73,0,0,1-21.16,10.54,70.82,70.82,0,0,0,17,22.4"/><path class="cls-5" d="M387.32,104.51A70.62,70.62,0,0,0,436.16,69c-17.77-8.23-24.6-26.37-29.26-40.23C401.6,13,391.07,1.3,374.27,1.3A33.81,33.81,0,0,0,350.53,11h0a33.75,33.75,0,0,0-10.14,22.57"/><path class="cls-5" d="M280.81,140c-9.86,15.38-18.74,28.45-28.08,42-6.42,9.32-13.06,18.86-20.39,29.55a26.91,26.91,0,0,1-21.7,11.71l-25.81.48-72.08,1.65"/><path class="cls-5" d="M591.32,254.51c.63,0,1.24.08,1.84.14a.87.87,0,0,0,.53-1.62c-48.09-28.36-138.81-32.87-138.81-32.87l-12.72-38.24-14.77-44.39a37,37,0,0,0-18.12-22.29c-7.6-4-14.89-7.62-21.95-10.73-3.18-1.41-6.31-2.71-9.4-3.93s-6.22-2.38-9.29-3.43A351.7,351.7,0,0,1,378.42,61s9.55-.6,11.34-8.95-2.69-8.65-6.57-7.45C366.12,37.3,361.76,26.87,359,9.68a127.28,127.28,0,0,0-18.64,23.89h0q-1.17,1.92-2.31,3.92h0"/><path class="cls-5" d="M306.64,232.19c18.25-36.42,70.62-41,84.41-76.54,4.83,14.42,9.12,27,13.46,39.47,5.41,15.48,10.89,30.62,17.54,48.46a21.1,21.1,0,0,0,20.2,13.72l8.42-.18,80-1.66a15.76,15.76,0,0,1,10.49,3.74l8.3,7.06a8.39,8.39,0,0,0,5.1,2l10.83.45a1.15,1.15,0,0,0,.86-2,25.27,25.27,0,0,0-9.65-6.14,2.45,2.45,0,0,1,1-4.72c10,.19,23.36-1.94,33.55-1.38"/><path class="cls-5" d="M335.83,41.58q-1.06,2-2.13,4.14a17.78,17.78,0,0,0-1.81,9.51A17.28,17.28,0,0,0,342,69.66l.62.27c-.8,5.36-3.06,12-6.13,19.3q-4.37-.65-8.76-1c-2.91-.28-5.83-.47-8.77-.6a206.89,206.89,0,0,0-34.46,1.65A30.47,30.47,0,0,0,263.36,102c-15.8,22.68-30.19,42.77-44.19,61.54q-6.81,9.12-13.54,17.88a8.79,8.79,0,0,1-5.63,3.34l-63.08,12.31c-5.57.87-6.7,0-23.4-3.69a18,18,0,0,0-6-1H83.28a2.11,2.11,0,0,0-1.89,3.06c1.51,3,4.93,7.09,12.32,7.92"/><path class="cls-5" d="M591.16,254.5h.16l6.38.54a17.84,17.84,0,0,1,17.42,17.18c1,27,1.6,49.77,1.67,72.59s-.68,45.6-1.67,72.6A17.85,17.85,0,0,1,597.7,434.6c-26,.6-47.84.75-69.53.67-21.7.08-43.54-.07-69.54-.67a17.84,17.84,0,0,1-17.41-17.18c-1-27-1.6-49.78-1.67-72.6,0-6.93.09-13.86.21-20.91a52.89,52.89,0,0,1-44.41-38.74,52.63,52.63,0,0,0,34.67,13,53.63,53.63,0,0,0,10.37-1c.23-8,.51-16.21.83-24.9a17.86,17.86,0,0,1,9.45-15.11"/><line class="cls-5" x1="404.51" y1="195.12" x2="442.16" y2="181.92"/><line class="cls-5" x1="219.17" y1="163.52" x2="252.72" y2="182"/><path class="cls-5" d="M228.51,216c10.59,7.51,26.08,16.18,41.07,16.18h77.75a26.45,26.45,0,0,1,22.59,40.24l-30.31,49.68-43.05,70.54-12.8,21s26.38-2.46,32.41,10.89a14.33,14.33,0,0,1,1.22,5.92,28.63,28.63,0,0,1-2.82,11.47H210l6.78-11.47,6.88-11.64,15.44-26.13,14.29-24.17,19.37-32.78,23.08-39.05H237.21s-37.09,2.28-54.78-20.54c-12.31-15.88-5.54-37.57,2.4-52.37"/><path class="cls-5" d="M339.61,322.11l29.08,42.13a38.16,38.16,0,0,1,.74,42.26l-.26.4A38.13,38.13,0,0,1,337,424.49H316.17"/><path class="cls-5" d="M223.18,418.51H189.61c-21.31.35-37.07,22.21-58,19.1L119.42,432l48-73.81,13.35,3.45,25.94,6.68H253.1"/><line class="cls-5" x1="272.59" y1="335.61" x2="239.14" y2="296.65"/><line class="cls-5" x1="131.65" y1="437.62" x2="180.78" y2="361.64"/><line class="cls-5" x1="216.76" y1="430.42" x2="317.39" y2="430.42"/><line class="cls-5" x1="239.08" y1="392.65" x2="296.56" y2="392.65"/><line class="cls-5" x1="206.72" y1="368.32" x2="189.61" y2="418.52"/><path class="cls-5" d="M319,87.58c-3.54,9.7-16.06,49,10,56.79,24.71,7.36,43.3-30.6,48.94-43.79"/><path class="cls-5" d="M10.13,240a2.46,2.46,0,0,1-1.38.43c-4.11,0-7.45-11.36-7.45-25.38s3.34-25.38,7.45-25.38a2.55,2.55,0,0,1,1.38.43c3.46,2.21,6.07,12.54,6.07,24.95S13.59,237.77,10.13,240Z"/><path class="cls-5" d="M33.31,202.5a3.53,3.53,0,0,1,.93.84C35.72,205.18,37,209.29,37,215s-1.32,10-2.85,11.81a3,3,0,0,1-.83.72"/><line class="cls-5" x1="33.31" y1="202.5" x2="10.13" y2="190.08"/><line class="cls-5" x1="33.31" y1="227.56" x2="10.13" y2="239.98"/><path class="cls-5" d="M108.92,226.8a5.51,5.51,0,0,0,3.1-1.51,5.24,5.24,0,0,0,1.4-2.33,28.92,28.92,0,0,0,1-7.93,29.58,29.58,0,0,0-.91-7.64,5.47,5.47,0,0,0-5.28-4h-74"/><path class="cls-5" d="M34.14,226.85H69.9a20.2,20.2,0,0,0,10.33-10.64,4.48,4.48,0,0,1,8.39,3.15,35.62,35.62,0,0,1-1.8,4.29c-1.88,3.8-4.7,7.65-8.82,9.59a13.49,13.49,0,0,1-5.85,1.28c-6.83,0-10.17-3.71-11.8-7.67"/><path class="cls-5" d="M86.82,223.65a19.94,19.94,0,0,0,5.36-7.44,4.48,4.48,0,0,1,8.39,3.15,35.62,35.62,0,0,1-1.8,4.29c-1.88,3.8-4.7,7.65-8.82,9.59a13.48,13.48,0,0,1-5.84,1.28A13.76,13.76,0,0,1,78,233.24"/><path class="cls-5" d="M98.77,223.65a19.83,19.83,0,0,0,5.36-7.44,4.48,4.48,0,0,1,8.39,3.15,33.69,33.69,0,0,1-3.6,7.44c-2.76,4.18-6.88,7.72-12.86,7.72A13.76,13.76,0,0,1,90,233.24"/><path class="cls-5" d="M346.57,31.62a20.5,20.5,0,0,1-8.49,5.87,12.83,12.83,0,0,1-2.75.68l0,0a2.3,2.3,0,0,0,.5,3.35l0,0,2.9,2"/><polyline class="cls-6" points="26.93 324.06 39.02 314.77 51.04 324.16 63.14 314.86 75.16 324.26 87.26 314.96"/><line class="cls-6" x1="142.63" y1="149.68" x2="156.09" y2="162.11"/><line class="cls-6" x1="143.14" y1="162.62" x2="155.57" y2="149.16"/><rect class="cls-3" x="94.35" y="265.18" width="11.69" height="11.69" transform="translate(-162.3 150.23) rotate(-45)"/><circle class="cls-6" cx="497.35" cy="172.41" r="6.98"/><path class="cls-3" d="M495.94,329.19h-7.17l-3-16.15a56.08,56.08,0,0,1-1-7.82l-.16,1.56-.87,6.34-2.93,16.07h-7.17l-5.58-30.83h5.63l2.76,17.4q.39,2.61,1.07,8.2.53-5.65,1-8.08l3.29-17.52h5.95L491,315.88c.43,2.6.78,5.31,1,8.12q.74-6.24,1.07-8.24l2.68-17.4h5.67Z"/><path class="cls-3" d="M518.47,329.19H504.58V298.36h13.89v5h-8.16v7.34h7.57v5h-7.57v8.54h8.16Z"/><path class="cls-3" d="M548.22,329.19l-1.77-7.78h-8l-1.77,7.78h-5.74l7.63-30.95h7.78L554,329.19Zm-2.85-12.86-1.64-7.17c-.1-.44-.32-1.53-.67-3.28s-.55-2.92-.62-3.51q-.27,1.81-.69,4t-2.2,10Z"/><path class="cls-3" d="M562.43,317.19v12h-5.74V298.36h7.51c3.18,0,5.52.76,7,2.26s2.27,3.8,2.27,6.89q0,5.85-4,8.16l5.93,13.52h-6.14l-4.87-12Zm0-4.93h1.47a3.46,3.46,0,0,0,2.91-1.15,5.58,5.58,0,0,0,.89-3.43,4.84,4.84,0,0,0-.94-3.36,3.78,3.78,0,0,0-2.9-1h-1.43Z"/><path class="cls-3" d="M592.17,329.19H578.28V298.36h13.89v5H584v7.34h7.56v5H584v8.54h8.15Z"/><path class="cls-3" d="M489.42,371.79h-5.73V358.28h-7.57v13.51h-5.73V341h5.73v12.25h7.57V341h5.73Z"/><path class="cls-3" d="M495.9,371.79V341h5.39v30.82Z"/><path class="cls-3" d="M513.54,359.8v12h-5.73V341h7.5c3.18,0,5.52.76,7,2.26s2.27,3.8,2.27,6.89q0,5.85-3.94,8.16l5.92,13.51h-6.13l-4.87-12Zm0-4.93H515a3.46,3.46,0,0,0,2.91-1.15,5.58,5.58,0,0,0,.88-3.43,4.84,4.84,0,0,0-.94-3.36,3.78,3.78,0,0,0-2.9-1h-1.43Z"/><path class="cls-3" d="M530.43,371.79V341h5.39v30.82Z"/><path class="cls-3" d="M563.93,371.79h-7l-9.53-22.32h-.28a27.18,27.18,0,0,1,.53,5.48v16.84h-5.31V341h7l9.44,22.1h.24a29.76,29.76,0,0,1-.41-5.27V341h5.28Z"/><path class="cls-3" d="M578.68,354.7h9.43v15.81a21.5,21.5,0,0,1-8.52,1.71,9.56,9.56,0,0,1-8.28-4.09q-2.89-4.1-2.89-11.79,0-7.43,3.32-11.61a11.15,11.15,0,0,1,9.28-4.2,14,14,0,0,1,7,1.9l-1.81,4.68a9.84,9.84,0,0,0-4.89-1.52,5.91,5.91,0,0,0-5.18,2.92,14.45,14.45,0,0,0-1.9,8,18.27,18.27,0,0,0,1.38,7.95,4.34,4.34,0,0,0,4,2.76,11.62,11.62,0,0,0,2.83-.36v-7.06h-3.82Z"/><circle class="cls-6" cx="529.71" cy="394.59" r="4.21"/><line class="cls-6" x1="487.44" y1="394.59" x2="516.88" y2="394.59"/><line class="cls-6" x1="571.98" y1="394.59" x2="542.54" y2="394.59"/><path class="cls-3" d="M352.07,41.46h0a2.48,2.48,0,0,1-1.26-3.27l.67-1.5a2.48,2.48,0,0,1,3.27-1.26h0A2.48,2.48,0,0,1,356,38.7l-.66,1.5A2.48,2.48,0,0,1,352.07,41.46Z"/></g></g></svg>