<svg xmlns="http://www.w3.org/2000/svg" viewBox="0 0 678.31 545.25"><defs><style>.cls-1{fill:#f0f0f0;}.cls-2{fill:#fff;}.cls-3{fill:#323433;}.cls-4{fill:#52cca7;}.cls-5,.cls-6,.cls-7{fill:none;stroke-linecap:round;stroke-linejoin:round;}.cls-5,.cls-7{stroke:#323433;}.cls-5,.cls-6{stroke-width:2.61px;}.cls-6{stroke:#fff;}.cls-7{stroke-width:1.74px;}</style></defs><title>Asset 5</title><g id="Layer_2" data-name="Layer 2"><g id="graphic"><ellipse class="cls-1" cx="327.25" cy="497.01" rx="327.25" ry="48.24"/><path class="cls-2" d="M675.53,419.84c6.55,13.09-10.18,21.09-22.54,10.91s-24.71-19.89-24.71-19.89,3.42,15.1-.53,24.44a4.21,4.21,0,0,1-7.92-.6c-3.64-13.32-5.62-22.9-8.5-31.72a32.4,32.4,0,0,0-10-14.79c-37.44-31.29-66.92-56.63-93-85.26a37.94,37.94,0,0,0-9.3-7.43l-4.72-2.67L524,257.71c1.66,1.2,3.3,2.41,4.95,3.62a116.64,116.64,0,0,1,16,14.14C572.63,304.92,669.92,408.62,675.53,419.84Z"/><path class="cls-3" d="M617.61,132.07c0,9.75,8.71,13.44,8.71,21,0,11.44-19.9,14.34-19.9,26.23,0,8.21,13,8.5,13,19.73,0,9.85-13.44,10.35-14,24.77A40.37,40.37,0,0,1,585,221.87c-12.1-4.63-19.07-14.89-37.7-17.92-8.23-1.35-13.88-.49-25,1.06-26.69,3.71-47.19,7.17-63.38,6.77-19.69-.47-33-6.65-43.28-25-7.54-13.45-13.46-33.44-19.11-62.53a103.25,103.25,0,0,0-14.56-35.91,3,3,0,0,0-5.32.63c-2,5.76-3.74,10.85-5.31,15.7a11.53,11.53,0,0,1-2.28,4,31.52,31.52,0,0,1-3,3,1.21,1.21,0,0,0-.3,1.4l.06.12a11.3,11.3,0,0,1,.63,7.7l-.06.21A18.31,18.31,0,0,0,378,143.24l10.5,3.66a74.27,74.27,0,0,1-5.33,17.95c-7.5-4.09-14.65-7.76-21.38-10.93l-.53-.25c-30-72.3,28.66-100,60.92-76.92,16,11.45,16.61,37.22,44.67,48.1S543.56,114,565.9,111.11c17.25-2.22,42.35-3.75,63.7,3.59C623.33,119.21,617.61,124.31,617.61,132.07Z"/><path class="cls-4" d="M320.43,197.38c-21.14-12-51.73-24.18-69.37-27.57l5.66-9.39,24.58-40.84c28.95,13.71,60.61,25,79.94,34.09l.53.25c6.73,3.17,13.88,6.84,21.38,10.93a78.89,78.89,0,0,1-14.61,21.36,4.38,4.38,0,0,0,3.28,7.33c16.31-.18,28.95-1.88,43.74-6.79,10.29,18.38,23.59,24.56,43.28,25,21.42,14.45,43.48,30.09,65.14,45.93l-29.71,35.12-10,11.83L423.54,248c-23.09,43-31.82,74.83-36.08,112q-7.31-3.63-14.33-7.13c-30.45-15.22-56.86-28.78-80.65-42.28-13.83-7.84-26.78-15.67-39.12-23.78q-7.08-4.67-13.92-9.47C270.81,255.93,295.13,231.75,320.43,197.38Z"/><path class="cls-3" d="M467.07,414.42l54.8,89.22a86.14,86.14,0,0,1-12.52,1.43L455.6,417.55Z"/><path class="cls-4" d="M455.6,417.55l53.75,87.52c-29.31,1.19-50-13.38-76.82-20.23-.17-23.32-5.12-41.2-18-58.6q7.14-.71,14.21-2,5.94-1.1,11.8-2.6l2.31-.61Z"/><path class="cls-3" d="M429.19,403.13l11.37,18.5q-5.87,1.51-11.8,2.6l-11-18Z"/><path class="cls-4" d="M417.72,406.26l11,18q-7.06,1.31-14.21,2-4.29.42-8.6.63c-2.74.13-5.49.19-8.23.19H384.31A93.05,93.05,0,0,0,376.67,415,171.83,171.83,0,0,0,405,409.73Z"/><path class="cls-2" d="M414.55,426.24c12.86,17.4,17.81,35.28,18,58.6A105.64,105.64,0,0,0,406,481.4V426.87Q410.26,426.66,414.55,426.24Z"/><path class="cls-3" d="M406,481.4v10.76H214.17A38.44,38.44,0,0,1,188,481.89c-.59-.55-1.16-1.11-1.69-1.68a38.44,38.44,0,0,1-.59-52.35l90-98.89,16.78-18.45c23.79,13.5,50.2,27.06,80.65,42.28-9.8,33.38-36,51.33-63.9,63a330.18,330.18,0,0,1-32.56,11.28H397.72c2.74,0,5.49-.06,8.23-.19Z"/><path class="cls-2" d="M383.15,164.85a74.27,74.27,0,0,0,5.33-17.95L378,143.24a18.31,18.31,0,0,1-11.67-22.13l.06-.21a11.3,11.3,0,0,0-.63-7.7l-.06-.12a1.21,1.21,0,0,1,.3-1.4,31.52,31.52,0,0,0,3-3,11.53,11.53,0,0,0,2.28-4c1.57-4.85,3.31-9.94,5.31-15.7a3,3,0,0,1,5.32-.63,103.25,103.25,0,0,1,14.56,35.91c5.65,29.09,11.57,49.08,19.11,62.53-14.79,4.91-27.43,6.61-43.74,6.79a4.38,4.38,0,0,1-3.28-7.33A78.89,78.89,0,0,0,383.15,164.85Z"/><path class="cls-2" d="M384.31,427.06H368.07V415.58q4.31-.21,8.6-.63A93.05,93.05,0,0,1,384.31,427.06Z"/><path class="cls-3" d="M368.07,415.58v11.48h-91.4a330.18,330.18,0,0,0,32.56-11.28h50.61Q364,415.78,368.07,415.58Z"/><path class="cls-3" d="M275.7,329l-90,98.89a38.44,38.44,0,0,0,.59,52.35h-22a38.44,38.44,0,0,1-28.43-64.3l117.5-129.18c12.34,8.11,25.29,15.94,39.12,23.78Z"/><path class="cls-2" d="M127.93,11.17a29.93,29.93,0,0,1-3.22.09V2.18c3.54-.16,6.87-.43,10.12-.82a7.48,7.48,0,0,1,5.89,1.86c16.51,14.88,101.5,91.94,113.2,100.59a157.53,157.53,0,0,0,27.38,15.77l-24.58,40.84c-10.28-5.81-24.37-13.86-34.19-19.84-15-9.1-64.73-75.93-77.43-93.18a10.33,10.33,0,0,0-7.8-4.19,109.43,109.43,0,0,1-13-1.42v-3a5.4,5.4,0,0,0,2.09-3.15,50.85,50.85,0,0,1,1.78-5.49c1.38-3.68,3-7.22,3.58-10.29.75-3.68.13-6.68-3.79-8.43Z"/><circle class="cls-4" cx="118.6" cy="117.2" r="28.84"/><path class="cls-2" d="M128,11.46c3.92,1.75,4.54,4.75,3.79,8.43-2,1.89-5.53,2.48-9.43,2.4-7.6-.16-13.64-4.61-15.49-10.33h0l.06-.19a8.76,8.76,0,0,1,6.71-6.22c.25.33.5.65.76.94,2.8,3.29,5.85,4.66,10.36,4.77a29.93,29.93,0,0,0,3.22-.09Z"/><path class="cls-2" d="M131.74,19.89c-.63,3.07-2.2,6.61-3.58,10.29h0a16.83,16.83,0,0,1-7.91,1.34c-7.8-.17-14-4.85-15.63-10.79.9-3.88,1.74-7.33,2.21-8.77,1.85,5.72,7.89,10.17,15.49,10.33C126.21,22.37,129.74,21.78,131.74,19.89Z"/><path class="cls-2" d="M112.9,39.64A13.8,13.8,0,0,1,108.39,37,14.14,14.14,0,0,1,104,23.28c.19-.86.39-1.72.58-2.55,1.67,5.94,7.83,10.62,15.63,10.79a16.83,16.83,0,0,0,7.91-1.34h0a50.85,50.85,0,0,0-1.78,5.49,5.4,5.4,0,0,1-2.09,3.15c-1.73,1.28-4.29,1.69-7.08,1.62A13.84,13.84,0,0,1,112.9,39.64Z"/><path class="cls-2" d="M124.71,2.18v9.08c-4.51-.11-7.56-1.48-10.36-4.77l.29-4.06a1.69,1.69,0,0,1,.33,0C118.42,2.38,121.65,2.32,124.71,2.18Z"/><path class="cls-2" d="M124.29,41.79V80.45H112.9V39.64a13.84,13.84,0,0,0,4.31.8c2.79.07,5.35-.34,7.08-1.62Z"/><path class="cls-2" d="M114.64,2.43l-.29,4.06c-.26-.29-.51-.61-.76-.94a1.09,1.09,0,0,0-.13-.17A1.88,1.88,0,0,1,114.64,2.43Z"/><path class="cls-2" d="M112.9,39.64V46c-12.93,21.75-31,23.86-31,23.86L76.3,56.54c14.9-3.48,22.8-7.6,32.09-19.59A13.8,13.8,0,0,0,112.9,39.64Z"/><path class="cls-3" d="M379.33,114.53h0a2.25,2.25,0,0,1-1.94-2.54l.43-3.18a2.25,2.25,0,0,1,2.54-1.94h0a2.26,2.26,0,0,1,1.94,2.54l-.43,3.18A2.26,2.26,0,0,1,379.33,114.53Z"/><path class="cls-5" d="M320.44,197.38h0c-21.14-12-51.73-24.18-69.37-27.57l5.66-9.39,24.58-40.84c28.95,13.71,60.61,25,79.94,34.09l.53.25c6.73,3.17,13.88,6.84,21.38,10.93h0"/><path class="cls-5" d="M334.14,177.94c-4.63,6.84-9.18,13.3-13.71,19.44-25.3,34.37-49.62,58.55-81,79.89q6.84,4.82,13.92,9.47c12.34,8.11,25.29,15.94,39.12,23.78,23.79,13.5,50.2,27.06,80.65,42.28q7,3.51,14.33,7.13c4.26-37.15,13-69,36.08-112l60.72,56.71,10-11.83L524,257.71h0"/><path class="cls-5" d="M281.3,119.58a157.53,157.53,0,0,1-27.38-15.77c-11.7-8.65-96.69-85.71-113.2-100.59a7.48,7.48,0,0,0-5.89-1.86c-3.25.39-6.58.66-10.12.82-3.06.14-6.29.2-9.74.22a1.69,1.69,0,0,0-.33,0,1.88,1.88,0,0,0-1.18,2.95,1.09,1.09,0,0,1,.13.17c.25.33.5.65.76.94,2.8,3.29,5.85,4.66,10.36,4.77a29.93,29.93,0,0,0,3.22-.09l.36,0c6.79-.58,11.46,9,21.28,8.74"/><path class="cls-5" d="M256.72,160.42c-10.28-5.81-24.37-13.86-34.19-19.84-15-9.1-64.73-75.93-77.43-93.18a10.33,10.33,0,0,0-7.8-4.19,109.43,109.43,0,0,1-13-1.42"/><path class="cls-5" d="M106.82,12c-.47,1.44-1.31,4.89-2.21,8.77-.19.83-.39,1.69-.58,2.55A14.14,14.14,0,0,0,108.39,37a13.67,13.67,0,0,0,8.82,3.49c2.79.07,5.35-.34,7.08-1.62a5.4,5.4,0,0,0,2.09-3.15,50.85,50.85,0,0,1,1.78-5.49c1.38-3.68,3-7.22,3.58-10.29.75-3.68.13-6.68-3.79-8.43"/><path class="cls-5" d="M113.59,5.55a8.76,8.76,0,0,0-6.71,6.22l-.06.19"/><path class="cls-5" d="M104.61,20.73c1.67,5.94,7.83,10.62,15.63,10.79a16.83,16.83,0,0,0,7.91-1.34"/><path class="cls-5" d="M106.82,12h0c1.85,5.72,7.89,10.17,15.49,10.33,3.9.08,7.43-.51,9.43-2.4"/><polyline class="cls-5" points="112.9 39.63 112.9 39.64 112.9 46.02 112.9 80.45 118.6 80.45 124.29 80.45 124.29 41.79 124.29 38.82"/><circle class="cls-5" cx="118.6" cy="117.2" r="28.84"/><line class="cls-5" x1="118.6" y1="80.45" x2="118.6" y2="88.36"/><polyline class="cls-5" points="114.35 6.49 114.64 2.43 114.64 2.43"/><line class="cls-5" x1="124.71" y1="2.18" x2="124.71" y2="11.26"/><path class="cls-5" d="M108.4,37h0C99.1,48.94,91.2,53.06,76.3,56.54l5.56,13.34S100,67.77,112.9,46"/><path class="cls-5" d="M253.36,286.74,135.86,415.92a38.44,38.44,0,0,0,28.43,64.3h22"/><path class="cls-5" d="M181.78,474.42a38.35,38.35,0,0,0,4.55,5.79c.53.57,1.1,1.13,1.69,1.68a38.44,38.44,0,0,0,26.15,10.27H406V426.87"/><path class="cls-6" d="M289.67,313.61,275.7,329l-90,98.89a38.46,38.46,0,0,0-4,46.56"/><path class="cls-5" d="M362.19,427.06h35.53c2.74,0,5.49-.06,8.23-.19s5.74-.35,8.6-.63q7.14-.71,14.21-2,5.94-1.1,11.8-2.6l2.31-.61,12.73-3.47,11.47-3.13,54.8,89.22a86.14,86.14,0,0,1-12.52,1.43c-29.31,1.19-50-13.38-76.82-20.23A105.64,105.64,0,0,0,406,481.4"/><path class="cls-5" d="M373.13,352.8c-9.8,33.38-36,51.33-63.9,63a330.18,330.18,0,0,1-32.56,11.28"/><polyline class="cls-5" points="455.6 417.55 509.35 505.07 509.35 505.07"/><path class="cls-5" d="M414.55,426.24c12.86,17.4,17.81,35.28,18,58.6"/><line class="cls-5" x1="368.07" y1="427.06" x2="368.07" y2="415.58"/><path class="cls-5" d="M309.23,415.78h50.61q4.13,0,8.23-.2,4.31-.21,8.6-.63A171.83,171.83,0,0,0,405,409.73l12.72-3.47,11.47-3.13,11.37,18.5"/><line class="cls-5" x1="417.72" y1="406.26" x2="428.76" y2="424.23"/><path class="cls-5" d="M376.67,415a93.05,93.05,0,0,1,7.64,12.11"/><path class="cls-6" d="M274.6,313.35s.17,8.08,1.1,15.62"/><path class="cls-5" d="M494.27,292.83,499,295.5a37.94,37.94,0,0,1,9.3,7.43c26.09,28.63,55.57,54,93,85.26a32.4,32.4,0,0,1,10,14.79c2.88,8.82,4.86,18.4,8.5,31.72a4.21,4.21,0,0,0,7.92.6c4-9.34.53-24.44.53-24.44s12.34,9.71,24.71,19.89,29.09,2.18,22.54-10.91c-5.61-11.22-102.9-114.92-130.63-144.37a116.64,116.64,0,0,0-16-14.14c-1.65-1.21-3.29-2.42-4.95-3.62-21.66-15.84-43.72-31.48-65.14-45.93"/><path class="cls-5" d="M415.56,186.75c-14.79,4.91-27.43,6.61-43.74,6.79a4.38,4.38,0,0,1-3.28-7.33,78.89,78.89,0,0,0,14.61-21.36,74.27,74.27,0,0,0,5.33-17.95L378,143.24a18.31,18.31,0,0,1-11.67-22.13l.06-.21a11.3,11.3,0,0,0-.63-7.7l-.06-.12a1.21,1.21,0,0,1,.3-1.4,31.52,31.52,0,0,0,3-3,11.53,11.53,0,0,0,2.28-4c1.57-4.85,3.31-9.94,5.31-15.7a3,3,0,0,1,5.32-.63,103.25,103.25,0,0,1,14.56,35.91c5.65,29.09,11.57,49.08,19.11,62.53,10.29,18.38,23.59,24.56,43.28,25,16.19.4,36.69-3.06,63.38-6.77,11.15-1.55,16.8-2.41,25-1.06,18.63,3,25.6,13.29,37.7,17.92a40.37,40.37,0,0,0,20.44,1.93c.56-14.42,14-14.92,14-24.77,0-11.23-13-11.52-13-19.73,0-11.89,19.9-14.79,19.9-26.23,0-7.56-8.71-11.25-8.71-21,0-7.76,5.72-12.86,12-17.37-21.35-7.34-46.45-5.81-63.7-3.59-22.34,2.86-71,24.62-99.07,13.74S438.2,88.2,422.16,76.75c-32.26-23-90.9,4.62-60.92,76.92"/><line class="cls-6" x1="276.67" y1="427.06" x2="362.19" y2="427.06"/><polyline class="cls-7" points="297.9 79.24 301.37 63.39 317.58 62.79 321.06 46.94 337.27 46.34 340.75 30.49"/><line class="cls-7" x1="190.39" y1="190.22" x2="204.23" y2="203"/><line class="cls-7" x1="190.92" y1="203.53" x2="203.7" y2="189.69"/><rect class="cls-3" x="139.94" y="164.36" width="12.02" height="12.02" transform="translate(-77.72 153.1) rotate(-45)"/><path class="cls-7" d="M264.53,38.45a7.18,7.18,0,1,0-7.18,7.19A7.18,7.18,0,0,0,264.53,38.45Z"/><path class="cls-3" d="M113.5,105.85h8.55v23.53h-3.77v-20H113.5Z"/></g></g></svg>