<svg xmlns="http://www.w3.org/2000/svg" viewBox="0 0 585.93 607.13"><defs><style>.cls-1{fill:#f0f0f0;}.cls-2,.cls-6,.cls-7{fill:none;}.cls-2,.cls-6,.cls-8{stroke:#323433;}.cls-2,.cls-6,.cls-7,.cls-8{stroke-linecap:round;stroke-linejoin:round;}.cls-2{stroke-width:1.74px;}.cls-3,.cls-8{fill:#323433;}.cls-4{fill:#fff;}.cls-5{fill:#52cca7;}.cls-6,.cls-7,.cls-8{stroke-width:2.61px;}.cls-7{stroke:#fff;}</style></defs><title>Asset 3</title><g id="Layer_2" data-name="Layer 2"><g id="graphic"><ellipse class="cls-1" cx="288.18" cy="571.58" rx="192.09" ry="35.55"/><polyline class="cls-2" points="52.62 186.44 64.83 177.05 76.97 186.54 89.19 177.15 101.32 186.63 113.54 177.25"/><line class="cls-2" x1="416.49" y1="230.72" x2="430.08" y2="243.27"/><line class="cls-2" x1="417.01" y1="243.79" x2="429.56" y2="230.2"/><path class="cls-2" d="M477.08,126.46a7.06,7.06,0,1,0-7.06,7.06A7.06,7.06,0,0,0,477.08,126.46Z"/><path class="cls-3" d="M242,505.89c0-1.82,0-4,0-6.52l52.19-12.19h0l-.89,13-1.15,16.85h0l-80,39.55c-1.24-3.1-2.35-5.88-2.4-6-5.65-11.79,29.94-21,32.15-37.31a12.22,12.22,0,0,0,.1-2.1C242.06,510.18,242,508.37,242,505.89Z"/><path class="cls-4" d="M584.24,149.5a7.55,7.55,0,0,1,.15,4.18,9.38,9.38,0,0,1-2.67,2.7c-1.58,1.24-3.69,2.71-6,4.21a10.83,10.83,0,0,1-7,1.74l-30.49-2.78a26.82,26.82,0,0,0-13.06,2.09l-90,38.86a13.73,13.73,0,0,1-11.73-.4l-39.32-20.24,19.68-36.92L428.89,159a4.1,4.1,0,0,0,3.13.56l74.88-16.73a24.6,24.6,0,0,0,11-5.58c5.07-4.5,14.06-11.54,24-15a1.54,1.54,0,0,1,2.07,1.54c-.2,2.73-2.55,7.6-7.21,11.16,7.88,1.23,29.38,2.83,43.48,7.37a3.76,3.76,0,0,1,2.29,2.09A31.85,31.85,0,0,1,584.24,149.5Z"/><path class="cls-3" d="M213.59,152l-34.4,14.84-2.66-10.13-9.73-37-.23-.58L234.05,91.7a40.85,40.85,0,0,1,25.12-1.81c4.12,1,8.08,1.92,12,2.76-2.1,9-.91,17.54,9.58,21.51,9.85,3.72,31-2.2,41.83-12.32L335.22,104a52.73,52.73,0,0,1,19.65,7.59l49,31.38-19.68,36.92-3.55,6.67L328.33,160.4c-8.16,32.85-4.38,56.36,13.3,85.81C330.68,245,320.53,243.57,311,242c-41.74-6.67-72.72-16.24-112.9-31.91A567.84,567.84,0,0,1,213.59,152Z"/><path class="cls-3" d="M340.69,27.54c3.08,9.47.36,34.54-20.82,47l3.05-13.16s7.82.63,8.67-7-7.95-3.52-8.24-3.39c.3-.22,10.54-8.12,8.66-14.16-1.47-4.77-23.75-10-35.9-16.13-3.5-1.74-6.15-3.56-7.24-5.45C284,6.82,292.47-2.07,303.25,2.59s8.25,10.78,15.65,14.8S337.51,17.81,340.69,27.54Z"/><polygon class="cls-3" points="339.41 431.46 294.66 481.35 298.36 427.02 317.45 407.78 339.41 431.46"/><path class="cls-4" d="M288.82,35c2.23-4.5,4.62-9.19,7.29-14.32,12.15,6.09,34.43,11.36,35.9,16.13,1.88,6-8.36,13.94-8.66,14.16.29-.13,9.07-4.1,8.24,3.39s-8.67,7-8.67,7l-3.05,13.16-5.29,22.81a2.93,2.93,0,0,0,2.39,3.56l5.6.93c-10.82,10.12-32,16-41.83,12.32-10.49-4-11.68-12.48-9.58-21.51q2.88.63,5.76,1.21a4.78,4.78,0,0,0,5.26-2.66l7.29-15.62a3.44,3.44,0,0,0-1.27-4.37c-1.12-.71-2.15-1.39-3.12-2.07a13.46,13.46,0,0,1-4.56-16.64C283.2,46.63,285.87,41,288.82,35Z"/><polygon class="cls-5" points="300.88 389.91 317.45 407.78 298.36 427.02 300.88 389.91"/><path class="cls-5" d="M300.88,389.91,298.35,427l-3.69,54.33h0l-.39,5.82h0l-52.19,12.19c.12-17.81.74-52,1.49-89.41h0L205.37,366a62.09,62.09,0,0,1-15.09-37.35c-2.4-44.08-.12-80.31,7.78-118.55C238.24,225.8,269.22,235.37,311,242Z"/><path class="cls-4" d="M1.31,116.87a4.43,4.43,0,0,1,.55-2.36c.4-.73.8-1.44,1.21-2.14s.66-1.15,1-1.71A10.71,10.71,0,0,1,10,105.91L47.59,93.42l-2.88-7.81a4.29,4.29,0,0,1,7.07-4.52L67.36,96.67a14.82,14.82,0,0,0,6.9,3.91l82.31,20.6a9.66,9.66,0,0,0,6-.42l4-1.62.23.58,9.73,37-12.75,4.32a19.06,19.06,0,0,1-13.72-.56c-20.58-8.93-82.1-35.45-96-39.63-10.64-3.2-32.84-1.45-47.69.27A4.52,4.52,0,0,1,1.31,116.87Z"/><path class="cls-6" d="M198.06,210.13h0C238.24,225.8,269.22,235.37,311,242c9.57,1.53,19.72,2.91,30.67,4.17-17.68-29.45-21.46-53-13.3-85.81l52.27,26.13,3.55-6.67,19.68-36.92"/><path class="cls-6" d="M323.34,51h0c.3-.22,10.54-8.12,8.66-14.16-1.47-4.77-23.75-10-35.9-16.13-3.5-1.74-6.15-3.56-7.24-5.45C284,6.82,292.47-2.07,303.25,2.59s8.25,10.78,15.65,14.8,18.61.42,21.79,10.15c3.08,9.47.36,34.54-20.82,47"/><path class="cls-6" d="M384.15,179.86l39.32,20.24a13.73,13.73,0,0,0,11.73.4l90-38.86a26.82,26.82,0,0,1,13.06-2.09l30.49,2.78a10.83,10.83,0,0,0,7-1.74c2.31-1.5,4.42-3,6-4.21a9.38,9.38,0,0,0,2.67-2.7,7.55,7.55,0,0,0-.15-4.18,31.85,31.85,0,0,0-1.77-5.08,3.76,3.76,0,0,0-2.29-2.09c-14.1-4.54-35.6-6.14-43.48-7.37,4.66-3.56,7-8.43,7.21-11.16a1.54,1.54,0,0,0-2.07-1.54c-9.93,3.45-18.92,10.49-24,15a24.6,24.6,0,0,1-11,5.58L432,159.56a4.1,4.1,0,0,1-3.13-.56l-25.06-16.06-49-31.38A52.73,52.73,0,0,0,335.22,104l-12.65-2.13-5.6-.93a2.93,2.93,0,0,1-2.39-3.56l5.29-22.81,3.05-13.16s7.82.63,8.67-7-7.95-3.52-8.24-3.39"/><polyline class="cls-6" points="166.81 119.72 176.53 156.74 179.19 166.87 213.59 152.03"/><path class="cls-6" d="M224.06,121.11c-3.83,10.76-7.32,21-10.47,30.92a567.84,567.84,0,0,0-15.53,58.1c-7.9,38.24-10.18,74.47-7.78,118.55A62.09,62.09,0,0,0,205.37,366L243.54,410"/><path class="cls-6" d="M294.65,481.36l-.39,5.82-.89,13-1.15,16.85-.79,11.57-75.8,36.44s-1.78-4.49-3.37-8.46c-1.24-3.1-2.35-5.88-2.4-6-5.65-11.79,29.94-21,32.15-37.31a12.22,12.22,0,0,0,.1-2.1c-.05-1-.07-2.85-.07-5.33,0-1.82,0-4,0-6.52.12-17.81.74-52,1.49-89.41,1.06-52.94,2.4-112.25,3-140.39.24-10.4.39-16.55.39-16.55"/><polyline class="cls-6" points="310.96 242.04 300.88 389.91 298.36 427.02 294.66 481.35"/><line class="cls-6" x1="212.26" y1="556.61" x2="292.22" y2="517.06"/><line class="cls-6" x1="242.06" y1="499.37" x2="294.25" y2="487.18"/><polyline class="cls-6" points="300.88 389.91 300.88 389.91 317.45 407.78 339.41 431.46 346.19 438.77 293.37 500.21"/><polyline class="cls-6" points="298.36 427.02 317.45 407.78 317.46 407.78"/><polyline class="cls-6" points="294.65 481.36 294.66 481.35 339.41 431.46"/><path class="cls-6" d="M230.52,249c1.19,6.75,7.22,15.48,16.07,20.59"/><path class="cls-6" d="M296.11,20.72c-2.67,5.13-5.06,9.82-7.29,14.32-2.95,6-5.62,11.59-8.3,17.46a13.46,13.46,0,0,0,4.56,16.64c1,.68,2,1.36,3.12,2.07a3.44,3.44,0,0,1,1.27,4.37L282.18,91.2a4.78,4.78,0,0,1-5.26,2.66q-2.88-.58-5.76-1.21c-3.91-.84-7.87-1.75-12-2.76a40.85,40.85,0,0,0-25.12,1.81l-67.48,27.44-4,1.62a9.66,9.66,0,0,1-6,.42l-82.31-20.6a14.82,14.82,0,0,1-6.9-3.91L51.78,81.09a4.3,4.3,0,0,0-7.07,4.52l2.88,7.81L10,105.91a10.71,10.71,0,0,0-5.89,4.75q-.49.84-1,1.71c-.41.7-.81,1.41-1.21,2.14a4.43,4.43,0,0,0-.55,2.36,4.52,4.52,0,0,0,5,4.27c14.85-1.72,37.05-3.47,47.69-.27,13.93,4.18,75.45,30.7,96,39.63a19.06,19.06,0,0,0,13.72.56l12.75-4.32"/><path class="cls-6" d="M303.37,41c2.17-1.15,5.49,0,6.65,2.6"/><path class="cls-6" d="M288.82,35A4.94,4.94,0,0,1,290.37,37"/><path class="cls-6" d="M298.32,37.12c-3.59,4.71-6,7.56-9.11,7.82a2.08,2.08,0,0,0-2,2.08,2.07,2.07,0,0,0,1.18,1.87L290.66,50"/><path class="cls-6" d="M271.16,92.65c-2.1,9-.91,17.54,9.58,21.51,9.85,3.72,31-2.2,41.83-12.32"/><path class="cls-6" d="M3.07,112.37c12.64-3.6,35.3-9.91,40.74-10.51"/><path class="cls-6" d="M1.31,116.87c13.19-2.58,33.59-6.43,38.7-6.57"/><path class="cls-6" d="M545.31,143.19s23.52,3.21,38.93,6.31"/><path class="cls-6" d="M544.05,151.27s22.71,2.31,37.67,5.11"/><line class="cls-7" x1="249.96" y1="510.49" x2="242.01" y2="513.32"/><line class="cls-7" x1="249.09" y1="504.07" x2="242.04" y2="505.89"/><path class="cls-6" d="M319.72,208.35c21.83-3.88,40.52-1.33,50.73,12.92,9.62,13.42,5.29,30.07-7.83,47.38"/><path class="cls-7" d="M198.41,263.27c27.79-17.48,80.14-47.61,121.31-54.92"/><path class="cls-6" d="M333.61,297.58a317.31,317.31,0,0,1-27.8,20"/><path class="cls-6" d="M203.85,364.2c-36,9.71-66,9.06-75.77-9.3-13.14-24.75,13.32-50.82,23.74-59.75"/><polygon class="cls-8" points="146.09 289.23 165.86 282.83 157.72 301.24 146.09 289.23"/><path class="cls-6" d="M371.15,197.28c-12.61,8.73-26.36,17.51-40.82,26.12"/><path class="cls-6" d="M121.46,313.93c-26.54,5.76-45.3,5.2-50.47-4.32s4.69-25.47,24.07-44.54"/><path class="cls-6" d="M346.54,112.83c47.39-17.45,84.56-22.17,94-3.19,5.31,10.63-.12,24.34-13.06,39.64"/><path class="cls-7" d="M208.66,181.61c45.89-27.85,95.9-53.31,137.88-68.78"/><path class="cls-6" d="M128.59,236.15c22.86-17.82,50.62-36.67,80.07-54.54"/><path class="cls-4" d="M363.28,269.46a20.55,20.55,0,1,1-28.81-3.79A20.55,20.55,0,0,1,363.28,269.46Z"/><path class="cls-6" d="M363.28,269.46a20.55,20.55,0,1,1-28.81-3.79A20.55,20.55,0,0,1,363.28,269.46Z"/><polyline class="cls-6" points="340.29 288.09 350.23 288.89 350.57 268.51"/><path class="cls-4" d="M107,224.5l2.39-1.86a6.84,6.84,0,0,1,9.6,1.2l18.57,23.86a6.83,6.83,0,0,1-1.2,9.6l-23.86,18.57a6.83,6.83,0,0,1-9.6-1.19L84.35,250.81a6.83,6.83,0,0,1,1.2-9.6l2.18-1.7Zm10.42,33.07a6.62,6.62,0,0,0-8.09-10.47,3.92,3.92,0,1,0-5.51-.68,3.92,3.92,0,0,0,5.51.68,6.62,6.62,0,0,0,8.13,10.44Z"/><path class="cls-4" d="M118.59,248.29a6.61,6.61,0,1,1-9.28-1.16s0,0,0,0A6.61,6.61,0,0,1,118.59,248.29Z"/><path class="cls-4" d="M110,241.6a3.92,3.92,0,0,1-.69,5.5s0,0,0,0a3.92,3.92,0,1,1,.73-5.53Z"/><path class="cls-6" d="M107,224.5l2.39-1.86a6.84,6.84,0,0,1,9.6,1.2l18.57,23.86a6.83,6.83,0,0,1-1.2,9.6l-23.86,18.57a6.83,6.83,0,0,1-9.6-1.19L84.35,250.81a6.83,6.83,0,0,1,1.2-9.6l2.18-1.7Z"/><path class="cls-6" d="M109.35,247.1a3.92,3.92,0,1,0-5.51-.68,3.92,3.92,0,0,0,5.51.68"/><path class="cls-6" d="M109.31,247.13a6.62,6.62,0,1,0,9.28,1.16,6.61,6.61,0,0,0-9.28-1.16S109.33,247.12,109.31,247.13Z"/><polyline class="cls-6" points="90.96 243.66 87.73 239.51 84.04 234.78"/><polyline class="cls-6" points="110.25 228.65 107.02 224.5 103.34 219.76"/></g></g></svg>